<?xml version="1.0" encoding="utf-8"?>
<!-- Generator: Adobe Illustrator 21.0.2, SVG Export Plug-In . SVG Version: 6.00 Build 0)  -->
<svg version="1.1" id="Layer_1" xmlns="http://www.w3.org/2000/svg" xmlns:xlink="http://www.w3.org/1999/xlink" x="0px" y="0px"
	 viewBox="0 0 131.7 130.9" style="enable-background:new 0 0 131.7 130.9;" xml:space="preserve">
<style type="text/css">
	.st0{fill:#3E3D63;}
	.st1{fill:#F1F2F2;}
	.st2{fill:url(#XMLID_2_);}
	.st3{fill:url(#XMLID_3_);}
	.st4{fill:url(#XMLID_4_);}
	.st5{fill:url(#XMLID_5_);}
	.st6{fill:url(#XMLID_6_);}
	.st7{fill:url(#XMLID_7_);}
	.st8{fill:url(#XMLID_8_);}
	.st9{fill:url(#XMLID_9_);}
	.st10{fill:url(#XMLID_10_);}
	.st11{fill:#ED1C24;}
	.st12{display:none;fill:url(#XMLID_11_);}
	.st13{display:none;fill:url(#XMLID_12_);}
	.st14{fill:#FFFFFF;}
	.st15{fill:url(#XMLID_13_);}
	.st16{fill:url(#XMLID_14_);}
	.st17{fill:url(#XMLID_15_);}
	.st18{fill:url(#XMLID_16_);}
	.st19{fill:url(#XMLID_17_);}
	.st20{fill:url(#XMLID_18_);}
	.st21{fill:url(#XMLID_19_);}
	.st22{fill:url(#XMLID_20_);}
	.st23{fill:url(#XMLID_21_);}
	.st24{fill:url(#XMLID_22_);}
	.st25{fill:url(#XMLID_23_);}
	.st26{fill:url(#XMLID_24_);}
	.st27{fill:#00AEEF;}
	.st28{fill:url(#XMLID_25_);}
	.st29{fill:url(#XMLID_26_);}
	.st30{fill:url(#SVGID_1_);}
	.st31{fill:url(#SVGID_2_);}
	.st32{fill:url(#SVGID_3_);}
	.st33{fill:url(#SVGID_4_);}
	.st34{fill:url(#XMLID_27_);}
	.st35{fill:url(#XMLID_28_);}
	.st36{fill:url(#XMLID_29_);}
	.st37{fill:url(#XMLID_30_);}
	.st38{fill:url(#XMLID_31_);}
	.st39{fill:url(#XMLID_32_);}
	.st40{fill:url(#XMLID_33_);}
	.st41{fill:url(#XMLID_34_);}
	.st42{fill:url(#XMLID_35_);}
	.st43{fill:url(#XMLID_36_);}
	.st44{fill:url(#XMLID_37_);}
	.st45{fill:url(#XMLID_38_);}
	.st46{fill:#92278F;}
	.st47{fill:url(#XMLID_39_);}
	.st48{fill:url(#XMLID_40_);}
	.st49{fill:url(#SVGID_5_);}
	.st50{fill:url(#SVGID_6_);}
	.st51{fill:url(#SVGID_7_);}
	.st52{fill:url(#SVGID_8_);}
	.st53{fill:url(#XMLID_41_);}
	.st54{fill:url(#XMLID_42_);}
	.st55{fill:url(#XMLID_43_);}
	.st56{fill:url(#XMLID_44_);}
	.st57{fill:url(#XMLID_45_);}
	.st58{fill:url(#XMLID_46_);}
	.st59{fill:url(#XMLID_47_);}
	.st60{fill:url(#XMLID_48_);}
	.st61{fill:url(#XMLID_95_);}
	.st62{fill:url(#XMLID_96_);}
	.st63{fill:url(#XMLID_97_);}
	.st64{fill:url(#XMLID_98_);}
	.st65{fill:#006838;}
	.st66{fill:url(#XMLID_99_);}
	.st67{fill:url(#XMLID_100_);}
	.st68{fill:url(#SVGID_9_);}
	.st69{fill:url(#SVGID_10_);}
	.st70{fill:url(#SVGID_11_);}
	.st71{fill:url(#SVGID_12_);}
	.st72{fill:url(#XMLID_101_);}
	.st73{fill:url(#XMLID_102_);}
	.st74{fill:url(#XMLID_103_);}
	.st75{fill:url(#XMLID_104_);}
	.st76{fill:url(#XMLID_105_);}
	.st77{fill:url(#XMLID_106_);}
	.st78{fill:url(#XMLID_107_);}
	.st79{fill:url(#XMLID_108_);}
	.st80{fill:url(#XMLID_109_);}
	.st81{fill:url(#XMLID_110_);}
	.st82{fill:url(#XMLID_111_);}
	.st83{fill:url(#XMLID_112_);}
	.st84{fill:#662D91;}
	.st85{fill:url(#XMLID_113_);}
	.st86{fill:url(#XMLID_114_);}
	.st87{fill:url(#SVGID_13_);}
	.st88{fill:url(#SVGID_14_);}
	.st89{fill:url(#SVGID_15_);}
	.st90{fill:url(#SVGID_16_);}
	.st91{fill:url(#XMLID_115_);}
	.st92{fill:url(#XMLID_116_);}
	.st93{fill:url(#XMLID_117_);}
	.st94{fill:url(#XMLID_158_);}
	.st95{fill:url(#XMLID_159_);}
	.st96{fill:url(#XMLID_160_);}
	.st97{fill:url(#XMLID_161_);}
	.st98{fill:url(#XMLID_162_);}
	.st99{fill:url(#XMLID_163_);}
	.st100{fill:url(#XMLID_164_);}
	.st101{fill:url(#XMLID_165_);}
	.st102{fill:url(#XMLID_166_);}
	.st103{fill:#EE2A7B;}
	.st104{fill:url(#XMLID_167_);}
	.st105{fill:url(#XMLID_168_);}
	.st106{fill:url(#SVGID_17_);}
	.st107{fill:url(#SVGID_18_);}
	.st108{fill:url(#SVGID_19_);}
	.st109{fill:url(#SVGID_20_);}
	.st110{fill:url(#XMLID_169_);}
	.st111{fill:url(#XMLID_171_);}
	.st112{fill:url(#XMLID_172_);}
</style>
<g id="XMLID_60_">
	<circle id="XMLID_71_" class="st0" cx="65.8" cy="65.5" r="65.5"/>
	<circle id="XMLID_70_" class="st1" cx="65.8" cy="65.5" r="65.2"/>
	<linearGradient id="XMLID_2_" gradientUnits="userSpaceOnUse" x1="125.7441" y1="142.2842" x2="21.2793" y2="8.9488">
		<stop  offset="0" style="stop-color:#58595B"/>
		<stop  offset="1" style="stop-color:#BCBEC0"/>
	</linearGradient>
	<circle id="XMLID_69_" class="st2" cx="65.8" cy="65.8" r="64.5"/>
	<radialGradient id="XMLID_3_" cx="65.8261" cy="65.8068" r="64.4835" gradientUnits="userSpaceOnUse">
		<stop  offset="0.7653" style="stop-color:#000000;stop-opacity:0"/>
		<stop  offset="0.9703" style="stop-color:#000000;stop-opacity:0.8736"/>
		<stop  offset="1" style="stop-color:#000000"/>
	</radialGradient>
	<circle id="XMLID_68_" class="st3" cx="65.8" cy="65.8" r="64.5"/>
	<linearGradient id="XMLID_4_" gradientUnits="userSpaceOnUse" x1="38.5572" y1="5.1731" x2="52.6878" y2="57.7755">
		<stop  offset="0" style="stop-color:#EFEFF0"/>
		<stop  offset="0.9847" style="stop-color:#FFFFFF;stop-opacity:0"/>
	</linearGradient>
	<path id="XMLID_67_" class="st4" d="M19.7,110.6L86.2,37L95,8c-8.8-4.5-18.7-7-29.2-7C30.2,1,1.3,29.9,1.3,65.5
		C1.3,83,8.4,98.9,19.7,110.6z"/>
	<linearGradient id="XMLID_5_" gradientUnits="userSpaceOnUse" x1="96.6584" y1="124.9941" x2="85.98" y2="99.6329">
		<stop  offset="0" style="stop-color:#000000"/>
		<stop  offset="1" style="stop-color:#464547"/>
	</linearGradient>
	<path id="XMLID_66_" class="st5" d="M100.3,11c17.2,11.6,28.6,31.3,28.6,53.6c0,35.6-28.9,64.5-64.5,64.5c-12.7,0-24.5-3.7-34.5-10
		c10.3,6.9,22.6,10.9,35.9,10.9c35.6,0,64.5-28.9,64.5-64.5C130.3,42.6,118.4,22.4,100.3,11z"/>
	<linearGradient id="XMLID_6_" gradientUnits="userSpaceOnUse" x1="114.367" y1="24.1573" x2="116.6552" y2="43.8932">
		<stop  offset="1.530610e-02" style="stop-color:#B1B3B6"/>
		<stop  offset="1" style="stop-color:#EFEFF0"/>
	</linearGradient>
	<path id="XMLID_65_" class="st6" d="M126.8,48l-0.9,10.3l-5.8,1.5l-5.4-4.1l-6.5-16c0,0-3.1-13.2-3.3-13.4
		c-0.2-0.2,1.7-5.6,1.7-5.6l3.1-0.7l3.6,2.7c0,0,5.8,6.6,9.8,14.8C127.2,45.7,126.8,48,126.8,48z"/>
	<linearGradient id="XMLID_7_" gradientUnits="userSpaceOnUse" x1="82.4138" y1="3.9354" x2="83.4709" y2="141.0803">
		<stop  offset="0" style="stop-color:#000000"/>
		<stop  offset="1" style="stop-color:#464547"/>
	</linearGradient>
	<path id="XMLID_64_" class="st7" d="M65.8,1C54.7,1,44.2,3.8,35,8.8c7.6-4,16.1-6.4,25.1-7.1c21.3-0.4,39.8,9.4,24.4,11.6
		c-15.4,2.3,15.8,30.3,15.8,30.3s18,4.1,10.5-10.4c-7.5-14.5,0.2-12.2,2.8-9.3c4.8,5.6,8.7,11.9,11.3,18.9
		c3.1,8.4-1.7,18.7-4.8,12.1c-3.1-6.7-6.6,8.4-6.6,8.4s-7.2,35.2,1.7,27.1c8.8-8.1,13.2-16.8,14-26.9c0,0.8,0.1,1.6,0.1,2.5
		c0,24.5-13.6,45.7-33.7,56.7c20.7-10.7,34.8-32.3,34.8-57.2C130.3,29.9,101.4,1,65.8,1z"/>
	<linearGradient id="XMLID_8_" gradientUnits="userSpaceOnUse" x1="19.409" y1="63.5721" x2="194.0774" y2="58.6143">
		<stop  offset="0" style="stop-color:#EFEFF0"/>
		<stop  offset="0.1066" style="stop-color:#F5F5F5;stop-opacity:0.8917"/>
		<stop  offset="0.3389" style="stop-color:#FCFCFC;stop-opacity:0.6558"/>
		<stop  offset="0.9847" style="stop-color:#FFFFFF;stop-opacity:0"/>
	</linearGradient>
	<path id="XMLID_63_" class="st8" d="M65.8,1C54.7,1,44.2,3.8,35,8.8c7.6-4,16.1-6.4,25.1-7.1c21.3-0.4,39.8,9.4,24.4,11.6
		c-15.4,2.3,15.8,30.3,15.8,30.3s18,4.1,10.5-10.4c-7.5-14.5,0.2-12.2,2.8-9.3c4.8,5.6,8.7,11.9,11.3,18.9
		c3.1,8.4-1.7,18.7-4.8,12.1c-3.1-6.7-6.6,8.4-6.6,8.4s-7.2,35.2,1.7,27.1c8.8-8.1,13.2-16.8,14-26.9c0,0.8,0.1,1.6,0.1,2.5
		c0,24.5-13.6,45.7-33.7,56.7c20.7-10.7,34.8-32.3,34.8-57.2C130.3,29.9,101.4,1,65.8,1z"/>
	<linearGradient id="XMLID_9_" gradientUnits="userSpaceOnUse" x1="24.0448" y1="88.6987" x2="32.6256" y2="19.4798">
		<stop  offset="0" style="stop-color:#000000"/>
		<stop  offset="1" style="stop-color:#464547"/>
	</linearGradient>
	<path id="XMLID_62_" class="st9" d="M9.4,65.5c0-26.9,18.8-49.4,44-55.1C27.7,14.4,8,36.6,8,63.4c0,9.3,2.4,18.1,6.6,25.8
		C11.2,82,9.4,73.9,9.4,65.5z"/>
	<linearGradient id="XMLID_10_" gradientUnits="userSpaceOnUse" x1="67.0183" y1="129.8568" x2="67.0183" y2="119.1146">
		<stop  offset="0" style="stop-color:#EFEFF0"/>
		<stop  offset="0.1066" style="stop-color:#F5F5F5;stop-opacity:0.8917"/>
		<stop  offset="0.3389" style="stop-color:#FCFCFC;stop-opacity:0.6558"/>
		<stop  offset="0.9847" style="stop-color:#FFFFFF;stop-opacity:0"/>
	</linearGradient>
	<path id="XMLID_61_" class="st10" d="M67.8,129c15.5-0.3,22.4-5.9,21.8-8.2c-0.5-2.3-10.7,4.2-35.5,1.5c-12.9-1.4-10.2,0.5-7.7,2.3
		C49.1,126.5,57.6,129.1,67.8,129z"/>
</g>
<circle id="XMLID_59_" class="st11" cx="65.8" cy="65.5" r="55.3"/>
<radialGradient id="XMLID_11_" cx="64.696" cy="64.0874" r="56.9414" gradientUnits="userSpaceOnUse">
	<stop  offset="0.7653" style="stop-color:#000000;stop-opacity:0"/>
	<stop  offset="0.9703" style="stop-color:#000000;stop-opacity:0.8736"/>
	<stop  offset="1" style="stop-color:#000000"/>
</radialGradient>
<circle id="XMLID_58_" class="st12" cx="65.8" cy="65.5" r="55.9"/>
<radialGradient id="XMLID_12_" cx="60.6844" cy="56.985" r="70.1129" gradientUnits="userSpaceOnUse">
	<stop  offset="0.175" style="stop-color:#000000;stop-opacity:0"/>
	<stop  offset="0.8957" style="stop-color:#000000;stop-opacity:0.8736"/>
	<stop  offset="1" style="stop-color:#000000"/>
</radialGradient>
<circle id="XMLID_57_" class="st13" cx="65.8" cy="65.5" r="55.9"/>
<g id="XMLID_49_">
	<g id="XMLID_53_">
		<path id="XMLID_56_" class="st14" d="M121.1,65.5c0,0,0,0.3,0,1c0,0.6,0,1.6-0.1,2.8c-0.1,2.4-0.4,5.8-1.4,9.8
			c-0.2,1-0.5,2-0.8,3.1c-0.3,1.1-0.7,2.1-1.1,3.2c-0.8,2.2-1.8,4.5-3,6.7c-1.2,2.3-2.6,4.5-4.2,6.7c-1.6,2.2-3.4,4.2-5.3,6.2
			c-3.9,3.9-8.3,7.1-12.9,9.5c-2.3,1.2-4.5,2.2-6.7,3c-2.2,0.8-4.3,1.4-6.3,1.9c-2,0.5-3.8,0.8-5.5,1c-0.4,0.1-0.8,0.1-1.2,0.2
			c-0.4,0-0.8,0.1-1.1,0.1c-0.7,0.1-1.4,0.1-2,0.1c-0.6,0-1.1,0.1-1.6,0.1c-0.5,0-0.9,0-1.2,0c-0.6,0-1,0-1,0s0.3,0,1,0
			c0.3,0,0.7,0,1.2,0c0.5,0,1-0.1,1.6-0.1c0.6,0,1.2-0.1,2-0.2c0.4,0,0.7-0.1,1.1-0.1c0.4-0.1,0.8-0.1,1.2-0.2
			c1.6-0.2,3.5-0.6,5.4-1.1c2-0.5,4.1-1.2,6.2-2c2.2-0.8,4.4-1.9,6.6-3.1c4.4-2.4,8.8-5.7,12.6-9.5c1.9-1.9,3.7-3.9,5.3-6.1
			c1.6-2.1,3-4.3,4.2-6.6c1.2-2.2,2.3-4.4,3.1-6.6c0.4-1.1,0.8-2.2,1.1-3.2c0.3-1,0.6-2.1,0.9-3c0.5-2,0.9-3.8,1.1-5.4
			c0.3-1.6,0.4-3.1,0.5-4.2c0.1-1.2,0.1-2.1,0.2-2.8C121.1,65.8,121.1,65.5,121.1,65.5z"/>
		
			<radialGradient id="XMLID_13_" cx="-46.1055" cy="331.1618" r="22.8221" gradientTransform="matrix(0.2453 0.2286 -0.6817 0.7316 340.238 -126.0349)" gradientUnits="userSpaceOnUse">
			<stop  offset="0" style="stop-color:#FFFFFF"/>
			<stop  offset="0.147" style="stop-color:#FFFFFF;stop-opacity:0.853"/>
			<stop  offset="1" style="stop-color:#FFFFFF;stop-opacity:0"/>
		</radialGradient>
		<path id="XMLID_55_" class="st15" d="M108.8,110.9c-8.6,9.2-18.1,14.4-21.2,11.5c-3.1-2.9,1.4-12.7,10-21.9
			c8.6-9.2,18.1-14.4,21.2-11.5C121.8,91.9,117.4,101.7,108.8,110.9z"/>
		
			<radialGradient id="XMLID_14_" cx="-1008.0878" cy="-27.2265" r="16.7807" gradientTransform="matrix(0.3287 -6.630000e-02 0.1976 0.9803 458.512 11.7983)" gradientUnits="userSpaceOnUse">
			<stop  offset="0" style="stop-color:#FFFFFF"/>
			<stop  offset="0.147" style="stop-color:#FFFFFF;stop-opacity:0.853"/>
			<stop  offset="1" style="stop-color:#FFFFFF;stop-opacity:0"/>
		</radialGradient>
		<path id="XMLID_54_" class="st16" d="M127.3,50.8c1.8,9.1,0.8,16.9-2.2,17.6c-3,0.6-7-6.3-8.8-15.3c-1.8-9.1-0.8-16.9,2.2-17.6
			C121.5,34.9,125.5,41.7,127.3,50.8z"/>
	</g>
	<path id="XMLID_52_" class="st14" d="M12,52.6c0,0,0.2-0.8,0.5-2.1c0.1-0.3,0.2-0.7,0.3-1.1c0.1-0.4,0.3-0.8,0.4-1.3
		c0.1-0.5,0.3-0.9,0.5-1.5c0.2-0.5,0.4-1,0.6-1.6c0.2-0.5,0.4-1.1,0.7-1.7c0.3-0.6,0.5-1.2,0.8-1.8c0.1-0.3,0.3-0.6,0.4-0.9
		c0.2-0.3,0.3-0.6,0.5-0.9c0.3-0.6,0.7-1.3,1-1.9c0.8-1.2,1.5-2.6,2.4-3.8c0.8-1.3,1.8-2.5,2.8-3.8c1-1.2,2-2.4,3.2-3.5
		c1.1-1.1,2.2-2.1,3.3-3.1c0.6-0.5,1.1-0.9,1.7-1.4c0.3-0.2,0.6-0.4,0.8-0.7c0.3-0.2,0.6-0.4,0.8-0.6c0.5-0.4,1.1-0.8,1.6-1.1
		c0.5-0.4,1.1-0.7,1.5-1c0.5-0.3,1-0.6,1.4-0.9c0.5-0.3,0.9-0.5,1.3-0.7c0.4-0.2,0.8-0.4,1.2-0.6c0.4-0.2,0.7-0.3,1-0.5
		c1.2-0.6,1.9-0.9,1.9-0.9s-0.7,0.4-1.9,1c-0.3,0.2-0.6,0.3-1,0.5c-0.4,0.2-0.7,0.4-1.2,0.7c-0.4,0.2-0.8,0.5-1.3,0.8
		C37,18.4,36.5,18.7,36,19c-0.5,0.3-1,0.6-1.5,1c-0.5,0.4-1,0.8-1.6,1.2c-0.3,0.2-0.5,0.4-0.8,0.6c-0.3,0.2-0.5,0.4-0.8,0.7
		c-0.5,0.5-1.1,0.9-1.7,1.4c-1.1,1-2.2,2-3.3,3.1c-1.1,1.1-2.1,2.3-3.1,3.5c-1,1.2-2,2.4-2.8,3.7c-0.9,1.2-1.7,2.6-2.4,3.8
		c-0.4,0.6-0.7,1.3-1,1.9c-0.2,0.3-0.3,0.6-0.5,0.9c-0.1,0.3-0.3,0.6-0.4,0.9c-0.3,0.6-0.6,1.2-0.8,1.8c-0.3,0.6-0.5,1.1-0.7,1.7
		c-0.2,0.5-0.4,1.1-0.6,1.6c-0.2,0.5-0.3,1-0.5,1.4c-0.2,0.5-0.3,0.9-0.4,1.3c-0.1,0.4-0.2,0.8-0.3,1.1C12.2,51.8,12,52.6,12,52.6z"
		/>
	
		<radialGradient id="XMLID_15_" cx="-374.3478" cy="328.7164" r="13.2823" gradientTransform="matrix(0.2453 0.2286 -0.6817 0.7316 340.238 -126.0349)" gradientUnits="userSpaceOnUse">
		<stop  offset="0" style="stop-color:#FFFFFF"/>
		<stop  offset="0.147" style="stop-color:#FFFFFF;stop-opacity:0.853"/>
		<stop  offset="1" style="stop-color:#FFFFFF;stop-opacity:0"/>
	</radialGradient>
	<path id="XMLID_51_" class="st17" d="M27.6,31.9c-5,5.4-10.5,8.4-12.3,6.7c-1.8-1.7,0.8-7.4,5.8-12.8c5-5.4,10.5-8.4,12.3-6.7
		C35.2,20.8,32.6,26.5,27.6,31.9z"/>
	<path id="XMLID_50_" class="st14" d="M76.7,11.1c0,0,0.8,0.2,2.1,0.4c0.3,0.1,0.7,0.1,1.1,0.2c0.4,0.1,0.8,0.2,1.3,0.4
		c0.5,0.1,1,0.3,1.5,0.4c0.5,0.1,1,0.4,1.6,0.5c0.6,0.2,1.1,0.4,1.7,0.6c0.6,0.2,1.2,0.5,1.8,0.7c0.3,0.1,0.6,0.3,0.9,0.4
		c0.3,0.1,0.6,0.3,0.9,0.5c0.6,0.3,1.3,0.6,2,0.9c1.3,0.7,2.6,1.4,3.9,2.3c1.3,0.8,2.6,1.7,3.9,2.7c1.2,1,2.5,2,3.6,3
		c1.2,1,2.2,2.1,3.2,3.2c0.5,0.5,1,1.1,1.4,1.6c0.2,0.3,0.5,0.5,0.7,0.8c0.2,0.3,0.4,0.5,0.6,0.8c0.4,0.5,0.8,1.1,1.2,1.6
		c0.4,0.5,0.7,1,1.1,1.5c0.3,0.5,0.7,0.9,0.9,1.4c0.3,0.5,0.5,0.9,0.8,1.3c0.2,0.4,0.5,0.8,0.7,1.1c0.2,0.4,0.4,0.7,0.5,1
		c0.6,1.2,1,1.9,1,1.9s-0.4-0.7-1.1-1.9c-0.2-0.3-0.3-0.6-0.6-1c-0.2-0.3-0.5-0.7-0.7-1.1c-0.3-0.4-0.5-0.8-0.8-1.3
		c-0.3-0.4-0.6-0.9-1-1.4c-0.3-0.5-0.7-1-1.1-1.5c-0.4-0.5-0.8-1-1.2-1.5c-0.2-0.3-0.4-0.5-0.6-0.8c-0.2-0.3-0.5-0.5-0.7-0.8
		c-0.5-0.5-0.9-1.1-1.4-1.6c-1-1-2.1-2.1-3.2-3.1c-1.1-1.1-2.4-2-3.6-3c-1.3-0.9-2.5-1.9-3.8-2.7c-1.3-0.9-2.6-1.6-3.9-2.3
		c-0.7-0.3-1.3-0.6-1.9-1c-0.3-0.2-0.6-0.3-0.9-0.5c-0.3-0.1-0.6-0.3-0.9-0.4c-0.6-0.3-1.2-0.5-1.8-0.8c-0.6-0.2-1.2-0.4-1.7-0.6
		c-0.6-0.2-1.1-0.4-1.6-0.6c-0.5-0.2-1-0.3-1.5-0.4c-0.5-0.1-0.9-0.3-1.3-0.4c-0.4-0.1-0.8-0.2-1.1-0.3
		C77.4,11.3,76.7,11.1,76.7,11.1z"/>
</g>
<g>
	<g id="XMLID_83_">
		<circle id="XMLID_94_" class="st0" cx="493.2" cy="31.8" r="65.5"/>
		<circle id="XMLID_93_" class="st1" cx="493.2" cy="31.8" r="65.2"/>
		<linearGradient id="XMLID_16_" gradientUnits="userSpaceOnUse" x1="553.1163" y1="108.6625" x2="448.6515" y2="-24.6729">
			<stop  offset="0" style="stop-color:#58595B"/>
			<stop  offset="1" style="stop-color:#BCBEC0"/>
		</linearGradient>
		<circle id="XMLID_92_" class="st18" cx="493.2" cy="32.2" r="64.5"/>
		<radialGradient id="XMLID_17_" cx="493.1983" cy="32.1852" r="64.4835" gradientUnits="userSpaceOnUse">
			<stop  offset="0.7653" style="stop-color:#000000;stop-opacity:0"/>
			<stop  offset="0.9703" style="stop-color:#000000;stop-opacity:0.8736"/>
			<stop  offset="1" style="stop-color:#000000"/>
		</radialGradient>
		<circle id="XMLID_91_" class="st19" cx="493.2" cy="32.2" r="64.5"/>
		<linearGradient id="XMLID_18_" gradientUnits="userSpaceOnUse" x1="465.9295" y1="-28.4486" x2="480.0601" y2="24.1538">
			<stop  offset="0" style="stop-color:#EFEFF0"/>
			<stop  offset="0.9847" style="stop-color:#FFFFFF;stop-opacity:0"/>
		</linearGradient>
		<path id="XMLID_90_" class="st20" d="M447.1,76.9l66.4-73.6l8.9-29c-8.8-4.5-18.7-7-29.2-7c-35.6,0-64.5,28.9-64.5,64.5
			C428.7,49.4,435.7,65.3,447.1,76.9z"/>
		<linearGradient id="XMLID_19_" gradientUnits="userSpaceOnUse" x1="524.0307" y1="91.3724" x2="513.3523" y2="66.0112">
			<stop  offset="0" style="stop-color:#000000"/>
			<stop  offset="1" style="stop-color:#464547"/>
		</linearGradient>
		<path id="XMLID_89_" class="st21" d="M527.7-22.6C545-11.1,556.3,8.6,556.3,31c0,35.6-28.9,64.5-64.5,64.5
			c-12.7,0-24.5-3.7-34.5-10c10.3,6.9,22.6,10.9,35.9,10.9c35.6,0,64.5-28.9,64.5-64.5C557.7,8.9,545.7-11.2,527.7-22.6z"/>
		<linearGradient id="XMLID_20_" gradientUnits="userSpaceOnUse" x1="541.7392" y1="-9.4644" x2="544.0274" y2="10.2715">
			<stop  offset="1.530610e-02" style="stop-color:#B1B3B6"/>
			<stop  offset="1" style="stop-color:#EFEFF0"/>
		</linearGradient>
		<path id="XMLID_88_" class="st22" d="M554.2,14.4l-0.9,10.3l-5.8,1.5l-5.4-4.1l-6.5-16c0,0-3.1-13.2-3.3-13.4
			c-0.2-0.2,1.7-5.6,1.7-5.6l3.1-0.7l3.6,2.7c0,0,5.8,6.6,9.8,14.8C554.6,12.1,554.2,14.4,554.2,14.4z"/>
		<linearGradient id="XMLID_21_" gradientUnits="userSpaceOnUse" x1="509.786" y1="-29.6863" x2="510.8431" y2="107.4586">
			<stop  offset="0" style="stop-color:#000000"/>
			<stop  offset="1" style="stop-color:#464547"/>
		</linearGradient>
		<path id="XMLID_87_" class="st23" d="M493.2-32.6c-11.2,0-21.6,2.8-30.8,7.8c7.6-4,16.1-6.4,25.1-7.1c21.3-0.4,39.8,9.4,24.4,11.6
			c-15.4,2.3,15.8,30.3,15.8,30.3s18,4.1,10.5-10.4c-7.5-14.5,0.2-12.2,2.8-9.3c4.8,5.6,8.7,11.9,11.3,18.9
			c3.1,8.4-1.7,18.7-4.8,12.1c-3.1-6.7-6.6,8.4-6.6,8.4s-7.2,35.2,1.7,27.1c8.8-8.1,13.2-16.8,14-26.9c0,0.8,0.1,1.6,0.1,2.5
			c0,24.5-13.6,45.7-33.7,56.7c20.7-10.7,34.8-32.3,34.8-57.2C557.7-3.8,528.8-32.6,493.2-32.6z"/>
		<linearGradient id="XMLID_22_" gradientUnits="userSpaceOnUse" x1="446.7812" y1="29.9504" x2="621.4496" y2="24.9926">
			<stop  offset="0" style="stop-color:#EFEFF0"/>
			<stop  offset="0.1066" style="stop-color:#F5F5F5;stop-opacity:0.8917"/>
			<stop  offset="0.3389" style="stop-color:#FCFCFC;stop-opacity:0.6558"/>
			<stop  offset="0.9847" style="stop-color:#FFFFFF;stop-opacity:0"/>
		</linearGradient>
		<path id="XMLID_86_" class="st24" d="M493.2-32.6c-11.2,0-21.6,2.8-30.8,7.8c7.6-4,16.1-6.4,25.1-7.1c21.3-0.4,39.8,9.4,24.4,11.6
			c-15.4,2.3,15.8,30.3,15.8,30.3s18,4.1,10.5-10.4c-7.5-14.5,0.2-12.2,2.8-9.3c4.8,5.6,8.7,11.9,11.3,18.9
			c3.1,8.4-1.7,18.7-4.8,12.1c-3.1-6.7-6.6,8.4-6.6,8.4s-7.2,35.2,1.7,27.1c8.8-8.1,13.2-16.8,14-26.9c0,0.8,0.1,1.6,0.1,2.5
			c0,24.5-13.6,45.7-33.7,56.7c20.7-10.7,34.8-32.3,34.8-57.2C557.7-3.8,528.8-32.6,493.2-32.6z"/>
		<linearGradient id="XMLID_23_" gradientUnits="userSpaceOnUse" x1="451.4171" y1="55.077" x2="459.9979" y2="-14.1419">
			<stop  offset="0" style="stop-color:#000000"/>
			<stop  offset="1" style="stop-color:#464547"/>
		</linearGradient>
		<path id="XMLID_85_" class="st25" d="M436.7,31.8c0-26.9,18.8-49.4,44-55.1c-25.7,4-45.4,26.2-45.4,53.1c0,9.3,2.4,18.1,6.6,25.8
			C438.6,48.4,436.7,40.3,436.7,31.8z"/>
		<linearGradient id="XMLID_24_" gradientUnits="userSpaceOnUse" x1="494.3905" y1="96.2351" x2="494.3905" y2="85.4929">
			<stop  offset="0" style="stop-color:#EFEFF0"/>
			<stop  offset="0.1066" style="stop-color:#F5F5F5;stop-opacity:0.8917"/>
			<stop  offset="0.3389" style="stop-color:#FCFCFC;stop-opacity:0.6558"/>
			<stop  offset="0.9847" style="stop-color:#FFFFFF;stop-opacity:0"/>
		</linearGradient>
		<path id="XMLID_84_" class="st26" d="M495.2,95.4c15.5-0.3,22.4-5.9,21.8-8.2c-0.5-2.3-10.7,4.2-35.5,1.5
			c-12.9-1.4-10.2,0.5-7.7,2.3C476.4,92.9,485,95.5,495.2,95.4z"/>
	</g>
	<circle id="XMLID_82_" class="st27" cx="493.2" cy="31.8" r="55.3"/>
	<circle class="st14" cx="493.2" cy="31.8" r="27.9"/>
	<g>
		<radialGradient id="XMLID_25_" cx="492.0682" cy="30.4657" r="56.9414" gradientUnits="userSpaceOnUse">
			<stop  offset="0.7653" style="stop-color:#000000;stop-opacity:0"/>
			<stop  offset="0.9703" style="stop-color:#000000;stop-opacity:0.8736"/>
			<stop  offset="1" style="stop-color:#000000"/>
		</radialGradient>
		<circle id="XMLID_81_" class="st28" cx="493.2" cy="31.8" r="55.9"/>
		<radialGradient id="XMLID_26_" cx="488.0566" cy="23.3633" r="70.1129" gradientUnits="userSpaceOnUse">
			<stop  offset="0.175" style="stop-color:#000000;stop-opacity:0"/>
			<stop  offset="0.8957" style="stop-color:#000000;stop-opacity:0.8736"/>
			<stop  offset="1" style="stop-color:#000000"/>
		</radialGradient>
		<circle id="XMLID_80_" class="st29" cx="493.2" cy="31.8" r="55.9"/>
		<g>
			<linearGradient id="SVGID_1_" gradientUnits="userSpaceOnUse" x1="463.8564" y1="-3.1788" x2="505.5466" y2="87.2335">
				<stop  offset="0" style="stop-color:#FFFFFF"/>
				<stop  offset="0.147" style="stop-color:#FFFFFF;stop-opacity:0.853"/>
				<stop  offset="1" style="stop-color:#FFFFFF;stop-opacity:0"/>
			</linearGradient>
			<path class="st30" d="M459.9,18.4c4.7-0.2,10-0.6,15.5-1.3c0.5-6.9,1.5-13.6,3-19c0,0-6.1,0.5-14,2.5
				C462.4,5.9,460.7,11.8,459.9,18.4z"/>
			<linearGradient id="SVGID_2_" gradientUnits="userSpaceOnUse" x1="450.1279" y1="3.1517" x2="491.818" y2="93.5638">
				<stop  offset="0" style="stop-color:#FFFFFF"/>
				<stop  offset="0.147" style="stop-color:#FFFFFF;stop-opacity:0.853"/>
				<stop  offset="1" style="stop-color:#FFFFFF;stop-opacity:0"/>
			</linearGradient>
			<path class="st31" d="M455.8,18.5c0.7-6.1,2.1-11.5,3.8-16.5c-2.6,0.8-5.2,1.8-7.8,3c-1.5,2.2-3.4,7.2-4.7,13.4
				C449.6,18.5,452.5,18.6,455.8,18.5z"/>
			<linearGradient id="SVGID_3_" gradientUnits="userSpaceOnUse" x1="453.7638" y1="1.4752" x2="495.4539" y2="91.8873">
				<stop  offset="0" style="stop-color:#FFFFFF"/>
				<stop  offset="0.147" style="stop-color:#FFFFFF;stop-opacity:0.853"/>
				<stop  offset="1" style="stop-color:#FFFFFF;stop-opacity:0"/>
			</linearGradient>
			<path class="st32" d="M475.2,21.2c-5.6,0.7-11,1.1-15.7,1.3c-0.5,6.3-0.1,13.2,1.3,20.9c4.6,0.6,10.2,0.8,16.8,0
				C475.6,37.1,474.9,29.2,475.2,21.2z"/>
			<linearGradient id="SVGID_4_" gradientUnits="userSpaceOnUse" x1="440.1705" y1="7.7432" x2="481.8606" y2="98.1553">
				<stop  offset="0" style="stop-color:#FFFFFF"/>
				<stop  offset="0.147" style="stop-color:#FFFFFF;stop-opacity:0.853"/>
				<stop  offset="1" style="stop-color:#FFFFFF;stop-opacity:0"/>
			</linearGradient>
			<path class="st33" d="M455.4,22.6c-0.4,0-0.8,0-1.2,0c-2.9,0-5.5-0.1-7.7-0.2c-0.8,5.4-1,11.3-0.2,16.9c0,0,3.6,2,10.3,3.4
				C455.3,35.4,455,28.7,455.4,22.6z"/>
		</g>
		<g id="XMLID_72_">
			<g id="XMLID_76_">
				<path id="XMLID_79_" class="st14" d="M548.5,31.8c0,0,0,0.3,0,1c0,0.6,0,1.6-0.1,2.8c-0.1,2.4-0.4,5.8-1.4,9.8
					c-0.2,1-0.5,2-0.8,3.1c-0.3,1.1-0.7,2.1-1.1,3.2c-0.8,2.2-1.8,4.5-3,6.7c-1.2,2.3-2.6,4.5-4.2,6.7c-1.6,2.2-3.4,4.2-5.3,6.2
					c-3.9,3.9-8.3,7.1-12.9,9.5c-2.3,1.2-4.5,2.2-6.7,3c-2.2,0.8-4.3,1.4-6.3,1.9c-2,0.5-3.8,0.8-5.5,1c-0.4,0.1-0.8,0.1-1.2,0.2
					c-0.4,0-0.8,0.1-1.1,0.1c-0.7,0.1-1.4,0.1-2,0.1c-0.6,0-1.1,0.1-1.6,0.1c-0.5,0-0.9,0-1.2,0c-0.6,0-1,0-1,0s0.3,0,1,0
					c0.3,0,0.7,0,1.2,0c0.5,0,1-0.1,1.6-0.1c0.6,0,1.2-0.1,2-0.2c0.4,0,0.7-0.1,1.1-0.1c0.4-0.1,0.8-0.1,1.2-0.2
					c1.6-0.2,3.5-0.6,5.4-1.1c2-0.5,4.1-1.2,6.2-2c2.2-0.8,4.4-1.9,6.6-3.1c4.4-2.4,8.8-5.7,12.6-9.5c1.9-1.9,3.7-3.9,5.3-6.1
					c1.6-2.1,3-4.3,4.2-6.6c1.2-2.2,2.3-4.4,3.1-6.6c0.4-1.1,0.8-2.2,1.1-3.2c0.3-1,0.6-2.1,0.9-3c0.5-2,0.9-3.8,1.1-5.4
					c0.3-1.6,0.4-3.1,0.5-4.2c0.1-1.2,0.1-2.1,0.2-2.8C548.5,32.2,548.5,31.8,548.5,31.8z"/>
				
					<radialGradient id="XMLID_27_" cx="818.0378" cy="15.1902" r="22.8221" gradientTransform="matrix(0.2453 0.2286 -0.6817 0.7316 340.238 -126.0349)" gradientUnits="userSpaceOnUse">
					<stop  offset="0" style="stop-color:#FFFFFF"/>
					<stop  offset="0.147" style="stop-color:#FFFFFF;stop-opacity:0.853"/>
					<stop  offset="1" style="stop-color:#FFFFFF;stop-opacity:0"/>
				</radialGradient>
				<path id="XMLID_78_" class="st34" d="M536.1,77.3c-8.6,9.2-18.1,14.4-21.2,11.5c-3.1-2.9,1.4-12.7,10-21.9
					c8.6-9.2,18.1-14.4,21.2-11.5C549.2,58.3,544.7,68.1,536.1,77.3z"/>
				
					<radialGradient id="XMLID_28_" cx="261.1169" cy="24.3154" r="16.7806" gradientTransform="matrix(0.3287 -6.630000e-02 0.1976 0.9803 458.512 11.7983)" gradientUnits="userSpaceOnUse">
					<stop  offset="0" style="stop-color:#FFFFFF"/>
					<stop  offset="0.147" style="stop-color:#FFFFFF;stop-opacity:0.853"/>
					<stop  offset="1" style="stop-color:#FFFFFF;stop-opacity:0"/>
				</radialGradient>
				<path id="XMLID_77_" class="st35" d="M554.7,17.2c1.8,9.1,0.8,16.9-2.2,17.6c-3,0.6-7-6.3-8.8-15.3c-1.8-9.1-0.8-16.9,2.2-17.6
					C548.9,1.3,552.8,8.1,554.7,17.2z"/>
			</g>
			<path id="XMLID_75_" class="st14" d="M439.4,18.9c0,0,0.2-0.8,0.5-2.1c0.1-0.3,0.2-0.7,0.3-1.1c0.1-0.4,0.3-0.8,0.4-1.3
				c0.1-0.5,0.3-0.9,0.5-1.5c0.2-0.5,0.4-1,0.6-1.6c0.2-0.5,0.4-1.1,0.7-1.7c0.3-0.6,0.5-1.2,0.8-1.8c0.1-0.3,0.3-0.6,0.4-0.9
				c0.2-0.3,0.3-0.6,0.5-0.9c0.3-0.6,0.7-1.3,1-1.9c0.8-1.2,1.5-2.6,2.4-3.8c0.8-1.3,1.8-2.5,2.8-3.8c1-1.2,2-2.4,3.2-3.5
				c1.1-1.1,2.2-2.1,3.3-3.1c0.6-0.5,1.1-0.9,1.7-1.4c0.3-0.2,0.6-0.4,0.8-0.7c0.3-0.2,0.6-0.4,0.8-0.6c0.5-0.4,1.1-0.8,1.6-1.1
				c0.5-0.4,1.1-0.7,1.5-1c0.5-0.3,1-0.6,1.4-0.9c0.5-0.3,0.9-0.5,1.3-0.7c0.4-0.2,0.8-0.4,1.2-0.6c0.4-0.2,0.7-0.3,1-0.5
				c1.2-0.6,1.9-0.9,1.9-0.9s-0.7,0.4-1.9,1c-0.3,0.2-0.6,0.3-1,0.5c-0.4,0.2-0.7,0.4-1.2,0.7c-0.4,0.2-0.8,0.5-1.3,0.8
				c-0.5,0.3-0.9,0.6-1.4,0.9c-0.5,0.3-1,0.6-1.5,1c-0.5,0.4-1,0.8-1.6,1.2c-0.3,0.2-0.5,0.4-0.8,0.6c-0.3,0.2-0.5,0.4-0.8,0.7
				c-0.5,0.5-1.1,0.9-1.7,1.4c-1.1,1-2.2,2-3.3,3.1c-1.1,1.1-2.1,2.3-3.1,3.5c-1,1.2-2,2.4-2.8,3.7c-0.9,1.2-1.7,2.6-2.4,3.8
				c-0.4,0.6-0.7,1.3-1,1.9c-0.2,0.3-0.3,0.6-0.5,0.9c-0.1,0.3-0.3,0.6-0.4,0.9c-0.3,0.6-0.6,1.2-0.8,1.8c-0.3,0.6-0.5,1.1-0.7,1.7
				c-0.2,0.5-0.4,1.1-0.6,1.6c-0.2,0.5-0.3,1-0.5,1.4c-0.2,0.5-0.3,0.9-0.4,1.3c-0.1,0.4-0.2,0.8-0.3,1.1
				C439.6,18.2,439.4,18.9,439.4,18.9z"/>
			
				<radialGradient id="XMLID_29_" cx="489.7955" cy="12.7447" r="13.2823" gradientTransform="matrix(0.2453 0.2286 -0.6817 0.7316 340.238 -126.0349)" gradientUnits="userSpaceOnUse">
				<stop  offset="0" style="stop-color:#FFFFFF"/>
				<stop  offset="0.147" style="stop-color:#FFFFFF;stop-opacity:0.853"/>
				<stop  offset="1" style="stop-color:#FFFFFF;stop-opacity:0"/>
			</radialGradient>
			<path id="XMLID_74_" class="st36" d="M455-1.7c-5,5.4-10.5,8.4-12.3,6.7c-1.8-1.7,0.8-7.4,5.8-12.8c5-5.4,10.5-8.4,12.3-6.7
				C462.6-12.8,460-7.1,455-1.7z"/>
			<path id="XMLID_73_" class="st14" d="M504-22.5c0,0,0.8,0.2,2.1,0.4c0.3,0.1,0.7,0.1,1.1,0.2c0.4,0.1,0.8,0.2,1.3,0.4
				c0.5,0.1,1,0.3,1.5,0.4c0.5,0.1,1,0.4,1.6,0.5c0.6,0.2,1.1,0.4,1.7,0.6c0.6,0.2,1.2,0.5,1.8,0.7c0.3,0.1,0.6,0.3,0.9,0.4
				c0.3,0.1,0.6,0.3,0.9,0.5c0.6,0.3,1.3,0.6,2,0.9c1.3,0.7,2.6,1.4,3.9,2.3c1.3,0.8,2.6,1.7,3.9,2.7c1.2,1,2.5,2,3.6,3
				c1.2,1,2.2,2.1,3.2,3.2c0.5,0.5,1,1.1,1.4,1.6c0.2,0.3,0.5,0.5,0.7,0.8c0.2,0.3,0.4,0.5,0.6,0.8c0.4,0.5,0.8,1.1,1.2,1.6
				c0.4,0.5,0.7,1,1.1,1.5c0.3,0.5,0.7,0.9,0.9,1.4c0.3,0.5,0.5,0.9,0.8,1.3c0.2,0.4,0.5,0.8,0.7,1.1c0.2,0.4,0.4,0.7,0.5,1
				c0.6,1.2,1,1.9,1,1.9s-0.4-0.7-1.1-1.9c-0.2-0.3-0.3-0.6-0.6-1c-0.2-0.3-0.5-0.7-0.7-1.1c-0.3-0.4-0.5-0.8-0.8-1.3
				c-0.3-0.4-0.6-0.9-1-1.4c-0.3-0.5-0.7-1-1.1-1.5c-0.4-0.5-0.8-1-1.2-1.5c-0.2-0.3-0.4-0.5-0.6-0.8c-0.2-0.3-0.5-0.5-0.7-0.8
				c-0.5-0.5-0.9-1.1-1.4-1.6c-1-1-2.1-2.1-3.2-3.1c-1.1-1.1-2.4-2-3.6-3c-1.3-0.9-2.5-1.9-3.8-2.7c-1.3-0.9-2.6-1.6-3.9-2.3
				c-0.7-0.3-1.3-0.6-1.9-1c-0.3-0.2-0.6-0.3-0.9-0.5c-0.3-0.1-0.6-0.3-0.9-0.4c-0.6-0.3-1.2-0.5-1.8-0.8c-0.6-0.2-1.2-0.4-1.7-0.6
				c-0.6-0.2-1.1-0.4-1.6-0.6c-0.5-0.2-1-0.3-1.5-0.4c-0.5-0.1-0.9-0.3-1.3-0.4c-0.4-0.1-0.8-0.2-1.1-0.3
				C504.8-22.3,504-22.5,504-22.5z"/>
		</g>
	</g>
</g>
<g>
	<g id="XMLID_234_">
		<circle id="XMLID_293_" class="st0" cx="472.4" cy="233.3" r="65.5"/>
		<circle id="XMLID_292_" class="st1" cx="472.4" cy="233.3" r="65.2"/>
		<linearGradient id="XMLID_30_" gradientUnits="userSpaceOnUse" x1="532.306" y1="310.0754" x2="427.8412" y2="176.7401">
			<stop  offset="0" style="stop-color:#58595B"/>
			<stop  offset="1" style="stop-color:#BCBEC0"/>
		</linearGradient>
		<circle id="XMLID_291_" class="st37" cx="472.4" cy="233.6" r="64.5"/>
		<radialGradient id="XMLID_31_" cx="472.388" cy="233.5981" r="64.4835" gradientUnits="userSpaceOnUse">
			<stop  offset="0.7653" style="stop-color:#000000;stop-opacity:0"/>
			<stop  offset="0.9703" style="stop-color:#000000;stop-opacity:0.8736"/>
			<stop  offset="1" style="stop-color:#000000"/>
		</radialGradient>
		<circle id="XMLID_290_" class="st38" cx="472.4" cy="233.6" r="64.5"/>
		<linearGradient id="XMLID_32_" gradientUnits="userSpaceOnUse" x1="445.1191" y1="172.9644" x2="459.2497" y2="225.5668">
			<stop  offset="0" style="stop-color:#EFEFF0"/>
			<stop  offset="0.9847" style="stop-color:#FFFFFF;stop-opacity:0"/>
		</linearGradient>
		<path id="XMLID_289_" class="st39" d="M426.3,278.4l66.4-73.6l8.9-29c-8.8-4.5-18.7-7-29.2-7c-35.6,0-64.5,28.9-64.5,64.5
			C407.9,250.8,414.9,266.7,426.3,278.4z"/>
		<linearGradient id="XMLID_33_" gradientUnits="userSpaceOnUse" x1="503.2203" y1="292.7854" x2="492.5419" y2="267.4242">
			<stop  offset="0" style="stop-color:#000000"/>
			<stop  offset="1" style="stop-color:#464547"/>
		</linearGradient>
		<path id="XMLID_288_" class="st40" d="M506.9,178.8c17.2,11.6,28.6,31.3,28.6,53.6c0,35.6-28.9,64.5-64.5,64.5
			c-12.7,0-24.5-3.7-34.5-10c10.3,6.9,22.6,10.9,35.9,10.9c35.6,0,64.5-28.9,64.5-64.5C536.9,210.3,524.9,190.2,506.9,178.8z"/>
		<linearGradient id="XMLID_34_" gradientUnits="userSpaceOnUse" x1="520.9288" y1="191.9485" x2="523.2171" y2="211.6845">
			<stop  offset="1.530610e-02" style="stop-color:#B1B3B6"/>
			<stop  offset="1" style="stop-color:#EFEFF0"/>
		</linearGradient>
		<path id="XMLID_287_" class="st41" d="M533.3,215.8l-0.9,10.3l-5.8,1.5l-5.4-4.1l-6.5-16c0,0-3.1-13.2-3.3-13.4
			c-0.2-0.2,1.7-5.6,1.7-5.6l3.1-0.7l3.6,2.7c0,0,5.8,6.6,9.8,14.8C533.8,213.5,533.3,215.8,533.3,215.8z"/>
		<linearGradient id="XMLID_35_" gradientUnits="userSpaceOnUse" x1="488.9757" y1="171.7267" x2="490.0328" y2="308.8716">
			<stop  offset="0" style="stop-color:#000000"/>
			<stop  offset="1" style="stop-color:#464547"/>
		</linearGradient>
		<path id="XMLID_286_" class="st42" d="M472.4,168.8c-11.2,0-21.6,2.8-30.8,7.8c7.6-4,16.1-6.4,25.1-7.1
			c21.3-0.4,39.8,9.4,24.4,11.6c-15.4,2.3,15.8,30.3,15.8,30.3s18,4.1,10.5-10.4c-7.5-14.5,0.2-12.2,2.8-9.3
			c4.8,5.6,8.7,11.9,11.3,18.9c3.1,8.4-1.7,18.7-4.8,12.1c-3.1-6.7-6.6,8.4-6.6,8.4s-7.2,35.2,1.7,27.1c8.8-8.1,13.2-16.8,14-26.9
			c0,0.8,0.1,1.6,0.1,2.5c0,24.5-13.6,45.7-33.7,56.7c20.7-10.7,34.8-32.3,34.8-57.2C536.9,197.6,508,168.8,472.4,168.8z"/>
		<linearGradient id="XMLID_36_" gradientUnits="userSpaceOnUse" x1="425.9709" y1="231.3634" x2="600.6393" y2="226.4056">
			<stop  offset="0" style="stop-color:#EFEFF0"/>
			<stop  offset="0.1066" style="stop-color:#F5F5F5;stop-opacity:0.8917"/>
			<stop  offset="0.3389" style="stop-color:#FCFCFC;stop-opacity:0.6558"/>
			<stop  offset="0.9847" style="stop-color:#FFFFFF;stop-opacity:0"/>
		</linearGradient>
		<path id="XMLID_273_" class="st43" d="M472.4,168.8c-11.2,0-21.6,2.8-30.8,7.8c7.6-4,16.1-6.4,25.1-7.1
			c21.3-0.4,39.8,9.4,24.4,11.6c-15.4,2.3,15.8,30.3,15.8,30.3s18,4.1,10.5-10.4c-7.5-14.5,0.2-12.2,2.8-9.3
			c4.8,5.6,8.7,11.9,11.3,18.9c3.1,8.4-1.7,18.7-4.8,12.1c-3.1-6.7-6.6,8.4-6.6,8.4s-7.2,35.2,1.7,27.1c8.8-8.1,13.2-16.8,14-26.9
			c0,0.8,0.1,1.6,0.1,2.5c0,24.5-13.6,45.7-33.7,56.7c20.7-10.7,34.8-32.3,34.8-57.2C536.9,197.6,508,168.8,472.4,168.8z"/>
		<linearGradient id="XMLID_37_" gradientUnits="userSpaceOnUse" x1="430.6067" y1="256.4899" x2="439.1875" y2="187.2711">
			<stop  offset="0" style="stop-color:#000000"/>
			<stop  offset="1" style="stop-color:#464547"/>
		</linearGradient>
		<path id="XMLID_260_" class="st44" d="M415.9,233.3c0-26.9,18.8-49.4,44-55.1c-25.7,4-45.4,26.2-45.4,53.1
			c0,9.3,2.4,18.1,6.6,25.8C417.8,249.8,415.9,241.7,415.9,233.3z"/>
		<linearGradient id="XMLID_38_" gradientUnits="userSpaceOnUse" x1="473.5802" y1="297.6481" x2="473.5802" y2="286.9059">
			<stop  offset="0" style="stop-color:#EFEFF0"/>
			<stop  offset="0.1066" style="stop-color:#F5F5F5;stop-opacity:0.8917"/>
			<stop  offset="0.3389" style="stop-color:#FCFCFC;stop-opacity:0.6558"/>
			<stop  offset="0.9847" style="stop-color:#FFFFFF;stop-opacity:0"/>
		</linearGradient>
		<path id="XMLID_247_" class="st45" d="M474.4,296.8c15.5-0.3,22.4-5.9,21.8-8.2c-0.5-2.3-10.7,4.2-35.5,1.5
			c-12.9-1.4-10.2,0.5-7.7,2.3C455.6,294.3,464.2,296.9,474.4,296.8z"/>
	</g>
	<circle id="XMLID_233_" class="st46" cx="472.4" cy="233.3" r="55.3"/>
	<g>
		<path class="st14" d="M472.4,239.7c-4.6,0-8.4,3.7-8.4,8.4v13.2h16.7V248C480.8,243.4,477,239.7,472.4,239.7z"/>
		<path class="st14" d="M487.2,224.9c-4.6,0-8.4,3.7-8.4,8.4l0,0c0,4.6,3.7,8.4,8.4,8.4h13.2v-16.7H487.2z"/>
		<path class="st14" d="M472.4,226.8c4.6,0,8.4-3.7,8.4-8.4v-13.2H464v13.2C464,223.1,467.8,226.8,472.4,226.8z"/>
		<path class="st14" d="M466,233.3c0-4.6-3.7-8.4-8.4-8.4h-13.2v16.7h13.2C462.2,241.6,466,237.9,466,233.3L466,233.3z"/>
	</g>
	<g>
		<radialGradient id="XMLID_39_" cx="471.2579" cy="231.8787" r="56.9414" gradientUnits="userSpaceOnUse">
			<stop  offset="0.7653" style="stop-color:#000000;stop-opacity:0"/>
			<stop  offset="0.9703" style="stop-color:#000000;stop-opacity:0.8736"/>
			<stop  offset="1" style="stop-color:#000000"/>
		</radialGradient>
		<circle id="XMLID_232_" class="st47" cx="472.4" cy="233.3" r="55.9"/>
		<radialGradient id="XMLID_40_" cx="467.2463" cy="224.7764" r="70.1129" gradientUnits="userSpaceOnUse">
			<stop  offset="0.175" style="stop-color:#000000;stop-opacity:0"/>
			<stop  offset="0.8957" style="stop-color:#000000;stop-opacity:0.8736"/>
			<stop  offset="1" style="stop-color:#000000"/>
		</radialGradient>
		<circle id="XMLID_231_" class="st48" cx="472.4" cy="233.3" r="55.9"/>
		<g>
			<linearGradient id="SVGID_5_" gradientUnits="userSpaceOnUse" x1="443.0461" y1="198.2342" x2="484.7363" y2="288.6464">
				<stop  offset="0" style="stop-color:#FFFFFF"/>
				<stop  offset="0.147" style="stop-color:#FFFFFF;stop-opacity:0.853"/>
				<stop  offset="1" style="stop-color:#FFFFFF;stop-opacity:0"/>
			</linearGradient>
			<path class="st49" d="M439.1,219.9c4.7-0.2,10-0.6,15.5-1.3c0.5-6.9,1.5-13.6,3-19c0,0-6.1,0.5-14,2.5
				C441.6,207.3,439.9,213.2,439.1,219.9z"/>
			<linearGradient id="SVGID_6_" gradientUnits="userSpaceOnUse" x1="429.3176" y1="204.5646" x2="471.0076" y2="294.9765">
				<stop  offset="0" style="stop-color:#FFFFFF"/>
				<stop  offset="0.147" style="stop-color:#FFFFFF;stop-opacity:0.853"/>
				<stop  offset="1" style="stop-color:#FFFFFF;stop-opacity:0"/>
			</linearGradient>
			<path class="st50" d="M435,219.9c0.7-6.1,2.1-11.5,3.8-16.5c-2.6,0.8-5.2,1.8-7.8,3c-1.5,2.2-3.4,7.2-4.7,13.4
				C428.8,219.9,431.7,220,435,219.9z"/>
			<linearGradient id="SVGID_7_" gradientUnits="userSpaceOnUse" x1="432.9535" y1="202.8882" x2="474.6435" y2="293.3001">
				<stop  offset="0" style="stop-color:#FFFFFF"/>
				<stop  offset="0.147" style="stop-color:#FFFFFF;stop-opacity:0.853"/>
				<stop  offset="1" style="stop-color:#FFFFFF;stop-opacity:0"/>
			</linearGradient>
			<path class="st51" d="M454.4,222.6c-5.6,0.7-11,1.1-15.7,1.3c-0.5,6.3-0.1,13.2,1.3,20.9c4.6,0.6,10.2,0.8,16.8,0
				C454.8,238.5,454.1,230.6,454.4,222.6z"/>
			<linearGradient id="SVGID_8_" gradientUnits="userSpaceOnUse" x1="419.3602" y1="209.1561" x2="461.0503" y2="299.5682">
				<stop  offset="0" style="stop-color:#FFFFFF"/>
				<stop  offset="0.147" style="stop-color:#FFFFFF;stop-opacity:0.853"/>
				<stop  offset="1" style="stop-color:#FFFFFF;stop-opacity:0"/>
			</linearGradient>
			<path class="st52" d="M434.6,224c-0.4,0-0.8,0-1.2,0c-2.9,0-5.5-0.1-7.7-0.2c-0.8,5.4-1,11.3-0.2,16.9c0,0,3.6,2,10.3,3.4
				C434.5,236.8,434.2,230.1,434.6,224z"/>
		</g>
		<g id="XMLID_223_">
			<g id="XMLID_227_">
				<path id="XMLID_230_" class="st14" d="M527.7,233.3c0,0,0,0.3,0,1c0,0.6,0,1.6-0.1,2.8c-0.1,2.4-0.4,5.8-1.4,9.8
					c-0.2,1-0.5,2-0.8,3.1c-0.3,1.1-0.7,2.1-1.1,3.2c-0.8,2.2-1.8,4.5-3,6.7c-1.2,2.3-2.6,4.5-4.2,6.7c-1.6,2.2-3.4,4.2-5.3,6.2
					c-3.9,3.9-8.3,7.1-12.9,9.5c-2.3,1.2-4.5,2.2-6.7,3c-2.2,0.8-4.3,1.4-6.3,1.9c-2,0.5-3.8,0.8-5.5,1c-0.4,0.1-0.8,0.1-1.2,0.2
					c-0.4,0-0.8,0.1-1.1,0.1c-0.7,0.1-1.4,0.1-2,0.1c-0.6,0-1.1,0.1-1.6,0.1c-0.5,0-0.9,0-1.2,0c-0.6,0-1,0-1,0s0.3,0,1,0
					c0.3,0,0.7,0,1.2,0c0.5,0,1-0.1,1.6-0.1c0.6,0,1.2-0.1,2-0.2c0.4,0,0.7-0.1,1.1-0.1c0.4-0.1,0.8-0.1,1.2-0.2
					c1.6-0.2,3.5-0.6,5.4-1.1c2-0.5,4.1-1.2,6.2-2c2.2-0.8,4.4-1.9,6.6-3.1c4.4-2.4,8.8-5.7,12.6-9.5c1.9-1.9,3.7-3.9,5.3-6.1
					c1.6-2.1,3-4.3,4.2-6.6c1.2-2.2,2.3-4.4,3.1-6.6c0.4-1.1,0.8-2.2,1.1-3.2c0.3-1,0.6-2.1,0.9-3c0.5-2,0.9-3.8,1.1-5.4
					c0.3-1.6,0.4-3.1,0.5-4.2c0.1-1.2,0.1-2.1,0.2-2.8C527.7,233.6,527.7,233.3,527.7,233.3z"/>
				
					<radialGradient id="XMLID_41_" cx="1182.1267" cy="176.7295" r="22.8221" gradientTransform="matrix(0.2453 0.2286 -0.6817 0.7316 340.238 -126.0349)" gradientUnits="userSpaceOnUse">
					<stop  offset="0" style="stop-color:#FFFFFF"/>
					<stop  offset="0.147" style="stop-color:#FFFFFF;stop-opacity:0.853"/>
					<stop  offset="1" style="stop-color:#FFFFFF;stop-opacity:0"/>
				</radialGradient>
				<path id="XMLID_229_" class="st53" d="M515.3,278.7c-8.6,9.2-18.1,14.4-21.2,11.5c-3.1-2.9,1.4-12.7,10-21.9
					c8.6-9.2,18.1-14.4,21.2-11.5C528.4,259.7,523.9,269.5,515.3,278.7z"/>
				
					<radialGradient id="XMLID_42_" cx="81.5909" cy="217.6343" r="16.7806" gradientTransform="matrix(0.3287 -6.630000e-02 0.1976 0.9803 458.512 11.7983)" gradientUnits="userSpaceOnUse">
					<stop  offset="0" style="stop-color:#FFFFFF"/>
					<stop  offset="0.147" style="stop-color:#FFFFFF;stop-opacity:0.853"/>
					<stop  offset="1" style="stop-color:#FFFFFF;stop-opacity:0"/>
				</radialGradient>
				<path id="XMLID_228_" class="st54" d="M533.9,218.6c1.8,9.1,0.8,16.9-2.2,17.6c-3,0.6-7-6.3-8.8-15.3
					c-1.8-9.1-0.8-16.9,2.2-17.6C528.1,202.7,532,209.5,533.9,218.6z"/>
			</g>
			<path id="XMLID_226_" class="st14" d="M418.6,220.3c0,0,0.2-0.8,0.5-2.1c0.1-0.3,0.2-0.7,0.3-1.1c0.1-0.4,0.3-0.8,0.4-1.3
				c0.1-0.5,0.3-0.9,0.5-1.5c0.2-0.5,0.4-1,0.6-1.6c0.2-0.5,0.4-1.1,0.7-1.7c0.3-0.6,0.5-1.2,0.8-1.8c0.1-0.3,0.3-0.6,0.4-0.9
				c0.2-0.3,0.3-0.6,0.5-0.9c0.3-0.6,0.7-1.3,1-1.9c0.8-1.2,1.5-2.6,2.4-3.8c0.8-1.3,1.8-2.5,2.8-3.8c1-1.2,2-2.4,3.2-3.5
				c1.1-1.1,2.2-2.1,3.3-3.1c0.6-0.5,1.1-0.9,1.7-1.4c0.3-0.2,0.6-0.4,0.8-0.7c0.3-0.2,0.6-0.4,0.8-0.6c0.5-0.4,1.1-0.8,1.6-1.1
				c0.5-0.4,1.1-0.7,1.5-1c0.5-0.3,1-0.6,1.4-0.9c0.5-0.3,0.9-0.5,1.3-0.7c0.4-0.2,0.8-0.4,1.2-0.6c0.4-0.2,0.7-0.3,1-0.5
				c1.2-0.6,1.9-0.9,1.9-0.9s-0.7,0.4-1.9,1c-0.3,0.2-0.6,0.3-1,0.5c-0.4,0.2-0.7,0.4-1.2,0.7c-0.4,0.2-0.8,0.5-1.3,0.8
				c-0.5,0.3-0.9,0.6-1.4,0.9c-0.5,0.3-1,0.6-1.5,1c-0.5,0.4-1,0.8-1.6,1.2c-0.3,0.2-0.5,0.4-0.8,0.6c-0.3,0.2-0.5,0.4-0.8,0.7
				c-0.5,0.5-1.1,0.9-1.7,1.4c-1.1,1-2.2,2-3.3,3.1c-1.1,1.1-2.1,2.3-3.1,3.5c-1,1.2-2,2.4-2.8,3.7c-0.9,1.2-1.7,2.6-2.4,3.8
				c-0.4,0.6-0.7,1.3-1,1.9c-0.2,0.3-0.3,0.6-0.5,0.9c-0.1,0.3-0.3,0.6-0.4,0.9c-0.3,0.6-0.6,1.2-0.8,1.8c-0.3,0.6-0.5,1.1-0.7,1.7
				c-0.2,0.5-0.4,1.1-0.6,1.6c-0.2,0.5-0.3,1-0.5,1.4c-0.2,0.5-0.3,0.9-0.4,1.3c-0.1,0.4-0.2,0.8-0.3,1.1
				C418.8,219.6,418.6,220.3,418.6,220.3z"/>
			
				<radialGradient id="XMLID_43_" cx="853.8845" cy="174.2842" r="13.2822" gradientTransform="matrix(0.2453 0.2286 -0.6817 0.7316 340.238 -126.0349)" gradientUnits="userSpaceOnUse">
				<stop  offset="0" style="stop-color:#FFFFFF"/>
				<stop  offset="0.147" style="stop-color:#FFFFFF;stop-opacity:0.853"/>
				<stop  offset="1" style="stop-color:#FFFFFF;stop-opacity:0"/>
			</radialGradient>
			<path id="XMLID_225_" class="st55" d="M434.1,199.7c-5,5.4-10.5,8.4-12.3,6.7c-1.8-1.7,0.8-7.4,5.8-12.8c5-5.4,10.5-8.4,12.3-6.7
				C441.7,188.6,439.1,194.3,434.1,199.7z"/>
			<path id="XMLID_224_" class="st14" d="M483.2,178.9c0,0,0.8,0.2,2.1,0.4c0.3,0.1,0.7,0.1,1.1,0.2c0.4,0.1,0.8,0.2,1.3,0.4
				c0.5,0.1,1,0.3,1.5,0.4c0.5,0.1,1,0.4,1.6,0.5c0.6,0.2,1.1,0.4,1.7,0.6c0.6,0.2,1.2,0.5,1.8,0.7c0.3,0.1,0.6,0.3,0.9,0.4
				c0.3,0.1,0.6,0.3,0.9,0.5c0.6,0.3,1.3,0.6,2,0.9c1.3,0.7,2.6,1.4,3.9,2.3c1.3,0.8,2.6,1.7,3.9,2.7c1.2,1,2.5,1.9,3.6,3
				c1.2,1,2.2,2.1,3.2,3.2c0.5,0.5,1,1.1,1.4,1.6c0.2,0.3,0.5,0.5,0.7,0.8c0.2,0.3,0.4,0.5,0.6,0.8c0.4,0.5,0.8,1.1,1.2,1.6
				c0.4,0.5,0.7,1,1.1,1.5c0.3,0.5,0.7,0.9,0.9,1.4c0.3,0.5,0.5,0.9,0.8,1.3c0.2,0.4,0.5,0.8,0.7,1.1c0.2,0.4,0.4,0.7,0.5,1
				c0.6,1.2,1,1.9,1,1.9s-0.4-0.7-1.1-1.9c-0.2-0.3-0.3-0.6-0.6-1c-0.2-0.3-0.5-0.7-0.7-1.1c-0.3-0.4-0.5-0.8-0.8-1.3
				c-0.3-0.4-0.6-0.9-1-1.4c-0.3-0.5-0.7-1-1.1-1.5c-0.4-0.5-0.8-1-1.2-1.5c-0.2-0.3-0.4-0.5-0.6-0.8c-0.2-0.3-0.5-0.5-0.7-0.8
				c-0.5-0.5-0.9-1.1-1.4-1.6c-1-1-2.1-2.1-3.2-3.1c-1.1-1.1-2.4-2-3.6-3c-1.3-0.9-2.5-1.9-3.8-2.7c-1.3-0.9-2.6-1.6-3.9-2.3
				c-0.7-0.3-1.3-0.6-1.9-1c-0.3-0.2-0.6-0.3-0.9-0.5c-0.3-0.1-0.6-0.3-0.9-0.4c-0.6-0.3-1.2-0.5-1.8-0.8c-0.6-0.2-1.2-0.4-1.7-0.6
				c-0.6-0.2-1.1-0.4-1.6-0.6c-0.5-0.2-1-0.3-1.5-0.4c-0.5-0.1-0.9-0.3-1.3-0.4c-0.4-0.1-0.8-0.2-1.1-0.3
				C484,179.1,483.2,178.9,483.2,178.9z"/>
		</g>
	</g>
</g>
<g>
	<g id="XMLID_211_">
		<circle id="XMLID_222_" class="st0" cx="617.6" cy="233.3" r="65.5"/>
		<circle id="XMLID_221_" class="st1" cx="617.6" cy="233.3" r="65.2"/>
		<linearGradient id="XMLID_44_" gradientUnits="userSpaceOnUse" x1="677.545" y1="310.0755" x2="573.0801" y2="176.7401">
			<stop  offset="0" style="stop-color:#58595B"/>
			<stop  offset="1" style="stop-color:#BCBEC0"/>
		</linearGradient>
		<circle id="XMLID_220_" class="st56" cx="617.6" cy="233.6" r="64.5"/>
		<radialGradient id="XMLID_45_" cx="617.627" cy="233.5981" r="64.4835" gradientUnits="userSpaceOnUse">
			<stop  offset="0.7653" style="stop-color:#000000;stop-opacity:0"/>
			<stop  offset="0.9703" style="stop-color:#000000;stop-opacity:0.8736"/>
			<stop  offset="1" style="stop-color:#000000"/>
		</radialGradient>
		<circle id="XMLID_219_" class="st57" cx="617.6" cy="233.6" r="64.5"/>
		<linearGradient id="XMLID_46_" gradientUnits="userSpaceOnUse" x1="590.3582" y1="172.9644" x2="604.4887" y2="225.5668">
			<stop  offset="0" style="stop-color:#EFEFF0"/>
			<stop  offset="0.9847" style="stop-color:#FFFFFF;stop-opacity:0"/>
		</linearGradient>
		<path id="XMLID_218_" class="st58" d="M571.5,278.4l66.4-73.6l8.9-29c-8.8-4.5-18.7-7-29.2-7c-35.6,0-64.5,28.9-64.5,64.5
			C553.1,250.8,560.2,266.7,571.5,278.4z"/>
		<linearGradient id="XMLID_47_" gradientUnits="userSpaceOnUse" x1="648.4593" y1="292.7854" x2="637.7809" y2="267.4242">
			<stop  offset="0" style="stop-color:#000000"/>
			<stop  offset="1" style="stop-color:#464547"/>
		</linearGradient>
		<path id="XMLID_217_" class="st59" d="M652.1,178.8c17.2,11.6,28.6,31.3,28.6,53.6c0,35.6-28.9,64.5-64.5,64.5
			c-12.7,0-24.5-3.7-34.5-10c10.3,6.9,22.6,10.9,35.9,10.9c35.6,0,64.5-28.9,64.5-64.5C682.1,210.3,670.2,190.2,652.1,178.8z"/>
		<linearGradient id="XMLID_48_" gradientUnits="userSpaceOnUse" x1="666.1678" y1="191.9485" x2="668.4561" y2="211.6845">
			<stop  offset="1.530610e-02" style="stop-color:#B1B3B6"/>
			<stop  offset="1" style="stop-color:#EFEFF0"/>
		</linearGradient>
		<path id="XMLID_216_" class="st60" d="M678.6,215.8l-0.9,10.3l-5.8,1.5l-5.4-4.1l-6.5-16c0,0-3.1-13.2-3.3-13.4
			c-0.2-0.2,1.7-5.6,1.7-5.6l3.1-0.7l3.6,2.7c0,0,5.8,6.6,9.8,14.8C679,213.5,678.6,215.8,678.6,215.8z"/>
		<linearGradient id="XMLID_95_" gradientUnits="userSpaceOnUse" x1="634.2147" y1="171.7267" x2="635.2718" y2="308.8716">
			<stop  offset="0" style="stop-color:#000000"/>
			<stop  offset="1" style="stop-color:#464547"/>
		</linearGradient>
		<path id="XMLID_215_" class="st61" d="M617.6,168.8c-11.2,0-21.6,2.8-30.8,7.8c7.6-4,16.1-6.4,25.1-7.1
			c21.3-0.4,39.8,9.4,24.4,11.6c-15.4,2.3,15.8,30.3,15.8,30.3s18,4.1,10.5-10.4c-7.5-14.5,0.2-12.2,2.8-9.3
			c4.8,5.6,8.7,11.9,11.3,18.9c3.1,8.4-1.7,18.7-4.8,12.1c-3.1-6.7-6.6,8.4-6.6,8.4s-7.2,35.2,1.7,27.1c8.8-8.1,13.2-16.8,14-26.9
			c0,0.8,0.1,1.6,0.1,2.5c0,24.5-13.6,45.7-33.7,56.7c20.7-10.7,34.8-32.3,34.8-57.2C682.1,197.6,653.2,168.8,617.6,168.8z"/>
		<linearGradient id="XMLID_96_" gradientUnits="userSpaceOnUse" x1="571.2099" y1="231.3634" x2="745.8783" y2="226.4056">
			<stop  offset="0" style="stop-color:#EFEFF0"/>
			<stop  offset="0.1066" style="stop-color:#F5F5F5;stop-opacity:0.8917"/>
			<stop  offset="0.3389" style="stop-color:#FCFCFC;stop-opacity:0.6558"/>
			<stop  offset="0.9847" style="stop-color:#FFFFFF;stop-opacity:0"/>
		</linearGradient>
		<path id="XMLID_214_" class="st62" d="M617.6,168.8c-11.2,0-21.6,2.8-30.8,7.8c7.6-4,16.1-6.4,25.1-7.1
			c21.3-0.4,39.8,9.4,24.4,11.6c-15.4,2.3,15.8,30.3,15.8,30.3s18,4.1,10.5-10.4c-7.5-14.5,0.2-12.2,2.8-9.3
			c4.8,5.6,8.7,11.9,11.3,18.9c3.1,8.4-1.7,18.7-4.8,12.1c-3.1-6.7-6.6,8.4-6.6,8.4s-7.2,35.2,1.7,27.1c8.8-8.1,13.2-16.8,14-26.9
			c0,0.8,0.1,1.6,0.1,2.5c0,24.5-13.6,45.7-33.7,56.7c20.7-10.7,34.8-32.3,34.8-57.2C682.1,197.6,653.2,168.8,617.6,168.8z"/>
		<linearGradient id="XMLID_97_" gradientUnits="userSpaceOnUse" x1="575.8456" y1="256.4899" x2="584.4265" y2="187.2711">
			<stop  offset="0" style="stop-color:#000000"/>
			<stop  offset="1" style="stop-color:#464547"/>
		</linearGradient>
		<path id="XMLID_213_" class="st63" d="M561.2,233.3c0-26.9,18.8-49.4,44-55.1c-25.7,4-45.4,26.2-45.4,53.1
			c0,9.3,2.4,18.1,6.6,25.8C563,249.8,561.2,241.7,561.2,233.3z"/>
		<linearGradient id="XMLID_98_" gradientUnits="userSpaceOnUse" x1="618.8192" y1="297.6481" x2="618.8192" y2="286.9059">
			<stop  offset="0" style="stop-color:#EFEFF0"/>
			<stop  offset="0.1066" style="stop-color:#F5F5F5;stop-opacity:0.8917"/>
			<stop  offset="0.3389" style="stop-color:#FCFCFC;stop-opacity:0.6558"/>
			<stop  offset="0.9847" style="stop-color:#FFFFFF;stop-opacity:0"/>
		</linearGradient>
		<path id="XMLID_212_" class="st64" d="M619.6,296.8c15.5-0.3,22.4-5.9,21.8-8.2c-0.5-2.3-10.7,4.2-35.5,1.5
			c-12.9-1.4-10.2,0.5-7.7,2.3C600.9,294.3,609.4,296.9,619.6,296.8z"/>
	</g>
	<circle id="XMLID_210_" class="st65" cx="617.6" cy="233.3" r="55.3"/>
	<g>
		<path class="st14" d="M590.5,224.6c1-0.2,2.3-0.3,3.6-0.3c2.1,0,3.7,0.3,4.8,1.4c1.1,0.9,1.5,2.4,1.5,3.9c0,1.9-0.6,3.3-1.5,4.3
			c-1.1,1.2-2.9,1.7-4.3,1.7c-0.2,0-0.4,0-0.7,0v6.6h-3.5V224.6z M594,232.7c0.2,0,0.4,0,0.6,0c1.7,0,2.5-1.2,2.5-2.9
			c0-1.6-0.6-2.8-2.2-2.8c-0.3,0-0.6,0.1-0.8,0.1V232.7z"/>
		<path class="st14" d="M604.3,238.1l-0.8,4.1h-3.3l3.8-17.8h4.1l3.5,17.8h-3.4l-0.7-4.1H604.3z M607.2,235.4l-0.6-3.7
			c-0.2-1.1-0.4-2.9-0.6-4h-0.1c-0.2,1.2-0.4,3-0.6,4l-0.7,3.7H607.2z"/>
		<path class="st14" d="M616.5,224.3v11.5c0,2.6,0.8,3.4,1.7,3.4c1,0,1.7-0.7,1.7-3.4v-11.5h3.5v10.9c0,4.6-1.7,7-5.1,7
			c-3.7,0-5.2-2.6-5.2-7v-11H616.5z"/>
		<path class="st14" d="M625.9,238.6c0.7,0.4,2,0.7,2.9,0.7c1.6,0,2.4-0.8,2.4-2c0-1.3-0.8-1.9-2.3-2.9c-2.4-1.5-3.3-3.3-3.3-5
			c0-2.8,1.9-5.2,5.6-5.2c1.2,0,2.3,0.3,2.8,0.6l-0.6,3c-0.5-0.3-1.3-0.6-2.2-0.6c-1.5,0-2.2,0.9-2.2,1.8c0,1.1,0.5,1.6,2.4,2.8
			c2.4,1.4,3.2,3.2,3.2,5.1c0,3.2-2.4,5.4-5.9,5.4c-1.4,0-2.8-0.4-3.4-0.7L625.9,238.6z"/>
		<path class="st14" d="M644.2,234.3h-4v4.8h4.6v3h-8v-17.8h7.7v3h-4.3v4.1h4V234.3z"/>
	</g>
	<g>
		<radialGradient id="XMLID_99_" cx="616.4968" cy="231.8787" r="56.9414" gradientUnits="userSpaceOnUse">
			<stop  offset="0.7653" style="stop-color:#000000;stop-opacity:0"/>
			<stop  offset="0.9703" style="stop-color:#000000;stop-opacity:0.8736"/>
			<stop  offset="1" style="stop-color:#000000"/>
		</radialGradient>
		<circle id="XMLID_209_" class="st66" cx="617.6" cy="233.3" r="55.9"/>
		<radialGradient id="XMLID_100_" cx="612.4853" cy="224.7764" r="70.1129" gradientUnits="userSpaceOnUse">
			<stop  offset="0.175" style="stop-color:#000000;stop-opacity:0"/>
			<stop  offset="0.8957" style="stop-color:#000000;stop-opacity:0.8736"/>
			<stop  offset="1" style="stop-color:#000000"/>
		</radialGradient>
		<circle id="XMLID_208_" class="st67" cx="617.6" cy="233.3" r="55.9"/>
		<g>
			<linearGradient id="SVGID_9_" gradientUnits="userSpaceOnUse" x1="588.2852" y1="198.2343" x2="629.9753" y2="288.6463">
				<stop  offset="0" style="stop-color:#FFFFFF"/>
				<stop  offset="0.147" style="stop-color:#FFFFFF;stop-opacity:0.853"/>
				<stop  offset="1" style="stop-color:#FFFFFF;stop-opacity:0"/>
			</linearGradient>
			<path class="st68" d="M584.3,219.9c4.7-0.2,10-0.6,15.5-1.3c0.5-6.9,1.5-13.6,3-19c0,0-6.1,0.5-14,2.5
				C586.9,207.3,585.2,213.2,584.3,219.9z"/>
			<linearGradient id="SVGID_10_" gradientUnits="userSpaceOnUse" x1="574.5566" y1="204.5647" x2="616.2465" y2="294.9763">
				<stop  offset="0" style="stop-color:#FFFFFF"/>
				<stop  offset="0.147" style="stop-color:#FFFFFF;stop-opacity:0.853"/>
				<stop  offset="1" style="stop-color:#FFFFFF;stop-opacity:0"/>
			</linearGradient>
			<path class="st69" d="M580.2,219.9c0.7-6.1,2.1-11.5,3.8-16.5c-2.6,0.8-5.2,1.8-7.8,3c-1.5,2.2-3.4,7.2-4.7,13.4
				C574.1,219.9,576.9,220,580.2,219.9z"/>
			<linearGradient id="SVGID_11_" gradientUnits="userSpaceOnUse" x1="578.1925" y1="202.8882" x2="619.8824" y2="293.3">
				<stop  offset="0" style="stop-color:#FFFFFF"/>
				<stop  offset="0.147" style="stop-color:#FFFFFF;stop-opacity:0.853"/>
				<stop  offset="1" style="stop-color:#FFFFFF;stop-opacity:0"/>
			</linearGradient>
			<path class="st70" d="M599.6,222.6c-5.6,0.7-11,1.1-15.7,1.3c-0.5,6.3-0.1,13.2,1.3,20.9c4.6,0.6,10.2,0.8,16.8,0
				C600,238.5,599.4,230.6,599.6,222.6z"/>
			<linearGradient id="SVGID_12_" gradientUnits="userSpaceOnUse" x1="564.5992" y1="209.1561" x2="606.2893" y2="299.5682">
				<stop  offset="0" style="stop-color:#FFFFFF"/>
				<stop  offset="0.147" style="stop-color:#FFFFFF;stop-opacity:0.853"/>
				<stop  offset="1" style="stop-color:#FFFFFF;stop-opacity:0"/>
			</linearGradient>
			<path class="st71" d="M579.8,224c-0.4,0-0.8,0-1.2,0c-2.9,0-5.5-0.1-7.7-0.2c-0.8,5.4-1,11.3-0.2,16.9c0,0,3.6,2,10.3,3.4
				C579.7,236.8,579.4,230.1,579.8,224z"/>
		</g>
		<g id="XMLID_183_">
			<g id="XMLID_187_">
				<path id="XMLID_195_" class="st14" d="M672.9,233.3c0,0,0,0.3,0,1c0,0.6,0,1.6-0.1,2.8c-0.1,2.4-0.4,5.8-1.4,9.8
					c-0.2,1-0.5,2-0.8,3.1c-0.3,1.1-0.7,2.1-1.1,3.2c-0.8,2.2-1.8,4.5-3,6.7c-1.2,2.3-2.6,4.5-4.2,6.7c-1.6,2.2-3.4,4.2-5.3,6.2
					c-3.9,3.9-8.3,7.1-12.9,9.5c-2.3,1.2-4.5,2.2-6.7,3c-2.2,0.8-4.3,1.4-6.3,1.9c-2,0.5-3.8,0.8-5.5,1c-0.4,0.1-0.8,0.1-1.2,0.2
					c-0.4,0-0.8,0.1-1.1,0.1c-0.7,0.1-1.4,0.1-2,0.1c-0.6,0-1.1,0.1-1.6,0.1c-0.5,0-0.9,0-1.2,0c-0.6,0-1,0-1,0s0.3,0,1,0
					c0.3,0,0.7,0,1.2,0c0.5,0,1-0.1,1.6-0.1c0.6,0,1.2-0.1,2-0.2c0.4,0,0.7-0.1,1.1-0.1c0.4-0.1,0.8-0.1,1.2-0.2
					c1.6-0.2,3.5-0.6,5.4-1.1c2-0.5,4.1-1.2,6.2-2c2.2-0.8,4.4-1.9,6.6-3.1c4.4-2.4,8.8-5.7,12.6-9.5c1.9-1.9,3.7-3.9,5.3-6.1
					c1.6-2.1,3-4.3,4.2-6.6c1.2-2.2,2.3-4.4,3.1-6.6c0.4-1.1,0.8-2.2,1.1-3.2c0.3-1,0.6-2.1,0.9-3c0.5-2,0.9-3.8,1.1-5.4
					c0.3-1.6,0.4-3.1,0.5-4.2c0.1-1.2,0.1-2.1,0.2-2.8C672.9,233.6,672.9,233.3,672.9,233.3z"/>
				
					<radialGradient id="XMLID_101_" cx="1499.0295" cy="77.7083" r="22.8221" gradientTransform="matrix(0.2453 0.2286 -0.6817 0.7316 340.238 -126.0349)" gradientUnits="userSpaceOnUse">
					<stop  offset="0" style="stop-color:#FFFFFF"/>
					<stop  offset="0.147" style="stop-color:#FFFFFF;stop-opacity:0.853"/>
					<stop  offset="1" style="stop-color:#FFFFFF;stop-opacity:0"/>
				</radialGradient>
				<path id="XMLID_189_" class="st72" d="M660.6,278.7c-8.6,9.2-18.1,14.4-21.2,11.5c-3.1-2.9,1.4-12.7,10-21.9
					c8.6-9.2,18.1-14.4,21.2-11.5C673.6,259.7,669.2,269.5,660.6,278.7z"/>
				
					<radialGradient id="XMLID_102_" cx="506.1868" cy="246.3507" r="16.7807" gradientTransform="matrix(0.3287 -6.630000e-02 0.1976 0.9803 458.512 11.7983)" gradientUnits="userSpaceOnUse">
					<stop  offset="0" style="stop-color:#FFFFFF"/>
					<stop  offset="0.147" style="stop-color:#FFFFFF;stop-opacity:0.853"/>
					<stop  offset="1" style="stop-color:#FFFFFF;stop-opacity:0"/>
				</radialGradient>
				<path id="XMLID_188_" class="st73" d="M679.1,218.6c1.8,9.1,0.8,16.9-2.2,17.6c-3,0.6-7-6.3-8.8-15.3
					c-1.8-9.1-0.8-16.9,2.2-17.6C673.3,202.7,677.3,209.5,679.1,218.6z"/>
			</g>
			<path id="XMLID_186_" class="st14" d="M563.8,220.3c0,0,0.2-0.8,0.5-2.1c0.1-0.3,0.2-0.7,0.3-1.1c0.1-0.4,0.3-0.8,0.4-1.3
				c0.1-0.5,0.3-0.9,0.5-1.5c0.2-0.5,0.4-1,0.6-1.6c0.2-0.5,0.4-1.1,0.7-1.7c0.3-0.6,0.5-1.2,0.8-1.8c0.1-0.3,0.3-0.6,0.4-0.9
				c0.2-0.3,0.3-0.6,0.5-0.9c0.3-0.6,0.7-1.3,1-1.9c0.8-1.2,1.5-2.6,2.4-3.8c0.8-1.3,1.8-2.5,2.8-3.8c1-1.2,2-2.4,3.2-3.5
				c1.1-1.1,2.2-2.1,3.3-3.1c0.6-0.5,1.1-0.9,1.7-1.4c0.3-0.2,0.6-0.4,0.8-0.7c0.3-0.2,0.6-0.4,0.8-0.6c0.5-0.4,1.1-0.8,1.6-1.1
				c0.5-0.4,1.1-0.7,1.5-1c0.5-0.3,1-0.6,1.4-0.9c0.5-0.3,0.9-0.5,1.3-0.7c0.4-0.2,0.8-0.4,1.2-0.6c0.4-0.2,0.7-0.3,1-0.5
				c1.2-0.6,1.9-0.9,1.9-0.9s-0.7,0.4-1.9,1c-0.3,0.2-0.6,0.3-1,0.5c-0.4,0.2-0.7,0.4-1.2,0.7c-0.4,0.2-0.8,0.5-1.3,0.8
				c-0.5,0.3-0.9,0.6-1.4,0.9c-0.5,0.3-1,0.6-1.5,1c-0.5,0.4-1,0.8-1.6,1.2c-0.3,0.2-0.5,0.4-0.8,0.6c-0.3,0.2-0.5,0.4-0.8,0.7
				c-0.5,0.5-1.1,0.9-1.7,1.4c-1.1,1-2.2,2-3.3,3.1c-1.1,1.1-2.1,2.3-3.1,3.5c-1,1.2-2,2.4-2.8,3.7c-0.9,1.2-1.7,2.6-2.4,3.8
				c-0.4,0.6-0.7,1.3-1,1.9c-0.2,0.3-0.3,0.6-0.5,0.9c-0.1,0.3-0.3,0.6-0.4,0.9c-0.3,0.6-0.6,1.2-0.8,1.8c-0.3,0.6-0.5,1.1-0.7,1.7
				c-0.2,0.5-0.4,1.1-0.6,1.6c-0.2,0.5-0.3,1-0.5,1.4c-0.2,0.5-0.3,0.9-0.4,1.3c-0.1,0.4-0.2,0.8-0.3,1.1
				C564,219.6,563.8,220.3,563.8,220.3z"/>
			
				<radialGradient id="XMLID_103_" cx="1170.7872" cy="75.2629" r="13.2823" gradientTransform="matrix(0.2453 0.2286 -0.6817 0.7316 340.238 -126.0349)" gradientUnits="userSpaceOnUse">
				<stop  offset="0" style="stop-color:#FFFFFF"/>
				<stop  offset="0.147" style="stop-color:#FFFFFF;stop-opacity:0.853"/>
				<stop  offset="1" style="stop-color:#FFFFFF;stop-opacity:0"/>
			</radialGradient>
			<path id="XMLID_185_" class="st74" d="M579.4,199.7c-5,5.4-10.5,8.4-12.3,6.7c-1.8-1.7,0.8-7.4,5.8-12.8c5-5.4,10.5-8.4,12.3-6.7
				C587,188.6,584.4,194.3,579.4,199.7z"/>
			<path id="XMLID_184_" class="st14" d="M628.5,178.9c0,0,0.8,0.2,2.1,0.4c0.3,0.1,0.7,0.1,1.1,0.2c0.4,0.1,0.8,0.2,1.3,0.4
				c0.5,0.1,1,0.3,1.5,0.4c0.5,0.1,1,0.4,1.6,0.5c0.6,0.2,1.1,0.4,1.7,0.6c0.6,0.2,1.2,0.5,1.8,0.7c0.3,0.1,0.6,0.3,0.9,0.4
				c0.3,0.1,0.6,0.3,0.9,0.5c0.6,0.3,1.3,0.6,2,0.9c1.3,0.7,2.6,1.4,3.9,2.3c1.3,0.8,2.6,1.7,3.9,2.7c1.2,1,2.5,1.9,3.6,3
				c1.2,1,2.2,2.1,3.2,3.2c0.5,0.5,1,1.1,1.4,1.6c0.2,0.3,0.5,0.5,0.7,0.8c0.2,0.3,0.4,0.5,0.6,0.8c0.4,0.5,0.8,1.1,1.2,1.6
				c0.4,0.5,0.7,1,1.1,1.5c0.3,0.5,0.7,0.9,0.9,1.4c0.3,0.5,0.5,0.9,0.8,1.3c0.2,0.4,0.5,0.8,0.7,1.1c0.2,0.4,0.4,0.7,0.5,1
				c0.6,1.2,1,1.9,1,1.9s-0.4-0.7-1.1-1.9c-0.2-0.3-0.3-0.6-0.6-1c-0.2-0.3-0.5-0.7-0.7-1.1c-0.3-0.4-0.5-0.8-0.8-1.3
				c-0.3-0.4-0.6-0.9-1-1.4c-0.3-0.5-0.7-1-1.1-1.5c-0.4-0.5-0.8-1-1.2-1.5c-0.2-0.3-0.4-0.5-0.6-0.8c-0.2-0.3-0.5-0.5-0.7-0.8
				c-0.5-0.5-0.9-1.1-1.4-1.6c-1-1-2.1-2.1-3.2-3.1c-1.1-1.1-2.4-2-3.6-3c-1.3-0.9-2.5-1.9-3.8-2.7c-1.3-0.9-2.6-1.6-3.9-2.3
				c-0.7-0.3-1.3-0.6-1.9-1c-0.3-0.2-0.6-0.3-0.9-0.5c-0.3-0.1-0.6-0.3-0.9-0.4c-0.6-0.3-1.2-0.5-1.8-0.8c-0.6-0.2-1.2-0.4-1.7-0.6
				c-0.6-0.2-1.1-0.4-1.6-0.6c-0.5-0.2-1-0.3-1.5-0.4c-0.5-0.1-0.9-0.3-1.3-0.4c-0.4-0.1-0.8-0.2-1.1-0.3
				C629.2,179.1,628.5,178.9,628.5,178.9z"/>
		</g>
	</g>
</g>
<g>
	<g id="XMLID_152_">
		<circle id="XMLID_182_" class="st0" cx="762.9" cy="233.3" r="65.5"/>
		<circle id="XMLID_181_" class="st1" cx="762.9" cy="233.3" r="65.2"/>
		<linearGradient id="XMLID_104_" gradientUnits="userSpaceOnUse" x1="822.784" y1="310.0754" x2="718.3192" y2="176.7401">
			<stop  offset="0" style="stop-color:#58595B"/>
			<stop  offset="1" style="stop-color:#BCBEC0"/>
		</linearGradient>
		<circle id="XMLID_180_" class="st75" cx="762.9" cy="233.6" r="64.5"/>
		<radialGradient id="XMLID_105_" cx="762.866" cy="233.5981" r="64.4835" gradientUnits="userSpaceOnUse">
			<stop  offset="0.7653" style="stop-color:#000000;stop-opacity:0"/>
			<stop  offset="0.9703" style="stop-color:#000000;stop-opacity:0.8736"/>
			<stop  offset="1" style="stop-color:#000000"/>
		</radialGradient>
		<circle id="XMLID_179_" class="st76" cx="762.9" cy="233.6" r="64.5"/>
		<linearGradient id="XMLID_106_" gradientUnits="userSpaceOnUse" x1="735.5972" y1="172.9644" x2="749.7278" y2="225.5668">
			<stop  offset="0" style="stop-color:#EFEFF0"/>
			<stop  offset="0.9847" style="stop-color:#FFFFFF;stop-opacity:0"/>
		</linearGradient>
		<path id="XMLID_178_" class="st77" d="M716.8,278.4l66.4-73.6l8.9-29c-8.8-4.5-18.7-7-29.2-7c-35.6,0-64.5,28.9-64.5,64.5
			C698.4,250.8,705.4,266.7,716.8,278.4z"/>
		<linearGradient id="XMLID_107_" gradientUnits="userSpaceOnUse" x1="793.6984" y1="292.7853" x2="783.02" y2="267.4241">
			<stop  offset="0" style="stop-color:#000000"/>
			<stop  offset="1" style="stop-color:#464547"/>
		</linearGradient>
		<path id="XMLID_170_" class="st78" d="M797.4,178.8c17.2,11.6,28.6,31.3,28.6,53.6c0,35.6-28.9,64.5-64.5,64.5
			c-12.7,0-24.5-3.7-34.5-10c10.3,6.9,22.6,10.9,35.9,10.9c35.6,0,64.5-28.9,64.5-64.5C827.3,210.3,815.4,190.2,797.4,178.8z"/>
		<linearGradient id="XMLID_108_" gradientUnits="userSpaceOnUse" x1="811.4069" y1="191.9485" x2="813.6951" y2="211.6845">
			<stop  offset="1.530610e-02" style="stop-color:#B1B3B6"/>
			<stop  offset="1" style="stop-color:#EFEFF0"/>
		</linearGradient>
		<path id="XMLID_157_" class="st79" d="M823.8,215.8l-0.9,10.3l-5.8,1.5l-5.4-4.1l-6.5-16c0,0-3.1-13.2-3.3-13.4
			c-0.2-0.2,1.7-5.6,1.7-5.6l3.1-0.7l3.6,2.7c0,0,5.8,6.6,9.8,14.8C824.3,213.5,823.8,215.8,823.8,215.8z"/>
		<linearGradient id="XMLID_109_" gradientUnits="userSpaceOnUse" x1="779.4537" y1="171.7267" x2="780.5108" y2="308.8716">
			<stop  offset="0" style="stop-color:#000000"/>
			<stop  offset="1" style="stop-color:#464547"/>
		</linearGradient>
		<path id="XMLID_156_" class="st80" d="M762.9,168.8c-11.2,0-21.6,2.8-30.8,7.8c7.6-4,16.1-6.4,25.1-7.1
			c21.3-0.4,39.8,9.4,24.4,11.6c-15.4,2.3,15.8,30.3,15.8,30.3s18,4.1,10.5-10.4c-7.5-14.5,0.2-12.2,2.8-9.3
			c4.8,5.6,8.7,11.9,11.3,18.9c3.1,8.4-1.7,18.7-4.8,12.1c-3.1-6.7-6.6,8.4-6.6,8.4s-7.2,35.2,1.7,27.1c8.8-8.1,13.2-16.8,14-26.9
			c0,0.8,0.1,1.6,0.1,2.5c0,24.5-13.6,45.7-33.7,56.7c20.7-10.7,34.8-32.3,34.8-57.2C827.3,197.6,798.5,168.8,762.9,168.8z"/>
		<linearGradient id="XMLID_110_" gradientUnits="userSpaceOnUse" x1="716.4489" y1="231.3634" x2="891.1172" y2="226.4056">
			<stop  offset="0" style="stop-color:#EFEFF0"/>
			<stop  offset="0.1066" style="stop-color:#F5F5F5;stop-opacity:0.8917"/>
			<stop  offset="0.3389" style="stop-color:#FCFCFC;stop-opacity:0.6558"/>
			<stop  offset="0.9847" style="stop-color:#FFFFFF;stop-opacity:0"/>
		</linearGradient>
		<path id="XMLID_155_" class="st81" d="M762.9,168.8c-11.2,0-21.6,2.8-30.8,7.8c7.6-4,16.1-6.4,25.1-7.1
			c21.3-0.4,39.8,9.4,24.4,11.6c-15.4,2.3,15.8,30.3,15.8,30.3s18,4.1,10.5-10.4c-7.5-14.5,0.2-12.2,2.8-9.3
			c4.8,5.6,8.7,11.9,11.3,18.9c3.1,8.4-1.7,18.7-4.8,12.1c-3.1-6.7-6.6,8.4-6.6,8.4s-7.2,35.2,1.7,27.1c8.8-8.1,13.2-16.8,14-26.9
			c0,0.8,0.1,1.6,0.1,2.5c0,24.5-13.6,45.7-33.7,56.7c20.7-10.7,34.8-32.3,34.8-57.2C827.3,197.6,798.5,168.8,762.9,168.8z"/>
		<linearGradient id="XMLID_111_" gradientUnits="userSpaceOnUse" x1="721.0848" y1="256.4899" x2="729.6656" y2="187.2711">
			<stop  offset="0" style="stop-color:#000000"/>
			<stop  offset="1" style="stop-color:#464547"/>
		</linearGradient>
		<path id="XMLID_154_" class="st82" d="M706.4,233.3c0-26.9,18.8-49.4,44-55.1c-25.7,4-45.4,26.2-45.4,53.1
			c0,9.3,2.4,18.1,6.6,25.8C708.3,249.8,706.4,241.7,706.4,233.3z"/>
		<linearGradient id="XMLID_112_" gradientUnits="userSpaceOnUse" x1="764.0582" y1="297.6481" x2="764.0582" y2="286.9059">
			<stop  offset="0" style="stop-color:#EFEFF0"/>
			<stop  offset="0.1066" style="stop-color:#F5F5F5;stop-opacity:0.8917"/>
			<stop  offset="0.3389" style="stop-color:#FCFCFC;stop-opacity:0.6558"/>
			<stop  offset="0.9847" style="stop-color:#FFFFFF;stop-opacity:0"/>
		</linearGradient>
		<path id="XMLID_153_" class="st83" d="M764.8,296.8c15.5-0.3,22.4-5.9,21.8-8.2c-0.5-2.3-10.7,4.2-35.5,1.5
			c-12.9-1.4-10.2,0.5-7.7,2.3C746.1,294.3,754.7,296.9,764.8,296.8z"/>
	</g>
	<circle id="XMLID_151_" class="st84" cx="762.9" cy="233.3" r="55.3"/>
	<g>
		<path class="st14" d="M736.5,238.6c0.7,0.4,2,0.7,2.9,0.7c1.6,0,2.4-0.8,2.4-2c0-1.3-0.8-1.9-2.3-2.9c-2.4-1.5-3.3-3.3-3.3-5
			c0-2.8,1.9-5.2,5.6-5.2c1.2,0,2.3,0.3,2.8,0.6l-0.6,3c-0.5-0.3-1.3-0.6-2.2-0.6c-1.5,0-2.2,0.9-2.2,1.8c0,1.1,0.5,1.6,2.4,2.8
			c2.4,1.4,3.2,3.2,3.2,5.1c0,3.2-2.4,5.4-5.9,5.4c-1.4,0-2.8-0.4-3.4-0.7L736.5,238.6z"/>
		<path class="st14" d="M749.2,227.6h-3.1v-3.2h9.8v3.2h-3.2v14.6h-3.5V227.6z"/>
		<path class="st14" d="M759.6,238.1l-0.8,4.1h-3.3l3.9-17.8h4.1l3.5,17.8h-3.4l-0.7-4.1H759.6z M762.4,235.4l-0.6-3.7
			c-0.2-1.1-0.4-2.9-0.6-4h-0.1c-0.2,1.2-0.4,3-0.6,4l-0.7,3.7H762.4z"/>
		<path class="st14" d="M768.8,224.6c1.1-0.2,2.5-0.3,3.8-0.3c1.9,0,3.6,0.3,4.7,1.3c1.1,1,1.4,2.2,1.4,3.7c0,1.9-1,3.6-2.7,4.4v0.1
			c1.2,0.5,1.8,1.6,2.2,3.5c0.3,2,0.8,4.2,1.1,4.8h-3.6c-0.2-0.5-0.6-2.3-0.9-4.3c-0.3-2.2-0.9-2.8-2-2.8h-0.5v7.1h-3.5V224.6z
			 M772.3,232.4h0.6c1.5,0,2.3-1.2,2.3-2.8c0-1.5-0.6-2.6-2.1-2.6c-0.3,0-0.7,0-0.8,0.1V232.4z"/>
		<path class="st14" d="M783.1,227.6H780v-3.2h9.8v3.2h-3.2v14.6h-3.5V227.6z"/>
	</g>
	<g>
		<radialGradient id="XMLID_113_" cx="761.7358" cy="231.8787" r="56.9414" gradientUnits="userSpaceOnUse">
			<stop  offset="0.7653" style="stop-color:#000000;stop-opacity:0"/>
			<stop  offset="0.9703" style="stop-color:#000000;stop-opacity:0.8736"/>
			<stop  offset="1" style="stop-color:#000000"/>
		</radialGradient>
		<circle id="XMLID_150_" class="st85" cx="762.9" cy="233.3" r="55.9"/>
		<radialGradient id="XMLID_114_" cx="757.7243" cy="224.7764" r="70.1129" gradientUnits="userSpaceOnUse">
			<stop  offset="0.175" style="stop-color:#000000;stop-opacity:0"/>
			<stop  offset="0.8957" style="stop-color:#000000;stop-opacity:0.8736"/>
			<stop  offset="1" style="stop-color:#000000"/>
		</radialGradient>
		<circle id="XMLID_149_" class="st86" cx="762.9" cy="233.3" r="55.9"/>
		<g>
			<linearGradient id="SVGID_13_" gradientUnits="userSpaceOnUse" x1="733.5242" y1="198.2342" x2="775.2144" y2="288.6465">
				<stop  offset="0" style="stop-color:#FFFFFF"/>
				<stop  offset="0.147" style="stop-color:#FFFFFF;stop-opacity:0.853"/>
				<stop  offset="1" style="stop-color:#FFFFFF;stop-opacity:0"/>
			</linearGradient>
			<path class="st87" d="M729.5,219.9c4.7-0.2,10-0.6,15.5-1.3c0.5-6.9,1.5-13.6,3-19c0,0-6.1,0.5-14,2.5
				C732.1,207.3,730.4,213.2,729.5,219.9z"/>
			<linearGradient id="SVGID_14_" gradientUnits="userSpaceOnUse" x1="719.7956" y1="204.5647" x2="761.4855" y2="294.9763">
				<stop  offset="0" style="stop-color:#FFFFFF"/>
				<stop  offset="0.147" style="stop-color:#FFFFFF;stop-opacity:0.853"/>
				<stop  offset="1" style="stop-color:#FFFFFF;stop-opacity:0"/>
			</linearGradient>
			<path class="st88" d="M725.5,219.9c0.7-6.1,2.1-11.5,3.8-16.5c-2.6,0.8-5.2,1.8-7.8,3c-1.5,2.2-3.4,7.2-4.7,13.4
				C719.3,219.9,722.2,220,725.5,219.9z"/>
			<linearGradient id="SVGID_15_" gradientUnits="userSpaceOnUse" x1="723.4315" y1="202.8882" x2="765.1215" y2="293.3">
				<stop  offset="0" style="stop-color:#FFFFFF"/>
				<stop  offset="0.147" style="stop-color:#FFFFFF;stop-opacity:0.853"/>
				<stop  offset="1" style="stop-color:#FFFFFF;stop-opacity:0"/>
			</linearGradient>
			<path class="st89" d="M744.8,222.6c-5.6,0.7-11,1.1-15.7,1.3c-0.5,6.3-0.1,13.2,1.3,20.9c4.6,0.6,10.2,0.8,16.8,0
				C745.3,238.5,744.6,230.6,744.8,222.6z"/>
			<linearGradient id="SVGID_16_" gradientUnits="userSpaceOnUse" x1="709.8382" y1="209.1561" x2="751.5283" y2="299.5682">
				<stop  offset="0" style="stop-color:#FFFFFF"/>
				<stop  offset="0.147" style="stop-color:#FFFFFF;stop-opacity:0.853"/>
				<stop  offset="1" style="stop-color:#FFFFFF;stop-opacity:0"/>
			</linearGradient>
			<path class="st90" d="M725.1,224c-0.4,0-0.8,0-1.2,0c-2.9,0-5.5-0.1-7.7-0.2c-0.8,5.4-1,11.3-0.2,16.9c0,0,3.6,2,10.3,3.4
				C725,236.8,724.7,230.1,725.1,224z"/>
		</g>
		<g id="XMLID_141_">
			<g id="XMLID_145_">
				<path id="XMLID_148_" class="st14" d="M818.2,233.3c0,0,0,0.3,0,1c0,0.6,0,1.6-0.1,2.8c-0.1,2.4-0.4,5.8-1.4,9.8
					c-0.2,1-0.5,2-0.8,3.1c-0.3,1.1-0.7,2.1-1.1,3.2c-0.8,2.2-1.8,4.5-3,6.7c-1.2,2.3-2.6,4.5-4.2,6.7c-1.6,2.2-3.4,4.2-5.3,6.2
					c-3.9,3.9-8.3,7.1-12.9,9.5c-2.3,1.2-4.5,2.2-6.7,3c-2.2,0.8-4.3,1.4-6.3,1.9c-2,0.5-3.8,0.8-5.5,1c-0.4,0.1-0.8,0.1-1.2,0.2
					c-0.4,0-0.8,0.1-1.1,0.1c-0.7,0.1-1.4,0.1-2,0.1c-0.6,0-1.1,0.1-1.6,0.1c-0.5,0-0.9,0-1.2,0c-0.6,0-1,0-1,0s0.3,0,1,0
					c0.3,0,0.7,0,1.2,0c0.5,0,1-0.1,1.6-0.1c0.6,0,1.2-0.1,2-0.2c0.4,0,0.7-0.1,1.1-0.1c0.4-0.1,0.8-0.1,1.2-0.2
					c1.6-0.2,3.5-0.6,5.4-1.1c2-0.5,4.1-1.2,6.2-2c2.2-0.8,4.4-1.9,6.6-3.1c4.4-2.4,8.8-5.7,12.6-9.5c1.9-1.9,3.7-3.9,5.3-6.1
					c1.6-2.1,3-4.3,4.2-6.6c1.2-2.2,2.3-4.4,3.1-6.6c0.4-1.1,0.8-2.2,1.1-3.2c0.3-1,0.6-2.1,0.9-3c0.5-2,0.9-3.8,1.1-5.4
					c0.3-1.6,0.4-3.1,0.5-4.2c0.1-1.2,0.1-2.1,0.2-2.8C818.2,233.6,818.2,233.3,818.2,233.3z"/>
				
					<radialGradient id="XMLID_115_" cx="1815.9321" cy="-21.313" r="22.8221" gradientTransform="matrix(0.2453 0.2286 -0.6817 0.7316 340.238 -126.0349)" gradientUnits="userSpaceOnUse">
					<stop  offset="0" style="stop-color:#FFFFFF"/>
					<stop  offset="0.147" style="stop-color:#FFFFFF;stop-opacity:0.853"/>
					<stop  offset="1" style="stop-color:#FFFFFF;stop-opacity:0"/>
				</radialGradient>
				<path id="XMLID_147_" class="st91" d="M805.8,278.7c-8.6,9.2-18.1,14.4-21.2,11.5c-3.1-2.9,1.4-12.7,10-21.9
					c8.6-9.2,18.1-14.4,21.2-11.5C818.9,259.7,814.4,269.5,805.8,278.7z"/>
				
					<radialGradient id="XMLID_116_" cx="930.7828" cy="275.0671" r="16.7806" gradientTransform="matrix(0.3287 -6.630000e-02 0.1976 0.9803 458.512 11.7983)" gradientUnits="userSpaceOnUse">
					<stop  offset="0" style="stop-color:#FFFFFF"/>
					<stop  offset="0.147" style="stop-color:#FFFFFF;stop-opacity:0.853"/>
					<stop  offset="1" style="stop-color:#FFFFFF;stop-opacity:0"/>
				</radialGradient>
				<path id="XMLID_146_" class="st92" d="M824.3,218.6c1.8,9.1,0.8,16.9-2.2,17.6c-3,0.6-7-6.3-8.8-15.3
					c-1.8-9.1-0.8-16.9,2.2-17.6C818.5,202.7,822.5,209.5,824.3,218.6z"/>
			</g>
			<path id="XMLID_144_" class="st14" d="M709.1,220.3c0,0,0.2-0.8,0.5-2.1c0.1-0.3,0.2-0.7,0.3-1.1c0.1-0.4,0.3-0.8,0.4-1.3
				c0.1-0.5,0.3-0.9,0.5-1.5c0.2-0.5,0.4-1,0.6-1.6c0.2-0.5,0.4-1.1,0.7-1.7c0.3-0.6,0.5-1.2,0.8-1.8c0.1-0.3,0.3-0.6,0.4-0.9
				c0.2-0.3,0.3-0.6,0.5-0.9c0.3-0.6,0.7-1.3,1-1.9c0.8-1.2,1.5-2.6,2.4-3.8c0.8-1.3,1.8-2.5,2.8-3.8c1-1.2,2-2.4,3.2-3.5
				c1.1-1.1,2.2-2.1,3.3-3.1c0.6-0.5,1.1-0.9,1.7-1.4c0.3-0.2,0.6-0.4,0.8-0.7c0.3-0.2,0.6-0.4,0.8-0.6c0.5-0.4,1.1-0.8,1.6-1.1
				c0.5-0.4,1.1-0.7,1.5-1c0.5-0.3,1-0.6,1.4-0.9c0.5-0.3,0.9-0.5,1.3-0.7c0.4-0.2,0.8-0.4,1.2-0.6c0.4-0.2,0.7-0.3,1-0.5
				c1.2-0.6,1.9-0.9,1.9-0.9s-0.7,0.4-1.9,1c-0.3,0.2-0.6,0.3-1,0.5c-0.4,0.2-0.7,0.4-1.2,0.7c-0.4,0.2-0.8,0.5-1.3,0.8
				c-0.5,0.3-0.9,0.6-1.4,0.9c-0.5,0.3-1,0.6-1.5,1c-0.5,0.4-1,0.8-1.6,1.2c-0.3,0.2-0.5,0.4-0.8,0.6c-0.3,0.2-0.5,0.4-0.8,0.7
				c-0.5,0.5-1.1,0.9-1.7,1.4c-1.1,1-2.2,2-3.3,3.1c-1.1,1.1-2.1,2.3-3.1,3.5c-1,1.2-2,2.4-2.8,3.7c-0.9,1.2-1.7,2.6-2.4,3.8
				c-0.4,0.6-0.7,1.3-1,1.9c-0.2,0.3-0.3,0.6-0.5,0.9c-0.1,0.3-0.3,0.6-0.4,0.9c-0.3,0.6-0.6,1.2-0.8,1.8c-0.3,0.6-0.5,1.1-0.7,1.7
				c-0.2,0.5-0.4,1.1-0.6,1.6c-0.2,0.5-0.3,1-0.5,1.4c-0.2,0.5-0.3,0.9-0.4,1.3c-0.1,0.4-0.2,0.8-0.3,1.1
				C709.3,219.6,709.1,220.3,709.1,220.3z"/>
			
				<radialGradient id="XMLID_117_" cx="1487.6898" cy="-23.7584" r="13.2822" gradientTransform="matrix(0.2453 0.2286 -0.6817 0.7316 340.238 -126.0349)" gradientUnits="userSpaceOnUse">
				<stop  offset="0" style="stop-color:#FFFFFF"/>
				<stop  offset="0.147" style="stop-color:#FFFFFF;stop-opacity:0.853"/>
				<stop  offset="1" style="stop-color:#FFFFFF;stop-opacity:0"/>
			</radialGradient>
			<path id="XMLID_143_" class="st93" d="M724.6,199.7c-5,5.4-10.5,8.4-12.3,6.7c-1.8-1.7,0.8-7.4,5.8-12.8c5-5.4,10.5-8.4,12.3-6.7
				C732.2,188.6,729.6,194.3,724.6,199.7z"/>
			<path id="XMLID_142_" class="st14" d="M773.7,178.9c0,0,0.8,0.2,2.1,0.4c0.3,0.1,0.7,0.1,1.1,0.2c0.4,0.1,0.8,0.2,1.3,0.4
				c0.5,0.1,1,0.3,1.5,0.4c0.5,0.1,1,0.4,1.6,0.5c0.6,0.2,1.1,0.4,1.7,0.6c0.6,0.2,1.2,0.5,1.8,0.7c0.3,0.1,0.6,0.3,0.9,0.4
				c0.3,0.1,0.6,0.3,0.9,0.5c0.6,0.3,1.3,0.6,2,0.9c1.3,0.7,2.6,1.4,3.9,2.3c1.3,0.8,2.6,1.7,3.9,2.7c1.2,1,2.5,1.9,3.6,3
				c1.2,1,2.2,2.1,3.2,3.2c0.5,0.5,1,1.1,1.4,1.6c0.2,0.3,0.5,0.5,0.7,0.8c0.2,0.3,0.4,0.5,0.6,0.8c0.4,0.5,0.8,1.1,1.2,1.6
				c0.4,0.5,0.7,1,1.1,1.5c0.3,0.5,0.7,0.9,0.9,1.4c0.3,0.5,0.5,0.9,0.8,1.3c0.2,0.4,0.5,0.8,0.7,1.1c0.2,0.4,0.4,0.7,0.5,1
				c0.6,1.2,1,1.9,1,1.9s-0.4-0.7-1.1-1.9c-0.2-0.3-0.3-0.6-0.6-1c-0.2-0.3-0.5-0.7-0.7-1.1c-0.3-0.4-0.5-0.8-0.8-1.3
				c-0.3-0.4-0.6-0.9-1-1.4c-0.3-0.5-0.7-1-1.1-1.5c-0.4-0.5-0.8-1-1.2-1.5c-0.2-0.3-0.4-0.5-0.6-0.8c-0.2-0.3-0.5-0.5-0.7-0.8
				c-0.5-0.5-0.9-1.1-1.4-1.6c-1-1-2.1-2.1-3.2-3.1c-1.1-1.1-2.4-2-3.6-3c-1.3-0.9-2.5-1.9-3.8-2.7c-1.3-0.9-2.6-1.6-3.9-2.3
				c-0.7-0.3-1.3-0.6-1.9-1c-0.3-0.2-0.6-0.3-0.9-0.5c-0.3-0.1-0.6-0.3-0.9-0.4c-0.6-0.3-1.2-0.5-1.8-0.8c-0.6-0.2-1.2-0.4-1.7-0.6
				c-0.6-0.2-1.1-0.4-1.6-0.6c-0.5-0.2-1-0.3-1.5-0.4c-0.5-0.1-0.9-0.3-1.3-0.4c-0.4-0.1-0.8-0.2-1.1-0.3
				C774.5,179.1,773.7,178.9,773.7,178.9z"/>
		</g>
	</g>
</g>
<g>
	<g id="XMLID_129_">
		<circle id="XMLID_140_" class="st0" cx="908.1" cy="233.3" r="65.5"/>
		<circle id="XMLID_139_" class="st1" cx="908.1" cy="233.3" r="65.2"/>
		<linearGradient id="XMLID_158_" gradientUnits="userSpaceOnUse" x1="968.0231" y1="310.0755" x2="863.5582" y2="176.7401">
			<stop  offset="0" style="stop-color:#58595B"/>
			<stop  offset="1" style="stop-color:#BCBEC0"/>
		</linearGradient>
		<circle id="XMLID_138_" class="st94" cx="908.1" cy="233.6" r="64.5"/>
		<radialGradient id="XMLID_159_" cx="908.105" cy="233.5981" r="64.4835" gradientUnits="userSpaceOnUse">
			<stop  offset="0.7653" style="stop-color:#000000;stop-opacity:0"/>
			<stop  offset="0.9703" style="stop-color:#000000;stop-opacity:0.8736"/>
			<stop  offset="1" style="stop-color:#000000"/>
		</radialGradient>
		<circle id="XMLID_137_" class="st95" cx="908.1" cy="233.6" r="64.5"/>
		<linearGradient id="XMLID_160_" gradientUnits="userSpaceOnUse" x1="880.8362" y1="172.9644" x2="894.9668" y2="225.5668">
			<stop  offset="0" style="stop-color:#EFEFF0"/>
			<stop  offset="0.9847" style="stop-color:#FFFFFF;stop-opacity:0"/>
		</linearGradient>
		<path id="XMLID_136_" class="st96" d="M862,278.4l66.4-73.6l8.9-29c-8.8-4.5-18.7-7-29.2-7c-35.6,0-64.5,28.9-64.5,64.5
			C843.6,250.8,850.6,266.7,862,278.4z"/>
		<linearGradient id="XMLID_161_" gradientUnits="userSpaceOnUse" x1="938.9374" y1="292.7853" x2="928.259" y2="267.4241">
			<stop  offset="0" style="stop-color:#000000"/>
			<stop  offset="1" style="stop-color:#464547"/>
		</linearGradient>
		<path id="XMLID_135_" class="st97" d="M942.6,178.8c17.2,11.6,28.6,31.3,28.6,53.6c0,35.6-28.9,64.5-64.5,64.5
			c-12.7,0-24.5-3.7-34.5-10c10.3,6.9,22.6,10.9,35.9,10.9c35.6,0,64.5-28.9,64.5-64.5C972.6,210.3,960.6,190.2,942.6,178.8z"/>
		<linearGradient id="XMLID_162_" gradientUnits="userSpaceOnUse" x1="956.6459" y1="191.9485" x2="958.9341" y2="211.6845">
			<stop  offset="1.530610e-02" style="stop-color:#B1B3B6"/>
			<stop  offset="1" style="stop-color:#EFEFF0"/>
		</linearGradient>
		<path id="XMLID_134_" class="st98" d="M969.1,215.8l-0.9,10.3l-5.8,1.5l-5.4-4.1l-6.5-16c0,0-3.1-13.2-3.3-13.4
			c-0.2-0.2,1.7-5.6,1.7-5.6l3.1-0.7l3.6,2.7c0,0,5.8,6.6,9.8,14.8C969.5,213.5,969.1,215.8,969.1,215.8z"/>
		<linearGradient id="XMLID_163_" gradientUnits="userSpaceOnUse" x1="924.6928" y1="171.7267" x2="925.7498" y2="308.8716">
			<stop  offset="0" style="stop-color:#000000"/>
			<stop  offset="1" style="stop-color:#464547"/>
		</linearGradient>
		<path id="XMLID_133_" class="st99" d="M908.1,168.8c-11.2,0-21.6,2.8-30.8,7.8c7.6-4,16.1-6.4,25.1-7.1
			c21.3-0.4,39.8,9.4,24.4,11.6c-15.4,2.3,15.8,30.3,15.8,30.3s18,4.1,10.5-10.4c-7.5-14.5,0.2-12.2,2.8-9.3
			c4.8,5.6,8.7,11.9,11.3,18.9c3.1,8.4-1.7,18.7-4.8,12.1c-3.1-6.7-6.6,8.4-6.6,8.4s-7.2,35.2,1.7,27.1c8.8-8.1,13.2-16.8,14-26.9
			c0,0.8,0.1,1.6,0.1,2.5c0,24.5-13.6,45.7-33.7,56.7c20.7-10.7,34.8-32.3,34.8-57.2C972.6,197.6,943.7,168.8,908.1,168.8z"/>
		<linearGradient id="XMLID_164_" gradientUnits="userSpaceOnUse" x1="861.688" y1="231.3634" x2="1036.3562" y2="226.4056">
			<stop  offset="0" style="stop-color:#EFEFF0"/>
			<stop  offset="0.1066" style="stop-color:#F5F5F5;stop-opacity:0.8917"/>
			<stop  offset="0.3389" style="stop-color:#FCFCFC;stop-opacity:0.6558"/>
			<stop  offset="0.9847" style="stop-color:#FFFFFF;stop-opacity:0"/>
		</linearGradient>
		<path id="XMLID_132_" class="st100" d="M908.1,168.8c-11.2,0-21.6,2.8-30.8,7.8c7.6-4,16.1-6.4,25.1-7.1
			c21.3-0.4,39.8,9.4,24.4,11.6c-15.4,2.3,15.8,30.3,15.8,30.3s18,4.1,10.5-10.4c-7.5-14.5,0.2-12.2,2.8-9.3
			c4.8,5.6,8.7,11.9,11.3,18.9c3.1,8.4-1.7,18.7-4.8,12.1c-3.1-6.7-6.6,8.4-6.6,8.4s-7.2,35.2,1.7,27.1c8.8-8.1,13.2-16.8,14-26.9
			c0,0.8,0.1,1.6,0.1,2.5c0,24.5-13.6,45.7-33.7,56.7c20.7-10.7,34.8-32.3,34.8-57.2C972.6,197.6,943.7,168.8,908.1,168.8z"/>
		<linearGradient id="XMLID_165_" gradientUnits="userSpaceOnUse" x1="866.3237" y1="256.4899" x2="874.9045" y2="187.2711">
			<stop  offset="0" style="stop-color:#000000"/>
			<stop  offset="1" style="stop-color:#464547"/>
		</linearGradient>
		<path id="XMLID_131_" class="st101" d="M851.6,233.3c0-26.9,18.8-49.4,44-55.1c-25.7,4-45.4,26.2-45.4,53.1
			c0,9.3,2.4,18.1,6.6,25.8C853.5,249.8,851.6,241.7,851.6,233.3z"/>
		<linearGradient id="XMLID_166_" gradientUnits="userSpaceOnUse" x1="909.2972" y1="297.6481" x2="909.2972" y2="286.9059">
			<stop  offset="0" style="stop-color:#EFEFF0"/>
			<stop  offset="0.1066" style="stop-color:#F5F5F5;stop-opacity:0.8917"/>
			<stop  offset="0.3389" style="stop-color:#FCFCFC;stop-opacity:0.6558"/>
			<stop  offset="0.9847" style="stop-color:#FFFFFF;stop-opacity:0"/>
		</linearGradient>
		<path id="XMLID_130_" class="st102" d="M910.1,296.8c15.5-0.3,22.4-5.9,21.8-8.2c-0.5-2.3-10.7,4.2-35.5,1.5
			c-12.9-1.4-10.2,0.5-7.7,2.3C891.4,294.3,899.9,296.9,910.1,296.8z"/>
	</g>
	<circle id="XMLID_128_" class="st103" cx="908.1" cy="233.3" r="55.3"/>
	<g>
		<path class="st14" d="M877.8,238.6c0.7,0.4,2,0.7,2.9,0.7c1.6,0,2.4-0.8,2.4-2c0-1.3-0.8-1.9-2.3-2.9c-2.4-1.5-3.3-3.3-3.3-5
			c0-2.8,1.9-5.2,5.6-5.2c1.2,0,2.3,0.3,2.8,0.6l-0.6,3c-0.5-0.3-1.3-0.6-2.2-0.6c-1.5,0-2.2,0.9-2.2,1.8c0,1.1,0.5,1.6,2.4,2.8
			c2.4,1.4,3.2,3.2,3.2,5.1c0,3.2-2.4,5.4-5.9,5.4c-1.4,0-2.8-0.4-3.4-0.7L877.8,238.6z"/>
		<path class="st14" d="M896,234.3h-4v4.8h4.6v3h-8v-17.8h7.7v3H892v4.1h4V234.3z"/>
		<path class="st14" d="M898.9,224.4h3.5v14.8h4.5v2.9h-8V224.4z"/>
		<path class="st14" d="M916.5,234.3h-4v4.8h4.6v3h-8v-17.8h7.7v3h-4.3v4.1h4V234.3z"/>
		<path class="st14" d="M927.9,241.9c-0.5,0.2-1.5,0.4-2.7,0.4c-4.6,0-6.7-3.7-6.7-8.8c0-6.7,3.7-9.3,7.2-9.3c1.2,0,2.1,0.3,2.4,0.5
			l-0.6,2.9c-0.4-0.2-0.8-0.3-1.6-0.3c-2,0-3.7,1.7-3.7,6.1c0,4.2,1.6,5.9,3.7,5.9c0.6,0,1.2-0.1,1.7-0.3L927.9,241.9z"/>
		<path class="st14" d="M932.3,227.6h-3.1v-3.2h9.8v3.2h-3.2v14.6h-3.5V227.6z"/>
	</g>
	<g>
		<radialGradient id="XMLID_167_" cx="906.9749" cy="231.8787" r="56.9414" gradientUnits="userSpaceOnUse">
			<stop  offset="0.7653" style="stop-color:#000000;stop-opacity:0"/>
			<stop  offset="0.9703" style="stop-color:#000000;stop-opacity:0.8736"/>
			<stop  offset="1" style="stop-color:#000000"/>
		</radialGradient>
		<circle id="XMLID_127_" class="st104" cx="908.1" cy="233.3" r="55.9"/>
		<radialGradient id="XMLID_168_" cx="902.9633" cy="224.7764" r="70.1129" gradientUnits="userSpaceOnUse">
			<stop  offset="0.175" style="stop-color:#000000;stop-opacity:0"/>
			<stop  offset="0.8957" style="stop-color:#000000;stop-opacity:0.8736"/>
			<stop  offset="1" style="stop-color:#000000"/>
		</radialGradient>
		<circle id="XMLID_126_" class="st105" cx="908.1" cy="233.3" r="55.9"/>
		<g>
			<linearGradient id="SVGID_17_" gradientUnits="userSpaceOnUse" x1="878.7632" y1="198.2342" x2="920.4534" y2="288.6465">
				<stop  offset="0" style="stop-color:#FFFFFF"/>
				<stop  offset="0.147" style="stop-color:#FFFFFF;stop-opacity:0.853"/>
				<stop  offset="1" style="stop-color:#FFFFFF;stop-opacity:0"/>
			</linearGradient>
			<path class="st106" d="M874.8,219.9c4.7-0.2,10-0.6,15.5-1.3c0.5-6.9,1.5-13.6,3-19c0,0-6.1,0.5-14,2.5
				C877.3,207.3,875.6,213.2,874.8,219.9z"/>
			<linearGradient id="SVGID_18_" gradientUnits="userSpaceOnUse" x1="865.0346" y1="204.5647" x2="906.7245" y2="294.9763">
				<stop  offset="0" style="stop-color:#FFFFFF"/>
				<stop  offset="0.147" style="stop-color:#FFFFFF;stop-opacity:0.853"/>
				<stop  offset="1" style="stop-color:#FFFFFF;stop-opacity:0"/>
			</linearGradient>
			<path class="st107" d="M870.7,219.9c0.7-6.1,2.1-11.5,3.8-16.5c-2.6,0.8-5.2,1.8-7.8,3c-1.5,2.2-3.4,7.2-4.7,13.4
				C864.5,219.9,867.4,220,870.7,219.9z"/>
			<linearGradient id="SVGID_19_" gradientUnits="userSpaceOnUse" x1="868.6705" y1="202.8882" x2="910.3606" y2="293.3001">
				<stop  offset="0" style="stop-color:#FFFFFF"/>
				<stop  offset="0.147" style="stop-color:#FFFFFF;stop-opacity:0.853"/>
				<stop  offset="1" style="stop-color:#FFFFFF;stop-opacity:0"/>
			</linearGradient>
			<path class="st108" d="M890.1,222.6c-5.6,0.7-11,1.1-15.7,1.3c-0.5,6.3-0.1,13.2,1.3,20.9c4.6,0.6,10.2,0.8,16.8,0
				C890.5,238.5,889.8,230.6,890.1,222.6z"/>
			<linearGradient id="SVGID_20_" gradientUnits="userSpaceOnUse" x1="855.0771" y1="209.1561" x2="896.7673" y2="299.5683">
				<stop  offset="0" style="stop-color:#FFFFFF"/>
				<stop  offset="0.147" style="stop-color:#FFFFFF;stop-opacity:0.853"/>
				<stop  offset="1" style="stop-color:#FFFFFF;stop-opacity:0"/>
			</linearGradient>
			<path class="st109" d="M870.3,224c-0.4,0-0.8,0-1.2,0c-2.9,0-5.5-0.1-7.7-0.2c-0.8,5.4-1,11.3-0.2,16.9c0,0,3.6,2,10.3,3.4
				C870.2,236.8,869.9,230.1,870.3,224z"/>
		</g>
		<g id="XMLID_118_">
			<g id="XMLID_122_">
				<path id="XMLID_125_" class="st14" d="M963.4,233.3c0,0,0,0.3,0,1c0,0.6,0,1.6-0.1,2.8c-0.1,2.4-0.4,5.8-1.4,9.8
					c-0.2,1-0.5,2-0.8,3.1c-0.3,1.1-0.7,2.1-1.1,3.2c-0.8,2.2-1.8,4.5-3,6.7c-1.2,2.3-2.6,4.5-4.2,6.7c-1.6,2.2-3.4,4.2-5.3,6.2
					c-3.9,3.9-8.3,7.1-12.9,9.5c-2.3,1.2-4.5,2.2-6.7,3c-2.2,0.8-4.3,1.4-6.3,1.9c-2,0.5-3.8,0.8-5.5,1c-0.4,0.1-0.8,0.1-1.2,0.2
					c-0.4,0-0.8,0.1-1.1,0.1c-0.7,0.1-1.4,0.1-2,0.1c-0.6,0-1.1,0.1-1.6,0.1c-0.5,0-0.9,0-1.2,0c-0.6,0-1,0-1,0s0.3,0,1,0
					c0.3,0,0.7,0,1.2,0c0.5,0,1-0.1,1.6-0.1c0.6,0,1.2-0.1,2-0.2c0.4,0,0.7-0.1,1.1-0.1c0.4-0.1,0.8-0.1,1.2-0.2
					c1.6-0.2,3.5-0.6,5.4-1.1c2-0.5,4.1-1.2,6.2-2c2.2-0.8,4.4-1.9,6.6-3.1c4.4-2.4,8.8-5.7,12.6-9.5c1.9-1.9,3.7-3.9,5.3-6.1
					c1.6-2.1,3-4.3,4.2-6.6c1.2-2.2,2.3-4.4,3.1-6.6c0.4-1.1,0.8-2.2,1.1-3.2c0.3-1,0.6-2.1,0.9-3c0.5-2,0.9-3.8,1.1-5.4
					c0.3-1.6,0.4-3.1,0.5-4.2c0.1-1.2,0.1-2.1,0.2-2.8C963.4,233.6,963.4,233.3,963.4,233.3z"/>
				
					<radialGradient id="XMLID_169_" cx="2132.8347" cy="-120.3342" r="22.8221" gradientTransform="matrix(0.2453 0.2286 -0.6817 0.7316 340.238 -126.0349)" gradientUnits="userSpaceOnUse">
					<stop  offset="0" style="stop-color:#FFFFFF"/>
					<stop  offset="0.147" style="stop-color:#FFFFFF;stop-opacity:0.853"/>
					<stop  offset="1" style="stop-color:#FFFFFF;stop-opacity:0"/>
				</radialGradient>
				<path id="XMLID_124_" class="st110" d="M951.1,278.7c-8.6,9.2-18.1,14.4-21.2,11.5c-3.1-2.9,1.4-12.7,10-21.9
					c8.6-9.2,18.1-14.4,21.2-11.5C964.1,259.7,959.6,269.5,951.1,278.7z"/>
				
					<radialGradient id="XMLID_171_" cx="1355.3785" cy="303.7835" r="16.7806" gradientTransform="matrix(0.3287 -6.630000e-02 0.1976 0.9803 458.512 11.7983)" gradientUnits="userSpaceOnUse">
					<stop  offset="0" style="stop-color:#FFFFFF"/>
					<stop  offset="0.147" style="stop-color:#FFFFFF;stop-opacity:0.853"/>
					<stop  offset="1" style="stop-color:#FFFFFF;stop-opacity:0"/>
				</radialGradient>
				<path id="XMLID_123_" class="st111" d="M969.6,218.6c1.8,9.1,0.8,16.9-2.2,17.6c-3,0.6-7-6.3-8.8-15.3
					c-1.8-9.1-0.8-16.9,2.2-17.6C963.8,202.7,967.7,209.5,969.6,218.6z"/>
			</g>
			<path id="XMLID_121_" class="st14" d="M854.3,220.3c0,0,0.2-0.8,0.5-2.1c0.1-0.3,0.2-0.7,0.3-1.1c0.1-0.4,0.3-0.8,0.4-1.3
				c0.1-0.5,0.3-0.9,0.5-1.5c0.2-0.5,0.4-1,0.6-1.6c0.2-0.5,0.4-1.1,0.7-1.7c0.3-0.6,0.5-1.2,0.8-1.8c0.1-0.3,0.3-0.6,0.4-0.9
				c0.2-0.3,0.3-0.6,0.5-0.9c0.3-0.6,0.7-1.3,1-1.9c0.8-1.2,1.5-2.6,2.4-3.8c0.8-1.3,1.8-2.5,2.8-3.8c1-1.2,2-2.4,3.2-3.5
				c1.1-1.1,2.2-2.1,3.3-3.1c0.6-0.5,1.1-0.9,1.7-1.4c0.3-0.2,0.5-0.4,0.8-0.7c0.3-0.2,0.6-0.4,0.8-0.6c0.5-0.4,1.1-0.8,1.6-1.1
				c0.5-0.4,1.1-0.7,1.5-1c0.5-0.3,1-0.6,1.4-0.9c0.5-0.3,0.9-0.5,1.3-0.7c0.4-0.2,0.8-0.4,1.2-0.6c0.4-0.2,0.7-0.3,1-0.5
				c1.2-0.6,1.9-0.9,1.9-0.9s-0.7,0.4-1.9,1c-0.3,0.2-0.6,0.3-1,0.5c-0.4,0.2-0.7,0.4-1.2,0.7c-0.4,0.2-0.8,0.5-1.3,0.8
				c-0.5,0.3-0.9,0.6-1.4,0.9c-0.5,0.3-1,0.6-1.5,1c-0.5,0.4-1,0.8-1.6,1.2c-0.3,0.2-0.5,0.4-0.8,0.6c-0.3,0.2-0.5,0.4-0.8,0.7
				c-0.5,0.5-1.1,0.9-1.7,1.4c-1.1,1-2.2,2-3.3,3.1c-1.1,1.1-2.1,2.3-3.1,3.5c-1,1.2-2,2.4-2.8,3.7c-0.9,1.2-1.7,2.6-2.4,3.8
				c-0.4,0.6-0.7,1.3-1,1.9c-0.2,0.3-0.3,0.6-0.5,0.9c-0.1,0.3-0.3,0.6-0.4,0.9c-0.3,0.6-0.6,1.2-0.8,1.8c-0.3,0.6-0.5,1.1-0.7,1.7
				c-0.2,0.5-0.4,1.1-0.6,1.6c-0.2,0.5-0.3,1-0.5,1.4c-0.2,0.5-0.3,0.9-0.4,1.3c-0.1,0.4-0.2,0.8-0.3,1.1
				C854.5,219.6,854.3,220.3,854.3,220.3z"/>
			
				<radialGradient id="XMLID_172_" cx="1804.5925" cy="-122.7796" r="13.2822" gradientTransform="matrix(0.2453 0.2286 -0.6817 0.7316 340.238 -126.0349)" gradientUnits="userSpaceOnUse">
				<stop  offset="0" style="stop-color:#FFFFFF"/>
				<stop  offset="0.147" style="stop-color:#FFFFFF;stop-opacity:0.853"/>
				<stop  offset="1" style="stop-color:#FFFFFF;stop-opacity:0"/>
			</radialGradient>
			<path id="XMLID_120_" class="st112" d="M869.9,199.7c-5,5.4-10.5,8.4-12.3,6.7c-1.8-1.7,0.8-7.4,5.8-12.8
				c5-5.4,10.5-8.4,12.3-6.7C877.5,188.6,874.9,194.3,869.9,199.7z"/>
			<path id="XMLID_119_" class="st14" d="M919,178.9c0,0,0.8,0.2,2.1,0.4c0.3,0.1,0.7,0.1,1.1,0.2c0.4,0.1,0.8,0.2,1.3,0.4
				c0.5,0.1,1,0.3,1.5,0.4c0.5,0.1,1,0.4,1.6,0.5c0.6,0.2,1.1,0.4,1.7,0.6c0.6,0.2,1.2,0.5,1.8,0.7c0.3,0.1,0.6,0.3,0.9,0.4
				c0.3,0.1,0.6,0.3,0.9,0.5c0.6,0.3,1.3,0.6,2,0.9c1.3,0.7,2.6,1.4,3.9,2.3c1.3,0.8,2.6,1.7,3.9,2.7c1.2,1,2.5,1.9,3.6,3
				c1.2,1,2.2,2.1,3.2,3.2c0.5,0.5,1,1.1,1.4,1.6c0.2,0.3,0.5,0.5,0.7,0.8c0.2,0.3,0.4,0.5,0.6,0.8c0.4,0.5,0.8,1.1,1.2,1.6
				c0.4,0.5,0.7,1,1.1,1.5c0.3,0.5,0.7,0.9,0.9,1.4c0.3,0.5,0.5,0.9,0.8,1.3c0.2,0.4,0.5,0.8,0.7,1.1c0.2,0.4,0.4,0.7,0.5,1
				c0.6,1.2,1,1.9,1,1.9s-0.4-0.7-1.1-1.9c-0.2-0.3-0.3-0.6-0.6-1c-0.2-0.3-0.5-0.7-0.7-1.1c-0.3-0.4-0.5-0.8-0.8-1.3
				c-0.3-0.4-0.6-0.9-1-1.4c-0.3-0.5-0.7-1-1.1-1.5c-0.4-0.5-0.8-1-1.2-1.5c-0.2-0.3-0.4-0.5-0.6-0.8c-0.2-0.3-0.5-0.5-0.7-0.8
				c-0.5-0.5-0.9-1.1-1.4-1.6c-1-1-2.1-2.1-3.2-3.1c-1.1-1.1-2.4-2-3.6-3c-1.3-0.9-2.5-1.9-3.8-2.7c-1.3-0.9-2.6-1.6-3.9-2.3
				c-0.7-0.3-1.3-0.6-1.9-1c-0.3-0.2-0.6-0.3-0.9-0.5c-0.3-0.1-0.6-0.3-0.9-0.4c-0.6-0.3-1.2-0.5-1.8-0.8c-0.6-0.2-1.2-0.4-1.7-0.6
				c-0.6-0.2-1.1-0.4-1.6-0.6c-0.5-0.2-1-0.3-1.5-0.4c-0.5-0.1-0.9-0.3-1.3-0.4c-0.4-0.1-0.8-0.2-1.1-0.3
				C919.7,179.1,919,178.9,919,178.9z"/>
		</g>
	</g>
</g>
</svg>
