<svg width="718" height="718" viewBox="0 0 718 718" fill="none" xmlns="http://www.w3.org/2000/svg">
<path fill-rule="evenodd" clip-rule="evenodd" d="M326.117 118.988C331.857 111.494 342.277 100.667 359 100.667C375.723 100.667 386.143 111.494 391.883 118.988C397.36 126.141 402.877 136.042 408.533 146.193L412.583 153.457C413.343 154.82 413.94 155.893 414.463 156.81C415.373 157.024 416.433 157.264 417.757 157.564L425.687 159.357C436.613 161.826 447.473 164.28 455.807 167.565C465.013 171.193 477.49 178.257 482.297 193.721C487.023 208.912 481.06 221.779 475.853 230.049C471.037 237.703 463.713 246.262 456.217 255.025L450.86 261.287C449.71 262.632 448.843 263.645 448.117 264.522C448.213 265.734 448.35 267.145 448.533 269.031L449.34 277.347C450.48 289.078 451.58 300.414 451.177 309.484C450.753 318.99 448.47 333.384 435.563 343.18C422.25 353.287 407.547 351.087 398.223 348.414C389.633 345.954 379.48 341.274 369.257 336.564L361.83 333.144C360.713 332.63 359.8 332.21 359 331.847C358.2 332.21 357.287 332.63 356.17 333.144L348.743 336.564C338.52 341.274 328.367 345.954 319.777 348.414C310.453 351.087 295.75 353.287 282.435 343.18C269.53 333.384 267.248 318.99 266.824 309.484C266.42 300.414 267.521 289.078 268.66 277.348L269.466 269.031C269.649 267.145 269.785 265.734 269.885 264.522C269.155 263.645 268.289 262.632 267.139 261.287L261.784 255.025C254.287 246.262 246.964 237.703 242.145 230.049C236.939 221.779 230.978 208.912 235.702 193.721C240.511 178.257 252.987 171.193 262.192 167.565C270.528 164.28 281.388 161.826 292.315 159.357L300.243 157.564C301.567 157.264 302.627 157.024 303.537 156.81C304.06 155.893 304.657 154.82 305.417 153.457L309.467 146.192C315.123 136.042 320.64 126.141 326.117 118.988ZM359 160.15C357.063 163.505 354.907 167.368 352.367 171.923L349.09 177.802L348.347 179.156C345.73 183.943 341.393 191.87 334.167 197.357C326.787 202.959 317.91 204.887 312.72 206.014L311.277 206.331L304.913 207.771C299.073 209.092 294.317 210.17 290.25 211.192C292.897 214.449 296.33 218.492 300.8 223.718L305.14 228.791L306.137 229.947C309.737 234.091 315.543 240.782 318.23 249.421C320.887 257.957 319.97 266.748 319.393 272.294L319.233 273.854L318.577 280.622C317.97 286.898 317.497 291.906 317.183 295.98C320.657 294.45 324.607 292.63 329.3 290.47L335.26 287.727L336.603 287.097C341.387 284.841 349.71 280.916 359 280.916C368.29 280.916 376.613 284.841 381.397 287.097L382.74 287.727L388.7 290.47C393.393 292.63 397.343 294.45 400.817 295.98C400.503 291.906 400.03 286.898 399.423 280.622L398.767 273.854L398.607 272.294C398.03 266.748 397.113 257.957 399.77 249.421C402.457 240.782 408.263 234.091 411.863 229.947L412.86 228.791L417.2 223.718C421.67 218.492 425.103 214.449 427.75 211.192C423.683 210.17 418.927 209.092 413.087 207.771L406.723 206.331L405.28 206.014C400.09 204.887 391.213 202.959 383.833 197.357C376.607 191.87 372.27 183.943 369.653 179.156L368.91 177.802L365.633 171.923C363.093 167.368 360.937 163.505 359 160.15ZM316.977 309.384C316.977 309.384 316.97 309.354 316.957 309.28L316.977 309.384ZM401.023 309.384L401.043 309.28C401.03 309.354 401.023 309.384 401.023 309.384Z" fill="#1C274C"/>
<path fill-rule="evenodd" clip-rule="evenodd" d="M208.947 12.5733C247.71 6.03333 298.08 0.666992 359.007 0.666992C419.93 0.666992 470.3 6.03333 509.063 12.5733L513.56 13.328C547.233 18.9647 575.22 23.65 597.107 50.603C611.143 67.8897 615.67 86.5713 616.713 107.441L633.103 112.904C648.54 118.049 662.07 122.559 672.807 127.552C684.41 132.951 695.047 139.905 703.177 151.185C711.307 162.466 714.54 174.754 715.993 187.471C717.333 199.234 717.333 213.496 717.333 229.769V234.61C717.333 248.003 717.333 259.833 716.343 269.727C715.273 280.45 712.9 290.874 706.97 300.947C701.043 311.024 693.083 318.16 684.23 324.304C676.06 329.974 665.72 335.717 654.01 342.22L565.99 391.124C548.01 426.5 523.307 458.044 489.337 480.827C460.18 500.38 425.27 512.76 384 516.29V584H431.673C459.48 584 483.42 603.627 488.873 630.894L496.163 667.334H559C572.807 667.334 584 678.527 584 692.334C584 706.14 572.807 717.334 559 717.334H159C145.193 717.334 134 706.14 134 692.334C134 678.527 145.193 667.334 159 667.334H221.838L229.126 630.894C234.58 603.627 258.521 584 286.327 584H334V516.29C292.733 512.757 257.827 500.38 228.672 480.827C194.705 458.044 170.006 426.507 152.026 391.134L63.9874 342.22C52.2787 335.717 41.9377 329.974 33.769 324.304C24.916 318.16 16.9557 311.024 11.0277 300.947C5.09971 290.874 2.72671 280.45 1.65504 269.727C0.666376 259.833 0.66671 248.003 0.667044 234.609L0.66671 229.768C0.665377 213.496 0.664043 199.234 2.00671 187.471C3.45838 174.754 6.69204 162.466 14.822 151.185C22.9524 139.905 33.5874 132.951 45.1924 127.552C55.927 122.559 69.4577 118.049 84.8954 112.904L101.297 107.437C102.341 86.569 106.869 67.8883 120.904 50.603C142.789 23.65 170.778 18.9647 204.452 13.328L208.947 12.5733ZM272.829 667.334H445.173L439.843 640.7C439.067 636.804 435.647 634 431.673 634H286.327C282.355 634 278.935 636.804 278.156 640.7L272.829 667.334ZM102.403 159.773L101.95 159.924C84.9027 165.607 74.1207 169.24 66.2824 172.887C59.0267 176.262 56.6924 178.606 55.3847 180.42C54.077 182.235 52.5917 185.19 51.6844 193.141C50.7037 201.731 50.6664 213.108 50.667 231.077V233.495C50.6674 248.334 50.6964 257.642 51.407 264.755C52.0624 271.312 53.1427 273.929 54.121 275.592C55.0994 277.254 56.8627 279.469 62.2764 283.227C68.149 287.302 76.2714 291.848 89.243 299.054L124.766 318.79C110.513 266.459 104.789 210.45 102.403 159.773ZM593.247 318.784C607.497 266.455 613.22 210.45 615.607 159.777L616.05 159.924C633.097 165.607 643.877 169.24 651.717 172.887C658.973 176.262 661.307 178.606 662.613 180.42C663.923 182.235 665.407 185.19 666.313 193.141C667.293 201.731 667.333 213.108 667.333 231.077V233.495C667.33 248.334 667.303 257.642 666.59 264.755C665.937 271.312 664.857 273.929 663.877 275.592C662.9 277.254 661.137 279.469 655.723 283.227C649.85 287.302 641.727 291.848 628.757 299.054L593.247 318.784ZM359.007 50.667C301.027 50.667 253.44 55.7733 217.265 61.8767C177.035 68.6643 168.584 71.2037 159.72 82.1197C150.985 92.8777 150.156 103.052 151.949 148.224C154.938 223.513 164.87 304.757 195.628 366.547C210.811 397.047 230.661 421.957 256.523 439.3C282.219 456.537 315.37 467.334 359.007 467.334C402.64 467.334 435.79 456.537 461.487 439.3C487.35 421.957 507.2 397.047 522.383 366.547C553.14 304.757 563.073 223.513 566.06 148.224C567.853 103.052 567.023 92.8777 558.29 82.1197C549.427 71.2037 540.977 68.6643 500.747 61.8767C464.57 55.7733 416.983 50.667 359.007 50.667Z" fill="#8D93A5"/>
</svg>
