<?xml version="1.0" encoding="utf-8"?>
<!-- Generator: Adobe Illustrator 21.0.2, SVG Export Plug-In . SVG Version: 6.00 Build 0)  -->
<svg version="1.1" id="Layer_1" xmlns="http://www.w3.org/2000/svg" xmlns:xlink="http://www.w3.org/1999/xlink" x="0px" y="0px"
	 viewBox="0 0 131.7 130.9" style="enable-background:new 0 0 131.7 130.9;" xml:space="preserve">
<style type="text/css">
	.st0{fill:#3E3D63;}
	.st1{fill:#F1F2F2;}
	.st2{fill:url(#XMLID_2_);}
	.st3{fill:url(#XMLID_3_);}
	.st4{fill:url(#XMLID_4_);}
	.st5{fill:url(#XMLID_5_);}
	.st6{fill:url(#XMLID_6_);}
	.st7{fill:url(#XMLID_7_);}
	.st8{fill:url(#XMLID_8_);}
	.st9{fill:url(#XMLID_9_);}
	.st10{fill:url(#XMLID_10_);}
	.st11{fill:#8DC63F;}
	.st12{display:none;fill:url(#XMLID_11_);}
	.st13{display:none;fill:url(#XMLID_12_);}
	.st14{fill:#FFFFFF;}
	.st15{fill:url(#XMLID_13_);}
	.st16{fill:url(#XMLID_14_);}
	.st17{fill:url(#XMLID_15_);}
	.st18{fill:url(#XMLID_16_);}
	.st19{fill:url(#XMLID_17_);}
	.st20{fill:url(#XMLID_18_);}
	.st21{fill:url(#XMLID_19_);}
	.st22{fill:url(#XMLID_20_);}
	.st23{fill:url(#XMLID_21_);}
	.st24{fill:url(#XMLID_22_);}
	.st25{fill:url(#XMLID_23_);}
	.st26{fill:url(#XMLID_24_);}
	.st27{fill:#00AEEF;}
	.st28{fill:url(#XMLID_25_);}
	.st29{fill:url(#XMLID_26_);}
	.st30{fill:url(#SVGID_1_);}
	.st31{fill:url(#SVGID_2_);}
	.st32{fill:url(#SVGID_3_);}
	.st33{fill:url(#SVGID_4_);}
	.st34{fill:url(#XMLID_27_);}
	.st35{fill:url(#XMLID_28_);}
	.st36{fill:url(#XMLID_29_);}
	.st37{fill:url(#XMLID_30_);}
	.st38{fill:url(#XMLID_31_);}
	.st39{fill:url(#XMLID_32_);}
	.st40{fill:url(#XMLID_33_);}
	.st41{fill:url(#XMLID_34_);}
	.st42{fill:url(#XMLID_35_);}
	.st43{fill:url(#XMLID_36_);}
	.st44{fill:url(#XMLID_37_);}
	.st45{fill:url(#XMLID_38_);}
	.st46{fill:#92278F;}
	.st47{fill:url(#XMLID_39_);}
	.st48{fill:url(#XMLID_40_);}
	.st49{fill:url(#SVGID_5_);}
	.st50{fill:url(#SVGID_6_);}
	.st51{fill:url(#SVGID_7_);}
	.st52{fill:url(#SVGID_8_);}
	.st53{fill:url(#XMLID_41_);}
	.st54{fill:url(#XMLID_42_);}
	.st55{fill:url(#XMLID_43_);}
	.st56{fill:url(#XMLID_44_);}
	.st57{fill:url(#XMLID_45_);}
	.st58{fill:url(#XMLID_46_);}
	.st59{fill:url(#XMLID_47_);}
	.st60{fill:url(#XMLID_48_);}
	.st61{fill:url(#XMLID_49_);}
	.st62{fill:url(#XMLID_50_);}
	.st63{fill:url(#XMLID_51_);}
	.st64{fill:url(#XMLID_52_);}
	.st65{fill:#006838;}
	.st66{fill:url(#XMLID_53_);}
	.st67{fill:url(#XMLID_54_);}
	.st68{fill:url(#SVGID_9_);}
	.st69{fill:url(#SVGID_10_);}
	.st70{fill:url(#SVGID_11_);}
	.st71{fill:url(#SVGID_12_);}
	.st72{fill:url(#XMLID_55_);}
	.st73{fill:url(#XMLID_56_);}
	.st74{fill:url(#XMLID_57_);}
	.st75{fill:url(#XMLID_58_);}
	.st76{fill:url(#XMLID_59_);}
	.st77{fill:url(#XMLID_60_);}
	.st78{fill:url(#XMLID_61_);}
	.st79{fill:url(#XMLID_62_);}
	.st80{fill:url(#XMLID_63_);}
	.st81{fill:url(#XMLID_64_);}
	.st82{fill:url(#XMLID_65_);}
	.st83{fill:url(#XMLID_66_);}
	.st84{fill:#662D91;}
	.st85{fill:url(#XMLID_67_);}
	.st86{fill:url(#XMLID_68_);}
	.st87{fill:url(#SVGID_13_);}
	.st88{fill:url(#SVGID_14_);}
	.st89{fill:url(#SVGID_15_);}
	.st90{fill:url(#SVGID_16_);}
	.st91{fill:url(#XMLID_69_);}
	.st92{fill:url(#XMLID_70_);}
	.st93{fill:url(#XMLID_71_);}
	.st94{fill:url(#XMLID_95_);}
	.st95{fill:url(#XMLID_96_);}
	.st96{fill:url(#XMLID_97_);}
	.st97{fill:url(#XMLID_98_);}
	.st98{fill:url(#XMLID_99_);}
	.st99{fill:url(#XMLID_100_);}
	.st100{fill:url(#XMLID_101_);}
	.st101{fill:url(#XMLID_102_);}
	.st102{fill:url(#XMLID_103_);}
	.st103{fill:#EE2A7B;}
	.st104{fill:url(#XMLID_104_);}
	.st105{fill:url(#XMLID_105_);}
	.st106{fill:url(#SVGID_17_);}
	.st107{fill:url(#SVGID_18_);}
	.st108{fill:url(#SVGID_19_);}
	.st109{fill:url(#SVGID_20_);}
	.st110{fill:url(#XMLID_106_);}
	.st111{fill:url(#XMLID_107_);}
	.st112{fill:url(#XMLID_108_);}
</style>
<g id="XMLID_29797_">
	<circle id="XMLID_29808_" class="st0" cx="66.2" cy="65.5" r="65.5"/>
	<circle id="XMLID_29807_" class="st1" cx="66.2" cy="65.5" r="65.2"/>
	<linearGradient id="XMLID_2_" gradientUnits="userSpaceOnUse" x1="126.1015" y1="142.2842" x2="21.6367" y2="8.9488">
		<stop  offset="0" style="stop-color:#58595B"/>
		<stop  offset="1" style="stop-color:#BCBEC0"/>
	</linearGradient>
	<circle id="XMLID_29806_" class="st2" cx="66.2" cy="65.8" r="64.5"/>
	<radialGradient id="XMLID_3_" cx="66.1835" cy="65.8068" r="64.4835" gradientUnits="userSpaceOnUse">
		<stop  offset="0.7653" style="stop-color:#000000;stop-opacity:0"/>
		<stop  offset="0.9703" style="stop-color:#000000;stop-opacity:0.8736"/>
		<stop  offset="1" style="stop-color:#000000"/>
	</radialGradient>
	<circle id="XMLID_29805_" class="st3" cx="66.2" cy="65.8" r="64.5"/>
	<linearGradient id="XMLID_4_" gradientUnits="userSpaceOnUse" x1="38.9146" y1="5.1731" x2="53.0452" y2="57.7755">
		<stop  offset="0" style="stop-color:#EFEFF0"/>
		<stop  offset="0.9847" style="stop-color:#FFFFFF;stop-opacity:0"/>
	</linearGradient>
	<path id="XMLID_29804_" class="st4" d="M20.1,110.6L86.5,37l8.9-29c-8.8-4.5-18.7-7-29.2-7C30.6,1,1.7,29.9,1.7,65.5
		C1.7,83,8.7,98.9,20.1,110.6z"/>
	<linearGradient id="XMLID_5_" gradientUnits="userSpaceOnUse" x1="97.0158" y1="124.9941" x2="86.3374" y2="99.6329">
		<stop  offset="0" style="stop-color:#000000"/>
		<stop  offset="1" style="stop-color:#464547"/>
	</linearGradient>
	<path id="XMLID_29803_" class="st5" d="M100.7,11c17.2,11.6,28.6,31.3,28.6,53.6c0,35.6-28.9,64.5-64.5,64.5
		c-12.7,0-24.5-3.7-34.5-10c10.3,6.9,22.6,10.9,35.9,10.9c35.6,0,64.5-28.9,64.5-64.5C130.7,42.6,118.7,22.4,100.7,11z"/>
	<linearGradient id="XMLID_6_" gradientUnits="userSpaceOnUse" x1="114.7244" y1="24.1573" x2="117.0126" y2="43.8932">
		<stop  offset="1.530610e-02" style="stop-color:#B1B3B6"/>
		<stop  offset="1" style="stop-color:#EFEFF0"/>
	</linearGradient>
	<path id="XMLID_29802_" class="st6" d="M127.1,48l-0.9,10.3l-5.8,1.5l-5.4-4.1l-6.5-16c0,0-3.1-13.2-3.3-13.4
		c-0.2-0.2,1.7-5.6,1.7-5.6l3.1-0.7l3.6,2.7c0,0,5.8,6.6,9.8,14.8C127.6,45.7,127.1,48,127.1,48z"/>
	<linearGradient id="XMLID_7_" gradientUnits="userSpaceOnUse" x1="82.7712" y1="3.9354" x2="83.8283" y2="141.0803">
		<stop  offset="0" style="stop-color:#000000"/>
		<stop  offset="1" style="stop-color:#464547"/>
	</linearGradient>
	<path id="XMLID_29801_" class="st7" d="M66.2,1C55,1,44.5,3.8,35.4,8.8c7.6-4,16.1-6.4,25.1-7.1c21.3-0.4,39.8,9.4,24.4,11.6
		c-15.4,2.3,15.8,30.3,15.8,30.3s18,4.1,10.5-10.4c-7.5-14.5,0.2-12.2,2.8-9.3c4.8,5.6,8.7,11.9,11.3,18.9
		c3.1,8.4-1.7,18.7-4.8,12.1c-3.1-6.7-6.6,8.4-6.6,8.4s-7.2,35.2,1.7,27.1c8.8-8.1,13.2-16.8,14-26.9c0,0.8,0.1,1.6,0.1,2.5
		c0,24.5-13.6,45.7-33.7,56.7c20.7-10.7,34.8-32.3,34.8-57.2C130.7,29.9,101.8,1,66.2,1z"/>
	<linearGradient id="XMLID_8_" gradientUnits="userSpaceOnUse" x1="19.7664" y1="63.5721" x2="194.4348" y2="58.6143">
		<stop  offset="0" style="stop-color:#EFEFF0"/>
		<stop  offset="0.1066" style="stop-color:#F5F5F5;stop-opacity:0.8917"/>
		<stop  offset="0.3389" style="stop-color:#FCFCFC;stop-opacity:0.6558"/>
		<stop  offset="0.9847" style="stop-color:#FFFFFF;stop-opacity:0"/>
	</linearGradient>
	<path id="XMLID_29800_" class="st8" d="M66.2,1C55,1,44.5,3.8,35.4,8.8c7.6-4,16.1-6.4,25.1-7.1c21.3-0.4,39.8,9.4,24.4,11.6
		c-15.4,2.3,15.8,30.3,15.8,30.3s18,4.1,10.5-10.4c-7.5-14.5,0.2-12.2,2.8-9.3c4.8,5.6,8.7,11.9,11.3,18.9
		c3.1,8.4-1.7,18.7-4.8,12.1c-3.1-6.7-6.6,8.4-6.6,8.4s-7.2,35.2,1.7,27.1c8.8-8.1,13.2-16.8,14-26.9c0,0.8,0.1,1.6,0.1,2.5
		c0,24.5-13.6,45.7-33.7,56.7c20.7-10.7,34.8-32.3,34.8-57.2C130.7,29.9,101.8,1,66.2,1z"/>
	<linearGradient id="XMLID_9_" gradientUnits="userSpaceOnUse" x1="24.4022" y1="88.6987" x2="32.983" y2="19.4798">
		<stop  offset="0" style="stop-color:#000000"/>
		<stop  offset="1" style="stop-color:#464547"/>
	</linearGradient>
	<path id="XMLID_29799_" class="st9" d="M9.7,65.5c0-26.9,18.8-49.4,44-55.1C28,14.4,8.4,36.6,8.4,63.4c0,9.3,2.4,18.1,6.6,25.8
		C11.6,82,9.7,73.9,9.7,65.5z"/>
	<linearGradient id="XMLID_10_" gradientUnits="userSpaceOnUse" x1="67.3757" y1="129.8568" x2="67.3757" y2="119.1146">
		<stop  offset="0" style="stop-color:#EFEFF0"/>
		<stop  offset="0.1066" style="stop-color:#F5F5F5;stop-opacity:0.8917"/>
		<stop  offset="0.3389" style="stop-color:#FCFCFC;stop-opacity:0.6558"/>
		<stop  offset="0.9847" style="stop-color:#FFFFFF;stop-opacity:0"/>
	</linearGradient>
	<path id="XMLID_29798_" class="st10" d="M68.2,129c15.5-0.3,22.4-5.9,21.8-8.2c-0.5-2.3-10.7,4.2-35.5,1.5
		c-12.9-1.4-10.2,0.5-7.7,2.3C49.4,126.5,58,129.1,68.2,129z"/>
</g>
<circle id="XMLID_29792_" class="st11" cx="66.2" cy="65.5" r="55.3"/>
<radialGradient id="XMLID_11_" cx="65.0534" cy="64.0874" r="56.9414" gradientUnits="userSpaceOnUse">
	<stop  offset="0.7653" style="stop-color:#000000;stop-opacity:0"/>
	<stop  offset="0.9703" style="stop-color:#000000;stop-opacity:0.8736"/>
	<stop  offset="1" style="stop-color:#000000"/>
</radialGradient>
<circle id="XMLID_29790_" class="st12" cx="66.2" cy="65.5" r="55.9"/>
<radialGradient id="XMLID_12_" cx="61.0418" cy="56.985" r="70.1129" gradientUnits="userSpaceOnUse">
	<stop  offset="0.175" style="stop-color:#000000;stop-opacity:0"/>
	<stop  offset="0.8957" style="stop-color:#000000;stop-opacity:0.8736"/>
	<stop  offset="1" style="stop-color:#000000"/>
</radialGradient>
<circle id="XMLID_29789_" class="st13" cx="66.2" cy="65.5" r="55.9"/>
<g id="XMLID_29778_">
	<g id="XMLID_29782_">
		<path id="XMLID_29785_" class="st14" d="M121.5,65.5c0,0,0,0.3,0,1c0,0.6,0,1.6-0.1,2.8c-0.1,2.4-0.4,5.8-1.4,9.8
			c-0.2,1-0.5,2-0.8,3.1c-0.3,1.1-0.7,2.1-1.1,3.2c-0.8,2.2-1.8,4.5-3,6.7c-1.2,2.3-2.6,4.5-4.2,6.7c-1.6,2.2-3.4,4.2-5.3,6.2
			c-3.9,3.9-8.3,7.1-12.9,9.5c-2.3,1.2-4.5,2.2-6.7,3c-2.2,0.8-4.3,1.4-6.3,1.9c-2,0.5-3.8,0.8-5.5,1c-0.4,0.1-0.8,0.1-1.2,0.2
			c-0.4,0-0.8,0.1-1.1,0.1c-0.7,0.1-1.4,0.1-2,0.1c-0.6,0-1.1,0.1-1.6,0.1c-0.5,0-0.9,0-1.2,0c-0.6,0-1,0-1,0s0.3,0,1,0
			c0.3,0,0.7,0,1.2,0c0.5,0,1-0.1,1.6-0.1c0.6,0,1.2-0.1,2-0.2c0.4,0,0.7-0.1,1.1-0.1c0.4-0.1,0.8-0.1,1.2-0.2
			c1.6-0.2,3.5-0.6,5.4-1.1c2-0.5,4.1-1.2,6.2-2c2.2-0.8,4.4-1.9,6.6-3.1c4.4-2.4,8.8-5.7,12.6-9.5c1.9-1.9,3.7-3.9,5.3-6.1
			c1.6-2.1,3-4.3,4.2-6.6c1.2-2.2,2.3-4.4,3.1-6.6c0.4-1.1,0.8-2.2,1.1-3.2c0.3-1,0.6-2.1,0.9-3c0.5-2,0.9-3.8,1.1-5.4
			c0.3-1.6,0.4-3.1,0.5-4.2c0.1-1.2,0.1-2.1,0.2-2.8C121.5,65.8,121.5,65.5,121.5,65.5z"/>
		
			<radialGradient id="XMLID_13_" cx="-45.3259" cy="330.9181" r="22.8221" gradientTransform="matrix(0.2453 0.2286 -0.6817 0.7316 340.238 -126.0349)" gradientUnits="userSpaceOnUse">
			<stop  offset="0" style="stop-color:#FFFFFF"/>
			<stop  offset="0.147" style="stop-color:#FFFFFF;stop-opacity:0.853"/>
			<stop  offset="1" style="stop-color:#FFFFFF;stop-opacity:0"/>
		</radialGradient>
		<path id="XMLID_29784_" class="st15" d="M109.1,110.9c-8.6,9.2-18.1,14.4-21.2,11.5c-3.1-2.9,1.4-12.7,10-21.9S116,86.1,119.1,89
			C122.2,91.9,117.7,101.7,109.1,110.9z"/>
		
			<radialGradient id="XMLID_14_" cx="-1007.0431" cy="-27.1558" r="16.7806" gradientTransform="matrix(0.3287 -6.630000e-02 0.1976 0.9803 458.512 11.7983)" gradientUnits="userSpaceOnUse">
			<stop  offset="0" style="stop-color:#FFFFFF"/>
			<stop  offset="0.147" style="stop-color:#FFFFFF;stop-opacity:0.853"/>
			<stop  offset="1" style="stop-color:#FFFFFF;stop-opacity:0"/>
		</radialGradient>
		<path id="XMLID_29783_" class="st16" d="M127.6,50.8c1.8,9.1,0.8,16.9-2.2,17.6c-3,0.6-7-6.3-8.8-15.3c-1.8-9.1-0.8-16.9,2.2-17.6
			C121.9,34.9,125.8,41.7,127.6,50.8z"/>
	</g>
	<path id="XMLID_29781_" class="st14" d="M12.4,52.6c0,0,0.2-0.8,0.5-2.1c0.1-0.3,0.2-0.7,0.3-1.1c0.1-0.4,0.3-0.8,0.4-1.3
		c0.1-0.5,0.3-0.9,0.5-1.5c0.2-0.5,0.4-1,0.6-1.6c0.2-0.5,0.4-1.1,0.7-1.7c0.3-0.6,0.5-1.2,0.8-1.8c0.1-0.3,0.3-0.6,0.4-0.9
		c0.2-0.3,0.3-0.6,0.5-0.9c0.3-0.6,0.7-1.3,1-1.9c0.8-1.2,1.5-2.6,2.4-3.8c0.8-1.3,1.8-2.5,2.8-3.8c1-1.2,2-2.4,3.2-3.5
		c1.1-1.1,2.2-2.1,3.3-3.1c0.6-0.5,1.1-0.9,1.7-1.4c0.3-0.2,0.6-0.4,0.8-0.7c0.3-0.2,0.6-0.4,0.8-0.6c0.5-0.4,1.1-0.8,1.6-1.1
		c0.5-0.4,1.1-0.7,1.5-1c0.5-0.3,1-0.6,1.4-0.9c0.5-0.3,0.9-0.5,1.3-0.7c0.4-0.2,0.8-0.4,1.2-0.6c0.4-0.2,0.7-0.3,1-0.5
		c1.2-0.6,1.9-0.9,1.9-0.9s-0.7,0.4-1.9,1c-0.3,0.2-0.6,0.3-1,0.5c-0.4,0.2-0.7,0.4-1.2,0.7c-0.4,0.2-0.8,0.5-1.3,0.8
		c-0.5,0.3-0.9,0.6-1.4,0.9c-0.5,0.3-1,0.6-1.5,1c-0.5,0.4-1,0.8-1.6,1.2c-0.3,0.2-0.5,0.4-0.8,0.6c-0.3,0.2-0.5,0.4-0.8,0.7
		c-0.5,0.5-1.1,0.9-1.7,1.4c-1.1,1-2.2,2-3.3,3.1c-1.1,1.1-2.1,2.3-3.1,3.5c-1,1.2-2,2.4-2.8,3.7c-0.9,1.2-1.7,2.6-2.4,3.8
		c-0.4,0.6-0.7,1.3-1,1.9c-0.2,0.3-0.3,0.6-0.5,0.9c-0.1,0.3-0.3,0.6-0.4,0.9c-0.3,0.6-0.6,1.2-0.8,1.8c-0.3,0.6-0.5,1.1-0.7,1.7
		c-0.2,0.5-0.4,1.1-0.6,1.6c-0.2,0.5-0.3,1-0.5,1.4c-0.2,0.5-0.3,0.9-0.4,1.3c-0.1,0.4-0.2,0.8-0.3,1.1
		C12.6,51.8,12.4,52.6,12.4,52.6z"/>
	
		<radialGradient id="XMLID_15_" cx="-373.5681" cy="328.4727" r="13.2823" gradientTransform="matrix(0.2453 0.2286 -0.6817 0.7316 340.238 -126.0349)" gradientUnits="userSpaceOnUse">
		<stop  offset="0" style="stop-color:#FFFFFF"/>
		<stop  offset="0.147" style="stop-color:#FFFFFF;stop-opacity:0.853"/>
		<stop  offset="1" style="stop-color:#FFFFFF;stop-opacity:0"/>
	</radialGradient>
	<path id="XMLID_29780_" class="st17" d="M27.9,31.9c-5,5.4-10.5,8.4-12.3,6.7c-1.8-1.7,0.8-7.4,5.8-12.8c5-5.4,10.5-8.4,12.3-6.7
		C35.5,20.8,32.9,26.5,27.9,31.9z"/>
	<path id="XMLID_29779_" class="st14" d="M77,11.1c0,0,0.8,0.2,2.1,0.4c0.3,0.1,0.7,0.1,1.1,0.2c0.4,0.1,0.8,0.2,1.3,0.4
		c0.5,0.1,1,0.3,1.5,0.4c0.5,0.1,1,0.4,1.6,0.5c0.6,0.2,1.1,0.4,1.7,0.6c0.6,0.2,1.2,0.5,1.8,0.7c0.3,0.1,0.6,0.3,0.9,0.4
		c0.3,0.1,0.6,0.3,0.9,0.5c0.6,0.3,1.3,0.6,2,0.9c1.3,0.7,2.6,1.4,3.9,2.3c1.3,0.8,2.6,1.7,3.9,2.7c1.2,1,2.5,2,3.6,3
		c1.2,1,2.2,2.1,3.2,3.2c0.5,0.5,1,1.1,1.4,1.6c0.2,0.3,0.5,0.5,0.7,0.8c0.2,0.3,0.4,0.5,0.6,0.8c0.4,0.5,0.8,1.1,1.2,1.6
		c0.4,0.5,0.7,1,1.1,1.5c0.3,0.5,0.7,0.9,0.9,1.4c0.3,0.5,0.5,0.9,0.8,1.3c0.2,0.4,0.5,0.8,0.7,1.1c0.2,0.4,0.4,0.7,0.5,1
		c0.6,1.2,1,1.9,1,1.9s-0.4-0.7-1.1-1.9c-0.2-0.3-0.3-0.6-0.6-1c-0.2-0.3-0.5-0.7-0.7-1.1c-0.3-0.4-0.5-0.8-0.8-1.3
		c-0.3-0.4-0.6-0.9-1-1.4c-0.3-0.5-0.7-1-1.1-1.5c-0.4-0.5-0.8-1-1.2-1.5c-0.2-0.3-0.4-0.5-0.6-0.8c-0.2-0.3-0.5-0.5-0.7-0.8
		c-0.5-0.5-0.9-1.1-1.4-1.6c-1-1-2.1-2.1-3.2-3.1c-1.1-1.1-2.4-2-3.6-3c-1.3-0.9-2.5-1.9-3.8-2.7c-1.3-0.9-2.6-1.6-3.9-2.3
		c-0.7-0.3-1.3-0.6-1.9-1c-0.3-0.2-0.6-0.3-0.9-0.5c-0.3-0.1-0.6-0.3-0.9-0.4c-0.6-0.3-1.2-0.5-1.8-0.8c-0.6-0.2-1.2-0.4-1.7-0.6
		c-0.6-0.2-1.1-0.4-1.6-0.6c-0.5-0.2-1-0.3-1.5-0.4c-0.5-0.1-0.9-0.3-1.3-0.4c-0.4-0.1-0.8-0.2-1.1-0.3C77.8,11.3,77,11.1,77,11.1z"
		/>
</g>
</svg>
