<?xml version="1.0" encoding="utf-8"?>
<!-- Generator: Adobe Illustrator 28.4.1, SVG Export Plug-In . SVG Version: 6.00 Build 0)  -->
<svg version="1.1" id="Layer_1" xmlns="http://www.w3.org/2000/svg" xmlns:xlink="http://www.w3.org/1999/xlink" x="0px" y="0px"
	 viewBox="0 0 16 16" style="enable-background:new 0 0 16 16;" xml:space="preserve">
<style type="text/css">
	.st0{fill:#FF0000;}
</style>
<g>
	<path class="st0" d="M5.8,4.5c1,0,1.8-0.8,1.8-1.8c0-1-0.8-1.8-1.8-1.8c-1,0-1.8,0.8-1.8,1.8C3.9,3.7,4.7,4.5,5.8,4.5z"/>
	<path class="st0" d="M13.6,0.1C13.4,0,13.2,0,13,0c-0.6,0-1.2,0.2-1.7,0.3c-0.1,0-0.2,0.1-0.3,0.1c-0.1,0-0.3,0-0.5,0
		c-0.1,0-0.3,0-0.4,0C10.1,0.3,10,0.3,9.9,0.3c-0.2,0-0.3,0.1-0.3,0.3v6.3L7.8,4.9C7.6,4.8,7.4,4.7,7.1,4.7H4.5
		c-0.4,0-0.7,0.2-0.8,0.5L2.3,8.6c-0.2,0.4,0,0.8,0.4,1c0.1,0,0.2,0.1,0.3,0.1c0.3,0,0.6-0.2,0.7-0.5l0.3-0.6l0,6.6
		C4,15.6,4.3,16,4.8,16c0.5,0,0.9-0.4,0.9-0.9v-4.5H6v4.5C6,15.6,6.4,16,6.9,16c0.5,0,0.9-0.4,0.9-0.9V7.1l1.7,1.7
		C9.5,8.9,9.5,9,9.6,9v6.5c0,0.2,0.1,0.3,0.3,0.3c0.2,0,0.3-0.1,0.3-0.3V9c0.1,0,0.2-0.1,0.2-0.2c0.3-0.3,0.3-0.8,0-1.1l-0.3-0.3
		V3.6c0,0,0,0,0.1,0c0.6,0,1.2-0.1,1.8-0.4c0.2-0.1,0.5-0.1,0.8-0.1c0.4,0,0.7,0.1,0.7,0.1c0,0,0,0,0,0c0,0,0.1,0,0.1-0.1
		c0,0,0-0.1,0-0.1l0-2.8C13.8,0.2,13.7,0.1,13.6,0.1z"/>
</g>
</svg>
