<svg width="700" height="700" viewBox="0 0 700 700" fill="none" xmlns="http://www.w3.org/2000/svg">
<path fill-rule="evenodd" clip-rule="evenodd" d="M650 400C677.615 400 700 422.386 700 450V600C700 655.23 655.23 700 600 700H100C44.7715 700 0 655.23 0 600V450C0 422.386 22.386 400 50 400C77.614 400 100 422.385 100 450V600H600V450C600 422.385 622.385 400 650 400Z" fill="#1C274C"/>
<path d="M400 50C400 22.386 377.614 0 350 0C322.386 0 300 22.386 300 50V279.29L235.355 214.645C215.829 195.118 184.171 195.118 164.645 214.645C145.118 234.171 145.118 265.829 164.645 285.355L350 470.71L535.355 285.355C554.88 265.829 554.88 234.171 535.355 214.645C515.83 195.118 484.17 195.118 464.645 214.645L400 279.29V50Z" fill="#8D93A5"/>
</svg>
