<svg width="800" height="557" viewBox="0 0 800 557" fill="none" xmlns="http://www.w3.org/2000/svg">
<path fill-rule="evenodd" clip-rule="evenodd" d="M400 0C620.565 0 800 179.482 800 400C800 432.141 796.283 463.812 788.895 494.117L784.565 512.094H566.071V465.035H747.012C750.965 443.906 752.942 422.07 752.942 400C752.942 205.365 594.589 47.0583 400 47.0583C205.365 47.0583 47.0592 205.365 47.0592 400C47.0592 422.071 49.0358 443.906 52.9417 465.035H256.047V512.094H15.3888L11.0596 494.117C3.7175 463.811 0 432.141 0 400C0 179.482 179.436 0 400 0ZM626.062 162.786L659.333 196.057L612.367 243.021L579.097 209.75L626.062 162.786ZM173.902 162.786L220.866 209.75L187.595 243.021L140.632 196.056L173.902 162.786ZM423.511 78.8846V145.332H376.452V78.8842L423.511 78.8846Z" fill="#8D93A5"/>
<path d="M502.231 422.31C483.737 387.393 354.843 267.44 329.196 243.722C321.807 236.898 311.078 235.534 302.184 240.24C293.384 244.851 288.49 254.64 289.949 264.522C295.172 299.063 322.137 473.04 340.631 507.957C357.054 538.875 388.819 556.522 421.619 556.522C436.019 556.522 450.654 553.134 464.255 545.934C508.819 522.263 525.855 466.828 502.231 422.31Z" fill="#1C274C"/>
</svg>
