<svg width="658" height="800" viewBox="0 0 658 800" fill="none" xmlns="http://www.w3.org/2000/svg">
<path d="M635.339 433.657H558.54C549.845 345.135 490.435 268.203 405.337 238.169C394.93 234.614 383.338 239.092 378.201 248.971L331.435 340.261L284.012 247.522C279.005 237.774 267.677 233.032 257.271 236.458C169.407 265.308 108.284 342.765 99.5888 433.264H22.5288C10.2781 433.264 0.266846 443.142 0.266846 455.526V730.579C0.266846 742.83 10.1457 752.841 22.5288 752.841H55.5927V777.738C55.5927 789.989 65.4735 800 77.8546 800C90.2378 800 100.117 790.119 100.117 777.738V752.841H557.879V777.738C557.879 789.989 567.76 800 580.141 800C592.392 800 602.403 790.119 602.403 777.738V752.841H635.467C647.718 752.841 657.729 742.963 657.729 730.579V455.788C657.603 443.538 647.459 433.657 635.339 433.657ZM253.452 285.723L311.545 399.407C315.366 406.784 323.005 411.527 331.437 411.527C339.737 411.527 347.509 406.786 351.329 399.407L408.501 287.437C466.462 314.836 506.246 370.296 513.885 433.526H144.117C151.889 368.583 193.384 312.334 253.452 285.723ZM613.209 708.183H612.946V708.446H44.9232V657.597H75.2219C87.4726 657.597 97.4838 647.718 97.4838 635.335C97.4838 623.084 87.603 613.073 75.2219 613.073H44.9232V573.554H127.65C139.901 573.554 149.912 563.673 149.912 551.292C149.912 539.041 140.033 529.03 127.65 529.03H44.9232V478.183H613.209V708.183Z" fill="#8D93A5"/>
<path d="M328.935 0C274.398 0 230.269 44.261 230.269 98.6658C230.269 153.071 274.4 197.464 328.935 197.464C383.47 197.464 427.601 153.203 427.601 98.7983C427.601 44.3935 383.47 0 328.935 0ZM328.935 152.94C299.031 152.94 274.663 128.569 274.663 98.6679C274.663 68.7665 299.034 44.3955 328.935 44.3955C358.836 44.3955 383.207 68.7665 383.207 98.6679C383.207 128.569 358.836 152.94 328.935 152.94Z" fill="#1C274C"/>
</svg>
