<svg width="16" height="16" viewBox="0 0 16 16" fill="none" xmlns="http://www.w3.org/2000/svg">
<g clip-path="url(#clip0_42_62)">
<path d="M8 14.7521C7.93485 14.7521 7.87341 14.7223 7.83301 14.6712L6.87307 13.4543C6.83647 13.4079 6.82079 13.3482 6.83007 13.2897L7.26854 10.5037L7.68857 10.5697L7.26457 13.264L8 14.1962L8.73554 13.264L8.31154 10.5697L8.73157 10.5037L9.17004 13.2897C9.17932 13.3482 9.16363 13.4079 9.12704 13.4545L8.167 14.6713C8.1266 14.7223 8.06519 14.7521 8 14.7521Z" fill="#8D92A5" stroke="#8D92A5" stroke-width="0.2"/>
<path d="M15.4432 8.21271H12.3161C12.1986 8.21271 12.1034 8.11752 12.1034 8.00008C12.1034 5.73749 10.2626 3.89665 8 3.89665C5.73737 3.89665 3.89669 5.73749 3.89669 8.00008C3.89669 8.11752 3.8015 8.21271 3.68406 8.21271H0.55675C0.439281 8.21271 0.344093 8.11752 0.344093 8.00008V7.06318C0.344093 6.81715 0.511968 6.60949 0.752406 6.55805L2.18575 6.25124C2.22075 6.24371 2.24287 6.22355 2.25375 6.1893C2.35897 5.8554 2.49456 5.52843 2.65687 5.21765C2.67331 5.18611 2.67194 5.15608 2.65241 5.12593L1.85562 3.89493C1.722 3.68861 1.75006 3.42296 1.92387 3.24902L3.24906 1.92408C3.41816 1.75496 3.69397 1.72568 3.89484 1.85571L5.12609 2.65268C5.15587 2.67196 5.18616 2.67346 5.21806 2.65689C5.52822 2.49496 5.85519 2.35933 6.18931 2.25402C6.22331 2.24327 6.2435 2.22115 6.25103 2.18615L6.55809 0.752551C6.60953 0.512113 6.81706 0.344238 7.06294 0.344238H8.93716C9.18303 0.344238 9.39059 0.512113 9.442 0.752551L9.74906 2.18615C9.7565 2.22115 9.77678 2.24327 9.81078 2.25402C10.1448 2.35921 10.4716 2.49483 10.7823 2.65689C10.8138 2.67333 10.8439 2.67208 10.874 2.65233L12.1052 1.85561C12.3057 1.72543 12.582 1.75461 12.7511 1.92399L14.0761 3.24893C14.2499 3.42286 14.278 3.6884 14.1446 3.89483L13.3477 5.12571C13.3283 5.15574 13.3269 5.1858 13.3434 5.21746C13.5058 5.52871 13.6416 5.85583 13.7467 6.18946C13.7574 6.22358 13.7796 6.24374 13.8145 6.25127L15.2475 6.55808C15.4879 6.60952 15.6558 6.81705 15.6558 7.06293V8.00008C15.6559 8.11752 15.5607 8.21271 15.4432 8.21271ZM12.5238 7.78746H15.2306V7.06293C15.2306 7.01818 15.2023 6.98333 15.1586 6.97393L13.7254 6.66711C13.5412 6.62755 13.3975 6.49677 13.341 6.31727C13.2434 6.00724 13.1174 5.70336 12.9664 5.41424C12.8792 5.24699 12.8883 5.05277 12.9908 4.89455L13.7875 3.6638C13.8117 3.62621 13.807 3.58133 13.7754 3.54971L12.4503 2.22458C12.4034 2.17796 12.3668 2.19268 12.3364 2.21246L11.1051 3.00943C11.0199 3.06443 10.9231 3.09361 10.8249 3.09361C10.7419 3.09361 10.6614 3.07346 10.5855 3.0339C10.297 2.88333 9.99322 2.75736 9.68294 2.65971C9.50306 2.60296 9.37231 2.45908 9.33313 2.27489L9.02619 0.84152C9.01678 0.79777 8.98191 0.769457 8.93716 0.769457H7.06294C7.01819 0.769457 6.98331 0.79777 6.97397 0.84152L6.66687 2.27511C6.62753 2.45905 6.49691 2.60283 6.31725 2.65958C6.00662 2.75749 5.703 2.88346 5.41456 3.03402C5.24831 3.12058 5.05166 3.11105 4.895 3.0098L3.66366 2.21271C3.63309 2.19268 3.59653 2.17808 3.54966 2.22471L2.22459 3.54965C2.19309 3.5813 2.18828 3.62618 2.21262 3.66374L3.00959 4.89486C3.11194 5.05308 3.12094 5.2473 3.03406 5.4143C2.88312 5.70333 2.75716 6.00693 2.65937 6.31733C2.60253 6.49708 2.45872 6.62774 2.27478 6.66705L0.841406 6.97386C0.797656 6.98327 0.769343 7.01824 0.769343 7.06311V7.7874H3.47634C3.58784 5.38868 5.57419 3.47136 7.99997 3.47136C10.4257 3.47136 12.4122 5.38874 12.5238 7.78746Z" fill="#8D92A5" stroke="#8D92A5" stroke-width="0.2"/>
<path d="M3.60125 11.5444C4.4044 11.5444 5.05772 10.8911 5.05772 10.088C5.05772 9.285 4.4044 8.63162 3.60125 8.63162C2.79822 8.63162 2.14487 9.28497 2.14487 10.088C2.1449 10.8911 2.79822 11.5444 3.60125 11.5444ZM3.60125 9.05691C4.16987 9.05691 4.63247 9.5195 4.63247 10.088C4.63247 10.6565 4.16987 11.1191 3.60125 11.1191C3.03272 11.1191 2.57012 10.6565 2.57012 10.088C2.57012 9.5195 3.03272 9.05691 3.60125 9.05691ZM12.3987 11.5444C13.2018 11.5444 13.8551 10.8911 13.8551 10.088C13.8551 9.285 13.2018 8.63162 12.3987 8.63162C11.5957 8.63162 10.9424 9.28497 10.9424 10.088C10.9424 10.8911 11.5957 11.5444 12.3987 11.5444ZM12.3987 9.05691C12.9673 9.05691 13.4299 9.5195 13.4299 10.088C13.4299 10.6565 12.9673 11.1191 12.3987 11.1191C11.8302 11.1191 11.3677 10.6565 11.3677 10.088C11.3677 9.5195 11.8302 9.05691 12.3987 9.05691Z" fill="#8D92A5"/>
<path d="M15.2129 14.7481L14.863 12.8962C14.7182 12.1321 14.0739 11.5938 13.2962 11.5938H11.5014C11.3824 11.5938 11.2653 11.6053 11.1511 11.6306C10.8451 10.8393 10.0952 10.3126 9.21369 10.3126H6.78644C5.90497 10.3126 5.15509 10.8393 4.84894 11.6305C4.73475 11.6053 4.61762 11.5938 4.49872 11.5938H2.70387C1.92606 11.5938 1.28175 12.1321 1.13712 12.8962L0.787154 14.7457C0.743873 14.9738 0.801623 15.1992 0.949592 15.3776C1.09759 15.5565 1.30687 15.6563 1.53915 15.6563H14.4609C14.693 15.6563 14.9024 15.5577 15.0503 15.379C15.1985 15.2004 15.2562 14.9761 15.2129 14.7481ZM1.27722 15.1014C1.20859 15.0186 1.185 14.93 1.205 14.8243L1.55497 12.98C1.66115 12.4196 2.1335 12.0313 2.70387 12.0313H4.49872C4.57881 12.0313 4.65769 12.0378 4.73478 12.0532L4.26784 14.5117C4.21884 14.7696 4.26931 15.0313 4.41347 15.2188H1.53915C1.4315 15.2188 1.34594 15.1845 1.27722 15.1014ZM5.21128 15.2188C5.04437 15.2188 4.90572 15.1595 4.79925 15.0311C4.69269 14.9024 4.65447 14.7571 4.68562 14.5931L5.15887 12.0965C5.30928 11.3028 5.97856 10.7501 6.78644 10.7501H9.21369C10.0216 10.7501 10.6908 11.3042 10.8412 12.098L11.3146 14.5962C11.3456 14.7601 11.3074 14.9024 11.2008 15.031C11.0944 15.1595 10.9558 15.2188 10.7889 15.2188L5.21128 15.2188ZM14.7228 15.1015C14.6542 15.1845 14.5685 15.2188 14.4608 15.2188H11.5866C11.7307 15.0313 11.7813 14.769 11.7324 14.511L11.2652 12.0503C11.3424 12.0348 11.4212 12.0314 11.5014 12.0314H13.2963C13.8665 12.0314 14.339 12.4212 14.4452 12.9815L14.7951 14.8252C14.8152 14.9307 14.7915 15.0186 14.7228 15.1015ZM8.00012 10.0953C9.04484 10.0953 9.89484 9.24531 9.89484 8.20059C9.89484 7.15591 9.04484 6.30591 8.00012 6.30591C6.95528 6.30591 6.10528 7.15591 6.10528 8.20059C6.10528 9.24531 6.95528 10.0953 8.00012 10.0953ZM8.00012 6.73116C8.81034 6.73116 9.46959 7.39041 9.46959 8.20059C9.46959 9.01081 8.81031 9.67006 8.00012 9.67006C7.18981 9.67006 6.53056 9.01078 6.53056 8.20059C6.53056 7.39041 7.18981 6.73116 8.00012 6.73116Z" fill="#8D92A5"/>
<path d="M3.60125 11.5444C4.4044 11.5444 5.05772 10.8911 5.05772 10.088C5.05772 9.285 4.4044 8.63162 3.60125 8.63162C2.79822 8.63162 2.14487 9.28497 2.14487 10.088C2.1449 10.8911 2.79822 11.5444 3.60125 11.5444ZM3.60125 9.05691C4.16987 9.05691 4.63247 9.5195 4.63247 10.088C4.63247 10.6565 4.16987 11.1191 3.60125 11.1191C3.03272 11.1191 2.57012 10.6565 2.57012 10.088C2.57012 9.5195 3.03272 9.05691 3.60125 9.05691ZM12.3987 11.5444C13.2018 11.5444 13.8551 10.8911 13.8551 10.088C13.8551 9.285 13.2018 8.63162 12.3987 8.63162C11.5957 8.63162 10.9424 9.28497 10.9424 10.088C10.9424 10.8911 11.5957 11.5444 12.3987 11.5444ZM12.3987 9.05691C12.9673 9.05691 13.4299 9.5195 13.4299 10.088C13.4299 10.6565 12.9673 11.1191 12.3987 11.1191C11.8302 11.1191 11.3677 10.6565 11.3677 10.088C11.3677 9.5195 11.8302 9.05691 12.3987 9.05691Z" stroke="#8D92A5" stroke-width="0.2"/>
<path d="M15.2129 14.7481L14.863 12.8962C14.7182 12.1321 14.0739 11.5938 13.2962 11.5938H11.5014C11.3824 11.5938 11.2653 11.6053 11.1511 11.6306C10.8451 10.8393 10.0952 10.3126 9.21369 10.3126H6.78644C5.90497 10.3126 5.15509 10.8393 4.84894 11.6305C4.73475 11.6053 4.61762 11.5938 4.49872 11.5938H2.70387C1.92606 11.5938 1.28175 12.1321 1.13712 12.8962L0.787154 14.7457C0.743873 14.9738 0.801623 15.1992 0.949592 15.3776C1.09759 15.5565 1.30687 15.6563 1.53915 15.6563H14.4609C14.693 15.6563 14.9024 15.5577 15.0503 15.379C15.1985 15.2004 15.2562 14.9761 15.2129 14.7481ZM1.27722 15.1014C1.20859 15.0186 1.185 14.93 1.205 14.8243L1.55497 12.98C1.66115 12.4196 2.1335 12.0313 2.70387 12.0313H4.49872C4.57881 12.0313 4.65769 12.0378 4.73478 12.0532L4.26784 14.5117C4.21884 14.7696 4.26931 15.0313 4.41347 15.2188H1.53915C1.4315 15.2188 1.34594 15.1845 1.27722 15.1014ZM5.21128 15.2188C5.04437 15.2188 4.90572 15.1595 4.79925 15.0311C4.69269 14.9024 4.65447 14.7571 4.68562 14.5931L5.15887 12.0965C5.30928 11.3028 5.97856 10.7501 6.78644 10.7501H9.21369C10.0216 10.7501 10.6908 11.3042 10.8412 12.098L11.3146 14.5962C11.3456 14.7601 11.3074 14.9024 11.2008 15.031C11.0944 15.1595 10.9558 15.2188 10.7889 15.2188L5.21128 15.2188ZM14.7228 15.1015C14.6542 15.1845 14.5685 15.2188 14.4608 15.2188H11.5866C11.7307 15.0313 11.7813 14.769 11.7324 14.511L11.2652 12.0503C11.3424 12.0348 11.4212 12.0314 11.5014 12.0314H13.2963C13.8665 12.0314 14.339 12.4212 14.4452 12.9815L14.7951 14.8252C14.8152 14.9307 14.7915 15.0186 14.7228 15.1015ZM8.00012 10.0953C9.04484 10.0953 9.89484 9.24531 9.89484 8.20059C9.89484 7.15591 9.04484 6.30591 8.00012 6.30591C6.95528 6.30591 6.10528 7.15591 6.10528 8.20059C6.10528 9.24531 6.95528 10.0953 8.00012 10.0953ZM8.00012 6.73116C8.81034 6.73116 9.46959 7.39041 9.46959 8.20059C9.46959 9.01081 8.81031 9.67006 8.00012 9.67006C7.18981 9.67006 6.53056 9.01078 6.53056 8.20059C6.53056 7.39041 7.18981 6.73116 8.00012 6.73116Z" stroke="#8D92A5" stroke-width="0.2"/>
</g>
<defs>
<clipPath id="clip0_42_62">
<rect width="16" height="16" fill="white"/>
</clipPath>
</defs>
</svg>
