<svg width="684" height="684" viewBox="0 0 684 684" fill="none" xmlns="http://www.w3.org/2000/svg">
<path fill-rule="evenodd" clip-rule="evenodd" d="M82.2565 62.0637C123.129 19.0323 190.737 27.0947 224.523 74.8807L266.557 134.33C293.58 172.552 291.297 225.691 259.047 259.647L250.883 268.24C250.86 268.299 250.836 268.364 250.812 268.433C250.38 269.645 249.29 273.505 250.363 280.83C252.588 296.014 264.31 326.87 311.9 376.974C359.637 427.23 388.593 439.077 402.01 441.257C407.8 442.197 410.826 441.38 411.793 441.04L425.413 426.7C454.54 396.034 499.95 389.994 536.566 411.07L600.25 447.724C654.68 479.054 667.35 555.694 623.85 601.49L576.5 651.344C561.72 666.904 541.566 680.184 516.666 682.64C455.87 688.644 315.033 680.827 167.387 525.384C29.6145 380.334 3.44184 254.171 0.133505 192.531C-1.50116 162.075 12.0745 135.952 29.9365 117.147L82.2565 62.0637ZM183.697 103.746C166.618 79.5913 135.937 78.15 118.509 96.498L66.1892 151.581C55.1428 163.211 49.3472 176.541 50.0615 189.851C52.7628 240.178 74.4355 354.92 203.639 490.947C339.113 633.577 463.92 637.604 511.753 632.884C521.213 631.95 530.943 626.7 540.246 616.91L587.596 567.057C608.023 545.55 602.67 506.807 575.306 491.06L511.623 454.404C494.533 444.567 474.513 447.607 461.667 461.134L446.483 477.117L428.913 460.427C446.483 477.117 446.46 477.14 446.44 477.167L446.39 477.214L446.293 477.317L446.08 477.534L445.603 478.004C445.26 478.337 444.863 478.7 444.417 479.094C443.52 479.88 442.41 480.777 441.08 481.72C438.406 483.614 434.85 485.697 430.353 487.47C421.153 491.1 409.003 493.047 393.996 490.61C364.743 485.86 326.406 464.85 275.646 411.407C224.734 357.807 205.248 317.817 200.891 288.078C198.674 272.943 200.449 260.823 203.705 251.671C205.307 247.17 207.198 243.581 208.942 240.856C209.811 239.497 210.64 238.359 211.373 237.433C211.739 236.97 212.082 236.56 212.394 236.201L212.838 235.702L213.041 235.481L213.138 235.377L213.185 235.327C213.208 235.303 213.231 235.279 230.953 252.111L213.231 235.278L222.792 225.213C237.643 209.577 239.801 183.098 225.729 163.196L183.697 103.746Z" fill="#8D93A5"/>
<path d="M366.983 21.6614C369.19 8.03175 382.073 -1.21392 395.703 0.992413C396.547 1.15408 399.263 1.66141 400.683 1.97808C403.53 2.61175 407.497 3.58675 412.443 5.02775C422.337 7.90908 436.157 12.6561 452.743 20.2604C485.953 35.4857 530.147 62.1191 576.007 107.979C621.867 153.839 648.5 198.033 663.723 231.242C671.33 247.829 676.077 261.649 678.957 271.542C680.397 276.489 681.373 280.457 682.007 283.301C682.323 284.723 682.557 285.865 682.717 286.709L682.91 287.749C685.113 301.377 675.953 314.797 662.323 317.004C648.733 319.204 635.93 310 633.67 296.437C633.6 296.07 633.407 295.094 633.203 294.17C632.79 292.324 632.08 289.396 630.953 285.524C628.697 277.78 624.78 266.269 618.273 252.08C605.28 223.736 581.913 184.597 540.65 143.334C499.39 102.072 460.25 78.7061 431.907 65.7117C417.717 59.2064 406.207 55.2887 398.46 53.0327C394.59 51.9051 389.723 50.7881 387.877 50.3771C374.31 48.1161 364.783 35.2521 366.983 21.6614Z" fill="#1C274C"/>
<path fill-rule="evenodd" clip-rule="evenodd" d="M374.536 136.643C378.33 123.367 392.166 115.68 405.443 119.473L398.573 143.511C405.443 119.473 405.43 119.47 405.443 119.473L405.49 119.487L405.54 119.502L405.653 119.534L405.91 119.611L406.57 119.817C407.073 119.978 407.7 120.187 408.45 120.452C409.946 120.984 411.923 121.739 414.35 122.779C419.206 124.86 425.843 128.074 433.993 132.898C450.31 142.554 472.583 158.593 498.746 184.759C524.913 210.925 540.953 233.198 550.61 249.513C555.433 257.664 558.646 264.299 560.726 269.155C561.766 271.582 562.523 273.561 563.053 275.058C563.32 275.806 563.53 276.434 563.69 276.936L563.896 277.596L563.973 277.854L564.006 277.966L564.02 278.017C564.023 278.029 564.033 278.065 539.996 284.933L564.033 278.065C567.826 291.341 560.14 305.176 546.863 308.97C533.7 312.733 519.986 305.206 516.056 292.138L515.933 291.778C515.756 291.277 515.386 290.291 514.77 288.851C513.536 285.973 511.3 281.266 507.58 274.979C500.146 262.421 486.723 243.446 463.393 220.115C440.06 196.783 421.086 183.359 408.526 175.927C402.24 172.206 397.533 169.97 394.656 168.736C393.216 168.119 392.23 167.752 391.73 167.574L391.37 167.451C378.3 163.521 370.776 149.806 374.536 136.643Z" fill="#1C274C"/>
</svg>
