<svg width="966" height="966" viewBox="0 0 966 966" fill="none" xmlns="http://www.w3.org/2000/svg">
<path d="M483 7.5C220.803 7.5 7.5 220.803 7.5 483C7.5 745.197 220.803 958.5 483 958.5C745.197 958.5 958.5 745.197 958.5 483C958.5 220.803 745.197 7.5 483 7.5ZM483 904.5C250.59 904.5 61.5 715.41 61.5 483C61.5 250.59 250.59 61.5 483 61.5C715.41 61.5 904.5 250.59 904.5 483C904.5 715.41 715.41 904.5 483 904.5Z" fill="#8D93A5" stroke="#8D93A5" stroke-width="15"/>
<mask id="path-2-outside-1_155_10" maskUnits="userSpaceOnUse" x="114" y="113" width="739" height="739" fill="black">
<rect fill="white" x="114" y="113" width="739" height="739"/>
<path d="M798 399.248H747.943C743.053 383.634 736.843 368.612 729.387 354.347L764.83 318.905C771.815 311.921 775.659 302.643 775.659 292.781C775.659 282.916 771.811 273.639 764.83 266.657L699.341 201.169C692.358 194.185 683.08 190.339 673.216 190.339C663.353 190.339 654.076 194.185 647.092 201.169L611.649 236.611C597.384 229.155 582.36 222.947 566.748 218.055V168C566.748 147.598 550.15 131 529.748 131H437.248C416.846 131 400.248 147.598 400.248 168V218.057C384.634 222.947 369.612 229.157 355.347 236.613L319.905 201.171C312.921 194.185 303.643 190.341 293.781 190.341C283.916 190.341 274.639 194.189 267.657 201.171L202.169 266.659C195.185 273.642 191.339 282.92 191.339 292.784C191.339 302.647 195.185 311.924 202.169 318.908L237.611 354.35C230.155 368.616 223.947 383.64 219.055 399.252H169C148.598 399.252 132 415.85 132 436.252V528.752C132 549.154 148.598 565.752 169 565.752H219.055C223.945 581.366 230.155 596.388 237.611 610.653L202.169 646.095C195.183 653.079 191.339 662.357 191.339 672.219C191.339 682.084 195.187 691.361 202.169 698.343L267.657 763.831C274.641 770.815 283.918 774.661 293.782 774.661C303.645 774.661 312.923 770.815 319.906 763.831L355.349 728.389C369.614 735.845 384.638 742.053 400.25 746.945V797C400.25 817.402 416.848 834 437.25 834H529.75C550.152 834 566.75 817.402 566.752 797V746.943C582.366 742.053 597.388 735.843 611.653 728.387L647.095 763.83C654.079 770.815 663.357 774.659 673.219 774.659C683.084 774.659 692.361 770.811 699.343 763.83L764.831 698.341C771.815 691.358 775.661 682.08 775.661 672.216C775.661 662.353 771.815 653.076 764.831 646.092L729.389 610.649C736.845 596.384 743.053 581.36 747.945 565.748H798C818.402 565.748 835 549.15 835 528.748V436.248C835 415.846 818.402 399.248 798 399.248ZM798 528.746H733.994C725.554 528.746 718.187 534.455 716.078 542.627C710.401 564.644 701.804 585.423 690.524 604.393C686.201 611.665 687.361 620.947 693.344 626.93L738.669 672.175L673.258 737.665L627.933 692.34C621.947 686.355 612.665 685.199 605.397 689.521C586.427 700.8 565.646 709.399 543.631 715.075C535.459 717.184 529.75 724.55 529.75 732.99V797H437.25V732.992C437.25 724.552 431.541 717.185 423.369 715.076C401.353 709.399 380.573 700.802 361.604 689.522C358.668 687.776 355.4 686.925 352.156 686.925C347.371 686.925 342.634 688.779 339.07 692.347L293.825 737.672L228.335 672.262L273.66 626.937C279.643 620.952 280.803 611.673 276.479 604.4C265.2 585.43 256.601 564.649 250.925 542.634C248.816 534.463 241.45 528.754 233.01 528.754H169V436.254H233.003C241.442 436.254 248.809 430.545 250.918 422.373C256.596 400.356 265.193 379.577 276.472 360.607C280.796 353.335 279.636 344.053 273.653 338.07L228.328 292.825L293.738 227.335L339.063 272.66C345.05 278.645 354.331 279.803 361.6 275.479C380.57 264.2 401.351 255.601 423.366 249.925C431.537 247.816 437.246 240.45 437.246 232.01V168H529.746V232.003C529.746 240.442 535.455 247.809 543.627 249.918C565.644 255.596 586.423 264.193 605.393 275.472C612.661 279.796 621.945 278.634 627.93 272.653L673.175 227.328L738.665 292.738L693.34 338.063C687.357 344.048 686.197 353.327 690.521 360.6C701.8 379.57 710.399 400.351 716.075 422.366C718.184 430.537 725.55 436.246 733.99 436.246H798V528.746Z"/>
</mask>
<path d="M798 399.248H747.943C743.053 383.634 736.843 368.612 729.387 354.347L764.83 318.905C771.815 311.921 775.659 302.643 775.659 292.781C775.659 282.916 771.811 273.639 764.83 266.657L699.341 201.169C692.358 194.185 683.08 190.339 673.216 190.339C663.353 190.339 654.076 194.185 647.092 201.169L611.649 236.611C597.384 229.155 582.36 222.947 566.748 218.055V168C566.748 147.598 550.15 131 529.748 131H437.248C416.846 131 400.248 147.598 400.248 168V218.057C384.634 222.947 369.612 229.157 355.347 236.613L319.905 201.171C312.921 194.185 303.643 190.341 293.781 190.341C283.916 190.341 274.639 194.189 267.657 201.171L202.169 266.659C195.185 273.642 191.339 282.92 191.339 292.784C191.339 302.647 195.185 311.924 202.169 318.908L237.611 354.35C230.155 368.616 223.947 383.64 219.055 399.252H169C148.598 399.252 132 415.85 132 436.252V528.752C132 549.154 148.598 565.752 169 565.752H219.055C223.945 581.366 230.155 596.388 237.611 610.653L202.169 646.095C195.183 653.079 191.339 662.357 191.339 672.219C191.339 682.084 195.187 691.361 202.169 698.343L267.657 763.831C274.641 770.815 283.918 774.661 293.782 774.661C303.645 774.661 312.923 770.815 319.906 763.831L355.349 728.389C369.614 735.845 384.638 742.053 400.25 746.945V797C400.25 817.402 416.848 834 437.25 834H529.75C550.152 834 566.75 817.402 566.752 797V746.943C582.366 742.053 597.388 735.843 611.653 728.387L647.095 763.83C654.079 770.815 663.357 774.659 673.219 774.659C683.084 774.659 692.361 770.811 699.343 763.83L764.831 698.341C771.815 691.358 775.661 682.08 775.661 672.216C775.661 662.353 771.815 653.076 764.831 646.092L729.389 610.649C736.845 596.384 743.053 581.36 747.945 565.748H798C818.402 565.748 835 549.15 835 528.748V436.248C835 415.846 818.402 399.248 798 399.248ZM798 528.746H733.994C725.554 528.746 718.187 534.455 716.078 542.627C710.401 564.644 701.804 585.423 690.524 604.393C686.201 611.665 687.361 620.947 693.344 626.93L738.669 672.175L673.258 737.665L627.933 692.34C621.947 686.355 612.665 685.199 605.397 689.521C586.427 700.8 565.646 709.399 543.631 715.075C535.459 717.184 529.75 724.55 529.75 732.99V797H437.25V732.992C437.25 724.552 431.541 717.185 423.369 715.076C401.353 709.399 380.573 700.802 361.604 689.522C358.668 687.776 355.4 686.925 352.156 686.925C347.371 686.925 342.634 688.779 339.07 692.347L293.825 737.672L228.335 672.262L273.66 626.937C279.643 620.952 280.803 611.673 276.479 604.4C265.2 585.43 256.601 564.649 250.925 542.634C248.816 534.463 241.45 528.754 233.01 528.754H169V436.254H233.003C241.442 436.254 248.809 430.545 250.918 422.373C256.596 400.356 265.193 379.577 276.472 360.607C280.796 353.335 279.636 344.053 273.653 338.07L228.328 292.825L293.738 227.335L339.063 272.66C345.05 278.645 354.331 279.803 361.6 275.479C380.57 264.2 401.351 255.601 423.366 249.925C431.537 247.816 437.246 240.45 437.246 232.01V168H529.746V232.003C529.746 240.442 535.455 247.809 543.627 249.918C565.644 255.596 586.423 264.193 605.393 275.472C612.661 279.796 621.945 278.634 627.93 272.653L673.175 227.328L738.665 292.738L693.34 338.063C687.357 344.048 686.197 353.327 690.521 360.6C701.8 379.57 710.399 400.351 716.075 422.366C718.184 430.537 725.55 436.246 733.99 436.246H798V528.746Z" fill="#8D93A5"/>
<path d="M798 399.248H747.943C743.053 383.634 736.843 368.612 729.387 354.347L764.83 318.905C771.815 311.921 775.659 302.643 775.659 292.781C775.659 282.916 771.811 273.639 764.83 266.657L699.341 201.169C692.358 194.185 683.08 190.339 673.216 190.339C663.353 190.339 654.076 194.185 647.092 201.169L611.649 236.611C597.384 229.155 582.36 222.947 566.748 218.055V168C566.748 147.598 550.15 131 529.748 131H437.248C416.846 131 400.248 147.598 400.248 168V218.057C384.634 222.947 369.612 229.157 355.347 236.613L319.905 201.171C312.921 194.185 303.643 190.341 293.781 190.341C283.916 190.341 274.639 194.189 267.657 201.171L202.169 266.659C195.185 273.642 191.339 282.92 191.339 292.784C191.339 302.647 195.185 311.924 202.169 318.908L237.611 354.35C230.155 368.616 223.947 383.64 219.055 399.252H169C148.598 399.252 132 415.85 132 436.252V528.752C132 549.154 148.598 565.752 169 565.752H219.055C223.945 581.366 230.155 596.388 237.611 610.653L202.169 646.095C195.183 653.079 191.339 662.357 191.339 672.219C191.339 682.084 195.187 691.361 202.169 698.343L267.657 763.831C274.641 770.815 283.918 774.661 293.782 774.661C303.645 774.661 312.923 770.815 319.906 763.831L355.349 728.389C369.614 735.845 384.638 742.053 400.25 746.945V797C400.25 817.402 416.848 834 437.25 834H529.75C550.152 834 566.75 817.402 566.752 797V746.943C582.366 742.053 597.388 735.843 611.653 728.387L647.095 763.83C654.079 770.815 663.357 774.659 673.219 774.659C683.084 774.659 692.361 770.811 699.343 763.83L764.831 698.341C771.815 691.358 775.661 682.08 775.661 672.216C775.661 662.353 771.815 653.076 764.831 646.092L729.389 610.649C736.845 596.384 743.053 581.36 747.945 565.748H798C818.402 565.748 835 549.15 835 528.748V436.248C835 415.846 818.402 399.248 798 399.248ZM798 528.746H733.994C725.554 528.746 718.187 534.455 716.078 542.627C710.401 564.644 701.804 585.423 690.524 604.393C686.201 611.665 687.361 620.947 693.344 626.93L738.669 672.175L673.258 737.665L627.933 692.34C621.947 686.355 612.665 685.199 605.397 689.521C586.427 700.8 565.646 709.399 543.631 715.075C535.459 717.184 529.75 724.55 529.75 732.99V797H437.25V732.992C437.25 724.552 431.541 717.185 423.369 715.076C401.353 709.399 380.573 700.802 361.604 689.522C358.668 687.776 355.4 686.925 352.156 686.925C347.371 686.925 342.634 688.779 339.07 692.347L293.825 737.672L228.335 672.262L273.66 626.937C279.643 620.952 280.803 611.673 276.479 604.4C265.2 585.43 256.601 564.649 250.925 542.634C248.816 534.463 241.45 528.754 233.01 528.754H169V436.254H233.003C241.442 436.254 248.809 430.545 250.918 422.373C256.596 400.356 265.193 379.577 276.472 360.607C280.796 353.335 279.636 344.053 273.653 338.07L228.328 292.825L293.738 227.335L339.063 272.66C345.05 278.645 354.331 279.803 361.6 275.479C380.57 264.2 401.351 255.601 423.366 249.925C431.537 247.816 437.246 240.45 437.246 232.01V168H529.746V232.003C529.746 240.442 535.455 247.809 543.627 249.918C565.644 255.596 586.423 264.193 605.393 275.472C612.661 279.796 621.945 278.634 627.93 272.653L673.175 227.328L738.665 292.738L693.34 338.063C687.357 344.048 686.197 353.327 690.521 360.6C701.8 379.57 710.399 400.351 716.075 422.366C718.184 430.537 725.55 436.246 733.99 436.246H798V528.746Z" stroke="#8D93A5" stroke-width="36" mask="url(#path-2-outside-1_155_10)"/>
<path d="M635.642 570.458L568.975 512.125L547.025 537.21L580.31 566.333H483C437.05 566.333 399.667 528.95 399.667 483H366.333C366.333 547.33 418.67 599.667 483 599.667H580.31L547.025 628.792L568.975 653.877L635.642 595.543C639.258 592.38 641.333 587.807 641.333 583.002C641.333 578.197 639.258 573.622 635.642 570.458Z" fill="#1C274C"/>
<path d="M418.975 428.788L385.69 399.666H483C528.95 399.666 566.333 437.05 566.333 483H599.667C599.667 418.67 547.33 366.333 483 366.333H385.69L418.975 337.208L397.025 312.123L330.358 370.456C326.742 373.62 324.667 378.193 324.667 382.998C324.667 387.803 326.742 392.376 330.358 395.54L397.025 453.873L418.975 428.788Z" fill="#1C274C"/>
</svg>
