<svg width="182" height="91" viewBox="0 0 182 91" fill="none" xmlns="http://www.w3.org/2000/svg">
<path d="M0 91.0001C1.35995e-06 75.4441 3.98782 60.1477 11.5827 46.5717C19.1775 32.9956 30.1258 21.5932 43.3821 13.4531L60.3414 41.0718C51.8064 46.3128 44.7574 53.6542 39.8675 62.3951C34.9776 71.1359 32.41 80.9844 32.41 91.0001L0 91.0001Z" fill="#DC3545"/>
<path d="M48.5977 10.4832C61.7923 3.53434 76.4925 -0.0653053 91.4049 0.000896899C106.317 0.0670991 120.985 3.79712 134.117 10.8628L118.761 39.404C110.306 34.8548 100.862 32.4532 91.261 32.4106C81.6597 32.368 72.1951 34.6856 63.6998 39.1596L48.5977 10.4832Z" fill="#8D93A5"/>
<path d="M138.16 13.1738C151.497 21.2561 162.534 32.6305 170.211 46.2057C177.888 59.7808 181.947 75.101 181.999 90.6963L149.589 90.8044C149.555 80.7634 146.942 70.8996 141.999 62.1593C137.057 53.419 129.951 46.0956 121.363 40.8919L138.16 13.1738Z" fill="#8D93A5"/>
</svg>
