<svg width="734" height="734" viewBox="0 0 734 734" fill="none" xmlns="http://www.w3.org/2000/svg">
<path d="M267 633.667H167C93.3623 633.667 33.667 573.97 33.667 500.333V200.333C33.667 126.695 93.3623 67 167 67H533.667C607.304 67 667 126.695 667 200.333V300.333" stroke="#8D93A5" stroke-width="66.6667" stroke-linecap="round" stroke-linejoin="round"/>
<path d="M233.667 33.667V100.334" stroke="#8D93A5" stroke-width="66.6667" stroke-linecap="round" stroke-linejoin="round"/>
<path d="M467 33.667V100.334" stroke="#8D93A5" stroke-width="66.6667" stroke-linecap="round" stroke-linejoin="round"/>
<path d="M33.667 233.667H667" stroke="#8D93A5" stroke-width="66.6667" stroke-linecap="round" stroke-linejoin="round"/>
<path d="M583.667 488.43L533.667 538.43" stroke="#8D93A5" stroke-width="66.6667" stroke-linecap="round" stroke-linejoin="round"/>
<path d="M533.667 700.333C625.714 700.333 700.333 625.714 700.333 533.667C700.333 441.619 625.714 367 533.667 367C441.619 367 367 441.619 367 533.667C367 625.714 441.619 700.333 533.667 700.333Z" stroke="#1C274C" stroke-width="66.6667" stroke-linecap="round" stroke-linejoin="round"/>
</svg>
