<?xml version="1.0" encoding="utf-8"?>
<!-- Generator: Adobe Illustrator 28.4.1, SVG Export Plug-In . SVG Version: 6.00 Build 0)  -->
<svg version="1.1" id="Layer_1" xmlns="http://www.w3.org/2000/svg" xmlns:xlink="http://www.w3.org/1999/xlink" x="0px" y="0px"
	 viewBox="0 0 220 38" style="enable-background:new 0 0 220 38;" xml:space="preserve">
<style type="text/css">
	.st0{fill:#231F20;}
	.st1{opacity:0.8;}
	.st2{clip-path:url(#SVGID_00000096756259251657249170000004679197804057217175_);}
	
		.st3{clip-path:url(#SVGID_00000027591288997110932520000007449236719225149609_);fill:url(#SVGID_00000143588305055591765300000013136853690511718060_);}
	
		.st4{clip-path:url(#SVGID_00000169541058777130646860000013932987488016504721_);fill:url(#SVGID_00000021809397082568385110000014506262335466542495_);}
	
		.st5{clip-path:url(#SVGID_00000078765421857399531320000007732020079035827596_);fill:url(#SVGID_00000171712269704706375520000010035607639601448885_);}
</style>
<g>
	<path class="st0" d="M9.28,4.55c-4.84,0-8.04,2.36-8.04,6.08c0,7.15,10.66,5.02,10.66,8.59c0,1.15-1.01,1.76-2.62,1.76
		c-2.1,0-5.22-1.21-7.29-3.03L0,21.9c2.39,1.96,5.85,3.23,9.22,3.23c4.5,0,8.07-2.13,8.07-6.17c0-7.29-10.66-5.3-10.66-8.79
		c0-0.98,0.89-1.47,2.22-1.47c1.64,0,4.32,0.86,6.46,2.1l1.93-4.01C15.16,5.44,12.19,4.55,9.28,4.55"/>
	<polygon class="st0" points="39.93,8.88 39.93,4.73 22.7,4.73 22.7,8.88 28.72,8.88 28.72,24.94 33.85,24.94 33.85,8.88 	"/>
	<path class="st0" d="M50.47,15.21V8.78h3.89c2.22,0,3.52,1.07,3.52,3.17c0,2.13-1.3,3.26-3.52,3.26H50.47z M57.5,24.92h5.82
		l-4.24-6.66c2.36-1.18,3.66-3.4,3.66-6.48c0-4.5-3.06-7.03-8.39-7.03h-9.02v20.18h5.13v-5.68h3.89h0.14L57.5,24.92z"/>
	<path class="st0" d="M82.79,17.31h-5.82l2.94-7.47L82.79,17.31z M84.29,21.2l1.44,3.72h5.48L82.7,4.75h-5.27l-8.7,20.18H74
		l1.47-3.72H84.29z"/>
	<polygon class="st0" points="109.7,8.88 109.7,4.73 92.46,4.73 92.46,8.88 98.49,8.88 98.49,24.94 103.62,24.94 103.62,8.88 	"/>
	<path class="st0" d="M120.23,15.21V8.78h3.89c2.22,0,3.52,1.07,3.52,3.17c0,2.13-1.3,3.26-3.52,3.26H120.23z M127.26,24.92h5.82
		l-4.24-6.66c2.36-1.18,3.66-3.4,3.66-6.48c0-4.5-3.06-7.03-8.39-7.03h-9.02v20.18h5.13v-5.68h3.89h0.14L127.26,24.92z"/>
	<polygon class="st0" points="220,24.94 220,4.73 214.41,4.73 208.93,16.75 203.46,4.73 197.84,4.73 197.84,24.94 202.42,24.94 
		202.42,11.82 207.26,22.92 210.6,22.92 215.45,11.82 215.47,24.94 	"/>
	<g class="st1">
		<g>
			<defs>
				<rect id="SVGID_1_" x="138.97" y="30.51" width="52.4" height="6.52"/>
			</defs>
			<clipPath id="SVGID_00000170989889258019855810000016184133614573783470_">
				<use xlink:href="#SVGID_1_"  style="overflow:visible;"/>
			</clipPath>
			<g style="clip-path:url(#SVGID_00000170989889258019855810000016184133614573783470_);">
				<defs>
					<path id="SVGID_00000147926587568832272040000000148176145969641118_" d="M138.97,33.77c0,1.8,11.73,3.26,26.2,3.26
						c14.43,0,26.14-1.45,26.2-3.25v-0.03c-0.06-1.8-11.76-3.25-26.2-3.25C150.7,30.51,138.97,31.97,138.97,33.77"/>
				</defs>
				<clipPath id="SVGID_00000149340363858328504230000007483827700744593595_">
					<use xlink:href="#SVGID_00000147926587568832272040000000148176145969641118_"  style="overflow:visible;"/>
				</clipPath>
				
					<radialGradient id="SVGID_00000133506589946980416970000010234566885151461033_" cx="-818.9995" cy="406.8578" r="0.1342" gradientTransform="matrix(195.2406 0 0 24.3111 160067.1562 -9857.4033)" gradientUnits="userSpaceOnUse">
					<stop  offset="0" style="stop-color:#111C2A"/>
					<stop  offset="0.0752" style="stop-color:#1A2533"/>
					<stop  offset="0.1991" style="stop-color:#333E4C"/>
					<stop  offset="0.3564" style="stop-color:#5B6774"/>
					<stop  offset="0.5409" style="stop-color:#949FAB"/>
					<stop  offset="0.7422" style="stop-color:#D9E5F0"/>
					<stop  offset="0.7718" style="stop-color:#E4ECF4"/>
					<stop  offset="0.8313" style="stop-color:#F3F7FA"/>
					<stop  offset="0.9003" style="stop-color:#FCFDFE"/>
					<stop  offset="1" style="stop-color:#FFFFFF"/>
				</radialGradient>
				
					<rect x="138.97" y="30.51" style="clip-path:url(#SVGID_00000149340363858328504230000007483827700744593595_);fill:url(#SVGID_00000133506589946980416970000010234566885151461033_);" width="52.4" height="6.52"/>
			</g>
		</g>
	</g>
	<g>
		<defs>
			<path id="SVGID_00000067214507123127563070000004211870087363112357_" d="M165.85,7.46l-0.68,1.02l0,0l-4.68,7.02l-2.48,3.73
				c-2.04,3.05-5.23,3.41-7.54,2.7c-2.3-0.7-4.77-2.75-4.77-6.43v0h-7.79v0c0,6.54,4.05,11.99,10.3,13.88
				c6.26,1.9,12.65-0.39,16.28-5.84l0.68-1.02v0l4.75-7.02l2.41-3.73c2.04-3.06,5.22-3.41,7.54-2.7c2.31,0.7,4.77,2.75,4.77,6.43
				h7.79c0-6.54-4.05-11.99-10.3-13.89c-1.46-0.44-2.92-0.65-4.36-0.65C173.04,0.97,168.64,3.29,165.85,7.46"/>
		</defs>
		<clipPath id="SVGID_00000010307954138131395280000003784168534104735139_">
			<use xlink:href="#SVGID_00000067214507123127563070000004211870087363112357_"  style="overflow:visible;"/>
		</clipPath>
		
			<linearGradient id="SVGID_00000069375355645339900850000005828779732730763138_" gradientUnits="userSpaceOnUse" x1="-817.3739" y1="409.5884" x2="-817.2511" y2="409.5884" gradientTransform="matrix(234.8398 -284.9027 284.9027 234.8398 75410.1562 -329026.4375)">
			<stop  offset="0" style="stop-color:#45AFE3"/>
			<stop  offset="0.2" style="stop-color:#4853A1"/>
			<stop  offset="0.4" style="stop-color:#EC2289"/>
			<stop  offset="0.6" style="stop-color:#ED2E2C"/>
			<stop  offset="0.8" style="stop-color:#C7BC2F"/>
			<stop  offset="1" style="stop-color:#63BD69"/>
		</linearGradient>
		
			<polygon style="clip-path:url(#SVGID_00000010307954138131395280000003784168534104735139_);fill:url(#SVGID_00000069375355645339900850000005828779732730763138_);" points="
			170.37,58.06 207.32,13.24 159.96,-25.79 123.02,19.03 		"/>
	</g>
	<g>
		<defs>
			<path id="SVGID_00000151521035597689937970000009742488449322050745_" d="M152.57,0.97c-1.44,0-2.91,0.22-4.37,0.66
				c-6.26,1.9-10.3,7.45-10.3,13.99v-0.05l7.79,0.05l0,0c0-3.67,2.47-5.83,4.77-6.53c2.32-0.71,5.5-0.35,7.54,2.7l2.48,3.73
				l4.68,7.02l0,0l0.68,1.02c3.63,5.44,10.02,7.73,16.27,5.84c6.26-1.9,10.3-7.44,10.3-13.98l-7.79,0.04c0,3.68-2.47,5.79-4.77,6.48
				c-2.32,0.71-5.5,0.35-7.54-2.7l-2.41-3.73l-4.75-7.02l0,0l-0.68-1.02C161.7,3.29,157.3,0.97,152.57,0.97L152.57,0.97"/>
		</defs>
		<clipPath id="SVGID_00000070095593409238479180000014553017703276237487_">
			<use xlink:href="#SVGID_00000151521035597689937970000009742488449322050745_"  style="overflow:visible;"/>
		</clipPath>
		
			<linearGradient id="SVGID_00000014607472031215947880000007276216961972144286_" gradientUnits="userSpaceOnUse" x1="-817.2337" y1="409.4882" x2="-817.111" y2="409.4882" gradientTransform="matrix(234.8398 284.9027 284.9027 -234.8398 75405.1562 328994.5)">
			<stop  offset="0" style="stop-color:#45AFE3"/>
			<stop  offset="0.2" style="stop-color:#4853A1"/>
			<stop  offset="0.4" style="stop-color:#AA2063"/>
			<stop  offset="0.6" style="stop-color:#AC2225"/>
			<stop  offset="0.8" style="stop-color:#C6BB30"/>
			<stop  offset="1" style="stop-color:#63BD69"/>
		</linearGradient>
		
			<polygon style="clip-path:url(#SVGID_00000070095593409238479180000014553017703276237487_);fill:url(#SVGID_00000014607472031215947880000007276216961972144286_);" points="
			170.37,-25.79 207.31,19.02 159.96,58.05 123.02,13.24 		"/>
	</g>
	<path class="st0" d="M167.86,19.27"/>
</g>
</svg>
