<?xml version="1.0" encoding="utf-8"?>
<!-- Generator: Adobe Illustrator 28.4.1, SVG Export Plug-In . SVG Version: 6.00 Build 0)  -->
<svg version="1.1" id="Layer_1" xmlns="http://www.w3.org/2000/svg" xmlns:xlink="http://www.w3.org/1999/xlink" x="0px" y="0px"
	 viewBox="0 0 512 512" style="enable-background:new 0 0 512 512;" xml:space="preserve">
<style type="text/css">
	.st0{opacity:0.8;}
	.st1{clip-path:url(#SVGID_00000140717487550613830920000008156699397930647946_);}
	
		.st2{clip-path:url(#SVGID_00000036237813392330518450000007093876889837979065_);fill:url(#SVGID_00000137843753534747681120000001253112282177066173_);}
	
		.st3{clip-path:url(#SVGID_00000097458926328818269050000008863849656690901641_);fill:url(#SVGID_00000078019888874434413860000010795417680628676747_);}
	
		.st4{clip-path:url(#SVGID_00000127747145477405733860000014116238952915351975_);fill:url(#SVGID_00000097465855683696454550000000220204924462745269_);}
	.st5{fill:#231F20;}
</style>
<g>
	<g class="st0">
		<g>
			<defs>
				<rect id="SVGID_1_" x="25.39" y="357.28" width="461.22" height="57.43"/>
			</defs>
			<clipPath id="SVGID_00000145780538198860851830000017470782508329786257_">
				<use xlink:href="#SVGID_1_"  style="overflow:visible;"/>
			</clipPath>
			<g style="clip-path:url(#SVGID_00000145780538198860851830000017470782508329786257_);">
				<defs>
					<path id="SVGID_00000181792899509346992220000006141116791395121033_" d="M25.39,385.99c0,15.86,103.25,28.71,230.61,28.71
						c127.05,0,230.11-12.79,230.61-28.6v-0.23c-0.5-15.81-103.56-28.6-230.61-28.6C128.63,357.28,25.39,370.13,25.39,385.99"/>
				</defs>
				<clipPath id="SVGID_00000049912644155137647290000013850133541830488732_">
					<use xlink:href="#SVGID_00000181792899509346992220000006141116791395121033_"  style="overflow:visible;"/>
				</clipPath>
				
					<radialGradient id="SVGID_00000039856800946089646840000011099447676056764809_" cx="-709.1133" cy="657.7916" r="1.1797" gradientTransform="matrix(195.478 0 0 24.3407 138872.0312 -15625.0977)" gradientUnits="userSpaceOnUse">
					<stop  offset="0" style="stop-color:#111C2A"/>
					<stop  offset="0.0752" style="stop-color:#1A2533"/>
					<stop  offset="0.1991" style="stop-color:#333E4C"/>
					<stop  offset="0.3564" style="stop-color:#5B6774"/>
					<stop  offset="0.5409" style="stop-color:#949FAB"/>
					<stop  offset="0.7422" style="stop-color:#D9E5F0"/>
					<stop  offset="0.7718" style="stop-color:#E4ECF4"/>
					<stop  offset="0.8313" style="stop-color:#F3F7FA"/>
					<stop  offset="0.9003" style="stop-color:#FCFDFE"/>
					<stop  offset="1" style="stop-color:#FFFFFF"/>
				</radialGradient>
				
					<rect x="25.39" y="357.28" style="clip-path:url(#SVGID_00000049912644155137647290000013850133541830488732_);fill:url(#SVGID_00000039856800946089646840000011099447676056764809_);" width="461.22" height="57.43"/>
			</g>
		</g>
	</g>
	<g>
		<defs>
			<path id="SVGID_00000159433519983274893990000004791794709111687310_" d="M262.03,154.45l-6.02,9.01l-0.01-0.01l-41.18,61.83
				l-21.87,32.8c-17.95,26.89-46.01,30-66.39,23.79c-20.28-6.14-41.98-24.23-41.98-56.58v-0.01H16v0.01
				c0,57.56,35.61,105.53,90.7,122.21c55.08,16.73,111.32-3.46,143.3-51.39l6-9.01v0l41.83-61.82l21.25-32.8
				c17.93-26.9,45.94-30.01,66.34-23.8c20.31,6.13,42.01,24.24,42.02,56.59H496c-0.01-57.59-35.61-105.55-90.71-122.23
				c-12.82-3.87-25.72-5.75-38.35-5.76C325.32,97.29,286.52,117.7,262.03,154.45"/>
		</defs>
		<clipPath id="SVGID_00000026861445694808475580000010091165337690468760_">
			<use xlink:href="#SVGID_00000159433519983274893990000004791794709111687310_"  style="overflow:visible;"/>
		</clipPath>
		
			<linearGradient id="SVGID_00000181064724042515668600000006148257515857792155_" gradientUnits="userSpaceOnUse" x1="-707.8085" y1="656.0539" x2="-706.7276" y2="656.0539" gradientTransform="matrix(234.8398 -284.9027 284.9027 234.8398 -20557.9863 -355342.8125)">
			<stop  offset="0" style="stop-color:#45AFE3"/>
			<stop  offset="0.2" style="stop-color:#4853A1"/>
			<stop  offset="0.4" style="stop-color:#EC2289"/>
			<stop  offset="0.6" style="stop-color:#ED2E2C"/>
			<stop  offset="0.8" style="stop-color:#C7BC2F"/>
			<stop  offset="1" style="stop-color:#63BD69"/>
		</linearGradient>
		
			<polygon style="clip-path:url(#SVGID_00000026861445694808475580000010091165337690468760_);fill:url(#SVGID_00000181064724042515668600000006148257515857792155_);" points="
			301.81,599.83 627.02,205.29 210.19,-138.29 -115.02,256.25 		"/>
	</g>
	<g>
		<defs>
			<path id="SVGID_00000064332981974106791720000012450569686706439323_" d="M145.12,97.29c-12.66,0-25.57,1.89-38.43,5.8
				C51.61,119.78,16,168.64,16,226.21v-0.44l68.57,0.44l0,0c0-32.35,21.7-51.35,41.98-57.48c20.38-6.21,48.44-3.1,66.39,23.79
				l21.87,32.8L256,287.15l0.01-0.01l6.02,9.01c31.92,47.9,88.17,68.04,143.26,51.41c55.1-16.69,90.7-65.46,90.71-123.04
				l-68.57,0.34c-0.01,32.35-21.71,50.93-42.02,57.06c-20.4,6.21-48.41,3.1-66.34-23.8l-21.25-32.8L256,163.49l0,0l-6-9.01
				C225.48,117.74,186.7,97.3,145.12,97.29L145.12,97.29"/>
		</defs>
		<clipPath id="SVGID_00000117648452443584303270000004773632913895001989_">
			<use xlink:href="#SVGID_00000064332981974106791720000012450569686706439323_"  style="overflow:visible;"/>
		</clipPath>
		
			<linearGradient id="SVGID_00000134972687255175294400000006533878042415906967_" gradientUnits="userSpaceOnUse" x1="-707.8223" y1="656.0638" x2="-706.7416" y2="656.0638" gradientTransform="matrix(234.8398 284.9027 284.9027 -234.8398 -20562.9863 355804)">
			<stop  offset="0" style="stop-color:#45AFE3"/>
			<stop  offset="0.2" style="stop-color:#4853A1"/>
			<stop  offset="0.4" style="stop-color:#AA2063"/>
			<stop  offset="0.6" style="stop-color:#AC2225"/>
			<stop  offset="0.8" style="stop-color:#C6BB30"/>
			<stop  offset="1" style="stop-color:#63BD69"/>
		</linearGradient>
		
			<polygon style="clip-path:url(#SVGID_00000117648452443584303270000004773632913895001989_);fill:url(#SVGID_00000134972687255175294400000006533878042415906967_);" points="
			301.81,-138.29 627,256.22 210.19,599.78 -114.99,205.27 		"/>
	</g>
	<path class="st5" d="M279.7,258.34"/>
</g>
</svg>
