<svg width="616" height="616" viewBox="0 0 616 616" fill="none" xmlns="http://www.w3.org/2000/svg">
<path d="M307.998 508.5H308C361.176 508.5 412.174 487.376 449.775 449.775C487.376 412.174 508.5 361.176 508.5 308C508.5 254.824 487.376 203.826 449.775 166.225C412.174 128.624 361.176 107.5 308 107.5H306.5V109V137.429V138.929H308C341.439 138.929 374.127 148.844 401.931 167.422C429.735 186 451.405 212.405 464.202 243.299C476.998 274.193 480.346 308.188 473.823 340.984C467.299 373.781 451.197 403.906 427.552 427.552C403.906 451.197 373.781 467.299 340.984 473.823C308.188 480.346 274.193 476.998 243.299 464.202C212.405 451.405 186 429.735 167.422 401.931C148.844 374.127 138.929 341.439 138.929 308V306.5H137.429H109H107.498L107.5 308.002C107.56 361.159 128.703 412.122 166.291 449.709C203.878 487.297 254.841 508.44 307.998 508.5Z" fill="#1C274C" stroke="#1C274C" stroke-width="3"/>
<path d="M307.999 451.643H308C346.097 451.643 382.633 436.509 409.571 409.571C436.509 382.633 451.643 346.096 451.643 308C451.643 269.904 436.509 233.367 409.571 206.429C382.633 179.491 346.097 164.357 308 164.357H306.5V165.857V194.286V195.786H308C330.194 195.786 351.89 202.367 370.343 214.697C388.797 227.028 403.18 244.553 411.673 265.057C420.166 285.562 422.388 308.125 418.058 329.892C413.729 351.659 403.041 371.654 387.348 387.348C371.654 403.041 351.66 413.728 329.892 418.058C308.125 422.388 285.562 420.166 265.058 411.673C244.553 403.179 227.028 388.796 214.698 370.343C202.367 351.889 195.786 330.194 195.786 308V306.5H194.286H165.857H164.356L164.357 308.002C164.401 346.084 179.549 382.595 206.477 409.523C233.406 436.452 269.916 451.599 307.999 451.643Z" fill="#1C274C" stroke="#1C274C" stroke-width="3"/>
<path d="M307.998 394.786H308C331.017 394.786 353.091 385.642 369.366 369.367C385.642 353.091 394.785 331.017 394.785 308C394.785 284.983 385.642 262.909 369.366 246.633C353.091 230.358 331.017 221.214 308 221.214H306.5V222.714V251.143V252.643H308C318.948 252.643 329.651 255.89 338.754 261.972C347.858 268.055 354.953 276.701 359.143 286.816C363.333 296.931 364.429 308.061 362.293 318.8C360.157 329.538 354.885 339.402 347.143 347.143C339.401 354.885 329.537 360.158 318.799 362.294C308.061 364.43 296.931 363.333 286.815 359.143C276.7 354.954 268.055 347.858 261.972 338.755C255.889 329.651 252.642 318.949 252.642 308V306.5H251.142H222.714H221.212L221.214 308.002C221.24 331.01 230.392 353.069 246.661 369.338C262.931 385.608 284.989 394.759 307.998 394.786Z" fill="#1C274C" stroke="#1C274C" stroke-width="3"/>
<path d="M8 308C8 60.95 60.95 8 308 8C555.05 8 608 60.95 608 308C608 555.05 555.05 608 308 608C60.95 608 8 555.05 8 308Z" stroke="#8D93A5" stroke-width="15"/>
</svg>
