<?xml version="1.0" encoding="utf-8"?>
<!-- Generator: Adobe Illustrator 28.4.1, SVG Export Plug-In . SVG Version: 6.00 Build 0)  -->
<svg version="1.1" id="global" xmlns="http://www.w3.org/2000/svg" xmlns:xlink="http://www.w3.org/1999/xlink" x="0px" y="0px"
	 viewBox="0 0 80 80" style="enable-background:new 0 0 80 80;" xml:space="preserve">
<style type="text/css">
	.st0{fill:#1C274C;}
</style>
<path class="st0" d="M40,0C17.9,0,0,17.9,0,40s17.9,40,40,40s40-17.9,40-40S62.1,0,40,0z M4.7,42.3h14.2c0.2,5.3,0.8,10.3,1.9,14.9
	H9C6.5,52.6,5,47.5,4.7,42.3L4.7,42.3z M42.3,18.3V5c4,1.3,8,6.1,10.7,13.3H42.3z M54.5,22.9c1.2,4.3,1.9,9.3,2.1,14.9H42.3V22.9
	H54.5z M37.7,5v13.3H27C29.7,11,33.7,6.3,37.7,5z M37.7,22.9v14.9H23.5c0.2-5.5,0.9-10.5,2.1-14.9H37.7z M18.9,37.7H4.7
	C5,32.5,6.5,27.4,9,22.9h11.8C19.7,27.4,19,32.4,18.9,37.7z M23.5,42.3h14.2v14.9H25.5C24.4,52.8,23.6,47.8,23.5,42.3z M37.7,61.7
	V75c-4-1.3-8-6.1-10.7-13.3H37.7z M42.3,75V61.7H53C50.3,69,46.3,73.7,42.3,75z M42.3,57.1V42.3h14.2c-0.2,5.5-0.9,10.5-2.1,14.9
	H42.3z M61.1,42.3h14.2C75,47.5,73.5,52.6,71,57.1H59.2C60.3,52.6,61,47.6,61.1,42.3z M61.1,37.7c-0.2-5.3-0.8-10.3-1.9-14.9H71
	c2.5,4.6,4,9.6,4.4,14.9H61.1L61.1,37.7z M68,18.3H57.8c-1.6-4.7-3.6-8.7-6.1-11.7C58.2,8.9,63.8,12.9,68,18.3L68,18.3z M28.2,6.6
	c-2.4,3-4.5,7-6.1,11.7H12C16.2,12.9,21.8,8.9,28.2,6.6z M12,61.7h10.1c1.6,4.7,3.6,8.7,6.1,11.7C21.8,71.1,16.2,67.1,12,61.7z
	 M51.8,73.4c2.4-3,4.5-7,6.1-11.7H68C63.8,67.1,58.2,71.1,51.8,73.4z"/>
</svg>
