<svg width="700" height="667" viewBox="0 0 700 667" fill="none" xmlns="http://www.w3.org/2000/svg">
<path fill-rule="evenodd" clip-rule="evenodd" d="M133.987 236.972C126.06 241.585 119.417 246.135 114.181 250.047C108.478 254.308 99.8772 250.667 100.168 243.553C100.476 236.007 101.277 226.742 103.108 217.028C106.021 201.577 111.54 184.99 121.827 172.38C114.24 157.768 110.057 141.77 110.057 125C110.057 55.9643 180.945 0 268.39 0C355.835 0 426.723 55.9643 426.723 125C426.723 194.035 355.835 250 268.39 250C229.99 250 194.782 239.208 167.368 221.255C154.577 225.948 143.38 231.505 133.987 236.972ZM158.985 171.608C160.517 174.56 160.148 178.14 158.047 180.717L148.018 193.008C150.578 191.965 153.203 190.947 155.888 189.962L167.683 185.635C170.157 184.727 172.915 185.043 175.118 186.487L185.63 193.37C207.332 207.582 236.128 216.667 268.39 216.667C345.2 216.667 393.39 168.713 393.39 125C393.39 81.2873 345.2 33.3333 268.39 33.3333C191.58 33.3333 143.39 81.2873 143.39 125C143.39 136.102 146.135 146.86 151.41 157.02L158.985 171.608Z" fill="#1C274C"/>
<path fill-rule="evenodd" clip-rule="evenodd" d="M485.058 116.666C465.857 116.666 449.317 120.663 435.782 127.108C423.927 132.615 413.928 140.051 406.627 148.806C408.873 141.146 410.058 133.178 410.058 125C410.058 118.11 409.217 111.369 407.608 104.836C428.903 91.3707 455.807 83.333 485.058 83.333C554.093 83.333 610.058 128.105 610.058 183.333C610.058 197.438 606.407 210.861 599.82 223.031C598.352 225.746 598.332 229.023 599.68 231.8C601.268 235.07 602.593 238.483 603.697 241.938C606.705 251.36 608.07 261.098 608.648 269.116C609.162 276.218 600.56 279.941 594.725 275.863C589.388 272.131 582.622 267.915 574.582 263.92C573.013 263.141 571.397 262.371 569.733 261.613C567.173 260.45 564.21 260.771 561.825 262.26C540.638 275.466 513.997 283.333 485.058 283.333C425.56 283.333 375.77 250.076 363.148 205.533C375.702 196.89 386.225 186.555 394.1 174.998C393.632 177.728 393.392 180.51 393.392 183.333C393.392 206.96 410.292 227.716 435.78 239.558C449.315 246.003 465.857 250 485.058 250C535.517 250 576.453 220.35 576.723 183.698C576.723 183.576 576.725 183.455 576.725 183.333C576.725 183.285 576.725 183.238 576.725 183.19C576.657 159.623 559.773 138.926 534.338 127.11C520.803 120.663 504.26 116.666 485.058 116.666Z" fill="#1C274C"/>
<path fill-rule="evenodd" clip-rule="evenodd" d="M166.667 466.666C194.298 466.666 216.667 444.298 216.667 416.666C216.667 389.035 194.298 366.666 166.667 366.666C139.035 366.666 116.667 389.035 116.667 416.666C116.667 444.298 139.035 466.666 166.667 466.666ZM166.667 500C212.708 500 250 462.708 250 416.666C250 370.625 212.708 333.333 166.667 333.333C120.625 333.333 83.3334 370.625 83.3334 416.666C83.3334 462.708 120.625 500 166.667 500Z" fill="#8D93A5"/>
<path fill-rule="evenodd" clip-rule="evenodd" d="M43.6918 596.477C35.592 604.632 33.3333 611.209 33.3333 616.667V633.334H333.333V616.667C333.333 611.209 331.075 604.632 322.975 596.477C314.57 588.015 301.483 579.654 284.597 572.274C250.645 557.435 209.358 550 183.333 550C157.308 550 116.022 557.435 82.0697 572.274C65.1828 579.654 52.096 588.015 43.6918 596.477ZM183.333 516.667C122.147 516.667 0 550.167 0 616.667V666.667H366.667V616.667C366.667 550.167 244.522 516.667 183.333 516.667Z" fill="#8D93A5"/>
<path fill-rule="evenodd" clip-rule="evenodd" d="M533.333 466.666C560.965 466.666 583.333 444.298 583.333 416.666C583.333 389.035 560.965 366.666 533.333 366.666C505.702 366.666 483.333 389.035 483.333 416.666C483.333 444.298 505.702 466.666 533.333 466.666ZM533.333 500C579.375 500 616.667 462.708 616.667 416.666C616.667 370.625 579.375 333.333 533.333 333.333C487.292 333.333 450 370.625 450 416.666C450 462.708 487.292 500 533.333 500Z" fill="#8D93A5"/>
<path fill-rule="evenodd" clip-rule="evenodd" d="M350 433.333C368.423 433.333 383.333 418.423 383.333 400C383.333 381.576 368.423 366.666 350 366.666C331.577 366.666 316.667 381.576 316.667 400C316.667 418.423 331.577 433.333 350 433.333ZM350 466.666C386.833 466.666 416.667 436.833 416.667 400C416.667 363.166 386.833 333.333 350 333.333C313.167 333.333 283.333 363.166 283.333 400C283.333 436.833 313.167 466.666 350 466.666Z" fill="#8D93A5"/>
<path fill-rule="evenodd" clip-rule="evenodd" d="M377.025 596.477C368.925 604.632 366.667 611.209 366.667 616.667V633.334H666.667V616.667C666.667 611.209 664.408 604.632 656.308 596.477C647.903 588.015 634.817 579.654 617.93 572.274C583.978 557.435 542.692 550 516.667 550C490.642 550 449.355 557.435 415.403 572.274C398.517 579.654 385.43 588.015 377.025 596.477ZM516.667 516.667C455.48 516.667 333.333 550.167 333.333 616.667V666.667H700V616.667C700 550.167 577.855 516.667 516.667 516.667Z" fill="#8D93A5"/>
<path fill-rule="evenodd" clip-rule="evenodd" d="M350 516.666C294.845 516.666 256.195 542.375 245.118 553.451L221.547 529.881C238.248 513.181 285.153 483.333 350 483.333C414.845 483.333 461.75 513.181 478.452 529.881L454.88 553.451C443.803 542.375 405.153 516.666 350 516.666Z" fill="#8D93A5"/>
</svg>
