<?xml version="1.0" encoding="utf-8"?>
<!-- Generator: Adobe Illustrator 28.4.1, SVG Export Plug-In . SVG Version: 6.00 Build 0)  -->
<svg version="1.1" id="percent" xmlns="http://www.w3.org/2000/svg" xmlns:xlink="http://www.w3.org/1999/xlink" x="0px" y="0px"
	 viewBox="0 0 12 12" style="enable-background:new 0 0 12 12;" xml:space="preserve">
<style type="text/css">
	.st0{fill:#8D93A5;}
	.st1{fill:#1C274C;}
</style>
<path class="st0" d="M11.2,1.3c0,0.2-0.1,0.3-0.2,0.4l-9.4,9.4c-0.1,0.1-0.2,0.2-0.4,0.2c-0.1,0-0.3-0.1-0.4-0.2
	c-0.2-0.2-0.2-0.5,0-0.8l9.4-9.4c0.1-0.1,0.2-0.2,0.4-0.2c0.1,0,0.3,0.1,0.4,0.2C11.2,1,11.2,1.2,11.2,1.3z"/>
<path class="st1" d="M2.6,0.2c-1.3,0-2.4,1.1-2.4,2.4S1.3,5,2.6,5S5,3.9,5,2.6S3.9,0.2,2.6,0.2z M2.6,3.9c-0.7,0-1.3-0.6-1.3-1.3
	c0-0.7,0.6-1.3,1.3-1.3c0.7,0,1.3,0.6,1.3,1.3C3.9,3.3,3.3,3.9,2.6,3.9z"/>
<path class="st1" d="M9.4,7C8.1,7,7,8.1,7,9.4s1.1,2.4,2.4,2.4s2.4-1.1,2.4-2.4S10.7,7,9.4,7z M9.4,10.7c-0.7,0-1.3-0.6-1.3-1.3
	c0-0.7,0.6-1.3,1.3-1.3c0.7,0,1.3,0.6,1.3,1.3C10.7,10.1,10.1,10.7,9.4,10.7z"/>
</svg>
