<?xml version="1.0" encoding="utf-8"?>
<!-- Generator: Adobe Illustrator 28.4.1, SVG Export Plug-In . SVG Version: 6.00 Build 0)  -->
<svg version="1.1" xmlns="http://www.w3.org/2000/svg" xmlns:xlink="http://www.w3.org/1999/xlink" x="0px" y="0px"
	 viewBox="0 0 512 512" style="enable-background:new 0 0 512 512;" xml:space="preserve">
<style type="text/css">
	.st0{display:none;}
	.st1{display:inline;}
	.st2{fill:#8D93A5;}
	.st3{display:inline;fill:#282828;}
	.st4{fill:#1C274C;stroke:#1C274C;stroke-width:1.2513;}
	.st5{display:inline;fill:#8D93A5;}
	.st6{fill:#1C274C;stroke:#1C274C;stroke-width:2.3123;}
</style>
<g id="Layer_1" class="st0">
	<g class="st1">
		<g>
			<path class="st2" d="M222.8,507.8c-7.2,0-10.5-2.5-12.6-9.5l-4.3-14.5c-4.1-13.6-8.3-27.6-12.4-41.4c-0.2-0.6-0.2-0.7-1.1-1
				c-3.5-1.4-7.1-2.9-10.5-4.3c-3.5-1.5-7.1-3-10.7-4.4c-0.1,0-0.4-0.1-0.7-0.1c-0.2,0-0.4,0-0.4,0c-15.2,8.1-30.7,16.5-45.7,24.6
				l-5.6,3c-3.1,1.7-5.3,2.4-7.4,2.4c-3.4,0-6-1.9-8.9-4.7c-15.7-15.7-31.5-31.4-47.2-47.2c-4.4-4.4-5-8.8-1.9-14.5l1.5-2.7
				c8.6-16,17.5-32.6,26.3-48.8c0.5-0.8,0.5-1.2,0-2.4c-3.2-7.2-5.9-13.8-8.4-20.2c-0.4-1.2-0.8-1.4-1.7-1.7
				c-13.3-3.9-26.8-8-39.9-11.9l-15-4.5c-7.7-2.3-9.9-5.3-9.9-13.3c0-22,0-44,0-66c0-6.9,2.4-10.2,9-12.2
				c20.4-6.2,37.5-11.4,55.1-16.6c1.5-0.5,2-0.9,2.5-2.3c2.5-6.6,5.3-13.2,8.1-19.5l0.3-0.7c0.4-0.9,0.3-1,0.1-1.5
				c-6.5-12.1-13-24.1-19.6-36.2l-8.1-15.1c-3.6-6.6-3-10.6,2.3-15.8C66,94.9,75.9,85,85.8,75.1l16.9-16.9c2.4-2.4,5-4.5,8.7-4.5
				c2.1,0,4.2,0.7,7.1,2.2l7.8,4.2c14.2,7.6,28.9,15.5,43.3,23.4c0.6,0.3,0.8,0.3,0.9,0.3c0.2,0,0.5-0.1,0.8-0.2
				c6-2.6,13.2-5.7,20.7-8.6c1.1-0.4,1.4-0.7,1.7-1.9c5.9-19.9,11.9-39.5,16.9-56.1c1.8-5.9,5.4-8.6,11.6-8.6c9.7,0,19.4,0,29.1,0
				c12.9,0,25.9,0,38.8,0c6,0,9.6,2.7,11.4,8.5c6.9,22.8,12.1,40.3,17,56.8c0.2,0.6,0.3,0.8,1,1.1c6.9,2.8,14.1,5.7,21.3,8.9
				c0.4,0.2,0.6,0.2,0.7,0.2c0.2,0,0.4-0.1,0.6-0.2C356,76,370,68.5,384,61l9.4-5.1c3-1.6,5.1-2.3,7.2-2.3c3.7,0,6.4,2.3,8.8,4.7
				c13.1,13.1,26.2,26.2,39.3,39.3l7.5,7.5c4.8,4.8,5.4,9,2.2,15l-2.8,5.2c-8.2,15.3-16.7,31-25.1,46.5c-0.3,0.5-0.3,0.7,0,1.5
				c2.8,6.5,5.7,13.4,8.8,21.1c0.4,0.9,0.5,0.9,1,1.1c13.2,3.9,26.5,7.9,39.5,11.8c5.5,1.6,10.9,3.3,16.4,4.9
				c7.1,2.1,9.5,5.4,9.5,12.8c0,22.1,0,44.2,0,66.2c0,7-2.7,10.5-9.6,12.6c-18.1,5.4-37,11-56.2,16.9c-0.1,0.1-0.3,0.3-0.3,0.4
				c-3.5,8.2-6.5,15.4-9.1,22c0,0.2,0,0.7,0.1,0.8c5.5,10.3,11,20.6,16.6,30.9c3.7,6.8,7.3,13.6,11,20.5c0.7,1.3,1.2,2.6,1.8,4
				c0.2,0.6,0.5,1.3,0.8,2l0.5,1.3l-0.7,1.3c-0.2,0.5-0.5,1-0.7,1.6c-0.6,1.4-1.4,3.1-2.7,4.4c-16.7,16.8-33.9,34-49.1,49.2
				c-2.3,2.3-4.9,3.5-7.7,3.5c-1.8,0-3.7-0.5-5.6-1.5c-8-4.3-15.9-8.6-23.8-12.8c-4.5-2.4-8.9-4.8-13.4-7.2l-1.7-0.9
				c-4.7-2.5-9.5-5.1-14.3-7.6c0,0-0.1,0-0.2,0c-0.2,0-0.3,0-0.3,0c-7.8,3.1-15.1,6.1-22,9.1c-0.1,0.1-0.4,0.3-0.4,0.5
				c-6.1,19.9-12,39.7-17,56.5c-1.9,6.4-5.6,9.2-12.2,9.2h-33.4L222.8,507.8z M255.9,486.4c9.3,0,17.8,0,26.2,0.1l0,0
				c0.5,0,0.8,0,0.9-0.1s0.2-0.3,0.3-0.7c3-10.1,6-20.3,9-30.2c2.4-8,4.8-16,7.2-24c1.3-4.3,3.9-7,8.5-8.8
				c9.1-3.5,18.4-7.4,27.7-11.5c2.2-1,4.2-1.4,6.1-1.4c2.1,0,4.1,0.5,6.2,1.7c8.6,4.7,17.3,9.3,25.9,14c8.1,4.4,16.2,8.7,24.3,13.1
				c0.1,0.1,0.2,0.1,0.2,0.1c0.1,0,0.1-0.1,0.2-0.2c12.8-12.9,25.4-25.5,37.6-37.6c0.2-0.2,0.3-0.3,0.4-0.4c0-0.1-0.1-0.2-0.2-0.4
				c-5.4-9.9-10.8-20-16.1-29.8c-3.7-6.8-7.3-13.6-11-20.4c-2-3.7-2.2-7.4-0.5-11.3c4.4-10.2,8.3-19.7,12-28.9
				c1.7-4.3,4.3-6.8,8.4-8c8.4-2.5,16.7-5,25.1-7.5c9.9-3,19.9-6,29.8-8.9c0.2,0,0.3-0.1,0.4-0.1c0-0.1,0-0.2,0-0.4
				c-0.1-13.1-0.1-26.3-0.1-39.2v-14.4c-0.2-0.1-0.4-0.1-0.5-0.2l-13-3.9c-13.4-4-27.3-8.2-41-12.3c-4.6-1.4-7.5-4.1-9.4-8.9
				c-3.8-10-7.5-18.8-11.2-27c-2.2-4.8-2.1-8.9,0.3-13.4c5.1-9.4,10.3-18.9,15.2-28.2c3.8-7.1,7.7-14.3,11.5-21.4
				c0.1-0.1,0.1-0.2,0.1-0.2c-0.1-0.1-0.1-0.1-0.2-0.2C422,101.3,410.1,89.4,399,78.1c-0.3-0.3-0.5-0.5-0.6-0.5s-0.3,0.1-0.6,0.3
				c-10.5,5.7-21.3,11.5-31.7,17.1c-6.2,3.3-12.4,6.7-18.6,10c-1.9,1-3.8,1.5-5.8,1.5c-1.8,0-3.6-0.4-5.6-1.3
				c-8.9-3.9-18.5-7.9-28.1-11.7c-4.6-1.8-7.3-4.6-8.6-9c-2.7-9.1-5.4-18.3-8.2-27.4c-2.7-9-5.4-18-8.1-27.1c0-0.2-0.1-0.3-0.1-0.4
				c-0.1,0-0.2,0-0.4,0c-9.7,0-18.6,0.1-27.3,0.1c-8.8,0-17.3,0-25.4-0.1l0,0c-0.5,0-0.8,0-0.9,0.1c-0.1,0.1-0.2,0.3-0.3,0.8
				c-3,10.2-6.1,20.6-9.1,30.6c-2.4,7.9-4.7,15.7-7.1,23.6c-1.2,4.2-3.9,7-8.3,8.7c-9.1,3.6-18.5,7.5-27.9,11.6
				c-2.2,0.9-4.1,1.4-6.1,1.4c-2.1,0-4.1-0.5-6.2-1.7c-7.6-4.1-15.3-8.2-22.9-12.3c-8.9-4.8-18.1-9.7-27.1-14.6
				c-0.2-0.1-0.3-0.2-0.4-0.2c-0.1,0.1-0.2,0.2-0.4,0.4C99.6,91.7,87.4,103.8,76,115.1c-0.3,0.3-0.4,0.5-0.5,0.6
				c0,0.1,0.1,0.3,0.3,0.7c5,9.3,10.1,18.7,15,27.8c4,7.4,8,14.8,12,22.2c2,3.8,2.1,7.5,0.3,11.8c-4.3,9.9-8.1,19.1-11.7,28.2
				c-1.7,4.4-4.5,7.1-8.7,8.3c-8.1,2.4-16.2,4.8-24.3,7.3c-10,3-20.2,6.1-30.4,9.1c-0.1,0-0.3,0.1-0.3,0.1c0,0.1,0,0.2,0,0.4
				c0.1,17.5,0.1,35.3,0,53.2c0,0.2,0,0.3,0,0.4c0.1,0,0.2,0.1,0.3,0.1c9.8,2.9,19.7,5.9,29.4,8.8c8.4,2.5,16.7,5,25.1,7.5
				c4.4,1.3,7.2,4,8.9,8.4c4,10.3,8.3,20.2,11.9,28.6c1.7,3.9,1.5,7.6-0.5,11.3c-4,7.4-8,14.8-11.9,22.2
				c-5.1,9.4-10.1,18.9-15.3,28.3c-0.1,0.1-0.1,0.2-0.1,0.2c0,0.1,0.1,0.1,0.2,0.2c14.6,14.5,26.4,26.3,37.2,37.3
				c0.4,0.4,0.7,0.6,0.8,0.7c0.1,0,0.4-0.1,0.9-0.4c8.6-4.7,17.4-9.4,25.9-14c7.7-4.1,15.6-8.4,23.4-12.7c2.1-1.2,4.2-1.7,6.4-1.7
				c2.1,0,4.1,0.5,6.5,1.6c10.1,4.6,18.5,8,26.2,10.9c5.4,2,8.4,5.1,9.9,10.3c3.2,11.1,6.6,22.4,9.9,33.3c2,6.8,4.1,13.6,6.1,20.4
				v0.1h0.1C238.1,486.5,247,486.4,255.9,486.4z"/>
			<path class="st2" d="M250.9,11.4c13.1,0,26.1,0,39.2,0c4.7,0,7.1,1.8,8.5,6.3c5.7,18.9,11.4,37.8,17,56.8c0.5,1.6,1.2,2.4,2.8,3
				c7.1,2.8,14.2,5.8,21.2,8.8c0.7,0.3,1.3,0.5,1.9,0.5c0.7,0,1.3-0.2,2-0.6c17.1-9.3,34.2-18.5,51.3-27.7c2.3-1.3,4.1-1.9,5.8-1.9
				c2.2,0,4.1,1.2,6.7,3.8c15.6,15.6,31.2,31.2,46.8,46.8c3.9,3.9,4.3,6.7,1.7,11.5c-9.3,17.3-18.6,34.5-27.9,51.8
				c-0.8,1.4-0.8,2.6-0.1,4.1c3,6.9,5.9,13.9,8.7,21c0.6,1.5,1.3,2.4,2.9,2.9c18.6,5.5,37.2,11.1,55.9,16.7c5.8,1.7,7.4,3.8,7.4,10
				c0,22.1,0,44.2,0,66.2c0,5.8-1.9,8.1-7.4,9.7c-18.8,5.6-37.6,11.2-56.3,16.9c-0.8,0.3-1.8,1.2-2.1,2c-3.1,7.3-6.2,14.7-9.2,22.1
				c-0.4,1-0.2,2.4,0.2,3.4c9.1,17.1,18.4,34.2,27.6,51.4c0.9,1.7,1.5,3.6,2.4,5.8c-0.9,1.8-1.5,3.9-2.9,5.3
				c-16.3,16.5-32.7,32.8-49,49.2c-1.7,1.7-3.6,2.6-5.6,2.6c-1.3,0-2.7-0.4-4.2-1.2c-12.4-6.6-24.8-13.4-37.2-20
				c-5.4-2.9-10.7-5.8-16.1-8.6c-0.4-0.2-1-0.3-1.5-0.3s-1,0.1-1.4,0.3c-7.4,3-14.8,6-22.1,9.2c-0.9,0.4-1.8,1.4-2.1,2.3
				c-5.7,18.8-11.4,37.7-17,56.5c-1.5,5.1-4,7-9.3,7c-11.1,0-22.2,0-33.3,0c-11.2,0-22.3,0-33.5,0c-5.9,0-8-1.6-9.7-7.4
				c-5.6-18.6-11.2-37.2-16.7-55.9c-0.5-1.6-1.3-2.4-2.8-3c-7.1-2.8-14.1-5.9-21.2-8.7c-0.5-0.2-1.2-0.3-1.8-0.3s-1.3,0.1-1.7,0.4
				c-17.2,9.1-34.3,18.4-51.4,27.6c-2.4,1.3-4.3,2-5.9,2c-2.2,0-4.1-1.2-6.8-3.9c-15.7-15.7-31.5-31.4-47.2-47.2
				c-3.4-3.4-3.8-6.5-1.4-10.9c9.2-17.2,18.5-34.4,27.8-51.5c1-1.8,0.9-3.2,0.1-5c-2.9-6.6-5.7-13.3-8.3-20.1
				c-0.7-1.9-1.7-2.9-3.6-3.5c-18.3-5.4-36.6-10.9-54.9-16.4c-6.4-1.9-7.8-3.7-7.8-10.4c0-22,0-44,0-66c0-5.5,1.6-7.7,6.9-9.3
				c18.4-5.6,36.7-11.1,55.1-16.6c2.3-0.7,3.6-1.7,4.5-4.1c2.5-6.8,5.5-13.4,8.4-20.1c0.7-1.5,0.7-2.7-0.1-4.1
				c-9.3-17.1-18.5-34.2-27.7-51.3c-2.9-5.4-2.6-8,1.8-12.3C73.9,91.5,89.4,75.9,105,60.3c2.5-2.5,4.4-3.7,6.6-3.7
				c1.6,0,3.4,0.6,5.7,1.9c17,9.2,34.1,18.3,51.1,27.6c0.8,0.4,1.5,0.7,2.3,0.7c0.6,0,1.3-0.2,2-0.5c6.8-3,13.6-5.9,20.5-8.5
				c2-0.8,2.9-1.9,3.5-3.9c5.6-18.7,11.2-37.4,16.9-56.1c1.4-4.7,3.8-6.4,8.7-6.4C231.7,11.4,241.3,11.4,250.9,11.4 M170.3,103.4
				c-1.6,0-3.1-0.4-4.8-1.3c-16.7-9-33.4-17.9-50-27c-0.8-0.4-1.4-0.6-2-0.6c-0.8,0-1.5,0.4-2.4,1.3C98.8,88.3,86.4,100.7,73.9,113
				c-1.6,1.6-1.9,2.8-0.7,4.8c9.1,16.6,18,33.4,27,50c1.7,3.1,1.6,5.9,0.2,9.2c-4.1,9.3-8,18.8-11.7,28.3c-1.3,3.4-3.3,5.5-6.8,6.5
				c-18.2,5.4-36.4,11-54.7,16.4c-2,0.6-2.5,1.4-2.5,3.4c0.1,17.7,0.1,35.4,0,53.1c0,2,0.5,2.8,2.5,3.4
				c18.2,5.4,36.3,10.9,54.4,16.3c3.5,1,5.6,3.1,7,6.6c3.8,9.7,7.8,19.2,11.9,28.7c1.3,3.1,1.2,5.8-0.4,8.7
				C91,365.2,82,382,72.9,398.8c-0.9,1.7-0.8,2.7,0.6,4c12.5,12.4,24.9,24.8,37.2,37.2c1,1,1.9,1.6,2.9,1.6c0.7,0,1.4-0.2,2.3-0.8
				c16.4-9,32.9-17.7,49.3-26.7c1.7-0.9,3.4-1.4,5-1.4c1.7,0,3.4,0.5,5.3,1.3c8.7,3.9,17.5,7.7,26.4,11c4.3,1.6,6.8,3.9,8.1,8.3
				c5.2,18,10.7,35.8,16,53.7c0.5,1.7,1.3,2.3,3,2.3l0,0c8.9,0,17.9-0.1,26.8-0.1c8.7,0,17.4,0,26.1,0.1h0.1c2.3,0,3.3-0.7,4-3
				c5.3-18.1,10.8-36.1,16.2-54.2c1.1-3.6,3.3-5.5,6.7-6.8c9.4-3.6,18.6-7.5,27.8-11.5c1.7-0.8,3.3-1.2,4.9-1.2s3.1,0.4,4.7,1.3
				c16.7,9.1,33.5,18,50.2,27.1c0.7,0.4,1.3,0.6,1.8,0.6c0.8,0,1.4-0.4,2.2-1.2c12.5-12.6,25-25.1,37.6-37.6
				c1.5-1.5,1.7-2.5,0.7-4.4c-9.1-16.7-18.1-33.5-27.1-50.2c-1.6-2.9-1.7-5.6-0.4-8.7c4.1-9.6,8.1-19.2,12-28.9
				c1.3-3.2,3.1-5.2,6.4-6.2c18.3-5.4,36.6-11,54.9-16.4c1.9-0.6,2.5-1.4,2.5-3.4c-0.1-17,0-33.9,0-50.9c0-1.6,0-3.1,0-4.8
				c-1-0.3-1.8-0.7-2.7-0.9c-18-5.4-35.9-10.9-54-16.2c-3.9-1.1-6-3.4-7.4-7.1c-3.5-9.1-7.2-18.2-11.2-27.1c-1.8-3.9-1.8-7,0.2-10.7
				c9-16.5,17.8-33.1,26.8-49.6c0.9-1.7,0.8-2.7-0.6-4C426,101,413.5,88.5,401.1,76c-1-1-1.7-1.5-2.6-1.5c-0.6,0-1.3,0.2-2.2,0.7
				c-16.7,9.1-33.5,18.1-50.2,27.1c-1.5,0.8-2.9,1.2-4.3,1.2s-2.9-0.4-4.4-1c-9.4-4.1-18.7-8.1-28.2-11.7c-3.6-1.4-5.8-3.4-6.8-7.1
				c-5.4-18.2-10.9-36.3-16.3-54.4c-0.6-1.9-1.4-2.5-3.4-2.5l0,0c-9.1,0-18.2,0.1-27.2,0.1c-8.5,0-16.9,0-25.4-0.1c0,0,0,0-0.1,0
				c-2.3,0-3.3,0.7-4,3c-5.3,18.1-10.8,36.1-16.2,54.2c-1,3.5-3.1,5.4-6.5,6.7c-9.4,3.7-18.8,7.6-28,11.6
				C173.4,103,171.8,103.4,170.3,103.4 M250.9,5.4c-9.6,0-19.2,0-28.8,0c-7.5,0-12.2,3.5-14.4,10.7c-5,16.6-11,36.2-16.9,56.1
				c-7.3,2.8-14.3,5.8-20.2,8.4c-14.2-7.7-28.7-15.5-42.7-23.1l-7.9-4.3c-2.3-1.2-5.3-2.6-8.6-2.6c-4.8,0-8.1,2.7-10.8,5.4
				L83.5,73.1c-9.9,9.9-19.7,19.7-29.6,29.6c-6.2,6.2-7,11.6-2.8,19.4c2.7,5,5.4,10,8.1,15c6.3,11.7,12.8,23.8,19.3,35.7l-0.1,0.2
				c-2.8,6.4-5.7,13-8.2,19.7c-0.1,0.1-0.1,0.3-0.1,0.3c-0.1,0-0.2,0.1-0.4,0.2C52,198.5,35,203.6,14.5,209.8
				c-7.8,2.4-11.2,6.9-11.2,15.1c0,22,0,44,0,66c0,9.3,3.2,13.5,12.1,16.2c5.1,1.5,10.1,3,15.2,4.6c12.9,3.9,26.3,7.9,39.5,11.8
				c2.5,6.4,5.2,13,8.4,20.3c-8.7,16.1-17.6,32.5-26.1,48.3l-1.6,3c-3.7,6.8-2.9,12.7,2.4,18c15.7,15.7,31.5,31.4,47.2,47.2
				c2.9,2.9,6.3,5.6,11,5.6c3.3,0,6.3-1.4,8.8-2.7l5.8-3.1c14.6-7.9,29.7-16.1,44.7-24c3.4,1.3,6.8,2.8,10.1,4.1
				c3.3,1.4,6.7,2.8,10.1,4.1c4,13.6,8.2,27.4,12.2,40.8c1.4,4.8,2.9,9.6,4.3,14.4c2.5,8.3,7,11.6,15.5,11.6c11.2,0,22.3,0,33.5,0
				c11.1,0,22.2,0,33.3,0c8,0,12.7-3.6,15-11.3c4.9-16.5,10.8-36,16.7-55.5c6.4-2.7,13-5.5,20.1-8.3c4.4,2.3,8.9,4.7,13.3,7l1.7,0.9
				c4.5,2.4,9,4.8,13.4,7.3c7.8,4.2,15.8,8.5,23.7,12.8c2.3,1.2,4.7,1.9,7,1.9c2.5,0,6.2-0.8,9.8-4.3c15.2-15.2,32.4-32.4,49.1-49.2
				c1.7-1.7,2.6-3.7,3.3-5.3c0.2-0.5,0.4-1,0.6-1.4l1.3-2.5l-1.1-2.6c-0.3-0.7-0.5-1.3-0.8-1.9c-0.6-1.4-1.1-2.9-1.9-4.3
				c-3.7-6.8-7.3-13.6-11-20.4c-5.3-9.9-10.8-20.1-16.2-30.2c2.4-6.1,5.2-12.7,8.3-20.1c18.8-5.7,37.3-11.3,55-16.5
				c8.2-2.4,11.7-7.1,11.7-15.5c0-22.1,0-44.2,0-66.2c0-8.8-3.3-13.2-11.7-15.7c-5.5-1.6-10.9-3.3-16.4-4.9
				c-12.7-3.8-25.8-7.7-38.7-11.6c-2.9-7.3-5.7-13.9-8.4-20.2c8.3-15.4,16.7-30.9,24.8-46l2.8-5.1c3.8-7.1,3-12.8-2.7-18.6l-6.9-6.9
				c-13.3-13.3-26.6-26.6-40-40c-2.8-2.8-6.2-5.6-11-5.6c-3.3,0-6.2,1.3-8.6,2.6l-9.8,5.3c-13.4,7.2-27.2,14.6-40.8,22
				c-6.8-2.9-13.6-5.8-20.2-8.4c-4.8-16.2-10-33.5-16.8-56.2c-2.1-7-6.9-10.6-14.2-10.6C277.1,5.4,264,5.4,250.9,5.4L250.9,5.4z
				 M170.3,109.4c2.3,0,4.7-0.5,7.3-1.7c9.3-4.1,18.7-8,27.8-11.5c5.3-2.1,8.6-5.5,10.1-10.6c2.3-7.9,4.7-15.8,7.1-23.6
				c2.9-9.6,5.9-19.5,8.8-29.3c7.7,0,15.8,0.1,24.1,0.1c8.1,0,16.5,0,25.4-0.1c2.5,8.4,5.1,17,7.6,25.3c2.7,9,5.5,18.3,8.2,27.4
				c1.5,5.2,5,8.8,10.4,10.9c9.6,3.7,19.2,7.8,28,11.7c2.3,1,4.6,1.5,6.8,1.5c2.5,0,4.9-0.6,7.2-1.9c6.2-3.3,12.3-6.7,18.5-10
				c10-5.4,20.3-10.9,30.4-16.4c10.5,10.6,21.7,21.8,35,35.1c-3.6,6.6-7.1,13.2-10.6,19.7c-5,9.2-10.1,18.8-15.2,28.2
				c-2.9,5.3-3,10.4-0.4,16.1c3.7,8.1,7.3,16.8,11.1,26.8c2.1,5.6,5.8,9.1,11.3,10.7c13.6,4,27.5,8.2,40.9,12.2
				c3.8,1.2,7.6,2.3,11.5,3.5v0.4c0,3.9,0,7.9,0,11.8c0,12.2,0,24.8,0,37.3c-9.4,2.8-18.8,5.6-28,8.4c-8.2,2.5-16.7,5-25.1,7.5
				c-4.9,1.5-8.3,4.6-10.3,9.8c-3.6,9.2-7.6,18.6-11.9,28.8c-2,4.7-1.8,9.4,0.6,13.9c3.7,6.8,7.4,13.6,11,20.5
				c5,9.3,10.1,18.8,15.2,28.2c-11.3,11.2-23.1,23-35,35.1c-7.5-4.1-15.1-8.2-22.5-12.1c-8.5-4.6-17.3-9.3-26-14c-2.5-1.4-5-2-7.6-2
				c-2.3,0-4.7,0.6-7.3,1.7c-9.2,4.1-18.5,7.9-27.5,11.4c-5.4,2.1-8.8,5.6-10.3,10.7c-2.4,8-4.8,16.1-7.2,23.9
				c-2.8,9.5-5.8,19.3-8.6,28.9c-7.9,0-16.1-0.1-24.8-0.1c-7.7,0-15.8,0-24.7,0.1c-1.8-6.2-3.7-12.4-5.5-18.4
				c-3.3-10.9-6.7-22.2-9.9-33.3c-1.8-6.1-5.5-10-11.8-12.3c-7.7-2.8-15.9-6.3-26-10.8c-2.7-1.2-5.3-1.8-7.8-1.8
				c-2.7,0-5.3,0.7-7.9,2.1c-7.8,4.2-15.7,8.5-23.4,12.6c-8.2,4.4-16.6,8.9-24.8,13.4c-10.2-10.4-21.4-21.6-35-35.1
				c4.8-8.9,9.6-17.9,14.3-26.6c4-7.4,7.9-14.8,11.9-22.2c2.4-4.5,2.6-9.2,0.6-13.9c-3.6-8.3-7.8-18.3-11.8-28.5
				c-2.1-5.3-5.6-8.6-10.9-10.1c-8.4-2.5-16.8-5-25-7.5c-9-2.7-18.4-5.5-27.6-8.2c0.1-16.6,0.1-33.2,0-49.5
				c9.6-2.8,19.2-5.7,28.6-8.5c8-2.4,16.2-4.9,24.3-7.3c5.1-1.5,8.6-4.8,10.6-10.1c3.5-9,7.3-18.2,11.6-28.1
				c2.2-5.1,2.1-9.8-0.4-14.4c-4-7.4-8-14.9-11.9-22.1c-4.7-8.7-9.5-17.7-14.3-26.6c10.8-10.7,22.3-22.1,35.1-35
				c8.5,4.6,17.2,9.3,25.6,13.8c7.5,4,15.3,8.2,22.9,12.3C165.1,108.7,167.7,109.4,170.3,109.4L170.3,109.4z"/>
		</g>
		<g class="st0">
			<path class="st3" d="M256.4,401c-38.5,0-74.9-15-102.5-42.2s-42.8-63.2-42.9-101.4c-0.1-39.2,14.8-75.9,42.1-103.5
				c27.2-27.6,63.7-42.8,102.6-42.9h0.3c38.4,0,74.8,15,102.2,42.3c27.5,27.3,42.7,63.3,42.8,101.6c0.1,39-14.8,75.6-42,103.2
				c-27.2,27.6-63.5,42.9-102.1,43L256.4,401z M256,128.4c-70.1,0-127.4,57-127.6,127c-0.1,34.2,13.1,66.4,37.3,90.6
				c24,24.1,56,37.5,89.9,37.5h0.2c70.3,0,127.6-57,127.7-127.1c0.1-70.5-57-127.9-127.3-128H256z"/>
			<path class="st3" d="M256,112c78.9,0,143.8,64.3,144,142.8c0.2,80-63.8,144.9-143.2,145.2c-0.2,0-0.3,0-0.5,0
				c-79.1,0-144.1-64.2-144.3-142.6C111.8,177,175.8,112.2,255.7,112C255.8,112,255.9,112,256,112 M255.8,384.5
				c70.9,0,128.6-57.4,128.7-128.1c0.1-71.1-57.3-128.9-128.3-129c-0.1,0-0.1,0-0.2,0c-70.7,0-128.4,57.4-128.6,128
				c-0.2,71.1,57.3,129,128.2,129.1C255.7,384.5,255.7,384.5,255.8,384.5 M256,110v2V110h-0.3c-39.2,0.1-75.8,15.4-103.3,43.2
				C125,181,109.9,218,110,257.4c0.1,38.4,15.4,74.7,43.2,102.1c27.7,27.4,64.4,42.5,103.2,42.5h0.5c38.9-0.1,75.4-15.5,102.8-43.3
				C387,330.9,402.1,294,402,254.8c-0.1-38.5-15.4-74.8-43.1-102.3C331.2,125.1,294.7,110,256,110L256,110z M255.8,382.5h-0.2
				c-33.7-0.1-65.3-13.3-89.2-37.2c-23.9-24.1-37.1-56-37-89.9c0.2-69.5,57-126,126.6-126h0.2c69.7,0.1,126.4,57.1,126.3,127
				C382.4,326,325.6,382.5,255.8,382.5L255.8,382.5z"/>
		</g>
		<g>
			<path class="st4" d="M254.5,121.1c3.3-2.4,6.2-5,9.5-7.1c12-7.4,21.4-2.9,22.2,11.2c0.4,6.7-1.1,13.5-2,20.2
				c-0.2,1.8-0.2,3,1.1,4.4c9.1,9.8,18.1,19.8,27.2,29.6c4,4.3,7.2,9.1,8.7,14.8c3.8,14.4-6.2,30.8-20.8,34.1
				c-6.6,1.5-12.8,0.4-17.4-4.6c-3-3.2-6.5-3.9-11.3-4.7c1.6,1.5,2.6,2.5,3.6,3.4c9.2,7.6,18.7,15,27.6,22.9
				c5.5,4.9,10.8,10.3,15.2,16.1c10.4,13.6,11.7,28.3,2.8,43.3c-1.9,3.2-1.7,5.3,0.3,8.4c2.9,4.5,4.9,9.7,7,14.7
				c0.7,1.6,1.3,2.5,3,3c8.5,2.5,13.8,9,14.5,17.7c0.4,4.9,0.3,9.9,0.3,14.8c0,1.5-0.3,3.1-0.7,4.6c-1.4,5.5-4.2,7.7-9.9,7.7
				c-15.3,0-30.5,0-45.8,0c-36.6,0-73.2,0-109.8,0c-8,0-11.3-2.5-11.9-10.5c-0.5-6.3-0.4-12.8,0.5-19.1c1.1-7.8,6.3-12.8,13.7-15.2
				c1.9-0.6,2.8-1.5,3.3-3.4c2-7.2,5.7-13.4,10.4-19.2c0.8-1,1.3-2.6,1.1-3.8c-2.9-16.5-8.5-31.9-16.4-46.7
				c-7.8-14.6-12.2-30.4-13.9-46.8c-2.2-20.3,1.1-39.7,11.7-57.4c10.1-16.6,24.1-28.6,42.7-34.8C232.5,115,243.9,114,254.5,121.1z
				 M265.9,138.7c-0.2-0.1-0.4-0.2-0.5-0.3c-0.7,0.8-1.4,1.6-2.1,2.4c-2.2,2.4-4.3,5.1-6.8,7.2c-3.9,3.3-8.5,3-12.4-0.3
				c-2.8-2.4-3.2-5.5-2.5-8.8c0.6-2.8-0.7-3.8-3-3.6c-3.5,0.3-7.1,0.2-10.3,1.5c-19.9,7.6-34.2,21-40.2,41.8
				c-7.1,24.4-1.6,47.5,9.2,69.4c7.8,15.7,14.2,31.8,17.8,48.9c0.6,2.8,1.5,3.8,4.5,3.8c24.2-0.1,48.4-0.4,72.6,0.1
				c7.1,0.2,10.7-1.9,13.2-8.4c2.3-5.7,2.4-10.8-0.6-15.9c-1.6-2.7-3.3-5.6-5.6-7.7c-8.7-7.9-17.6-15.5-26.6-23.1
				c-9.2-7.8-18.6-15.3-25.4-25.6c-8.7-13.2-8.6-26.5-0.2-39.8c1.1-1.7,2.9-3.3,4.8-4.1c6.4-2.7,12.8,1.8,13.3,9.2
				c0.5,7.8,4.5,12.8,12,15c2,0.6,4,1.1,6.1,1c4.9-0.1,8.6,1.9,11,6.1c1.2,2,2.8,2.1,4.4,0.9c1.3-1.1,2.6-2.5,3.1-4
				c1.6-4.4-0.2-8-3.2-11.2c-10.6-11.6-21.1-23.2-31.8-34.6c-3.3-3.5-4.4-7.3-3.2-11.9C264.5,144,265.2,141.3,265.9,138.7z
				 M204.4,329.8c35.3,0,69.7,0,104.8,0c-2.1-3.1-3.7-5.8-5.6-8.1c-0.7-0.9-2.2-1.6-3.3-1.6c-28.9-0.1-57.9-0.1-86.8,0
				c-0.9,0-2.1,0.1-2.6,0.6C208.7,323.4,206.8,326.3,204.4,329.8z M256.7,356.3L256.7,356.3c22.2,0,44.5,0,66.7,0.1
				c2.7,0,3.4-1,3.2-3.4c-0.1-2.1-0.1-3.7-3.1-3.7c-44.4,0.1-88.8,0.1-133.2,0.1c-2.9,0-3.3,1.1-3.4,3.6c-0.1,2.8,1,3.4,3.6,3.4
				C212.6,356.3,234.6,356.3,256.7,356.3z"/>
			<path class="st2" d="M250,278.8c-0.6,6.6-3.3,12.2-8.8,16.2c-4.5,3.2-9.8,2.4-13.1-1.5c-3.4-4.1-3.2-9.6,0.8-13.3
				c1.7-1.6,1.4-2.8,0.1-4.1c-4.2-4.5-8.5-9-12.8-13.5c-6.4-6.7-12.5-13.8-15.5-22.8c-3.4-10.1-1.7-19.6,3.5-28.5
				c2.6-4.4,7.8-5.6,12.4-3.1c4.8,2.5,6.9,7.4,4.5,11.9c-4.7,8.9-2,16.4,3.9,23.2c4.7,5.4,9.8,10.3,14.6,15.6
				c4.7,5.1,9.1,10.4,10.1,17.7C249.8,277.3,249.9,278,250,278.8z"/>
		</g>
	</g>
</g>
<g id="Layer_1_copy">
	<g>
		<g class="st0">
			<path class="st5" d="M222.8,507.8c-7.2,0-10.5-2.5-12.6-9.5l-4.3-14.5c-4.1-13.6-8.3-27.6-12.4-41.4c-0.2-0.6-0.2-0.7-1.1-1
				c-3.5-1.4-7.1-2.9-10.5-4.3c-3.5-1.5-7.1-3-10.7-4.4c-0.1,0-0.4-0.1-0.7-0.1c-0.2,0-0.4,0-0.4,0c-15.2,8.1-30.7,16.5-45.7,24.6
				l-5.6,3c-3.1,1.7-5.3,2.4-7.4,2.4c-3.4,0-6-1.9-8.9-4.7c-15.7-15.7-31.5-31.4-47.2-47.2c-4.4-4.4-5-8.8-1.9-14.5l1.5-2.7
				c8.6-16,17.5-32.6,26.3-48.8c0.5-0.8,0.5-1.2,0-2.4c-3.2-7.2-5.9-13.8-8.4-20.2c-0.4-1.2-0.8-1.4-1.7-1.7
				c-13.3-3.9-26.8-8-39.9-11.9l-15-4.5c-7.7-2.3-9.9-5.3-9.9-13.3c0-22,0-44,0-66c0-6.9,2.4-10.2,9-12.2
				c20.4-6.2,37.5-11.4,55.1-16.6c1.5-0.5,2-0.9,2.5-2.3c2.5-6.6,5.3-13.2,8.1-19.5l0.3-0.7c0.4-0.9,0.3-1,0.1-1.5
				c-6.5-12.1-13-24.1-19.6-36.2l-8.1-15.1c-3.6-6.6-3-10.6,2.3-15.8C66,94.9,75.9,85,85.8,75.1l16.9-16.9c2.4-2.4,5-4.5,8.7-4.5
				c2.1,0,4.2,0.7,7.1,2.2l7.8,4.2c14.2,7.6,28.9,15.5,43.3,23.4c0.6,0.3,0.8,0.3,0.9,0.3c0.2,0,0.5-0.1,0.8-0.2
				c6-2.6,13.2-5.7,20.7-8.6c1.1-0.4,1.4-0.7,1.7-1.9c5.9-19.9,11.9-39.5,16.9-56.1c1.8-5.9,5.4-8.6,11.6-8.6c9.7,0,19.4,0,29.1,0
				c12.9,0,25.9,0,38.8,0c6,0,9.6,2.7,11.4,8.5c6.9,22.8,12.1,40.3,17,56.8c0.2,0.6,0.3,0.8,1,1.1c6.9,2.8,14.1,5.7,21.3,8.9
				c0.4,0.2,0.6,0.2,0.7,0.2c0.2,0,0.4-0.1,0.6-0.2C356,76,370,68.5,384,61l9.4-5.1c3-1.6,5.1-2.3,7.2-2.3c3.7,0,6.4,2.3,8.8,4.7
				c13.1,13.1,26.2,26.2,39.3,39.3l7.5,7.5c4.8,4.8,5.4,9,2.2,15l-2.8,5.2c-8.2,15.3-16.7,31-25.1,46.5c-0.3,0.5-0.3,0.7,0,1.5
				c2.8,6.5,5.7,13.4,8.8,21.1c0.4,0.9,0.5,0.9,1,1.1c13.2,3.9,26.5,7.9,39.5,11.8c5.5,1.6,10.9,3.3,16.4,4.9
				c7.1,2.1,9.5,5.4,9.5,12.8c0,22.1,0,44.2,0,66.2c0,7-2.7,10.5-9.6,12.6c-18.1,5.4-37,11-56.2,16.9c-0.1,0.1-0.3,0.3-0.3,0.4
				c-3.5,8.2-6.5,15.4-9.1,22c0,0.2,0,0.7,0.1,0.8c5.5,10.3,11,20.6,16.6,30.9c3.7,6.8,7.3,13.6,11,20.5c0.7,1.3,1.2,2.6,1.8,4
				c0.2,0.6,0.5,1.3,0.8,2l0.5,1.3l-0.7,1.3c-0.2,0.5-0.5,1-0.7,1.6c-0.6,1.4-1.4,3.1-2.7,4.4c-16.7,16.8-33.9,34-49.1,49.2
				c-2.3,2.3-4.9,3.5-7.7,3.5c-1.8,0-3.7-0.5-5.6-1.5c-8-4.3-15.9-8.6-23.8-12.8c-4.5-2.4-8.9-4.8-13.4-7.2l-1.7-0.9
				c-4.7-2.5-9.5-5.1-14.3-7.6c0,0-0.1,0-0.2,0c-0.2,0-0.3,0-0.3,0c-7.8,3.1-15.1,6.1-22,9.1c-0.1,0.1-0.4,0.3-0.4,0.5
				c-6.1,19.9-12,39.7-17,56.5c-1.9,6.4-5.6,9.2-12.2,9.2h-33.4L222.8,507.8z M255.9,486.4c9.3,0,17.8,0,26.2,0.1l0,0
				c0.5,0,0.8,0,0.9-0.1s0.2-0.3,0.3-0.7c3-10.1,6-20.3,9-30.2c2.4-8,4.8-16,7.2-24c1.3-4.3,3.9-7,8.5-8.8
				c9.1-3.5,18.4-7.4,27.7-11.5c2.2-1,4.2-1.4,6.1-1.4c2.1,0,4.1,0.5,6.2,1.7c8.6,4.7,17.3,9.3,25.9,14c8.1,4.4,16.2,8.7,24.3,13.1
				c0.1,0.1,0.2,0.1,0.2,0.1c0.1,0,0.1-0.1,0.2-0.2c12.8-12.9,25.4-25.5,37.6-37.6c0.2-0.2,0.3-0.3,0.4-0.4c0-0.1-0.1-0.2-0.2-0.4
				c-5.4-9.9-10.8-20-16.1-29.8c-3.7-6.8-7.3-13.6-11-20.4c-2-3.7-2.2-7.4-0.5-11.3c4.4-10.2,8.3-19.7,12-28.9
				c1.7-4.3,4.3-6.8,8.4-8c8.4-2.5,16.7-5,25.1-7.5c9.9-3,19.9-6,29.8-8.9c0.2,0,0.3-0.1,0.4-0.1c0-0.1,0-0.2,0-0.4
				c-0.1-13.1-0.1-26.3-0.1-39.2v-14.4c-0.2-0.1-0.4-0.1-0.5-0.2l-13-3.9c-13.4-4-27.3-8.2-41-12.3c-4.6-1.4-7.5-4.1-9.4-8.9
				c-3.8-10-7.5-18.8-11.2-27c-2.2-4.8-2.1-8.9,0.3-13.4c5.1-9.4,10.3-18.9,15.2-28.2c3.8-7.1,7.7-14.3,11.5-21.4
				c0.1-0.1,0.1-0.2,0.1-0.2c-0.1-0.1-0.1-0.1-0.2-0.2C422,101.3,410.1,89.4,399,78.1c-0.3-0.3-0.5-0.5-0.6-0.5s-0.3,0.1-0.6,0.3
				c-10.5,5.7-21.3,11.5-31.7,17.1c-6.2,3.3-12.4,6.7-18.6,10c-1.9,1-3.8,1.5-5.8,1.5c-1.8,0-3.6-0.4-5.6-1.3
				c-8.9-3.9-18.5-7.9-28.1-11.7c-4.6-1.8-7.3-4.6-8.6-9c-2.7-9.1-5.4-18.3-8.2-27.4c-2.7-9-5.4-18-8.1-27.1c0-0.2-0.1-0.3-0.1-0.4
				c-0.1,0-0.2,0-0.4,0c-9.7,0-18.6,0.1-27.3,0.1c-8.8,0-17.3,0-25.4-0.1l0,0c-0.5,0-0.8,0-0.9,0.1c-0.1,0.1-0.2,0.3-0.3,0.8
				c-3,10.2-6.1,20.6-9.1,30.6c-2.4,7.9-4.7,15.7-7.1,23.6c-1.2,4.2-3.9,7-8.3,8.7c-9.1,3.6-18.5,7.5-27.9,11.6
				c-2.2,0.9-4.1,1.4-6.1,1.4c-2.1,0-4.1-0.5-6.2-1.7c-7.6-4.1-15.3-8.2-22.9-12.3c-8.9-4.8-18.1-9.7-27.1-14.6
				c-0.2-0.1-0.3-0.2-0.4-0.2c-0.1,0.1-0.2,0.2-0.4,0.4C99.6,91.7,87.4,103.8,76,115.1c-0.3,0.3-0.4,0.5-0.5,0.6
				c0,0.1,0.1,0.3,0.3,0.7c5,9.3,10.1,18.7,15,27.8c4,7.4,8,14.8,12,22.2c2,3.8,2.1,7.5,0.3,11.8c-4.3,9.9-8.1,19.1-11.7,28.2
				c-1.7,4.4-4.5,7.1-8.7,8.3c-8.1,2.4-16.2,4.8-24.3,7.3c-10,3-20.2,6.1-30.4,9.1c-0.1,0-0.3,0.1-0.3,0.1c0,0.1,0,0.2,0,0.4
				c0.1,17.5,0.1,35.3,0,53.2c0,0.2,0,0.3,0,0.4c0.1,0,0.2,0.1,0.3,0.1c9.8,2.9,19.7,5.9,29.4,8.8c8.4,2.5,16.7,5,25.1,7.5
				c4.4,1.3,7.2,4,8.9,8.4c4,10.3,8.3,20.2,11.9,28.6c1.7,3.9,1.5,7.6-0.5,11.3c-4,7.4-8,14.8-11.9,22.2
				c-5.1,9.4-10.1,18.9-15.3,28.3c-0.1,0.1-0.1,0.2-0.1,0.2c0,0.1,0.1,0.1,0.2,0.2c14.6,14.5,26.4,26.3,37.2,37.3
				c0.4,0.4,0.7,0.6,0.8,0.7c0.1,0,0.4-0.1,0.9-0.4c8.6-4.7,17.4-9.4,25.9-14c7.7-4.1,15.6-8.4,23.4-12.7c2.1-1.2,4.2-1.7,6.4-1.7
				c2.1,0,4.1,0.5,6.5,1.6c10.1,4.6,18.5,8,26.2,10.9c5.4,2,8.4,5.1,9.9,10.3c3.2,11.1,6.6,22.4,9.9,33.3c2,6.8,4.1,13.6,6.1,20.4
				v0.1h0.1C238.1,486.5,247,486.4,255.9,486.4z"/>
			<path class="st5" d="M250.9,11.4c13.1,0,26.1,0,39.2,0c4.7,0,7.1,1.8,8.5,6.3c5.7,18.9,11.4,37.8,17,56.8c0.5,1.6,1.2,2.4,2.8,3
				c7.1,2.8,14.2,5.8,21.2,8.8c0.7,0.3,1.3,0.5,1.9,0.5c0.7,0,1.3-0.2,2-0.6c17.1-9.3,34.2-18.5,51.3-27.7c2.3-1.3,4.1-1.9,5.8-1.9
				c2.2,0,4.1,1.2,6.7,3.8c15.6,15.6,31.2,31.2,46.8,46.8c3.9,3.9,4.3,6.7,1.7,11.5c-9.3,17.3-18.6,34.5-27.9,51.8
				c-0.8,1.4-0.8,2.6-0.1,4.1c3,6.9,5.9,13.9,8.7,21c0.6,1.5,1.3,2.4,2.9,2.9c18.6,5.5,37.2,11.1,55.9,16.7c5.8,1.7,7.4,3.8,7.4,10
				c0,22.1,0,44.2,0,66.2c0,5.8-1.9,8.1-7.4,9.7c-18.8,5.6-37.6,11.2-56.3,16.9c-0.8,0.3-1.8,1.2-2.1,2c-3.1,7.3-6.2,14.7-9.2,22.1
				c-0.4,1-0.2,2.4,0.2,3.4c9.1,17.1,18.4,34.2,27.6,51.4c0.9,1.7,1.5,3.6,2.4,5.8c-0.9,1.8-1.5,3.9-2.9,5.3
				c-16.3,16.5-32.7,32.8-49,49.2c-1.7,1.7-3.6,2.6-5.6,2.6c-1.3,0-2.7-0.4-4.2-1.2c-12.4-6.6-24.8-13.4-37.2-20
				c-5.4-2.9-10.7-5.8-16.1-8.6c-0.4-0.2-1-0.3-1.5-0.3s-1,0.1-1.4,0.3c-7.4,3-14.8,6-22.1,9.2c-0.9,0.4-1.8,1.4-2.1,2.3
				c-5.7,18.8-11.4,37.7-17,56.5c-1.5,5.1-4,7-9.3,7c-11.1,0-22.2,0-33.3,0c-11.2,0-22.3,0-33.5,0c-5.9,0-8-1.6-9.7-7.4
				c-5.6-18.6-11.2-37.2-16.7-55.9c-0.5-1.6-1.3-2.4-2.8-3c-7.1-2.8-14.1-5.9-21.2-8.7c-0.5-0.2-1.2-0.3-1.8-0.3s-1.3,0.1-1.7,0.4
				c-17.2,9.1-34.3,18.4-51.4,27.6c-2.4,1.3-4.3,2-5.9,2c-2.2,0-4.1-1.2-6.8-3.9c-15.7-15.7-31.5-31.4-47.2-47.2
				c-3.4-3.4-3.8-6.5-1.4-10.9c9.2-17.2,18.5-34.4,27.8-51.5c1-1.8,0.9-3.2,0.1-5c-2.9-6.6-5.7-13.3-8.3-20.1
				c-0.7-1.9-1.7-2.9-3.6-3.5c-18.3-5.4-36.6-10.9-54.9-16.4c-6.4-1.9-7.8-3.7-7.8-10.4c0-22,0-44,0-66c0-5.5,1.6-7.7,6.9-9.3
				c18.4-5.6,36.7-11.1,55.1-16.6c2.3-0.7,3.6-1.7,4.5-4.1c2.5-6.8,5.5-13.4,8.4-20.1c0.7-1.5,0.7-2.7-0.1-4.1
				c-9.3-17.1-18.5-34.2-27.7-51.3c-2.9-5.4-2.6-8,1.8-12.3C73.9,91.5,89.4,75.9,105,60.3c2.5-2.5,4.4-3.7,6.6-3.7
				c1.6,0,3.4,0.6,5.7,1.9c17,9.2,34.1,18.3,51.1,27.6c0.8,0.4,1.5,0.7,2.3,0.7c0.6,0,1.3-0.2,2-0.5c6.8-3,13.6-5.9,20.5-8.5
				c2-0.8,2.9-1.9,3.5-3.9c5.6-18.7,11.2-37.4,16.9-56.1c1.4-4.7,3.8-6.4,8.7-6.4C231.7,11.4,241.3,11.4,250.9,11.4 M170.3,103.4
				c-1.6,0-3.1-0.4-4.8-1.3c-16.7-9-33.4-17.9-50-27c-0.8-0.4-1.4-0.6-2-0.6c-0.8,0-1.5,0.4-2.4,1.3C98.8,88.3,86.4,100.7,73.9,113
				c-1.6,1.6-1.9,2.8-0.7,4.8c9.1,16.6,18,33.4,27,50c1.7,3.1,1.6,5.9,0.2,9.2c-4.1,9.3-8,18.8-11.7,28.3c-1.3,3.4-3.3,5.5-6.8,6.5
				c-18.2,5.4-36.4,11-54.7,16.4c-2,0.6-2.5,1.4-2.5,3.4c0.1,17.7,0.1,35.4,0,53.1c0,2,0.5,2.8,2.5,3.4
				c18.2,5.4,36.3,10.9,54.4,16.3c3.5,1,5.6,3.1,7,6.6c3.8,9.7,7.8,19.2,11.9,28.7c1.3,3.1,1.2,5.8-0.4,8.7
				C91,365.2,82,382,72.9,398.8c-0.9,1.7-0.8,2.7,0.6,4c12.5,12.4,24.9,24.8,37.2,37.2c1,1,1.9,1.6,2.9,1.6c0.7,0,1.4-0.2,2.3-0.8
				c16.4-9,32.9-17.7,49.3-26.7c1.7-0.9,3.4-1.4,5-1.4c1.7,0,3.4,0.5,5.3,1.3c8.7,3.9,17.5,7.7,26.4,11c4.3,1.6,6.8,3.9,8.1,8.3
				c5.2,18,10.7,35.8,16,53.7c0.5,1.7,1.3,2.3,3,2.3l0,0c8.9,0,17.9-0.1,26.8-0.1c8.7,0,17.4,0,26.1,0.1h0.1c2.3,0,3.3-0.7,4-3
				c5.3-18.1,10.8-36.1,16.2-54.2c1.1-3.6,3.3-5.5,6.7-6.8c9.4-3.6,18.6-7.5,27.8-11.5c1.7-0.8,3.3-1.2,4.9-1.2s3.1,0.4,4.7,1.3
				c16.7,9.1,33.5,18,50.2,27.1c0.7,0.4,1.3,0.6,1.8,0.6c0.8,0,1.4-0.4,2.2-1.2c12.5-12.6,25-25.1,37.6-37.6
				c1.5-1.5,1.7-2.5,0.7-4.4c-9.1-16.7-18.1-33.5-27.1-50.2c-1.6-2.9-1.7-5.6-0.4-8.7c4.1-9.6,8.1-19.2,12-28.9
				c1.3-3.2,3.1-5.2,6.4-6.2c18.3-5.4,36.6-11,54.9-16.4c1.9-0.6,2.5-1.4,2.5-3.4c-0.1-17,0-33.9,0-50.9c0-1.6,0-3.1,0-4.8
				c-1-0.3-1.8-0.7-2.7-0.9c-18-5.4-35.9-10.9-54-16.2c-3.9-1.1-6-3.4-7.4-7.1c-3.5-9.1-7.2-18.2-11.2-27.1c-1.8-3.9-1.8-7,0.2-10.7
				c9-16.5,17.8-33.1,26.8-49.6c0.9-1.7,0.8-2.7-0.6-4C426,101,413.5,88.5,401.1,76c-1-1-1.7-1.5-2.6-1.5c-0.6,0-1.3,0.2-2.2,0.7
				c-16.7,9.1-33.5,18.1-50.2,27.1c-1.5,0.8-2.9,1.2-4.3,1.2s-2.9-0.4-4.4-1c-9.4-4.1-18.7-8.1-28.2-11.7c-3.6-1.4-5.8-3.4-6.8-7.1
				c-5.4-18.2-10.9-36.3-16.3-54.4c-0.6-1.9-1.4-2.5-3.4-2.5l0,0c-9.1,0-18.2,0.1-27.2,0.1c-8.5,0-16.9,0-25.4-0.1c0,0,0,0-0.1,0
				c-2.3,0-3.3,0.7-4,3c-5.3,18.1-10.8,36.1-16.2,54.2c-1,3.5-3.1,5.4-6.5,6.7c-9.4,3.7-18.8,7.6-28,11.6
				C173.4,103,171.8,103.4,170.3,103.4 M250.9,5.4c-9.6,0-19.2,0-28.8,0c-7.5,0-12.2,3.5-14.4,10.7c-5,16.6-11,36.2-16.9,56.1
				c-7.3,2.8-14.3,5.8-20.2,8.4c-14.2-7.7-28.7-15.5-42.7-23.1l-7.9-4.3c-2.3-1.2-5.3-2.6-8.6-2.6c-4.8,0-8.1,2.7-10.8,5.4
				L83.5,73.1c-9.9,9.9-19.7,19.7-29.6,29.6c-6.2,6.2-7,11.6-2.8,19.4c2.7,5,5.4,10,8.1,15c6.3,11.7,12.8,23.8,19.3,35.7l-0.1,0.2
				c-2.8,6.4-5.7,13-8.2,19.7c-0.1,0.1-0.1,0.3-0.1,0.3c-0.1,0-0.2,0.1-0.4,0.2C52,198.5,35,203.6,14.5,209.8
				c-7.8,2.4-11.2,6.9-11.2,15.1c0,22,0,44,0,66c0,9.3,3.2,13.5,12.1,16.2c5.1,1.5,10.1,3,15.2,4.6c12.9,3.9,26.3,7.9,39.5,11.8
				c2.5,6.4,5.2,13,8.4,20.3c-8.7,16.1-17.6,32.5-26.1,48.3l-1.6,3c-3.7,6.8-2.9,12.7,2.4,18c15.7,15.7,31.5,31.4,47.2,47.2
				c2.9,2.9,6.3,5.6,11,5.6c3.3,0,6.3-1.4,8.8-2.7l5.8-3.1c14.6-7.9,29.7-16.1,44.7-24c3.4,1.3,6.8,2.8,10.1,4.1
				c3.3,1.4,6.7,2.8,10.1,4.1c4,13.6,8.2,27.4,12.2,40.8c1.4,4.8,2.9,9.6,4.3,14.4c2.5,8.3,7,11.6,15.5,11.6c11.2,0,22.3,0,33.5,0
				c11.1,0,22.2,0,33.3,0c8,0,12.7-3.6,15-11.3c4.9-16.5,10.8-36,16.7-55.5c6.4-2.7,13-5.5,20.1-8.3c4.4,2.3,8.9,4.7,13.3,7l1.7,0.9
				c4.5,2.4,9,4.8,13.4,7.3c7.8,4.2,15.8,8.5,23.7,12.8c2.3,1.2,4.7,1.9,7,1.9c2.5,0,6.2-0.8,9.8-4.3c15.2-15.2,32.4-32.4,49.1-49.2
				c1.7-1.7,2.6-3.7,3.3-5.3c0.2-0.5,0.4-1,0.6-1.4l1.3-2.5l-1.1-2.6c-0.3-0.7-0.5-1.3-0.8-1.9c-0.6-1.4-1.1-2.9-1.9-4.3
				c-3.7-6.8-7.3-13.6-11-20.4c-5.3-9.9-10.8-20.1-16.2-30.2c2.4-6.1,5.2-12.7,8.3-20.1c18.8-5.7,37.3-11.3,55-16.5
				c8.2-2.4,11.7-7.1,11.7-15.5c0-22.1,0-44.2,0-66.2c0-8.8-3.3-13.2-11.7-15.7c-5.5-1.6-10.9-3.3-16.4-4.9
				c-12.7-3.8-25.8-7.7-38.7-11.6c-2.9-7.3-5.7-13.9-8.4-20.2c8.3-15.4,16.7-30.9,24.8-46l2.8-5.1c3.8-7.1,3-12.8-2.7-18.6l-6.9-6.9
				c-13.3-13.3-26.6-26.6-40-40c-2.8-2.8-6.2-5.6-11-5.6c-3.3,0-6.2,1.3-8.6,2.6l-9.8,5.3c-13.4,7.2-27.2,14.6-40.8,22
				c-6.8-2.9-13.6-5.8-20.2-8.4c-4.8-16.2-10-33.5-16.8-56.2c-2.1-7-6.9-10.6-14.2-10.6C277.1,5.4,264,5.4,250.9,5.4L250.9,5.4z
				 M170.3,109.4c2.3,0,4.7-0.5,7.3-1.7c9.3-4.1,18.7-8,27.8-11.5c5.3-2.1,8.6-5.5,10.1-10.6c2.3-7.9,4.7-15.8,7.1-23.6
				c2.9-9.6,5.9-19.5,8.8-29.3c7.7,0,15.8,0.1,24.1,0.1c8.1,0,16.5,0,25.4-0.1c2.5,8.4,5.1,17,7.6,25.3c2.7,9,5.5,18.3,8.2,27.4
				c1.5,5.2,5,8.8,10.4,10.9c9.6,3.7,19.2,7.8,28,11.7c2.3,1,4.6,1.5,6.8,1.5c2.5,0,4.9-0.6,7.2-1.9c6.2-3.3,12.3-6.7,18.5-10
				c10-5.4,20.3-10.9,30.4-16.4c10.5,10.6,21.7,21.8,35,35.1c-3.6,6.6-7.1,13.2-10.6,19.7c-5,9.2-10.1,18.8-15.2,28.2
				c-2.9,5.3-3,10.4-0.4,16.1c3.7,8.1,7.3,16.8,11.1,26.8c2.1,5.6,5.8,9.1,11.3,10.7c13.6,4,27.5,8.2,40.9,12.2
				c3.8,1.2,7.6,2.3,11.5,3.5v0.4c0,3.9,0,7.9,0,11.8c0,12.2,0,24.8,0,37.3c-9.4,2.8-18.8,5.6-28,8.4c-8.2,2.5-16.7,5-25.1,7.5
				c-4.9,1.5-8.3,4.6-10.3,9.8c-3.6,9.2-7.6,18.6-11.9,28.8c-2,4.7-1.8,9.4,0.6,13.9c3.7,6.8,7.4,13.6,11,20.5
				c5,9.3,10.1,18.8,15.2,28.2c-11.3,11.2-23.1,23-35,35.1c-7.5-4.1-15.1-8.2-22.5-12.1c-8.5-4.6-17.3-9.3-26-14c-2.5-1.4-5-2-7.6-2
				c-2.3,0-4.7,0.6-7.3,1.7c-9.2,4.1-18.5,7.9-27.5,11.4c-5.4,2.1-8.8,5.6-10.3,10.7c-2.4,8-4.8,16.1-7.2,23.9
				c-2.8,9.5-5.8,19.3-8.6,28.9c-7.9,0-16.1-0.1-24.8-0.1c-7.7,0-15.8,0-24.7,0.1c-1.8-6.2-3.7-12.4-5.5-18.4
				c-3.3-10.9-6.7-22.2-9.9-33.3c-1.8-6.1-5.5-10-11.8-12.3c-7.7-2.8-15.9-6.3-26-10.8c-2.7-1.2-5.3-1.8-7.8-1.8
				c-2.7,0-5.3,0.7-7.9,2.1c-7.8,4.2-15.7,8.5-23.4,12.6c-8.2,4.4-16.6,8.9-24.8,13.4c-10.2-10.4-21.4-21.6-35-35.1
				c4.8-8.9,9.6-17.9,14.3-26.6c4-7.4,7.9-14.8,11.9-22.2c2.4-4.5,2.6-9.2,0.6-13.9c-3.6-8.3-7.8-18.3-11.8-28.5
				c-2.1-5.3-5.6-8.6-10.9-10.1c-8.4-2.5-16.8-5-25-7.5c-9-2.7-18.4-5.5-27.6-8.2c0.1-16.6,0.1-33.2,0-49.5
				c9.6-2.8,19.2-5.7,28.6-8.5c8-2.4,16.2-4.9,24.3-7.3c5.1-1.5,8.6-4.8,10.6-10.1c3.5-9,7.3-18.2,11.6-28.1
				c2.2-5.1,2.1-9.8-0.4-14.4c-4-7.4-8-14.9-11.9-22.1c-4.7-8.7-9.5-17.7-14.3-26.6c10.8-10.7,22.3-22.1,35.1-35
				c8.5,4.6,17.2,9.3,25.6,13.8c7.5,4,15.3,8.2,22.9,12.3C165.1,108.7,167.7,109.4,170.3,109.4L170.3,109.4z"/>
		</g>
		<g class="st0">
			<path class="st3" d="M256.4,401c-38.5,0-74.9-15-102.5-42.2s-42.8-63.2-42.9-101.4c-0.1-39.2,14.8-75.9,42.1-103.5
				c27.2-27.6,63.7-42.8,102.6-42.9h0.3c38.4,0,74.8,15,102.2,42.3c27.5,27.3,42.7,63.3,42.8,101.6c0.1,39-14.8,75.6-42,103.2
				c-27.2,27.6-63.5,42.9-102.1,43L256.4,401z M256,128.4c-70.1,0-127.4,57-127.6,127c-0.1,34.2,13.1,66.4,37.3,90.6
				c24,24.1,56,37.5,89.9,37.5h0.2c70.3,0,127.6-57,127.7-127.1c0.1-70.5-57-127.9-127.3-128H256z"/>
			<path class="st3" d="M256,112c78.9,0,143.8,64.3,144,142.8c0.2,80-63.8,144.9-143.2,145.2c-0.2,0-0.3,0-0.5,0
				c-79.1,0-144.1-64.2-144.3-142.6C111.8,177,175.8,112.2,255.7,112C255.8,112,255.9,112,256,112 M255.8,384.5
				c70.9,0,128.6-57.4,128.7-128.1c0.1-71.1-57.3-128.9-128.3-129c-0.1,0-0.1,0-0.2,0c-70.7,0-128.4,57.4-128.6,128
				c-0.2,71.1,57.3,129,128.2,129.1C255.7,384.5,255.7,384.5,255.8,384.5 M256,110v2V110h-0.3c-39.2,0.1-75.8,15.4-103.3,43.2
				C125,181,109.9,218,110,257.4c0.1,38.4,15.4,74.7,43.2,102.1c27.7,27.4,64.4,42.5,103.2,42.5h0.5c38.9-0.1,75.4-15.5,102.8-43.3
				C387,330.9,402.1,294,402,254.8c-0.1-38.5-15.4-74.8-43.1-102.3C331.2,125.1,294.7,110,256,110L256,110z M255.8,382.5h-0.2
				c-33.7-0.1-65.3-13.3-89.2-37.2c-23.9-24.1-37.1-56-37-89.9c0.2-69.5,57-126,126.6-126h0.2c69.7,0.1,126.4,57.1,126.3,127
				C382.4,326,325.6,382.5,255.8,382.5L255.8,382.5z"/>
		</g>
		<g>
			<path class="st6" d="M253.2,26.7c6.1-4.4,11.5-9.2,17.6-13.1c22.2-13.7,39.5-5.4,41,20.7c0.7,12.4-2,24.9-3.7,37.3
				c-0.4,3.3-0.4,5.5,2,8.1c16.8,18.1,33.4,36.6,50.3,54.7c7.4,7.9,13.3,16.8,16.1,27.3c7,26.6-11.5,56.9-38.4,63
				c-12.2,2.8-23.7,0.7-32.2-8.5c-5.5-5.9-12-7.2-20.9-8.7c3,2.8,4.8,4.6,6.7,6.3c17,14,34.6,27.7,51,42.3c10.2,9.1,20,19,28.1,29.8
				c19.2,25.1,21.6,52.3,5.2,80c-3.5,5.9-3.1,9.8,0.6,15.5c5.4,8.3,9.1,17.9,12.9,27.2c1.3,3,2.4,4.6,5.5,5.5
				c15.7,4.6,25.5,16.6,26.8,32.7c0.7,9.1,0.6,18.3,0.6,27.3c0,2.8-0.6,5.7-1.3,8.5c-2.6,10.2-7.8,14.2-18.3,14.2
				c-28.3,0-56.4,0-84.6,0c-67.6,0-135.3,0-202.9,0c-14.8,0-20.9-4.6-22-19.4c-0.9-11.6-0.7-23.7,0.9-35.3
				c2-14.4,11.6-23.7,25.3-28.1c3.5-1.1,5.2-2.8,6.1-6.3c3.7-13.3,10.5-24.8,19.2-35.5c1.5-1.8,2.4-4.8,2-7
				c-5.4-30.5-15.7-58.9-30.3-86.3c-14.4-27-22.5-56.2-25.7-86.5c-4.1-37.5,2-73.4,21.6-106.1c18.7-30.7,44.5-52.9,78.9-64.3
				C212.6,15.4,233.7,13.6,253.2,26.7z M274.3,59.2c-0.4-0.2-0.7-0.4-0.9-0.6c-1.3,1.5-2.6,3-3.9,4.4c-4.1,4.4-7.9,9.4-12.6,13.3
				c-7.2,6.1-15.7,5.5-22.9-0.6c-5.2-4.4-5.9-10.2-4.6-16.3c1.1-5.2-1.3-7-5.5-6.7c-6.5,0.6-13.1,0.4-19,2.8
				c-36.8,14-63.2,38.8-74.3,77.2c-13.1,45.1-3,87.8,17,128.2c14.4,29,26.2,58.8,32.9,90.4c1.1,5.2,2.8,7,8.3,7
				c44.7-0.2,89.4-0.7,134.2,0.2c13.1,0.4,19.8-3.5,24.4-15.5c4.3-10.5,4.4-20-1.1-29.4c-3-5-6.1-10.3-10.3-14.2
				C319.8,285,303.3,271,286.7,257c-17-14.4-34.4-28.3-46.9-47.3c-16.1-24.4-15.9-49-0.4-73.5c2-3.1,5.4-6.1,8.9-7.6
				c11.8-5,23.7,3.3,24.6,17c0.9,14.4,8.3,23.7,22.2,27.7c3.7,1.1,7.4,2,11.3,1.8c9.1-0.2,15.9,3.5,20.3,11.3
				c2.2,3.7,5.2,3.9,8.1,1.7c2.4-2,4.8-4.6,5.7-7.4c3-8.1-0.4-14.8-5.9-20.7c-19.6-21.4-39-42.9-58.8-63.9c-6.1-6.5-8.1-13.5-5.9-22
				C271.7,69,273,64,274.3,59.2z M160.7,412.4c65.2,0,128.8,0,193.7,0c-3.9-5.7-6.8-10.7-10.3-15c-1.3-1.7-4.1-3-6.1-3
				c-53.4-0.2-107-0.2-160.4,0c-1.7,0-3.9,0.2-4.8,1.1C168.6,400.5,165.1,405.9,160.7,412.4z M257.3,461.3L257.3,461.3
				c41,0,82.2,0,123.3,0.2c5,0,6.3-1.8,5.9-6.3c-0.2-3.9-0.2-6.8-5.7-6.8c-82,0.2-164.1,0.2-246.1,0.2c-5.4,0-6.1,2-6.3,6.7
				c-0.2,5.2,1.8,6.3,6.7,6.3C175.8,461.3,216.5,461.3,257.3,461.3z"/>
			<path class="st2" d="M244.9,318.1c-1.1,12.2-6.1,22.5-16.3,29.9c-8.3,5.9-18.1,4.4-24.2-2.8c-6.3-7.6-5.9-17.7,1.5-24.6
				c3.1-3,2.6-5.2,0.2-7.6c-7.8-8.3-15.7-16.6-23.7-24.9c-11.8-12.4-23.1-25.5-28.6-42.1c-6.3-18.7-3.1-36.2,6.5-52.7
				c4.8-8.1,14.4-10.3,22.9-5.7c8.9,4.6,12.8,13.7,8.3,22c-8.7,16.4-3.7,30.3,7.2,42.9c8.7,10,18.1,19,27,28.8
				c8.7,9.4,16.8,19.2,18.7,32.7C244.6,315.4,244.7,316.6,244.9,318.1z"/>
		</g>
	</g>
</g>
</svg>
