<svg width="616" height="616" viewBox="0 0 616 616" fill="none" xmlns="http://www.w3.org/2000/svg">
<path d="M8 308C8 60.95 60.95 8 308 8C555.05 8 608 60.95 608 308C608 555.05 555.05 608 308 608C60.95 608 8 555.05 8 308Z" stroke="#8D93A5" stroke-width="15"/>
<path d="M122.551 465H494.449C497.502 465 500 462.507 500 459.461V157.571C500 152.586 493.964 150.163 490.494 153.625L344.58 299.238L257.572 213.379C256.529 212.348 255.12 211.77 253.652 211.77C252.184 211.77 250.775 212.348 249.732 213.379L118.596 344.66C118.087 345.169 117.683 345.774 117.409 346.439C117.136 347.105 116.996 347.818 117 348.537V459.461C117 462.507 119.498 465 122.551 465Z" fill="#1C274C"/>
</svg>
