<svg width="616" height="616" viewBox="0 0 616 616" fill="none" xmlns="http://www.w3.org/2000/svg">
<path d="M8 308C8 60.95 60.95 8 308 8C555.05 8 608 60.95 608 308C608 555.05 555.05 608 308 608C60.95 608 8 555.05 8 308Z" stroke="#8D93A5" stroke-width="15"/>
<path d="M332.377 408C329.093 408.014 325.837 407.374 322.803 406.114C319.77 404.857 317.017 403.004 314.71 400.667L232.377 318.334L150.043 400.667C145.304 405.08 139.036 407.487 132.559 407.37C126.083 407.257 119.903 404.634 115.323 400.054C110.742 395.474 108.118 389.294 108.004 382.817C107.89 376.34 110.294 370.07 114.71 365.334L214.71 265.334C219.397 260.65 225.75 258.02 232.377 258.02C239 258.02 245.357 260.65 250.043 265.334L332.377 347.667L448.043 231.999C452.783 227.583 459.05 225.179 465.527 225.293C472.003 225.408 478.183 228.031 482.763 232.612C487.343 237.192 489.967 243.372 490.083 249.847C490.197 256.324 487.793 262.594 483.377 267.334L350.043 400.667C347.737 403.004 344.983 404.857 341.95 406.114C338.917 407.374 335.66 408.014 332.377 408Z" fill="#1C274C"/>
<path d="M482.377 377.667C475.773 377.58 469.463 374.92 464.793 370.25C460.123 365.58 457.463 359.27 457.377 352.667V258H365.71C359.08 258 352.72 255.367 348.033 250.677C343.343 245.989 340.71 239.63 340.71 233C340.71 226.37 343.343 220.011 348.033 215.322C352.72 210.634 359.08 208 365.71 208H482.377C488.98 208.086 495.29 210.748 499.96 215.418C504.63 220.088 507.29 226.396 507.377 233V352.667C507.29 359.27 504.63 365.58 499.96 370.25C495.29 374.92 488.98 377.58 482.377 377.667Z" fill="#1C274C"/>
</svg>
