<svg width="616" height="616" viewBox="0 0 616 616" fill="none" xmlns="http://www.w3.org/2000/svg">
<path d="M8 308C8 60.95 60.95 8 308 8C555.05 8 608 60.95 608 308C608 555.05 555.05 608 308 608C60.95 608 8 555.05 8 308Z" stroke="#8D93A5" stroke-width="15"/>
<path d="M206.85 303.898L206.857 303.897C210.301 303.774 213.72 304.518 216.801 306.06L216.808 306.063M206.85 303.898L213.226 313.216L216.808 306.063M206.85 303.898C201.655 304.088 196.724 306.237 193.048 309.913C193.048 309.913 193.047 309.914 193.047 309.914C193.047 309.914 193.046 309.915 193.046 309.915L92.7226 410.21C90.7156 412.038 89.0892 414.245 87.9382 416.706C86.7493 419.247 86.0928 422.005 86.0092 424.81C85.9255 427.614 86.4163 430.406 87.4515 433.014C88.4868 435.622 90.0444 437.99 92.0285 439.974L92.0286 439.974C94.0129 441.958 96.3818 443.515 98.9896 444.549C101.597 445.584 104.389 446.074 107.194 445.991C109.998 445.907 112.756 445.251 115.298 444.063C117.758 442.913 119.966 441.287 121.794 439.281L211.664 349.483L298.813 393.045C298.817 393.047 298.821 393.049 298.825 393.051C303.213 395.26 308.247 395.828 313.017 394.65L313.028 394.647L313.039 394.644L406.13 371.378L499.665 418.109C502.049 419.392 504.663 420.192 507.357 420.463C510.11 420.741 512.89 420.46 515.531 419.639C518.173 418.817 520.622 417.472 522.732 415.683L517.557 409.581L522.732 415.683C524.841 413.894 526.569 411.698 527.811 409.225C529.053 406.753 529.783 404.056 529.959 401.295C530.134 398.534 529.751 395.767 528.832 393.157C527.913 390.548 526.478 388.151 524.611 386.109C522.78 384.106 520.572 382.485 518.113 381.34L417.775 331.185C417.77 331.182 417.764 331.179 417.759 331.176C413.372 328.969 408.34 328.403 403.571 329.58L403.56 329.583L403.55 329.586L310.459 352.852M206.85 303.898L310.459 352.852M216.808 306.063L310.459 352.852M216.808 306.063L310.459 352.852M207.264 103.002L207.26 103.003C201.92 103.088 196.823 105.247 193.047 109.024L92.6266 209.416C88.0084 213.881 85.8647 219.432 86.1503 225.032C86.4264 230.448 88.9317 235.26 92.3922 238.72C95.8528 242.179 100.666 244.683 106.081 244.959C111.68 245.244 117.232 243.102 121.698 238.486L204.379 155.828L290.952 285.629L290.956 285.634C296.704 294.238 307.952 297.229 317.215 292.619L317.222 292.615L317.229 292.612L404.451 248.99L494.418 338.932C498.884 343.548 504.435 345.689 510.034 345.404C515.449 345.128 520.262 342.624 523.722 339.165C527.183 335.705 529.688 330.893 529.964 325.478C530.25 319.878 528.107 314.327 523.489 309.862L423.067 209.468L423.062 209.463C416.813 203.225 407.278 201.675 399.373 205.609L399.361 205.615L315.113 247.728L224.69 112.155C220.814 106.341 214.25 102.894 207.264 103.002Z" fill="#1C274C" stroke="#1C274C" stroke-width="16"/>
</svg>
