<svg width="496" height="304" viewBox="0 0 496 304" fill="none" xmlns="http://www.w3.org/2000/svg">
<path d="M411.155 205.978C400.445 198.17 385.43 200.528 377.626 211.242C369.821 221.955 372.179 236.966 382.893 244.771L411.155 205.978ZM457.869 299.395C468.579 307.2 483.594 304.845 491.398 294.131C499.203 283.418 496.845 268.406 486.131 260.602L457.869 299.395ZM88 175.997C101.255 175.997 112 165.254 112 151.997C112 138.742 101.255 127.997 88 127.997V175.997ZM24 127.997C10.7453 127.997 0 138.742 0 151.997C0 165.254 10.7453 175.997 24 175.997V127.997ZM88 271.997C101.255 271.997 112 261.254 112 247.997C112 234.742 101.255 223.997 88 223.997V271.997ZM24 223.997C10.7453 223.997 0 234.742 0 247.997C0 261.254 10.7453 271.997 24 271.997V223.997ZM120 79.998C133.255 79.998 144 69.2528 144 55.998C144 42.7433 133.255 31.998 120 31.998V79.998ZM24 31.998C10.7453 31.998 0 42.7433 0 55.998C0 69.2528 10.7453 79.998 24 79.998V31.998ZM382.893 244.771L457.869 299.395L486.131 260.602L411.155 205.978L382.893 244.771ZM88 127.997H24V175.997H88V127.997ZM88 223.997H24V271.997H88V223.997ZM120 31.998H24V79.998H120V31.998Z" fill="#8D93A5"/>
<path fill-rule="evenodd" clip-rule="evenodd" d="M204.224 78.8464C172.448 127.987 178.65 192.528 219.2 234.72C259.098 276.32 323.286 282.826 370.72 250.08C380.691 243.216 389.581 234.899 397.088 225.408C404.47 216.074 410.474 205.728 414.912 194.688C424.019 172.01 426.374 147.184 421.696 123.2C417.091 99.4336 405.658 77.5286 388.8 60.1584C372.195 42.991 350.81 31.2166 327.424 26.3664C304.131 21.607 279.942 24.0631 258.08 33.4064C236.013 42.8643 217.261 58.6842 204.224 78.8464Z" stroke="#1C274C" stroke-width="48" stroke-linecap="round" stroke-linejoin="round"/>
</svg>
