<svg width="668" height="534" viewBox="0 0 668 534" fill="none" xmlns="http://www.w3.org/2000/svg">
<path d="M336.09 69.0917L331.91 64.909C320.38 53.3787 314.613 47.6137 307.887 43.491C301.92 39.8357 295.417 37.142 288.617 35.509C280.943 33.667 272.79 33.667 256.484 33.667H140.667C103.33 33.667 84.6613 33.667 70.4007 40.9333C57.8563 47.3247 47.6577 57.5233 41.2663 70.0677C34 84.3283 34 102.997 34 140.334V393.667C34 431.004 34 449.674 41.2663 463.934C47.6577 476.477 57.8563 486.677 70.4007 493.067C84.6613 500.334 103.33 500.334 140.667 500.334H527.333C564.67 500.334 583.34 500.334 597.6 493.067C610.143 486.677 620.343 476.477 626.733 463.934C634 449.674 634 431.004 634 393.667V207C634 169.664 634 150.995 626.733 136.734C620.343 124.19 610.143 113.991 597.6 107.6C583.34 100.334 564.67 100.334 527.333 100.334H411.517C395.21 100.334 387.057 100.334 379.383 98.4917C372.583 96.8587 366.08 94.165 360.113 90.5097C353.387 86.387 347.62 80.622 336.09 69.0917Z" stroke="#8D93A5" stroke-width="66.6667" stroke-linecap="round" stroke-linejoin="round"/>
<path d="M234 300.334L300.667 367L434 233.667" stroke="#1C274C" stroke-width="66.6667" stroke-linecap="round" stroke-linejoin="round"/>
</svg>
