<svg width="416" height="512" viewBox="0 0 416 512" fill="none" xmlns="http://www.w3.org/2000/svg">
<path d="M307.003 0H37.3327V182.857H0.761719V512H256.762V475.429H415.238V108.236L307.003 0ZM317.714 62.431L352.807 97.524H317.714V62.431ZM220.19 475.429H37.3327V219.429H220.19V475.429ZM378.667 438.857H256.762V182.857H73.9047V36.571H281.143V134.095H378.667V438.857Z" fill="#8D93A5"/>
<path d="M183.619 256H73.9053V292.571H183.619V256Z" fill="#1C274C"/>
<path d="M110.476 329.143H73.9053V365.714H110.476V329.143Z" fill="#1C274C"/>
<path d="M183.619 329.143H147.048V365.714H183.619V329.143Z" fill="#1C274C"/>
<path d="M110.476 402.286H73.9053V438.857H110.476V402.286Z" fill="#1C274C"/>
<path d="M183.619 402.286H147.048V438.857H183.619V402.286Z" fill="#1C274C"/>
</svg>
