<svg width="752" height="668" viewBox="0 0 752 668" fill="none" xmlns="http://www.w3.org/2000/svg">
<path d="M329.837 80.7317L55.673 554.287C40.466 580.553 32.8627 593.687 33.9864 604.463C34.9667 613.867 39.8924 622.41 47.5377 627.967C56.3027 634.34 71.4784 634.34 101.829 634.34H650.153C680.507 634.34 695.68 634.34 704.447 627.967C712.09 622.41 717.017 613.867 717.997 604.463C719.12 593.687 711.517 580.553 696.31 554.287L422.147 80.7317C406.997 54.5597 399.42 41.4737 389.537 37.0784C380.913 33.2447 371.07 33.2447 362.45 37.0784C352.563 41.4737 344.987 54.5597 329.837 80.7317Z" stroke="#8D93A5" stroke-width="66.6667" stroke-linecap="round" stroke-linejoin="round"/>
<path d="M375.993 251.008V384.34M375.993 517.673H376.327" stroke="#1C274C" stroke-width="66.6667" stroke-linecap="round" stroke-linejoin="round"/>
</svg>
