<svg width="800" height="800" viewBox="0 0 800 800" fill="none" xmlns="http://www.w3.org/2000/svg">
<path d="M770.833 0H47.9167H0V133.333V666.667H333.333V800H666.667V666.667H800V133.333V0H770.833ZM600 50C618.4 50 633.333 64.9333 633.333 83.3333C633.333 101.733 618.4 116.667 600 116.667C581.6 116.667 566.667 101.733 566.667 83.3333C566.667 64.9333 581.6 50 600 50ZM100 50H500C518.4 50 533.333 64.9333 533.333 83.3333C533.333 101.733 518.4 116.667 500 116.667H100C81.6 116.667 66.6667 101.733 66.6667 83.3333C66.6667 64.9333 81.6 50 100 50ZM500 776.567C481.6 776.567 466.667 761.633 466.667 743.233C466.667 724.833 481.6 709.9 500 709.9C518.4 709.9 533.333 724.833 533.333 743.233C533.333 761.633 518.4 776.567 500 776.567ZM600 682.817H400V666.667V600V301.383H600V600V666.667V682.817ZM733.333 600H666.667V234.717H333.333V600H66.6667V166.667H733.333V600ZM700 116.667C681.6 116.667 666.667 101.733 666.667 83.3333C666.667 64.9333 681.6 50 700 50C718.4 50 733.333 64.9333 733.333 83.3333C733.333 101.733 718.4 116.667 700 116.667Z" fill="#8D93A5"/>
</svg>
