<svg width="752" height="800" viewBox="0 0 752 800" fill="none" xmlns="http://www.w3.org/2000/svg">
<path d="M719.563 160.666C697.337 149.515 670.485 153.859 652.905 171.436L539.841 284.502L428.722 34.271C419.466 13.4321 398.803 0 376 0C353.197 0 332.534 13.4321 323.281 34.2738L212.159 284.505L99.0951 171.438C81.5183 153.865 54.6628 149.518 32.4366 160.671C10.219 171.813 -2.36221 195.943 1.22295 220.54L52.7909 574.686C56.9183 603.036 81.2241 624.059 109.874 624.059H642.126C670.776 624.059 695.082 603.036 699.209 574.686L750.78 220.537C754.362 195.94 741.781 171.811 719.563 160.666Z" fill="#8D93A5"/>
<path d="M642.126 684.629H109.874C78.0139 684.629 52.1881 710.455 52.1881 742.314C52.1881 774.174 78.0139 800 109.874 800H642.126C673.986 800 699.812 774.174 699.812 742.314C699.812 710.455 673.986 684.629 642.126 684.629Z" fill="#1C274C"/>
</svg>
