<svg width="801" height="728" viewBox="0 0 801 728" fill="none" xmlns="http://www.w3.org/2000/svg">
<path d="M782.861 537.944L646.046 300.922L509.232 63.9003C486.526 24.3967 445.632 0.879883 400.105 0.879883C354.461 0.879883 313.683 24.3967 290.861 63.9003L17.1163 537.944C-5.70543 577.447 -5.70543 624.597 17.1163 664.101C39.9381 703.604 80.716 727.121 126.359 727.121H673.734C719.377 727.121 760.155 703.604 782.977 664.101C805.799 624.597 805.683 577.447 782.861 537.944ZM722.737 629.231C717.823 637.877 710.691 645.055 702.077 650.024C693.463 654.993 683.678 657.573 673.734 657.497H126.359C105.855 657.497 87.5509 646.955 77.3564 629.231C72.349 620.631 69.7109 610.858 69.7109 600.906C69.7109 590.955 72.349 581.182 77.3564 572.582L350.986 98.6543C355.934 90.0126 363.089 82.8412 371.72 77.8744C380.351 72.9076 390.147 70.3239 400.105 70.3877C420.609 70.3877 438.913 80.9298 449.108 98.6543L722.737 572.698C727.744 581.276 730.383 591.031 730.383 600.964C730.383 610.897 727.744 620.652 722.737 629.231Z" fill="#8D93A5"/>
<path d="M436.943 408.08C436.943 427.311 421.42 442.834 402.19 442.834C382.959 442.834 367.436 427.195 367.436 408.08V196.197C367.436 176.967 382.959 161.443 402.19 161.443C421.42 161.443 436.943 176.967 436.943 196.197V408.08Z" fill="#1C274C"/>
<path d="M346.352 546.169C346.352 515.354 371.374 490.331 402.19 490.331C433.005 490.331 458.027 515.354 458.027 546.169C458.027 576.984 433.005 602.007 402.19 602.007C371.374 602.007 346.352 576.984 346.352 546.169Z" fill="#1C274C"/>
</svg>
