<svg width="600" height="668" viewBox="0 0 600 668" fill="none" xmlns="http://www.w3.org/2000/svg">
<path d="M133.333 268.293C149.047 267.333 168.419 267.333 193.333 267.333H406.666C431.58 267.333 450.953 267.333 466.666 268.293M133.333 268.293C113.722 269.49 99.8093 272.183 87.934 278.233C69.1177 287.82 53.8197 303.117 44.2323 321.933C33.333 343.327 33.333 371.327 33.333 427.333V474C33.333 530.007 33.333 558.007 44.2323 579.4C53.8197 598.217 69.1177 613.513 87.934 623.1C109.325 634 137.328 634 193.333 634H406.666C462.673 634 490.673 634 512.066 623.1C530.883 613.513 546.18 598.217 555.766 579.4C566.666 558.007 566.666 530.007 566.666 474V427.333C566.666 371.327 566.666 343.327 555.766 321.933C546.18 303.117 530.883 287.82 512.066 278.233C500.19 272.183 486.276 269.49 466.666 268.293M133.333 268.293V200.667C133.333 108.619 207.952 34 300 34C392.046 34 466.666 108.619 466.666 200.667V268.293" stroke="#8D93A5" stroke-width="66.6667" stroke-linecap="round" stroke-linejoin="round"/>
<path d="M300 417.333V484" stroke="#1C274C" stroke-width="66.6667" stroke-linecap="round" stroke-linejoin="round"/>
</svg>
