<svg width="456" height="512" viewBox="0 0 456 512" fill="none" xmlns="http://www.w3.org/2000/svg">
<path d="M451.476 316.977C447.48 307.538 440.849 299.564 432.487 293.903C424.125 288.251 413.961 284.932 403.14 284.932C403.14 284.932 385.794 284.932 371.184 284.932C357.175 284.932 340.049 284.932 326.429 284.932C319.621 284.932 313.678 284.932 309.449 284.932C306.831 284.932 304.875 284.932 303.758 284.932C302.985 284.817 302.31 284.632 301.692 284.375C300.407 283.81 299.14 282.927 297.661 281.152C296.566 279.827 295.414 278.008 294.336 275.625C292.707 272.075 291.272 267.298 290.301 261.505C289.325 255.704 288.787 248.905 288.787 241.293C288.783 227.05 290.659 210.025 294.557 191.235C298.2 173.618 303.815 157.239 308.774 140.823C311.242 132.611 313.547 124.39 315.246 115.975C316.95 107.569 318.063 98.951 318.063 90.059C318.063 77.661 315.542 65.785 310.977 54.995C304.129 38.818 292.734 25.096 278.367 15.392C264.007 5.67801 246.607 -0.00799157 228.002 8.4305e-06C215.604 8.4305e-06 203.728 2.51701 192.946 7.08201C176.765 13.935 163.042 25.326 153.338 39.692C143.624 54.05 137.942 71.454 137.947 90.059C137.947 98.951 139.055 107.569 140.755 115.975C143.324 128.593 147.197 140.788 151.033 153.15C154.879 165.503 158.711 178.016 161.452 191.235C165.351 210.025 167.223 227.05 167.214 241.293C167.223 249.019 166.667 255.924 165.656 261.779C164.906 266.168 163.894 269.965 162.724 273.082C161.85 275.422 160.896 277.364 159.934 278.918C158.486 281.258 157.077 282.672 155.832 283.528C154.706 284.296 153.674 284.711 152.283 284.932C145.779 284.932 110.189 284.932 84.8254 284.932C77.5184 284.932 69.5274 284.932 63.3684 284.932C57.2044 284.932 52.8774 284.932 52.8644 284.932C45.6604 284.932 38.7284 286.406 32.4414 289.073C23.0064 293.064 15.0284 299.696 9.37239 308.058C3.71639 316.411 0.400391 326.584 0.400391 337.4V443.026H14.2104H455.6V337.401C455.609 330.195 454.134 323.264 451.476 316.977ZM165.569 90.059C165.569 81.397 167.309 73.22 170.465 65.758C175.197 54.57 183.127 45.008 193.101 38.27C203.083 31.541 215.022 27.62 228.002 27.62C236.664 27.62 244.837 29.36 252.303 32.512C263.491 37.245 273.054 45.184 279.787 55.152C286.52 65.139 290.436 77.078 290.441 90.058C290.441 96.645 289.615 103.4 288.176 110.491C286.035 121.131 282.476 132.522 278.604 144.937C274.741 157.362 270.586 170.81 267.514 185.626C263.306 205.936 261.174 224.682 261.169 241.292C261.173 250.316 261.805 258.722 263.129 266.458C264.131 272.259 265.531 277.699 267.412 282.749C268.644 286.034 270.136 289.125 271.831 292.065H184.174C185.11 290.44 186.02 288.798 186.81 287.067C189.684 280.745 191.645 273.733 192.938 266.095C194.227 258.457 194.836 250.175 194.836 241.292C194.827 224.682 192.704 205.936 188.496 185.626C184.39 165.874 178.394 148.54 173.684 132.857C171.317 125.016 169.26 117.59 167.825 110.491C166.394 103.402 165.569 96.646 165.569 90.059ZM427.983 415.406H28.0174V337.401C28.0174 333.931 28.7144 330.699 29.9694 327.741C31.8374 323.291 35.0154 319.477 38.9804 316.792C42.9674 314.108 47.6734 312.562 52.8654 312.553C52.8794 312.553 57.2054 312.553 63.3694 312.553C69.5274 312.553 77.5194 312.553 84.8264 312.553C106.385 312.553 135.256 312.553 147.45 312.553C151.101 312.553 153.322 312.553 153.322 312.553H154.091H301.912H302.689C302.689 312.553 305.214 312.553 309.449 312.553C311.334 312.553 313.639 312.553 316.129 312.553C330.399 312.553 353.295 312.553 371.185 312.553C385.795 312.553 403.141 312.553 403.141 312.553C406.611 312.562 409.847 313.251 412.811 314.505C417.253 316.377 421.071 319.547 423.751 323.52C426.436 327.503 427.985 332.209 427.985 337.401V415.406H427.983Z" fill="#8D93A5"/>
<path d="M419.781 474.048H36.2295V512H419.781V474.048Z" fill="#1C274C"/>
</svg>
