<svg width="700" height="700" viewBox="0 0 700 700" fill="none" xmlns="http://www.w3.org/2000/svg">
<path d="M594.961 300C585.13 251.981 561.413 207.906 526.753 173.247C492.094 138.587 448.019 114.87 400 105.038V0H300V105.038C251.981 114.87 207.906 138.587 173.247 173.247C138.587 207.906 114.87 251.981 105.038 300H0V400H105.038C114.87 448.019 138.587 492.094 173.247 526.753C207.906 561.413 251.981 585.13 300 594.961V700H400V594.961C448.019 585.13 492.094 561.413 526.753 526.753C561.413 492.094 585.13 448.019 594.961 400H700V300H594.961ZM350 550C310.444 550 271.776 538.27 238.886 516.294C205.996 494.318 180.362 463.082 165.224 426.537C150.087 389.991 146.126 349.778 153.843 310.982C161.56 272.186 180.608 236.549 208.579 208.579C236.549 180.608 272.186 161.56 310.982 153.843C349.778 146.126 389.991 150.087 426.537 165.224C463.082 180.362 494.318 205.996 516.294 238.886C538.27 271.776 550 310.444 550 350C549.94 403.025 528.85 453.861 491.356 491.356C453.861 528.85 403.025 549.94 350 550Z" fill="#8D93A5"/>
<path d="M294.443 267.372C310.888 256.383 330.222 250.519 350 250.519C376.522 250.519 401.957 261.054 420.711 279.808C439.464 298.562 450 323.997 450 350.519C450 370.297 444.135 389.631 433.147 406.076C422.159 422.52 406.541 435.338 388.268 442.907C369.996 450.475 349.889 452.456 330.491 448.597C311.093 444.739 293.275 435.215 279.289 421.229C265.304 407.244 255.78 389.426 251.922 370.028C248.063 350.629 250.043 330.523 257.612 312.25C265.181 293.978 277.998 278.36 294.443 267.372Z" fill="#1C274C"/>
</svg>
