<svg width="800" height="700" viewBox="0 0 800 700" fill="none" xmlns="http://www.w3.org/2000/svg">
<path d="M785.35 14.65C775.587 4.88125 762.794 0 750 0C737.206 0 724.412 4.88125 714.65 14.65L396.656 265.594C390.531 269.475 384.644 273.944 379.3 279.288C340.237 318.325 340.237 381.631 379.3 420.694C398.831 440.219 424.419 449.988 450.006 449.988C475.594 449.988 501.181 440.219 520.712 420.694C526.056 415.35 530.525 409.462 534.406 403.337L785.356 85.3562C804.881 65.8187 804.881 34.1812 785.35 14.65ZM746.094 54.3687L495.144 372.35C494.094 373.719 493.094 375.106 492.162 376.575C489.894 380.137 487.669 383.019 485.325 385.337C475.9 394.787 463.35 399.988 450 399.988C436.65 399.988 424.094 394.787 414.65 385.337C405.206 375.887 400 363.319 400 349.988C400 336.631 405.2 324.081 414.65 314.637C416.969 312.319 419.85 310.094 423.412 307.825C424.875 306.9 426.269 305.9 427.637 304.85L745.631 53.9062C747.169 52.6875 748.587 51.3938 749.95 50H750C748.606 51.3875 747.312 52.8312 746.094 54.3687Z" fill="#8D93A5"/>
<path d="M272.656 400.013C253.294 400.013 233.913 404.406 216.088 413.15C212.55 414.738 209.056 416.644 205.588 418.744C203.488 419.988 201.387 421.231 199.337 422.625C193.212 426.875 187.131 431.631 181.269 437.544C175.313 443.544 170.5 449.794 166.231 456.119C165.181 457.706 164.231 459.294 163.25 460.881C159.806 466.475 156.806 472.163 154.313 477.944C153.85 479.119 153.238 480.238 152.775 481.438C124.631 552.275 197.287 556.625 0 681.469C51.9562 694.725 97.85 700 137.962 700C293.8 700 362.45 620.438 362.45 620.438C412.5 569.906 412.525 488 362.475 437.494C337.644 412.413 305.175 400.013 272.656 400.013ZM326.931 585.263C326.444 585.75 325.494 586.775 325.05 587.288C322.706 589.825 266.331 650 137.962 650C135.569 650 133.2 649.975 130.788 649.925C182.156 605.938 194.044 573.494 194.725 528.888C194.894 517.875 194.994 510.575 198.9 500.713C199.119 500.275 200.05 498.15 200.244 497.713C201.806 494.1 203.687 490.556 206.469 486.044L207.663 484.113C210.813 479.45 213.694 475.838 216.769 472.738C219.794 469.713 223.188 466.925 227.413 464C228.606 463.169 229.856 462.463 231.487 461.513C233.15 460.488 234.831 459.538 238.106 458.044C248.825 452.769 260.763 450.013 272.65 450.013C293.181 450.013 312.469 458.069 326.95 472.669C357.688 503.694 357.687 554.206 326.931 585.263Z" fill="#1C274C"/>
</svg>
