<svg width="656" height="718" viewBox="0 0 656 718" fill="none" xmlns="http://www.w3.org/2000/svg">
<path d="M630.673 245.001V473C630.673 510.333 610.673 545 578.34 564L380.34 678.333C348.007 697 308.007 697 275.34 678.333L77.3387 564C45.0054 545.333 25.0054 510.667 25.0054 473V245.001C25.0054 207.668 45.0054 173 77.3387 154L275.34 39.6666C307.673 21 347.673 21 380.34 39.6666L578.34 154C610.673 173 630.673 207.334 630.673 245.001Z" stroke="#8D92A5" stroke-width="50" stroke-linecap="round" stroke-linejoin="round"/>
<path d="M327.997 325.66C370.89 325.66 405.663 290.887 405.663 247.993C405.663 205.099 370.89 170.328 327.997 170.328C285.103 170.328 250.331 205.099 250.331 247.993C250.331 290.887 285.103 325.66 327.997 325.66Z" stroke="#1C274C" stroke-width="50" stroke-linecap="round" stroke-linejoin="round"/>
<path d="M461.333 514.33C461.333 454.33 401.667 405.663 328 405.663C254.333 405.663 194.667 454.33 194.667 514.33" stroke="#1C274C" stroke-width="50" stroke-linecap="round" stroke-linejoin="round"/>
</svg>
