<svg width="688" height="700" viewBox="0 0 688 700" fill="none" xmlns="http://www.w3.org/2000/svg">
<path d="M651.75 475L500 325L651.75 175L687.5 210.25L571.5 325L687.5 439.75L651.75 475Z" fill="#1C274C"/>
<path d="M500 700H450V575C450 541.848 436.83 510.054 413.388 486.612C389.946 463.17 358.152 450 325 450H175C141.848 450 110.054 463.17 86.6117 486.612C63.1696 510.054 50 541.848 50 575V700H0V575C0 528.587 18.4374 484.075 51.2563 451.256C84.0752 418.437 128.587 400 175 400H325C371.413 400 415.925 418.437 448.744 451.256C481.563 484.075 500 528.587 500 575V700Z" fill="#8D93A5"/>
<path d="M250 50C274.723 50 298.89 57.3311 319.446 71.0663C340.002 84.8015 356.024 104.324 365.485 127.165C374.946 150.005 377.421 175.139 372.598 199.386C367.775 223.634 355.87 245.907 338.388 263.388C320.907 280.87 298.634 292.775 274.386 297.598C250.139 302.421 225.005 299.946 202.165 290.485C179.324 281.024 159.802 265.002 146.066 244.446C132.331 223.89 125 199.723 125 175C125 141.848 138.17 110.054 161.612 86.6117C185.054 63.1696 216.848 50 250 50ZM250 0C215.388 0 181.554 10.2636 152.775 29.4928C123.997 48.7221 101.566 76.0533 88.3212 108.03C75.0758 140.007 71.6102 175.194 78.3627 209.141C85.1151 243.087 101.782 274.269 126.256 298.744C150.731 323.218 181.913 339.885 215.859 346.637C249.806 353.39 284.993 349.924 316.97 336.679C348.947 323.434 376.278 301.003 395.507 272.225C414.737 243.446 425 209.612 425 175C425 128.587 406.563 84.0752 373.744 51.2563C340.925 18.4374 296.413 0 250 0Z" fill="#8D93A5"/>
</svg>
