<?xml version="1.0" encoding="utf-8"?>
<!-- Generator: Adobe Illustrator 28.4.1, SVG Export Plug-In . SVG Version: 6.00 Build 0)  -->
<svg version="1.1" id="hash" xmlns="http://www.w3.org/2000/svg" xmlns:xlink="http://www.w3.org/1999/xlink" x="0px" y="0px"
	 viewBox="0 0 12 12" style="enable-background:new 0 0 12 12;" xml:space="preserve">
<style type="text/css">
	.st0{fill:#8D93A5;}
	.st1{fill:#1C274C;}
</style>
<g>
	<g>
		<path class="st0" d="M3.8,3.3L3.6,4.7H0.7C0.3,4.7,0,4.4,0,4c0-0.2,0.1-0.3,0.1-0.4c0,0,0.1-0.1,0.1-0.1c0,0,0.1-0.1,0.2-0.1
			c0.1,0,0.2,0,0.3,0H3.8z"/>
		<polygon class="st1" points="7.8,3.3 7.5,4.7 4.9,4.7 5.2,3.3 		"/>
		<path class="st0" d="M12,4c0,0.4-0.3,0.7-0.7,0.7H8.9l0.2-1.3h2.2c0.1,0,0.2,0,0.3,0c0.1,0,0.1,0.1,0.2,0.1c0,0,0.1,0.1,0.1,0.1
			C11.9,3.7,12,3.8,12,4z"/>
		<polygon class="st1" points="7.1,7.3 6.8,8.6 4.2,8.6 4.4,7.3 		"/>
		<path class="st0" d="M3.1,7.3L2.9,8.6H0.7C0.3,8.6,0,8.3,0,8c0-0.1,0-0.3,0.1-0.4c0,0,0-0.1,0.1-0.1c0,0,0.1-0.1,0.1-0.1
			c0,0,0.1-0.1,0.2-0.1c0,0,0,0,0,0c0.1,0,0.1,0,0.2,0H3.1z"/>
		<path class="st0" d="M12,8c0,0.4-0.3,0.7-0.7,0.7H8.2l0.2-1.3h2.9c0.1,0,0.1,0,0.2,0c0,0,0,0,0,0c0,0,0.1,0,0.2,0.1
			c0,0,0.1,0,0.1,0.1c0,0,0.1,0.1,0.1,0.1C11.9,7.7,12,7.8,12,8z"/>
	</g>
	<g>
		<polygon class="st1" points="9.1,3.3 8.9,4.7 7.5,4.7 7.8,3.3 		"/>
		<polygon class="st1" points="8.9,4.7 8.4,7.3 7.1,7.3 7.5,4.7 		"/>
		<polygon class="st1" points="8.4,7.3 8.2,8.6 6.8,8.6 7.1,7.3 		"/>
		<path class="st0" d="M8.2,8.6l-0.5,2.7c0,0.1,0,0.2-0.1,0.2c0,0.1-0.1,0.1-0.1,0.1c0,0-0.1,0.1-0.1,0.1c-0.1,0.1-0.3,0.1-0.4,0.1
			c-0.3-0.1-0.6-0.4-0.5-0.8l0.4-2.5H8.2z"/>
		<path class="st0" d="M9.5,0.6c0,0.1,0,0.2,0,0.3L9.1,3.3H7.8l0.5-2.7C8.3,0.3,8.6,0.1,9,0.1c0.2,0,0.3,0.1,0.4,0.2
			c0,0,0.1,0.1,0.1,0.1C9.5,0.5,9.5,0.6,9.5,0.6z"/>
		<polygon class="st1" points="5.2,3.3 4.9,4.7 3.6,4.7 3.8,3.3 		"/>
		<polygon class="st1" points="4.4,7.3 4.2,8.6 2.9,8.6 3.1,7.3 		"/>
		<path class="st0" d="M2.9,8.6h1.3l-0.5,2.6c0,0.1,0,0.1-0.1,0.2c0,0,0,0,0,0c0,0.1-0.1,0.1-0.1,0.2c0,0-0.1,0.1-0.1,0.1
			c0,0-0.1,0-0.1,0.1c-0.1,0.1-0.2,0.1-0.4,0c-0.4-0.1-0.6-0.4-0.5-0.8L2.9,8.6z"/>
		<polygon class="st1" points="4.9,4.7 4.4,7.3 3.1,7.3 3.6,4.7 		"/>
		<path class="st0" d="M5.6,0.6C5.6,0.6,5.6,0.6,5.6,0.6c0,0.1,0,0.2,0,0.2L5.2,3.3H3.8l0.5-2.8C4.4,0.2,4.7,0,5.1,0
			c0.1,0,0.2,0.1,0.3,0.2c0,0,0.1,0.1,0.1,0.1c0,0,0,0.1,0.1,0.1C5.6,0.5,5.6,0.5,5.6,0.6z"/>
	</g>
</g>
</svg>
