<svg width="654" height="668" viewBox="0 0 654 668" fill="none" xmlns="http://www.w3.org/2000/svg">
<path fill-rule="evenodd" clip-rule="evenodd" d="M260.332 0.666992C241.923 0.666992 226.999 15.591 226.999 34.0003V86.7263C203.824 96.1063 182.281 108.641 162.901 123.789L117.191 97.398C109.535 92.9777 100.436 91.7797 91.8971 94.0677C83.3577 96.356 76.0774 101.943 71.6571 109.599L4.99042 225.069C-4.21425 241.012 1.24809 261.398 17.1911 270.604L62.8848 296.984C61.2011 309.094 60.3324 321.454 60.3324 334C60.3324 346.547 61.2011 358.904 62.8848 371.017L17.1914 397.397C9.53509 401.817 3.94875 409.097 1.66042 417.637C-0.62758 426.177 0.570087 435.274 4.99042 442.93L71.6571 558.4C76.0774 566.057 83.3581 571.644 91.8974 573.934C100.437 576.22 109.535 575.024 117.191 570.604L162.902 544.21C182.282 559.357 203.824 571.894 226.999 581.274V634C226.999 652.41 241.923 667.334 260.332 667.334H393.667C412.073 667.334 427 652.41 427 634V581.274C450.173 571.894 471.717 559.357 491.097 544.21L536.807 570.604C544.463 575.024 553.56 576.22 562.1 573.934C570.64 571.644 577.92 566.057 582.34 558.404L649.007 442.934C653.427 435.277 654.627 426.177 652.337 417.637C650.05 409.1 644.463 401.817 636.807 397.397L591.113 371.017C592.797 358.907 593.667 346.547 593.667 334C593.667 321.454 592.797 309.094 591.113 296.984L636.807 270.604C652.75 261.397 658.213 241.011 649.007 225.068L582.34 109.598C577.92 101.942 570.64 96.3553 562.1 94.067C553.56 91.779 544.463 92.9766 536.807 97.397L491.097 123.788C471.717 108.641 450.173 96.1063 427 86.7263V34.0003C427 15.591 412.073 0.666992 393.667 0.666992H260.332ZM293.667 110.329V67.3337H360.333V110.329C360.333 125.076 370.023 138.071 384.157 142.277C414.527 151.316 441.917 167.4 464.41 188.677C475.12 198.808 491.213 200.7 503.983 193.328L541.273 171.799L574.607 229.534L537.363 251.036C524.603 258.402 518.193 273.27 521.597 287.604C525.123 302.46 527 317.99 527 334C527 350.01 525.123 365.54 521.597 380.397C518.193 394.73 524.603 409.597 537.363 416.964L574.607 438.467L541.273 496.2L503.98 474.67C491.213 467.3 475.12 469.19 464.407 479.324C441.917 500.6 414.527 516.684 384.157 525.72C370.023 529.927 360.333 542.924 360.333 557.67V600.667H293.667V557.67C293.667 542.924 283.973 529.927 269.84 525.72C239.47 516.684 212.082 500.6 189.589 479.324C178.878 469.19 162.784 467.3 150.016 474.67L112.725 496.2L79.3921 438.467L116.635 416.964C129.393 409.597 135.803 394.73 132.4 380.397C128.874 365.54 126.999 350.01 126.999 334C126.999 317.99 128.873 302.46 132.4 287.604C135.803 273.27 129.393 258.403 116.635 251.037L79.3921 229.535L112.725 171.8L150.015 193.329C162.784 200.701 178.878 198.809 189.589 188.677C212.082 167.4 239.47 151.316 269.84 142.277C283.973 138.071 293.667 125.076 293.667 110.329Z" fill="#8D93A5"/>
<path d="M193.666 334C193.666 260.362 253.361 200.667 327 200.667C400.637 200.667 460.333 260.362 460.333 334C460.333 407.637 400.637 467.334 327 467.334C253.361 467.334 193.666 407.637 193.666 334Z" fill="#1C274C"/>
<circle cx="326.5" cy="334.5" r="62.5" fill="white"/>
</svg>
