<svg width="568" height="734" viewBox="0 0 568 734" fill="none" xmlns="http://www.w3.org/2000/svg">
<path d="M146.289 482.33L117.333 700.334L270.28 608.567C275.27 605.574 277.763 604.077 280.427 603.49C282.78 602.974 285.22 602.974 287.573 603.49C290.237 604.077 292.73 605.574 297.72 608.567L450.667 700.334L421.73 482.237M431.53 108.63C436.677 121.08 446.56 130.977 459 136.144L502.63 154.216C515.083 159.374 524.973 169.267 530.133 181.718C535.29 194.17 535.29 208.161 530.133 220.612L512.073 264.212C506.913 276.669 506.907 290.674 512.09 303.124L530.117 346.71C532.673 352.88 533.99 359.49 533.99 366.167C533.993 372.84 532.677 379.454 530.123 385.62C527.57 391.787 523.823 397.394 519.103 402.114C514.38 406.834 508.777 410.577 502.607 413.13L459.01 431.187C446.56 436.337 436.663 446.217 431.497 458.66L413.423 502.294C408.267 514.744 398.373 524.637 385.923 529.794C373.47 534.954 359.48 534.954 347.03 529.794L303.433 511.734C290.98 506.59 276.997 506.6 264.553 511.764L220.923 529.81C208.478 534.957 194.5 534.954 182.059 529.8C169.618 524.644 159.731 514.764 154.57 502.327L136.493 458.68C131.345 446.23 121.464 436.334 109.021 431.167L65.3917 413.094C52.946 407.94 43.0563 398.054 37.897 385.607C32.7377 373.164 32.7307 359.18 37.8777 346.73L55.9367 303.13C61.0813 290.679 61.071 276.693 55.9073 264.249L37.8743 220.587C35.3177 214.419 34.001 207.809 34 201.133C33.999 194.457 35.3133 187.846 37.868 181.678C40.4227 175.51 44.168 169.906 48.8893 165.186C53.6107 160.466 59.2157 156.722 65.384 154.17L108.982 136.11C121.422 130.966 131.312 121.097 136.483 108.668L154.555 65.0372C159.712 52.5856 169.604 42.6929 182.056 37.5352C194.507 32.3776 208.497 32.3776 220.947 37.5352L264.547 55.5949C276.997 60.7396 290.983 60.7292 303.427 55.5656L347.073 37.5632C359.523 32.4082 373.51 32.4096 385.96 37.5659C398.407 42.7226 408.3 52.6126 413.457 65.0609L431.533 108.705L431.53 108.63Z" stroke="#8D93A5" stroke-width="66.6667" stroke-linecap="round" stroke-linejoin="round"/>
<circle cx="284" cy="278" r="95" fill="#1C274C"/>
</svg>
