<svg width="668" height="668" viewBox="0 0 668 668" fill="none" xmlns="http://www.w3.org/2000/svg">
<path fill-rule="evenodd" clip-rule="evenodd" d="M103.231 131.549C103.231 80.3027 145.324 38.7594 197.248 38.7594H334C348.16 38.7594 359.64 50.0894 359.64 64.0657C359.64 78.0421 348.16 89.3721 334 89.3721H197.248C173.646 89.3721 154.513 108.255 154.513 131.549V165.291C154.513 179.267 143.033 190.597 128.872 190.597C114.711 190.597 103.231 179.267 103.231 165.291V131.549ZM128.872 477.403C143.033 477.403 154.513 488.733 154.513 502.71V536.45C154.513 559.743 173.646 578.627 197.248 578.627H334C348.16 578.627 359.64 589.96 359.64 603.933C359.64 617.91 348.16 629.24 334 629.24H197.248C145.324 629.24 103.231 587.697 103.231 536.45V502.71C103.231 488.733 114.711 477.403 128.872 477.403Z" fill="#8D92A5"/>
<path fill-rule="evenodd" clip-rule="evenodd" d="M359.64 93.5393C359.64 64.1637 389.307 43.785 417.22 53.9873L588.16 116.472C604.923 122.6 616.05 138.38 616.05 156.024V511.977C616.05 529.62 604.923 545.4 588.16 551.527L417.22 614.013C389.307 624.217 359.64 603.837 359.64 574.46V93.5393ZM435.03 6.52532C373.623 -15.92 308.36 28.9127 308.36 93.5393V574.46C308.36 639.087 373.623 683.92 435.03 661.473L605.97 598.99C642.853 585.507 667.333 550.793 667.333 511.977V156.024C667.333 117.207 642.853 82.4917 605.97 69.01L435.03 6.52532Z" fill="#8D92A5"/>
<path fill-rule="evenodd" clip-rule="evenodd" d="M112.815 248.622C102.801 238.739 86.5663 238.739 76.5526 248.622L8.17663 316.107C-1.83671 325.99 -1.83671 342.01 8.17663 351.893L76.5526 419.377C86.5663 429.26 102.801 429.26 112.815 419.377C122.828 409.497 122.828 393.473 112.815 383.59L88.2106 359.307H231.436C245.597 359.307 257.077 347.977 257.077 334C257.077 320.023 245.597 308.693 231.436 308.693H88.2106L112.815 284.41C122.828 274.527 122.828 258.505 112.815 248.622Z" fill="#1C274C"/>
</svg>
