<svg width="24" height="24" viewBox="0 0 24 24" fill="none" xmlns="http://www.w3.org/2000/svg">
<path fill-rule="evenodd" clip-rule="evenodd" d="M12 16.4951C13.242 16.4951 14.25 17.5031 14.25 18.7451C14.25 19.9871 13.242 20.9951 12 20.9951C10.758 20.9951 9.75 19.9871 9.75 18.7451C9.75 17.5031 10.758 16.4951 12 16.4951ZM12 9.74512C13.242 9.74512 14.25 10.7531 14.25 11.9951C14.25 13.2371 13.242 14.2451 12 14.2451C10.758 14.2451 9.75 13.2371 9.75 11.9951C9.75 10.7531 10.758 9.74512 12 9.74512ZM12 2.99512C13.242 2.99512 14.25 4.00312 14.25 5.24512C14.25 6.48712 13.242 7.49512 12 7.49512C10.758 7.49512 9.75 6.48712 9.75 5.24512C9.75 4.00312 10.758 2.99512 12 2.99512Z" fill="#1C274C"/>
</svg>
