<svg width="552" height="602" viewBox="0 0 552 602" fill="none" xmlns="http://www.w3.org/2000/svg">
<path d="M35.5319 212.429L35.5319 212.429C31.9356 201.755 34.1298 187.328 45.4849 167.627C56.8481 147.911 68.2065 138.835 79.1696 136.63C91.3964 134.171 99.5295 138.064 111.086 143.594C111.408 143.748 111.732 143.903 112.059 144.06C112.401 144.223 112.746 144.388 113.095 144.555C122.338 148.979 134.037 154.578 144.738 156.191C144.819 156.203 144.904 156.216 144.991 156.229C148.183 156.713 155.26 157.786 164.224 155.953C172.391 154.284 179.889 150.717 187.05 146.575L170.362 117.719L187.05 146.575C194.213 142.433 201.039 137.716 206.558 131.477C212.617 124.629 215.222 117.969 216.401 114.954C216.433 114.874 216.463 114.797 216.492 114.722C220.438 104.657 221.446 91.7277 222.243 81.4979C222.273 81.1095 222.303 80.725 222.333 80.3448C222.361 79.98 222.39 79.6182 222.418 79.2594C223.414 66.4749 224.118 57.4342 232.385 48.0256C239.786 39.6017 253.306 34.2998 276 34.2998C298.694 34.2998 312.215 39.6017 319.616 48.0256C327.882 57.4342 328.587 66.4749 329.583 79.2594C329.611 79.6182 329.639 79.98 329.667 80.3447C329.697 80.725 329.727 81.1095 329.758 81.4979C330.555 91.7277 331.562 104.657 335.508 114.722C335.537 114.797 335.568 114.874 335.599 114.954C336.778 117.969 339.384 124.629 345.443 131.477C350.962 137.716 357.787 142.433 364.95 146.575C372.112 150.717 379.609 154.284 387.777 155.953C396.74 157.786 403.817 156.713 407.01 156.229C407.097 156.216 407.181 156.203 407.263 156.191C417.964 154.578 429.662 148.979 438.906 144.555C439.255 144.388 439.6 144.223 439.942 144.06C440.268 143.903 440.592 143.748 440.914 143.595C452.471 138.064 460.604 134.171 472.831 136.63C483.794 138.835 495.152 147.911 506.515 167.627C517.871 187.328 520.065 201.755 516.469 212.429C512.467 224.307 505.01 229.434 494.471 236.679C494.173 236.884 493.872 237.091 493.569 237.299C493.253 237.516 492.934 237.736 492.611 237.958C484.169 243.762 473.488 251.105 466.754 259.568L466.597 259.765C464.581 262.294 460.127 267.883 457.237 276.553C454.604 284.451 453.939 292.72 453.939 301C453.939 309.28 454.604 317.549 457.237 325.447C460.127 334.117 464.581 339.706 466.597 342.235L466.754 342.432C473.488 350.895 484.169 358.238 492.61 364.042C492.933 364.264 493.253 364.484 493.569 364.701C493.872 364.91 494.173 365.116 494.471 365.321C505.01 372.566 512.467 377.693 516.469 389.571C520.065 400.245 517.871 414.672 506.515 434.373C495.152 454.089 483.794 463.165 472.831 465.37C460.604 467.829 452.47 463.936 440.914 458.405C440.592 458.252 440.268 458.097 439.942 457.94C439.6 457.777 439.255 457.612 438.906 457.445C429.662 453.021 417.964 447.422 407.263 445.809L407.01 445.771C403.818 445.287 396.74 444.214 387.777 446.047C379.609 447.716 372.112 451.283 364.95 455.425C357.787 459.567 350.962 464.284 345.443 470.523C339.384 477.371 336.779 484.031 335.599 487.046L335.508 487.278C331.562 497.343 330.555 510.272 329.758 520.502C329.727 520.891 329.697 521.275 329.667 521.655C329.639 522.02 329.611 522.382 329.583 522.741C328.587 535.525 327.882 544.566 319.616 553.974C312.215 562.398 298.694 567.7 276 567.7C253.306 567.7 239.786 562.398 232.385 553.974C224.118 544.566 223.414 535.525 222.418 522.741C222.39 522.382 222.361 522.02 222.333 521.655C222.303 521.275 222.273 520.891 222.243 520.502C221.446 510.272 220.438 497.343 216.492 487.278L216.401 487.046C215.222 484.031 212.617 477.371 206.558 470.523C201.039 464.284 194.213 459.567 187.05 455.425C179.889 451.283 172.391 447.716 164.223 446.047C155.26 444.214 148.183 445.287 144.991 445.771L144.738 445.809C134.037 447.422 122.338 453.021 113.095 457.445C112.746 457.612 112.401 457.777 112.059 457.94C111.732 458.097 111.408 458.252 111.086 458.406C99.5296 463.936 91.3964 467.829 79.1696 465.37C68.2065 463.165 56.8481 454.089 45.4849 434.373C34.1298 414.672 31.9356 400.245 35.5319 389.571L4.00148 378.948L35.5319 389.571C39.5337 377.693 46.9906 372.567 57.5298 365.321C57.8278 365.116 58.1282 364.91 58.4311 364.701C58.7471 364.484 59.0667 364.264 59.3895 364.042C67.8315 358.238 78.5119 350.896 85.2464 342.432L85.4038 342.235C87.4191 339.706 91.8736 334.117 94.7635 325.447C97.3961 317.549 98.0617 309.279 98.0617 301C98.0617 292.721 97.3961 284.451 94.7635 276.553C91.8736 267.883 87.4191 262.294 85.4037 259.765C85.3495 259.697 85.2971 259.631 85.2464 259.568C78.5119 251.104 67.8313 243.762 59.3894 237.958C59.0666 237.736 58.747 237.516 58.4312 237.299C58.1283 237.091 57.8278 236.884 57.5298 236.679C46.9906 229.433 39.5337 224.307 35.5319 212.429Z" stroke="#8D93A5" stroke-width="66.67"/>
<path d="M276.001 221.011C232.184 221.011 196 257.216 196 301C196 344.785 232.184 380.99 276.001 380.99C319.818 380.99 356 344.785 356 301C356 257.216 319.818 221.011 276.001 221.011Z" fill="#1C274C"/>
</svg>
