<svg width="434" height="405" viewBox="0 0 434 405" fill="none" xmlns="http://www.w3.org/2000/svg">
<g clip-path="url(#clip0_62_21)">
<path d="M113 398C103.611 398 96 390.389 96 381C96 371.611 103.611 364 113 364C122.389 364 130 371.611 130 381C130 390.389 122.389 398 113 398Z" fill="#23E7FF"/>
<mask id="mask0_62_21" style="mask-type:alpha" maskUnits="userSpaceOnUse" x="0" y="0" width="434" height="405">
<path d="M0 0H434V405H0V0Z" fill="#D9D9D9"/>
</mask>
<g mask="url(#mask0_62_21)">
<path d="M-40.5 380C-123.067 380 -190 313.067 -190 230.5C-190 147.933 -123.067 81 -40.5 81C42.0666 81 109 147.933 109 230.5C109 313.067 42.0666 380 -40.5 380Z" fill="#33D9FF"/>
</g>
<path d="M114 296C87.4903 296 66 274.51 66 248C66 221.49 87.4903 200 114 200C140.51 200 162 221.49 162 248C162 274.51 140.51 296 114 296Z" fill="#FEB647"/>
<mask id="mask1_62_21" style="mask-type:alpha" maskUnits="userSpaceOnUse" x="66" y="200" width="96" height="96">
<path d="M114 296C87.4903 296 66 274.51 66 248C66 221.49 87.4903 200 114 200C140.51 200 162 221.49 162 248C162 274.51 140.51 296 114 296Z" fill="#FEB647"/>
</mask>
<g mask="url(#mask1_62_21)">
<path d="M-40.5 380C-123.067 380 -190 313.067 -190 230.5C-190 147.933 -123.067 81 -40.5 81C42.0666 81 109 147.933 109 230.5C109 313.067 42.0666 380 -40.5 380Z" fill="#2AB029"/>
</g>
<path d="M434 0H0V190C64 143.5 153 121.5 221 115C285.5 105 371 117.5 434 0Z" fill="#85798C"/>
<mask id="mask2_62_21" style="mask-type:alpha" maskUnits="userSpaceOnUse" x="0" y="0" width="434" height="190">
<path d="M434 0H0V190C64 143.5 153 121.5 221 115C285.5 105 371 117.5 434 0Z" fill="#85798C"/>
</mask>
<g mask="url(#mask2_62_21)">
<path d="M-40.5 380C-123.067 380 -190 313.067 -190 230.5C-190 147.933 -123.067 81 -40.5 81C42.0666 81 109 147.933 109 230.5C109 313.067 42.0666 380 -40.5 380Z" fill="#4276D9"/>
</g>
</g>
<defs>
<clipPath id="clip0_62_21">
<rect width="434" height="405" fill="white"/>
</clipPath>
</defs>
</svg>
