<svg width="800" height="800" viewBox="0 0 800 800" fill="none" xmlns="http://www.w3.org/2000/svg">
<path d="M77.3007 369.305H291.715C333.975 369.305 368.357 334.923 368.357 292.663V78.249C368.357 35.988 333.975 1.60742 291.715 1.60742H77.3007C35.0411 1.60742 0.65918 35.988 0.65918 78.249V292.663C0.65918 334.923 35.0411 369.305 77.3007 369.305ZM57.1319 78.249C57.1319 67.11 66.1617 58.0802 77.3007 58.0802H291.715C302.854 58.0802 311.884 67.11 311.884 78.249V292.663C311.884 303.802 302.854 312.832 291.715 312.832H77.3007C66.1617 312.832 57.1319 303.802 57.1319 292.663V78.249Z" fill="#8D93A5"/>
<path d="M291.715 369.965H77.3007C34.6772 369.965 0 335.288 0 292.664V78.2499C0 35.6251 34.6772 0.949219 77.3007 0.949219H291.715C334.339 0.949219 369.016 35.6264 369.016 78.2499V292.664C369.016 335.288 334.339 369.965 291.715 369.965ZM77.3007 2.26744C35.4035 2.26744 1.31822 36.3528 1.31822 78.2499V292.664C1.31822 334.561 35.4035 368.647 77.3007 368.647H291.715C333.612 368.647 367.698 334.561 367.698 292.664V78.2499C367.698 36.3528 333.612 2.26744 291.715 2.26744H77.3007ZM291.715 313.491H77.3007C65.8163 313.491 56.4727 304.147 56.4727 292.663V78.2499C56.4727 66.7655 65.8163 57.4219 77.3007 57.4219H291.715C303.2 57.4219 312.543 66.7655 312.543 78.2499V292.664C312.543 304.149 303.2 313.491 291.715 313.491ZM77.3007 58.7402C66.5426 58.7402 57.791 67.4919 57.791 78.2499V292.664C57.791 303.422 66.5426 312.174 77.3007 312.174H291.715C302.473 312.174 311.225 303.422 311.225 292.664V78.2499C311.225 67.4919 302.473 58.7402 291.715 58.7402H77.3007Z" fill="#8D93A5"/>
<path d="M722.701 1.60742H508.286C466.025 1.60742 431.643 35.9893 431.643 78.249V292.663C431.643 334.923 466.025 369.305 508.286 369.305H722.701C764.962 369.305 799.341 334.923 799.341 292.663V78.249C799.341 35.988 764.962 1.60742 722.701 1.60742ZM742.868 292.663C742.868 303.802 733.838 312.832 722.701 312.832H508.286C497.149 312.832 488.116 303.802 488.116 292.663V78.249C488.116 67.11 497.149 58.0802 508.286 58.0802H722.701C733.838 58.0802 742.868 67.11 742.868 78.249V292.663Z" fill="#8D93A5"/>
<path d="M722.701 369.965H508.286C465.661 369.965 430.984 335.288 430.984 292.664V78.2499C430.984 35.6264 465.661 0.949219 508.286 0.949219H722.701C765.323 0.949219 800 35.6264 800 78.2499V292.664C800 335.288 765.323 369.965 722.701 369.965ZM508.286 2.26744C466.389 2.26744 432.302 36.3528 432.302 78.2499V292.664C432.302 334.561 466.388 368.647 508.286 368.647H722.701C764.596 368.647 798.682 334.561 798.682 292.664V78.2499C798.682 36.3528 764.598 2.26744 722.701 2.26744H508.286ZM722.701 313.491H508.286C496.8 313.491 487.457 304.147 487.457 292.663V78.2499C487.457 66.7655 496.8 57.4219 508.286 57.4219H722.701C734.185 57.4219 743.527 66.7655 743.527 78.2499V292.664C743.527 304.149 734.185 313.491 722.701 313.491ZM508.286 58.7402C497.528 58.7402 488.775 67.4919 488.775 78.2499V292.664C488.775 303.422 497.528 312.174 508.286 312.174H722.701C733.457 312.174 742.209 303.422 742.209 292.664V78.2499C742.209 67.4919 733.457 58.7402 722.701 58.7402H508.286Z" fill="#8D93A5"/>
<path d="M77.3007 798.391H291.715C333.975 798.391 368.357 764.012 368.357 721.751V507.336C368.357 465.075 333.975 430.693 291.715 430.693H77.3007C35.0411 430.693 0.65918 465.075 0.65918 507.336V721.751C0.65918 764.012 35.0411 798.391 77.3007 798.391ZM57.1319 507.336C57.1319 496.199 66.1617 487.166 77.3007 487.166H291.715C302.854 487.166 311.884 496.199 311.884 507.336V721.751C311.884 732.888 302.854 741.918 291.715 741.918H77.3007C66.1617 741.918 57.1319 732.888 57.1319 721.751V507.336Z" fill="#8D93A5"/>
<path d="M291.715 799.051H77.3007C34.6772 799.051 0 764.375 0 721.753V507.337C0 464.712 34.6772 430.035 77.3007 430.035H291.715C334.339 430.035 369.016 464.712 369.016 507.337V721.752C369.016 764.375 334.339 799.051 291.715 799.051ZM77.3007 431.355C35.4035 431.355 1.31822 465.44 1.31822 507.337V721.752C1.31822 763.647 35.4035 797.733 77.3007 797.733H291.715C333.612 797.733 367.698 763.649 367.698 721.752V507.337C367.698 465.44 333.612 431.353 291.715 431.353H77.3007V431.355ZM291.715 742.578H77.3007C65.8163 742.578 56.4727 733.236 56.4727 721.752V507.337C56.4727 495.851 65.8163 486.508 77.3007 486.508H291.715C303.2 486.508 312.543 495.851 312.543 507.337V721.752C312.543 733.236 303.2 742.578 291.715 742.578ZM77.3007 487.826C66.5426 487.826 57.791 496.579 57.791 507.337V721.752C57.791 732.508 66.5426 741.26 77.3007 741.26H291.715C302.473 741.26 311.225 732.508 311.225 721.752V507.337C311.225 496.579 302.473 487.826 291.715 487.826H77.3007Z" fill="#8D93A5"/>
<path d="M722.701 430.695H508.286C466.025 430.695 431.643 465.077 431.643 507.338V721.753C431.643 764.014 466.025 798.393 508.286 798.393H722.701C764.962 798.393 799.341 764.014 799.341 721.753V507.337C799.341 465.077 764.962 430.695 722.701 430.695ZM742.868 721.753C742.868 732.89 733.838 741.92 722.701 741.92H508.286C497.149 741.92 488.116 732.89 488.116 721.753V507.337C488.116 496.199 497.149 487.167 508.286 487.167H722.701C733.838 487.167 742.868 496.199 742.868 507.337V721.753Z" fill="#8D93A5"/>
<path d="M722.701 799.051H508.286C465.661 799.051 430.984 764.374 430.984 721.752V507.337C430.984 464.712 465.661 430.035 508.286 430.035H722.701C765.323 430.035 800 464.712 800 507.337V721.752C800 764.375 765.323 799.051 722.701 799.051ZM508.286 431.355C466.389 431.355 432.302 465.44 432.302 507.338V721.753C432.302 763.649 466.388 797.734 508.286 797.734H722.701C764.596 797.734 798.682 763.65 798.682 721.753V507.337C798.682 465.44 764.598 431.353 722.701 431.353H508.286V431.355ZM722.701 742.578H508.286C496.8 742.578 487.457 733.236 487.457 721.752V507.337C487.457 495.851 496.8 486.508 508.286 486.508H722.701C734.185 486.508 743.527 495.851 743.527 507.337V721.752C743.527 733.236 734.185 742.578 722.701 742.578ZM508.286 487.826C497.528 487.826 488.775 496.579 488.775 507.337V721.752C488.775 732.508 497.528 741.26 508.286 741.26H722.701C733.457 741.26 742.209 732.508 742.209 721.752V507.337C742.209 496.579 733.457 487.826 722.701 487.826H508.286Z" fill="#8D93A5"/>
</svg>
