<svg width="668" height="734" viewBox="0 0 668 734" fill="none" xmlns="http://www.w3.org/2000/svg">
<path d="M634 0.333984H34.0001C25.1595 0.333984 16.6811 3.84588 10.4299 10.0971C4.17864 16.3483 0.666748 24.8268 0.666748 33.6673V700.334C0.666748 709.175 4.17864 717.653 10.4299 723.904C16.6811 730.155 25.1595 733.667 34.0001 733.667H500.667C505.049 733.65 509.385 732.778 513.433 731.101C517.485 729.425 521.166 726.967 524.267 723.867L657.6 590.534C663.476 584.056 666.917 575.737 667.333 567.001V33.6673C667.333 24.8268 663.822 16.3483 657.57 10.0971C651.319 3.84588 642.841 0.333984 634 0.333984ZM467.333 567.001V667.001H67.3334V67.0006H600.667V533.667H500.667C491.826 533.667 483.348 537.179 477.096 543.43C470.845 549.682 467.333 558.16 467.333 567.001Z" fill="#8D93A5"/>
<path d="M490.904 323.904C497.155 317.652 500.667 309.174 500.667 300.333C500.667 291.493 497.155 283.014 490.904 276.763C484.653 270.512 476.174 267 467.333 267H200.667C191.826 267 183.348 270.512 177.097 276.763C170.845 283.014 167.333 291.493 167.333 300.333C167.333 309.174 170.845 317.652 177.097 323.904C183.348 330.155 191.826 333.667 200.667 333.667H467.333C476.174 333.667 484.653 330.155 490.904 323.904Z" fill="#1C274C"/>
<path d="M357.57 457.237C363.822 450.986 367.333 442.507 367.333 433.667C367.333 424.826 363.822 416.348 357.57 410.096C351.319 403.845 342.841 400.333 334 400.333H200.667C191.826 400.333 183.348 403.845 177.097 410.096C170.845 416.348 167.333 424.826 167.333 433.667C167.333 442.507 170.845 450.986 177.097 457.237C183.348 463.488 191.826 467 200.667 467H334C342.841 467 351.319 463.488 357.57 457.237Z" fill="#1C274C"/>
</svg>
