<svg width="636" height="696" viewBox="0 0 636 696" fill="none" xmlns="http://www.w3.org/2000/svg">
<path d="M533.625 256.375L632.375 240.875" stroke="#1C274C" stroke-width="37.5"/>
<path d="M502.75 165.5L564.5 129.125" stroke="#1C274C" stroke-width="37.5"/>
<path d="M439.75 98.25L481.25 8" stroke="#1C274C" stroke-width="37.5"/>
<path d="M321.75 85.25L321.25 13.625" stroke="#1C274C" stroke-width="37.5"/>
<path d="M207.25 102.75L173.875 8" stroke="#1C274C" stroke-width="37.5"/>
<path d="M128.5 164.5L65.625 130.25" stroke="#1C274C" stroke-width="37.5"/>
<path d="M100.875 251.25L4 234.875" stroke="#1C274C" stroke-width="37.5"/>
<path d="M231.375 520C231.375 455.5 191.5 401.375 170 361.375C158.055 339.164 151.786 314.344 151.75 289.125C151.75 204.25 229.375 135.375 314.25 135.375" stroke="#8D93A5" stroke-width="37.5"/>
<path d="M397.125 520C397.125 455.5 437 401.375 458.5 361.375C470.445 339.164 476.714 314.344 476.75 289.125C476.75 204.25 399.125 135.375 314.25 135.375" stroke="#8D93A5" stroke-width="37.5"/>
<path d="M409.125 516.5H225.5C210.864 516.5 199 528.364 199 543V543.125C199 557.761 210.864 569.625 225.5 569.625H409.125C423.761 569.625 435.625 557.761 435.625 543.125V543C435.625 528.364 423.761 516.5 409.125 516.5Z" stroke="#8D93A5" stroke-width="37.5"/>
<path d="M394.625 569.5H240C225.364 569.5 213.5 581.364 213.5 596V596.125C213.5 610.761 225.364 622.625 240 622.625H394.625C409.261 622.625 421.125 610.761 421.125 596.125V596C421.125 581.364 409.261 569.5 394.625 569.5Z" stroke="#8D93A5" stroke-width="37.5"/>
<path d="M357.625 622.625V633.125C358.063 638.677 357.347 644.26 355.523 649.523C353.699 654.785 350.806 659.613 347.026 663.704C343.245 667.794 338.66 671.058 333.557 673.29C328.454 675.522 322.945 676.675 317.375 676.675C311.805 676.675 306.296 675.522 301.193 673.29C296.09 671.058 291.505 667.794 287.724 663.704C283.944 659.613 281.051 654.785 279.227 649.523C277.403 644.26 276.687 638.677 277.125 633.125V622.625" stroke="#8D93A5" stroke-width="37.5"/>
<path d="M210.75 279.75C211.374 267.444 214.418 255.382 219.707 244.253C224.997 233.124 232.428 223.148 241.576 214.893C250.725 206.639 261.41 200.269 273.022 196.148C284.634 192.026 296.945 190.235 309.25 190.875" stroke="#8D93A5" stroke-width="37.5"/>
</svg>
