<svg width="393" height="800" viewBox="0 0 393 800" fill="none" xmlns="http://www.w3.org/2000/svg">
<path d="M151.215 252.517C97.1684 277.695 51.2001 321.113 5.19798 384.592C-1.36286 393.644 -1.62703 399.145 5.11255 404.009C9.85089 407.43 12.6042 406.336 19.5051 398.973C20.4288 397.981 20.4288 397.981 21.3734 396.956C27.3392 390.496 32.1451 385.014 42.4109 373.092C76.3305 333.701 92.8984 317.488 118.648 302.659C140.93 289.828 160.513 308.685 156.784 332.818C155.738 339.592 153.935 344.591 149.293 355.327C147.446 359.597 146.667 361.455 145.801 363.731C137.433 385.731 130.384 404.084 115.613 442.412L114.907 444.246C110.441 455.834 110.441 455.834 105.979 467.421C86.6346 517.696 74.8963 548.526 62.7851 581.129L62.0746 583.041C58.8246 591.78 57.2938 595.904 55.6021 600.491C41.7246 638.125 33.7884 662.577 27.7521 688.586C26.8096 692.633 26.8096 692.633 25.8538 696.746C22.453 711.458 20.633 720.938 19.6155 730.682C17.8563 747.532 19.2709 761.329 24.5659 772.925C30.5576 786.047 43.4317 795.434 58.1209 797.566C82.5905 801.118 106.201 800.866 126.424 796.264C137.805 793.677 149.065 790.289 160.113 786.137C192.101 774.109 222.919 755.343 252.767 730.536C278.884 708.771 303.595 682.255 329.503 649.301C331.761 646.447 331.761 646.447 334.012 643.598C341.837 633.62 345.671 627.139 347.102 620.294C348.659 612.862 342.376 605.331 337.355 607.851C334.873 609.096 332.277 611.674 328.321 616.663C325.492 620.294 323.953 622.234 322.414 623.978C316.27 630.934 309.783 638.054 302.754 645.576C291.165 657.973 279.391 670.104 262.314 687.371C253.617 696.166 242.678 703.855 230.918 709.636C212.095 718.885 195.114 707.227 197.154 686.362C198.499 672.588 201.836 658.348 206.825 644.581C217.724 614.489 226.635 590.163 246.35 536.552C254.9 513.301 258.592 503.256 263.203 490.683C276.874 453.422 287.786 423.426 298.169 394.485C310.996 358.734 318.242 332.084 321.597 304.564C324.13 283.807 318.355 263.956 305.185 250.307C290.582 235.177 269.812 228.208 243.944 228.514C215.322 228.854 181.935 238.206 151.215 252.517Z" fill="#8D93A5"/>
<path d="M223.638 74.5772C233.972 20.1247 295.691 -14.2549 347.126 5.75678C376.531 17.1989 392.228 42.5239 392.226 79.2785C392.223 145.35 320.632 190.681 260.98 162.39C230.888 148.118 216.144 114.044 223.638 74.5772Z" fill="#1C274C"/>
</svg>
