<svg width="660" height="450" viewBox="0 0 660 450" fill="none" xmlns="http://www.w3.org/2000/svg">
<path fill-rule="evenodd" clip-rule="evenodd" d="M329.821 0C237.346 0 156.384 55.3737 100.751 106.611C72.4883 132.641 49.693 158.593 33.965 178.02C26.0857 187.75 19.9403 195.893 15.7297 201.657C13.6233 204.54 11.9983 206.83 10.88 208.43C10.3207 209.23 9.88768 209.857 9.58435 210.3L9.22668 210.823L9.12134 210.98L0 225.44L9.08734 238.97L9.12134 239.02L9.22668 239.177L9.58435 239.7C9.88768 240.143 10.3207 240.77 10.88 241.57C11.9983 243.17 13.6233 245.46 15.7297 248.343C19.9403 254.107 26.0857 262.25 33.965 271.98C49.693 291.407 72.4883 317.36 100.751 343.39C156.384 394.627 237.346 450 329.821 450C422.294 450 503.254 394.627 558.888 343.39C587.151 317.36 609.948 291.407 625.674 271.98C633.554 262.25 639.698 254.107 643.911 248.343C646.014 245.46 647.641 243.17 648.758 241.57C649.318 240.77 649.751 240.143 650.054 239.7L650.411 239.177L650.518 239.02L650.564 238.953L659.934 225L650.551 211.03L650.518 210.98L650.411 210.823L650.054 210.3C649.751 209.857 649.318 209.23 648.758 208.43C647.641 206.83 646.014 204.54 643.911 201.657C639.698 195.893 633.554 187.75 625.674 178.02C609.948 158.593 587.151 132.641 558.888 106.611C503.254 55.3737 422.294 0 329.821 0ZM72.825 240.52C68.0456 234.617 63.977 229.37 60.676 225C63.977 220.63 68.0456 215.383 72.825 209.48C87.459 191.407 108.597 167.36 134.624 143.389C187.57 94.6263 256.607 50 329.821 50C403.031 50 472.071 94.6263 525.014 143.389C551.041 167.36 572.181 191.407 586.814 209.48C591.594 215.383 595.661 220.63 598.964 225C595.661 229.37 591.594 234.617 586.814 240.52C572.181 258.593 551.041 282.64 525.014 306.61C472.071 355.373 403.031 400 329.821 400C256.607 400 187.57 355.373 134.624 306.61C108.597 282.64 87.459 258.593 72.825 240.52Z" fill="#8D93A5"/>
<circle cx="330" cy="225" r="98.5" stroke="#1C274C" stroke-width="41"/>
</svg>
