<svg width="668" height="645" viewBox="0 0 668 645" fill="none" xmlns="http://www.w3.org/2000/svg">
<path d="M34 277.667L184 144.333L289.71 50.3695C314.967 27.9172 353.033 27.9172 378.29 50.3695L484 144.333L634 277.667" stroke="#8D93A5" stroke-width="66.6667" stroke-linecap="round" stroke-linejoin="round"/>
<path d="M254 611V451C254 406.816 289.816 371 334 371C378.184 371 414 406.816 414 451V611" stroke="#1C274C" stroke-width="66.6667" stroke-linecap="round" stroke-linejoin="round"/>
<path d="M567.334 211V477.667C567.334 540.52 567.334 571.947 547.807 591.473C528.28 611 496.854 611 434 611H400.667H267.334H234C171.146 611 139.719 611 120.193 591.473C100.667 571.947 100.667 540.52 100.667 477.667V211" stroke="#8D93A5" stroke-width="66.6667" stroke-linejoin="round"/>
</svg>
