<svg width="801" height="558" viewBox="0 0 801 558" fill="none" xmlns="http://www.w3.org/2000/svg">
<path fill-rule="evenodd" clip-rule="evenodd" d="M400.019 0.496094C620.583 0.496094 800.019 179.978 800.019 400.496C800.019 432.637 796.301 464.308 788.913 494.614L784.584 512.59H566.09V465.531H747.03C750.983 444.402 752.96 422.567 752.96 400.496C752.96 205.861 594.607 47.5544 400.019 47.5544C205.383 47.5544 47.0775 205.861 47.0775 400.496C47.0775 422.567 49.0541 444.402 52.96 465.531H256.066V512.59H15.4071L11.0779 494.614C3.73581 464.307 0.0183105 432.637 0.0183105 400.496C0.0183105 179.978 179.454 0.496094 400.019 0.496094ZM626.08 163.282L659.351 196.553L612.386 243.517L579.115 210.247L626.08 163.282ZM173.92 163.282L220.885 210.246L187.614 243.517L140.65 196.552L173.92 163.282ZM423.53 79.3807V145.828H376.47V79.3803L423.53 79.3807Z" fill="#8D93A5"/>
<path d="M502.25 422.806C483.755 387.889 354.861 267.936 329.214 244.218C321.826 237.394 311.097 236.03 302.202 240.736C293.402 245.347 288.508 255.136 289.967 265.018C295.19 299.559 322.155 473.536 340.65 508.453C357.073 539.371 388.837 557.018 421.637 557.018C436.037 557.018 450.673 553.63 464.273 546.43C508.838 522.759 525.873 467.324 502.25 422.806Z" fill="#1C274C"/>
</svg>
