<?xml version="1.0" encoding="utf-8"?>
<!-- Generator: Adobe Illustrator 28.4.1, SVG Export Plug-In . SVG Version: 6.00 Build 0)  -->
<svg version="1.1" id="Layer_1" xmlns="http://www.w3.org/2000/svg" xmlns:xlink="http://www.w3.org/1999/xlink" x="0px" y="0px"
	 viewBox="0 0 512 100" style="enable-background:new 0 0 512 100;" xml:space="preserve">
<style type="text/css">
	.st0{fill:url(#SVGID_1_);}
	.st1{fill:url(#SVGID_00000154396540543355333300000015386658270080198333_);}
	.st2{fill:url(#SVGID_00000008828010528847417580000009728656741039424951_);}
	.st3{fill:url(#SVGID_00000137115474587217043750000007420809339924481159_);}
	.st4{fill:url(#SVGID_00000049912290499965539240000007968679050381932957_);}
	.st5{enable-background:new    ;}
	.st6{fill:#471267;}
</style>
<g id="Layer_1_00000135673605111593415870000011706398039569632151_">
	<g id="test_00000143605868734473028490000000724296060750707615_">
		<g>
			<g id="logo_00000015343452963922862600000007559033924326880911_">
				
					<linearGradient id="SVGID_1_" gradientUnits="userSpaceOnUse" x1="56.8651" y1="919.5881" x2="74.349" y2="820.4321" gradientTransform="matrix(1 0 0 1 0 -820)">
					<stop  offset="0" style="stop-color:#FFACBC"/>
					<stop  offset="1" style="stop-color:#883B71"/>
				</linearGradient>
				<polygon class="st0" points="92.4,33.5 76.4,65.6 57.6,99.7 57.5,99.7 57.5,99.6 38.8,66.6 55.3,33.7 73.5,0.3 73.6,0.3 
					73.8,0.7 				"/>
				<g id="lef_00000160181397889089706930000003037726945475180202_">
					
						<linearGradient id="SVGID_00000039849040112515764120000007178319166215071125_" gradientUnits="userSpaceOnUse" x1="28.75" y1="919.7" x2="28.75" y2="886.5654" gradientTransform="matrix(1 0 0 1 0 -820)">
						<stop  offset="0" style="stop-color:#FFE700"/>
						<stop  offset="1.772900e-02" style="stop-color:#FFE401"/>
						<stop  offset="0.3445" style="stop-color:#F8A912"/>
						<stop  offset="0.6233" style="stop-color:#F47E1E"/>
						<stop  offset="0.8405" style="stop-color:#F16425"/>
						<stop  offset="0.9693" style="stop-color:#F05A28"/>
					</linearGradient>
					<polygon style="fill:url(#SVGID_00000039849040112515764120000007178319166215071125_);" points="57.5,99.7 18.7,99.7 
						18.7,99.6 0,66.6 38.8,66.6 57.5,99.6 					"/>
					
						<linearGradient id="SVGID_00000098220907235012075190000000189298336281020293_" gradientUnits="userSpaceOnUse" x1="42.5787" y1="846.0977" x2="14.3963" y2="894.9116" gradientTransform="matrix(1 0 0 1 0 -820)">
						<stop  offset="0" style="stop-color:#09620B"/>
						<stop  offset="1" style="stop-color:#E8F869"/>
					</linearGradient>
					<polygon style="fill:url(#SVGID_00000098220907235012075190000000189298336281020293_);" points="55.4,33.5 55.4,33.5 
						55.3,33.7 38.8,66.6 0,66.6 18.7,33.5 					"/>
				</g>
				<g id="lef_00000058576077410088434670000012621641635702411455_">
					
						<linearGradient id="SVGID_00000013911295299502053070000001924277150285341571_" gradientUnits="userSpaceOnUse" x1="75.5952" y1="885.5257" x2="131.1858" y2="853.4305" gradientTransform="matrix(1 0 0 1 0 -820)">
						<stop  offset="0" style="stop-color:#008DAC"/>
						<stop  offset="1" style="stop-color:#3AC3DF"/>
					</linearGradient>
					<polygon style="fill:url(#SVGID_00000013911295299502053070000001924277150285341571_);" points="131.1,33.5 112.4,66.6 
						76.1,66.4 76.4,65.6 92.4,33.5 					"/>
					
						<linearGradient id="SVGID_00000051357841247833667310000005951207643999603346_" gradientUnits="userSpaceOnUse" x1="73.6" y1="836.9" x2="131.1" y2="836.9" gradientTransform="matrix(1 0 0 1 0 -820)">
						<stop  offset="0" style="stop-color:#EA4C46"/>
						<stop  offset="0.3445" style="stop-color:#F31930"/>
						<stop  offset="0.6233" style="stop-color:#E22034"/>
						<stop  offset="0.8405" style="stop-color:#E02135"/>
						<stop  offset="0.9693" style="stop-color:#E02135"/>
					</linearGradient>
					<polygon style="fill:url(#SVGID_00000051357841247833667310000005951207643999603346_);" points="131.1,33.5 92.4,33.5 
						73.8,0.7 73.6,0.3 112.4,0.3 112.4,0.4 112.6,0.7 					"/>
				</g>
			</g>
		</g>
		<g>
			<g class="st5">
				<path class="st6" d="M325.5,79.5c0-0.3,0.1-0.5,0.2-0.7c0.2-0.2,0.5-0.3,0.9-0.3h0.1c0.5,0,0.8,0.1,0.9,0.3
					c0.2,0.2,0.2,0.4,0.2,0.7v0.2c0,0.3-0.1,0.5-0.2,0.7c-0.2,0.2-0.5,0.3-0.9,0.3h-0.1c-0.5,0-0.8-0.1-0.9-0.3
					c-0.2-0.2-0.2-0.4-0.2-0.7V79.5z M325.6,81.9v6.9h2.2v-6l-1.7-1L325.6,81.9L325.6,81.9z"/>
				<path class="st6" d="M332.1,81.9l0.7,0.4c0.4-0.2,0.9-0.4,1.4-0.5s1.1-0.2,1.7-0.2c0.8,0,1.4,0.1,1.9,0.3
					c0.5,0.2,0.9,0.4,1.2,0.7c0.3,0.3,0.5,0.7,0.6,1.1s0.2,0.9,0.2,1.3v3.7h-2.2v-3.5c0-0.2,0-0.4,0-0.7c0-0.2-0.1-0.4-0.2-0.6
					s-0.3-0.3-0.6-0.4c-0.2-0.1-0.6-0.1-1.1-0.1c-0.4,0-0.7,0-1.1,0.1c-0.3,0.1-0.7,0.1-1,0.2v4.9h-2.2v-6.9h0.7V81.9z"/>
				<path class="st6" d="M343.3,81.3c0-0.4,0.1-0.8,0.2-1.2c0.1-0.3,0.3-0.6,0.6-0.9c0.3-0.2,0.6-0.4,1-0.5s0.9-0.2,1.5-0.2
					c0.2,0,0.5,0,0.7,0s0.4,0.1,0.6,0.1v2c-0.2-0.1-0.3-0.1-0.5-0.1s-0.4,0-0.6,0c-0.3,0-0.5,0-0.7,0.1c-0.2,0-0.3,0.1-0.4,0.2
					s-0.1,0.2-0.1,0.3c0,0.1,0,0.3,0,0.4v0.4h3.8l1.7,1v6h-2.2v-5h-3.3v5h-2.2v-7.6C343.4,81.3,343.3,81.3,343.3,81.3z M348.6,79.7
					c0,0.3,0.1,0.5,0.2,0.7c0.2,0.2,0.5,0.3,0.9,0.3h0.1c0.5,0,0.8-0.1,0.9-0.3c0.2-0.2,0.2-0.4,0.2-0.7v-0.2c0-0.3-0.1-0.5-0.2-0.7
					c-0.2-0.2-0.5-0.3-0.9-0.3h-0.1c-0.5,0-0.8,0.1-0.9,0.3c-0.2,0.2-0.2,0.4-0.2,0.7V79.7z"/>
				<path class="st6" d="M355.3,81.9l0.7,0.4c0.4-0.2,0.9-0.4,1.4-0.5s1.1-0.2,1.7-0.2c0.8,0,1.4,0.1,1.9,0.3
					c0.5,0.2,0.9,0.4,1.2,0.7c0.3,0.3,0.5,0.7,0.6,1.1s0.2,0.9,0.2,1.3v3.7h-2.2v-3.5c0-0.2,0-0.4,0-0.7c0-0.2-0.1-0.4-0.2-0.6
					s-0.3-0.3-0.6-0.4c-0.2-0.1-0.6-0.1-1.1-0.1c-0.4,0-0.7,0-1.1,0.1c-0.3,0.1-0.7,0.1-1,0.2v4.9h-2.2v-6.9h0.7V81.9z"/>
				<path class="st6" d="M366.6,79.5c0-0.3,0.1-0.5,0.2-0.7c0.2-0.2,0.5-0.3,0.9-0.3h0.1c0.5,0,0.8,0.1,0.9,0.3
					c0.2,0.2,0.2,0.4,0.2,0.7v0.2c0,0.3-0.1,0.5-0.2,0.7c-0.2,0.2-0.5,0.3-0.9,0.3h-0.1c-0.5,0-0.8-0.1-0.9-0.3
					c-0.2-0.2-0.2-0.4-0.2-0.7V79.5z M366.7,81.9v6.9h2.2v-6l-1.7-1L366.7,81.9L366.7,81.9z"/>
				<path class="st6" d="M374.7,81.9h2.1v1.9h-2.1V86c0,0.2,0,0.3,0,0.4s0.1,0.2,0.2,0.3c0.1,0.1,0.2,0.1,0.4,0.2
					c0.2,0,0.4,0.1,0.7,0.1c0.2,0,0.4,0,0.7,0s0.4-0.1,0.6-0.1v2c-0.2,0-0.4,0.1-0.6,0.1s-0.5,0-0.7,0c-0.6,0-1.2-0.1-1.6-0.2
					s-0.8-0.3-1.1-0.5c-0.3-0.2-0.5-0.5-0.6-0.8s-0.2-0.7-0.2-1.2v-7.2h0.6l1.7,1v1.8C374.8,81.9,374.7,81.9,374.7,81.9z"/>
				<path class="st6" d="M384.6,89.1c-0.8,0-1.4-0.1-1.9-0.3c-0.5-0.2-0.9-0.4-1.2-0.7c-0.3-0.3-0.5-0.7-0.6-1.1s-0.2-0.9-0.2-1.3
					v-0.6c0-0.5,0.1-0.9,0.2-1.3s0.3-0.8,0.6-1.1c0.3-0.3,0.7-0.6,1.2-0.7c0.5-0.2,1.1-0.3,1.9-0.3h0.4c0.8,0,1.4,0.1,1.9,0.2
					s0.9,0.3,1.2,0.5c0.3,0.2,0.5,0.4,0.6,0.7c0.1,0.3,0.2,0.6,0.2,0.9l0,0c0,0.3,0,0.5-0.1,0.8c-0.1,0.2-0.2,0.5-0.5,0.7
					s-0.6,0.3-1.1,0.5c-0.5,0.1-1.2,0.2-2.1,0.2c-0.4,0-0.8,0-1.1-0.1c-0.4,0-0.7-0.1-1-0.2c0,0.2,0,0.4,0.1,0.5
					c0.1,0.2,0.2,0.3,0.3,0.4c0.2,0.1,0.4,0.2,0.6,0.3c0.3,0.1,0.6,0.1,1.1,0.1c0.2,0,0.5,0,0.7,0c0.3,0,0.6,0,0.8-0.1
					c0.3,0,0.6-0.1,0.9-0.1s0.5-0.1,0.8-0.2v2.1c-0.2,0.1-0.5,0.1-0.8,0.1s-0.6,0.1-0.9,0.1s-0.6,0.1-0.9,0.1s-0.6,0-0.8,0
					L384.6,89.1L384.6,89.1L384.6,89.1z M385,83.4c-0.4,0-0.7,0-0.9,0.1c-0.2,0-0.5,0.1-0.6,0.2c-0.2,0.1-0.3,0.2-0.4,0.3
					c-0.1,0.1-0.1,0.3-0.2,0.4c0.3,0.1,0.6,0.1,0.9,0.2c0.3,0,0.7,0,1.1,0s0.7,0,1,0c0.2,0,0.4-0.1,0.5-0.1c0.1-0.1,0.2-0.1,0.2-0.2
					s0-0.1,0-0.2s0-0.1,0-0.2s-0.1-0.1-0.2-0.2s-0.3-0.1-0.5-0.2C385.7,83.4,385.4,83.4,385,83.4z"/>
				<path class="st6" d="M398.2,81.9l0.7,0.4c0.4-0.2,0.9-0.4,1.4-0.5s1.1-0.2,1.7-0.2c0.8,0,1.4,0.1,1.9,0.3
					c0.5,0.2,0.9,0.4,1.2,0.7c0.3,0.3,0.5,0.7,0.6,1.1s0.2,0.9,0.2,1.3v0.6c0,0.5-0.1,0.9-0.2,1.3s-0.3,0.8-0.6,1.1
					c-0.3,0.3-0.7,0.6-1.2,0.7c-0.5,0.2-1.1,0.3-1.9,0.3c-0.4,0-0.8,0-1.1-0.1c-0.4-0.1-0.7-0.1-1-0.2v3.5h-2.2V81.9H398.2z
					 M401.9,83.7c-0.4,0-0.7,0-1.1,0.1c-0.3,0.1-0.6,0.1-1,0.2v2.9c0.6,0.2,1.3,0.3,2,0.3c0.5,0,0.8,0,1.1-0.1
					c0.2-0.1,0.4-0.2,0.6-0.4c0.1-0.2,0.2-0.3,0.2-0.6c0-0.2,0-0.4,0-0.7s0-0.4,0-0.7c0-0.2-0.1-0.4-0.2-0.6s-0.3-0.3-0.6-0.4
					C402.7,83.7,402.4,83.7,401.9,83.7z"/>
				<path class="st6" d="M409.5,85.1c0-0.5,0.1-0.9,0.2-1.3s0.3-0.8,0.6-1.1c0.3-0.3,0.7-0.6,1.2-0.7c0.5-0.2,1.1-0.3,1.9-0.3h0.4
					c0.8,0,1.4,0.1,1.9,0.3c0.5,0.2,0.9,0.4,1.2,0.7c0.3,0.3,0.5,0.7,0.6,1.1s0.2,0.9,0.2,1.3v0.6c0,0.5-0.1,0.9-0.2,1.3
					s-0.3,0.8-0.6,1.1c-0.3,0.3-0.7,0.6-1.2,0.7c-0.5,0.2-1.1,0.3-1.9,0.3h-0.4c-0.8,0-1.4-0.1-1.9-0.3c-0.5-0.2-0.9-0.4-1.2-0.7
					c-0.3-0.3-0.5-0.7-0.6-1.1s-0.2-0.9-0.2-1.3V85.1z M411.7,85.4c0,0.2,0,0.4,0,0.7c0,0.2,0.1,0.4,0.2,0.6s0.3,0.3,0.6,0.4
					c0.3,0.1,0.6,0.1,1.1,0.1s0.9,0,1.1-0.1c0.3-0.1,0.5-0.2,0.6-0.4s0.2-0.3,0.2-0.6c0-0.2,0-0.4,0-0.7s0-0.4,0-0.7
					c0-0.2-0.1-0.4-0.2-0.6s-0.3-0.3-0.6-0.4c-0.3-0.1-0.6-0.1-1.1-0.1s-0.9,0-1.1,0.1c-0.3,0.1-0.5,0.2-0.6,0.4
					c-0.1,0.2-0.2,0.3-0.2,0.6S411.7,85.2,411.7,85.4z"/>
				<path class="st6" d="M424.9,87.3c0.4,0,0.6,0,0.8,0c0.2,0,0.4-0.1,0.5-0.1s0.2-0.1,0.2-0.1s0-0.1,0-0.2c0-0.2-0.1-0.3-0.4-0.4
					c-0.3,0-0.7-0.1-1.2-0.1c-0.2,0-0.4,0-0.7,0c-0.3,0-0.5-0.1-0.8-0.1s-0.5-0.1-0.8-0.2s-0.5-0.2-0.7-0.4
					c-0.2-0.2-0.4-0.4-0.5-0.6s-0.2-0.6-0.2-0.9v-0.1c0-0.3,0.1-0.6,0.2-0.9s0.3-0.5,0.6-0.7c0.3-0.2,0.7-0.4,1.1-0.5
					c0.5-0.1,1.1-0.2,1.8-0.2h0.4c0.5,0,1,0,1.5,0.1s1,0.1,1.5,0.3v1.9c-0.6-0.1-1.1-0.2-1.6-0.3c-0.5-0.1-1.1-0.1-1.7-0.1
					c-0.4,0-0.6,0-0.8,0c-0.2,0-0.4,0.1-0.5,0.1s-0.2,0.1-0.2,0.1c0,0.1,0,0.1,0,0.2c0,0.2,0.1,0.3,0.4,0.4c0.2,0.1,0.7,0.1,1.2,0.1
					c0.2,0,0.4,0,0.6,0c0.3,0,0.5,0,0.8,0.1s0.5,0.1,0.8,0.2s0.5,0.2,0.7,0.4c0.2,0.2,0.4,0.4,0.5,0.6s0.2,0.6,0.2,0.9v0.1
					c0,0.3-0.1,0.6-0.2,0.9s-0.3,0.5-0.6,0.7c-0.3,0.2-0.7,0.4-1.1,0.5c-0.5,0.1-1.1,0.2-1.8,0.2h-0.4c-0.6,0-1.2,0-1.7-0.1
					c-0.6-0.1-1.1-0.1-1.7-0.3v-1.9c0.6,0.1,1.2,0.2,1.9,0.3C423.7,87.2,424.3,87.3,424.9,87.3z"/>
				<path class="st6" d="M435.8,87.3c0.4,0,0.6,0,0.8,0c0.2,0,0.4-0.1,0.5-0.1s0.2-0.1,0.2-0.1s0-0.1,0-0.2c0-0.2-0.1-0.3-0.4-0.4
					c-0.3,0-0.7-0.1-1.2-0.1c-0.2,0-0.4,0-0.7,0c-0.3,0-0.5-0.1-0.8-0.1s-0.5-0.1-0.8-0.2s-0.5-0.2-0.7-0.4
					c-0.2-0.2-0.4-0.4-0.5-0.6s-0.2-0.6-0.2-0.9v-0.1c0-0.3,0.1-0.6,0.2-0.9s0.3-0.5,0.6-0.7c0.3-0.2,0.7-0.4,1.1-0.5
					c0.5-0.1,1.1-0.2,1.8-0.2h0.4c0.5,0,1,0,1.5,0.1s1,0.1,1.5,0.3v1.9c-0.6-0.1-1.1-0.2-1.6-0.3c-0.5-0.1-1.1-0.1-1.7-0.1
					c-0.4,0-0.6,0-0.8,0c-0.2,0-0.4,0.1-0.5,0.1s-0.2,0.1-0.2,0.1c0,0.1,0,0.1,0,0.2c0,0.2,0.1,0.3,0.4,0.4c0.2,0.1,0.7,0.1,1.2,0.1
					c0.2,0,0.4,0,0.6,0c0.3,0,0.5,0,0.8,0.1s0.5,0.1,0.8,0.2s0.5,0.2,0.7,0.4c0.2,0.2,0.4,0.4,0.5,0.6s0.2,0.6,0.2,0.9v0.1
					c0,0.3-0.1,0.6-0.2,0.9s-0.3,0.5-0.6,0.7c-0.3,0.2-0.7,0.4-1.1,0.5c-0.5,0.1-1.1,0.2-1.8,0.2h-0.4c-0.6,0-1.2,0-1.7-0.1
					c-0.6-0.1-1.1-0.1-1.7-0.3v-1.9c0.6,0.1,1.2,0.2,1.9,0.3C434.6,87.2,435.2,87.3,435.8,87.3z"/>
				<path class="st6" d="M443,79.5c0-0.3,0.1-0.5,0.2-0.7c0.2-0.2,0.5-0.3,0.9-0.3h0.1c0.5,0,0.8,0.1,0.9,0.3
					c0.2,0.2,0.2,0.4,0.2,0.7v0.2c0,0.3-0.1,0.5-0.2,0.7c-0.2,0.2-0.5,0.3-0.9,0.3h-0.1c-0.5,0-0.8-0.1-0.9-0.3
					c-0.2-0.2-0.2-0.4-0.2-0.7V79.5z M443.2,81.9v6.9h2.2v-6l-1.7-1L443.2,81.9L443.2,81.9z"/>
				<path class="st6" d="M451.2,82c0.3-0.1,0.7-0.2,1-0.2c0.4-0.1,0.7-0.1,1.1-0.1c0.8,0,1.4,0.1,1.9,0.3c0.5,0.2,0.9,0.4,1.2,0.7
					c0.3,0.3,0.5,0.7,0.6,1.1s0.2,0.9,0.2,1.3v0.6c0,0.5-0.1,0.9-0.2,1.3s-0.3,0.8-0.6,1.1c-0.3,0.3-0.7,0.6-1.2,0.7
					c-0.5,0.2-1.2,0.3-1.9,0.3h-0.4c-0.8,0-1.4-0.1-1.9-0.3c-0.5-0.2-0.9-0.4-1.2-0.7c-0.3-0.3-0.5-0.7-0.6-1.1s-0.2-0.9-0.2-1.3
					v-7.2h0.6l1.7,1V82H451.2z M453.2,83.7c-0.4,0-0.7,0-1.1,0.1c-0.3,0.1-0.6,0.1-1,0.2v1.4c0,0.2,0,0.4,0,0.7
					c0,0.2,0.1,0.4,0.2,0.6s0.3,0.3,0.6,0.4c0.3,0.1,0.6,0.1,1.1,0.1s0.9,0,1.1-0.1c0.3-0.1,0.5-0.2,0.6-0.4
					c0.1-0.2,0.2-0.3,0.2-0.6c0-0.2,0-0.4,0-0.7s0-0.4,0-0.7c0-0.2-0.1-0.4-0.2-0.6s-0.3-0.3-0.6-0.4
					C454.1,83.7,453.7,83.7,453.2,83.7z"/>
				<path class="st6" d="M460.8,79.5c0-0.3,0.1-0.5,0.2-0.7c0.2-0.2,0.5-0.3,0.9-0.3h0.1c0.5,0,0.8,0.1,0.9,0.3
					c0.2,0.2,0.2,0.4,0.2,0.7v0.2c0,0.3-0.1,0.5-0.2,0.7c-0.2,0.2-0.5,0.3-0.9,0.3l0,0c-0.5,0-0.8-0.1-0.9-0.3
					c-0.2-0.2-0.2-0.4-0.2-0.7v-0.2H460.8z M460.9,81.9v6.9h2.2v-6l-1.7-1L460.9,81.9L460.9,81.9z"/>
				<path class="st6" d="M467.4,78.5l1.7,1v9.4h-2.2V78.5H467.4z"/>
				<path class="st6" d="M472.7,79.5c0-0.3,0.1-0.5,0.2-0.7c0.2-0.2,0.5-0.3,0.9-0.3h0.1c0.5,0,0.8,0.1,0.9,0.3
					c0.2,0.2,0.2,0.4,0.2,0.7v0.2c0,0.3-0.1,0.5-0.2,0.7c-0.2,0.2-0.5,0.3-0.9,0.3h-0.1c-0.5,0-0.8-0.1-0.9-0.3
					c-0.2-0.2-0.2-0.4-0.2-0.7V79.5z M472.8,81.9v6.9h2.2v-6l-1.7-1L472.8,81.9L472.8,81.9z"/>
				<path class="st6" d="M480.8,81.9h2.1v1.9h-2.1V86c0,0.2,0,0.3,0,0.4s0.1,0.2,0.2,0.3c0.1,0.1,0.2,0.1,0.4,0.2
					c0.2,0,0.4,0.1,0.7,0.1c0.2,0,0.4,0,0.7,0s0.4-0.1,0.6-0.1v2c-0.2,0-0.4,0.1-0.6,0.1s-0.5,0-0.7,0c-0.6,0-1.2-0.1-1.6-0.2
					s-0.8-0.3-1.1-0.5c-0.3-0.2-0.5-0.5-0.6-0.8s-0.2-0.7-0.2-1.2v-7.2h0.6l1.7,1v1.8C480.9,81.9,480.8,81.9,480.8,81.9z"/>
				<path class="st6" d="M486.8,79.5c0-0.3,0.1-0.5,0.2-0.7c0.2-0.2,0.5-0.3,0.9-0.3h0.1c0.5,0,0.8,0.1,0.9,0.3
					c0.2,0.2,0.2,0.4,0.2,0.7v0.2c0,0.3-0.1,0.5-0.2,0.7c-0.2,0.2-0.5,0.3-0.9,0.3h-0.1c-0.5,0-0.8-0.1-0.9-0.3
					c-0.2-0.2-0.2-0.4-0.2-0.7V79.5z M486.9,81.9v6.9h2.2v-6l-1.7-1L486.9,81.9L486.9,81.9z"/>
				<path class="st6" d="M496.7,89.1c-0.8,0-1.4-0.1-1.9-0.3c-0.5-0.2-0.9-0.4-1.2-0.7c-0.3-0.3-0.5-0.7-0.6-1.1s-0.2-0.9-0.2-1.3
					v-0.6c0-0.5,0.1-0.9,0.2-1.3s0.3-0.8,0.6-1.1c0.3-0.3,0.7-0.6,1.2-0.7c0.5-0.2,1.1-0.3,1.9-0.3h0.4c0.8,0,1.4,0.1,1.9,0.2
					s0.9,0.3,1.2,0.5c0.3,0.2,0.5,0.4,0.6,0.7c0.1,0.3,0.2,0.6,0.2,0.9l0,0c0,0.3,0,0.5-0.1,0.8c-0.1,0.2-0.2,0.5-0.5,0.7
					s-0.6,0.3-1.1,0.5c-0.5,0.1-1.2,0.2-2.1,0.2c-0.4,0-0.8,0-1.1-0.1c-0.4,0-0.7-0.1-1-0.2c0,0.2,0,0.4,0.1,0.5
					c0.1,0.2,0.2,0.3,0.3,0.4c0.2,0.1,0.4,0.2,0.6,0.3c0.3,0.1,0.6,0.1,1.1,0.1c0.2,0,0.5,0,0.7,0c0.3,0,0.6,0,0.8-0.1
					c0.3,0,0.6-0.1,0.9-0.1s0.5-0.1,0.8-0.2v2.1c-0.2,0.1-0.5,0.1-0.8,0.1s-0.6,0.1-0.9,0.1s-0.6,0.1-0.9,0.1s-0.6,0-0.8,0
					L496.7,89.1L496.7,89.1L496.7,89.1z M497.1,83.4c-0.4,0-0.7,0-0.9,0.1c-0.2,0-0.5,0.1-0.6,0.2c-0.2,0.1-0.3,0.2-0.4,0.3
					c-0.1,0.1-0.1,0.3-0.2,0.4c0.3,0.1,0.6,0.1,0.9,0.2c0.3,0,0.7,0,1.1,0s0.7,0,1,0c0.2,0,0.4-0.1,0.5-0.1c0.1-0.1,0.2-0.1,0.2-0.2
					s0-0.1,0-0.2s0-0.1,0-0.2s-0.1-0.1-0.2-0.2s-0.3-0.1-0.5-0.2C497.7,83.4,497.4,83.4,497.1,83.4z"/>
				<path class="st6" d="M508,87.3c0.4,0,0.6,0,0.8,0c0.2,0,0.4-0.1,0.5-0.1s0.2-0.1,0.2-0.1s0-0.1,0-0.2c0-0.2-0.1-0.3-0.4-0.4
					c-0.3,0-0.7-0.1-1.2-0.1c-0.2,0-0.4,0-0.7,0c-0.3,0-0.5-0.1-0.8-0.1s-0.5-0.1-0.8-0.2s-0.5-0.2-0.7-0.4
					c-0.2-0.2-0.4-0.4-0.5-0.6s-0.2-0.6-0.2-0.9v-0.1c0-0.3,0.1-0.6,0.2-0.9s0.3-0.5,0.6-0.7c0.3-0.2,0.7-0.4,1.1-0.5
					c0.5-0.1,1.1-0.2,1.8-0.2h0.4c0.5,0,1,0,1.5,0.1s1,0.1,1.5,0.3v1.9c-0.6-0.1-1.1-0.2-1.6-0.3c-0.5-0.1-1.1-0.1-1.7-0.1
					c-0.4,0-0.6,0-0.8,0c-0.2,0-0.4,0.1-0.5,0.1s-0.2,0.1-0.2,0.1c0,0.1,0,0.1,0,0.2c0,0.2,0.1,0.3,0.4,0.4c0.2,0.1,0.7,0.1,1.2,0.1
					c0.2,0,0.4,0,0.6,0c0.3,0,0.5,0,0.8,0.1s0.5,0.1,0.8,0.2s0.5,0.2,0.7,0.4c0.2,0.2,0.4,0.4,0.5,0.6s0.2,0.6,0.2,0.9v0.1
					c0,0.3-0.1,0.6-0.2,0.9s-0.3,0.5-0.6,0.7s-0.7,0.4-1.1,0.5c-0.5,0.1-1.1,0.2-1.8,0.2h-0.4c-0.6,0-1.2,0-1.7-0.1
					c-0.6-0.1-1.1-0.1-1.7-0.3v-1.9c0.6,0.1,1.2,0.2,1.9,0.3C506.8,87.2,507.4,87.3,508,87.3z"/>
			</g>
			<g class="st5">
				<path d="M162.9,60.7c1.7,0,3.1-0.1,4.1-0.3s1.7-0.4,2.2-0.7s0.8-0.6,0.9-0.9c0.1-0.3,0.2-0.6,0.2-0.9c0-0.6-0.1-1-0.4-1.4
					c-0.3-0.3-0.7-0.6-1.3-0.8s-1.4-0.3-2.4-0.4c-1-0.1-2.2-0.1-3.5-0.2c-0.8,0-1.7-0.1-2.8-0.1c-1.1-0.1-2.2-0.2-3.4-0.4
					s-2.3-0.5-3.4-0.9c-1.1-0.4-2.1-1-3-1.7s-1.6-1.6-2.1-2.7c-0.5-1.1-0.8-2.4-0.8-4v-0.6c0-1.4,0.2-2.7,0.7-4s1.3-2.4,2.5-3.3
					c1.2-1,2.8-1.7,4.8-2.3s4.6-0.8,7.6-0.8h1.7c2.2,0,4.3,0.1,6.4,0.4c2.1,0.3,4.1,0.7,6.1,1.2v7.9c-2.3-0.5-4.6-1-6.9-1.3
					c-2.3-0.3-4.6-0.5-7-0.5c-1.7,0-3.1,0.1-4.1,0.3s-1.7,0.4-2.2,0.7s-0.8,0.6-0.9,0.9c-0.1,0.3-0.2,0.6-0.2,0.9
					c0,0.6,0.1,1,0.4,1.4c0.3,0.4,0.7,0.6,1.3,0.8s1.4,0.3,2.4,0.4c1,0.1,2.1,0.1,3.5,0.2c0.8,0,1.7,0.1,2.7,0.1
					c1.1,0,2.2,0.2,3.3,0.4c1.2,0.2,2.3,0.5,3.5,0.9c1.1,0.4,2.2,1,3,1.7c0.9,0.7,1.6,1.6,2.2,2.7c0.6,1.1,0.8,2.4,0.8,4V58
					c0,1.4-0.2,2.7-0.7,3.9s-1.4,2.4-2.6,3.3c-1.2,1-2.8,1.7-4.8,2.3c-2,0.6-4.6,0.8-7.6,0.8h-1.7c-2.5,0-5-0.1-7.4-0.4
					s-4.7-0.6-7-1.1v-8.1c2.6,0.6,5.3,1,8,1.4C157.8,60.5,160.4,60.7,162.9,60.7z"/>
				<path d="M197,67.4V42.9h-12.5v-7.7h33.6v7.7h-12.5v24.5H197z"/>
				<path d="M249.7,67.4l-6.4-10.1c-1.7,0-3.4,0-5,0s-3.2-0.2-4.7-0.4v10.6H225V35.3c2.8-0.3,5.6-0.6,8.7-0.7c3-0.2,6-0.2,8.9-0.2
					h1.3c2.7,0,4.9,0.3,6.7,0.8c1.8,0.6,3.2,1.3,4.2,2.3c1.1,1,1.8,2.1,2.2,3.4c0.4,1.3,0.6,2.6,0.6,4.1v1.9c0,2-0.4,3.8-1.2,5.5
					c-0.8,1.6-2.2,2.9-4.3,3.8l5.9,9.4v1.9L249.7,67.4L249.7,67.4z M242.6,42c-1.1,0-2.5,0-4.1,0.1s-3.3,0.2-4.9,0.3v6.8
					c1.5,0.2,2.9,0.3,4.3,0.4c1.3,0,2.4,0.1,3.3,0.1c1.9,0,3.4-0.1,4.5-0.3s1.8-0.4,2.3-0.8c0.5-0.4,0.8-0.8,0.9-1.3
					c0.1-0.5,0.1-1.2,0.1-2c0-0.4,0-0.8-0.1-1.2s-0.3-0.8-0.7-1.1s-1-0.6-1.9-0.7C245.3,42.1,244.1,42,242.6,42z"/>
				<path d="M264.3,67.4v-1.9l14.3-30.2h8.6l14.3,30.2v1.9h-7.8l-2.8-6.2h-16.2l-2.7,6.2H264.3z M287.8,54l-4.9-11L278,54H287.8z"/>
				<path d="M314,67.4V42.9h-12.5v-7.7h33.6v7.7h-12.5v24.5H314z"/>
				<path d="M366.7,67.4l-6.4-10.1c-1.7,0-3.4,0-5,0s-3.2-0.2-4.7-0.4v10.6H342V35.3c2.8-0.3,5.6-0.6,8.7-0.7c3-0.2,6-0.2,8.9-0.2
					h1.3c2.7,0,4.9,0.3,6.7,0.8c1.8,0.6,3.2,1.3,4.2,2.3c1.1,1,1.8,2.1,2.2,3.4c0.4,1.3,0.6,2.6,0.6,4.1v1.9c0,2-0.4,3.8-1.2,5.5
					c-0.8,1.6-2.2,2.9-4.3,3.8l5.9,9.4v1.9L366.7,67.4L366.7,67.4z M359.6,42c-1.1,0-2.5,0-4.1,0.1s-3.3,0.2-4.9,0.3v6.8
					c1.5,0.2,2.9,0.3,4.3,0.4c1.3,0,2.4,0.1,3.3,0.1c1.9,0,3.4-0.1,4.5-0.3s1.8-0.4,2.3-0.8c0.5-0.4,0.8-0.8,0.9-1.3s0.1-1.2,0.1-2
					c0-0.4,0-0.8-0.1-1.2s-0.3-0.8-0.7-1.1c-0.4-0.3-1-0.6-1.9-0.7C362.4,42.1,361.1,42,359.6,42z"/>
				<path d="M382,50.1c0-2.2,0.3-4.2,0.8-6.1c0.5-1.9,1.5-3.6,2.9-5s3.2-2.6,5.5-3.4c2.3-0.8,5.2-1.2,8.7-1.2h1.7
					c3.5,0,6.4,0.4,8.7,1.2c2.3,0.8,4.1,2,5.5,3.4s2.3,3.1,2.9,5c0.5,1.9,0.8,4,0.8,6.1v2.5c0,2.2-0.3,4.2-0.8,6.1
					c-0.5,1.9-1.5,3.6-2.9,5s-3.2,2.6-5.5,3.4s-5.2,1.2-8.7,1.2h-1.7c-3.5,0-6.4-0.4-8.7-1.2c-2.3-0.8-4.1-2-5.5-3.4s-2.3-3.1-2.9-5
					c-0.5-1.9-0.8-4-0.8-6.1V50.1z M390.6,51.3c0,1.2,0.1,2.4,0.2,3.5s0.5,2.1,1.1,3s1.6,1.6,3,2.1s3.3,0.8,5.8,0.8s4.5-0.3,5.8-0.8
					c1.4-0.5,2.4-1.2,3-2.1c0.6-0.9,1-1.9,1.1-3s0.2-2.3,0.2-3.5s-0.1-2.4-0.2-3.5s-0.5-2.1-1.1-3s-1.6-1.6-3-2.1s-3.3-0.8-5.8-0.8
					s-4.5,0.3-5.8,0.8c-1.4,0.5-2.4,1.2-3,2.1c-0.6,0.9-1,1.9-1.1,3C390.7,49,390.6,50.1,390.6,51.3z"/>
				<path d="M426.9,50.1c0-2.2,0.3-4.2,0.8-6.1c0.5-1.9,1.5-3.6,2.9-5s3.2-2.6,5.5-3.4c2.3-0.8,5.2-1.2,8.7-1.2h1.7
					c3.5,0,6.4,0.4,8.7,1.2c2.3,0.8,4.1,2,5.5,3.4s2.3,3.1,2.9,5c0.5,1.9,0.8,4,0.8,6.1v2.5c0,2.2-0.3,4.2-0.8,6.1
					c-0.5,1.9-1.5,3.6-2.9,5s-3.2,2.6-5.5,3.4s-5.2,1.2-8.7,1.2h-1.7c-3.5,0-6.4-0.4-8.7-1.2c-2.3-0.8-4.1-2-5.5-3.4s-2.3-3.1-2.9-5
					c-0.5-1.9-0.8-4-0.8-6.1V50.1z M435.5,51.3c0,1.2,0.1,2.4,0.2,3.5s0.5,2.1,1.1,3s1.6,1.6,3,2.1s3.3,0.8,5.8,0.8s4.5-0.3,5.8-0.8
					c1.4-0.5,2.4-1.2,3-2.1c0.6-0.9,1-1.9,1.1-3s0.2-2.3,0.2-3.5s-0.1-2.4-0.2-3.5s-0.5-2.1-1.1-3s-1.6-1.6-3-2.1s-3.3-0.8-5.8-0.8
					s-4.5,0.3-5.8,0.8c-1.4,0.5-2.4,1.2-3,2.1c-0.6,0.9-1,1.9-1.1,3C435.6,49,435.5,50.1,435.5,51.3z"/>
				<path d="M489.9,60.8l-9-12.6v19.2h-8.6V35.3h8.6l11.2,16.5l11.2-16.5h8.6v32.1h-8.6V48.2l-9,12.6
					C494.3,60.8,489.9,60.8,489.9,60.8z"/>
			</g>
		</g>
	</g>
</g>
<g id="Layer_1_copy">
</g>
</svg>
