<svg width="616" height="616" viewBox="0 0 616 616" fill="none" xmlns="http://www.w3.org/2000/svg">
<path d="M8 308C8 60.95 60.95 8 308 8C555.05 8 608 60.95 608 308C608 555.05 555.05 608 308 608C60.95 608 8 555.05 8 308Z" stroke="#8D93A5" stroke-width="15"/>
<path fill-rule="evenodd" clip-rule="evenodd" d="M273 237.5C273 178.682 320.682 131 379.5 131C438.318 131 486 178.682 486 237.5C486 296.318 438.318 344 379.5 344C320.682 344 273 296.318 273 237.5Z" fill="#1C274C"/>
<path fill-rule="evenodd" clip-rule="evenodd" d="M131 371C131 326.817 166.817 291 211 291C255.183 291 291 326.817 291 371C291 415.183 255.183 451 211 451C166.817 451 131 415.183 131 371Z" fill="#1C274C"/>
<path fill-rule="evenodd" clip-rule="evenodd" d="M326 424C326 389.758 353.982 362 388.5 362C423.018 362 451 389.758 451 424C451 458.242 423.018 486 388.5 486C353.982 486 326 458.242 326 424Z" fill="#1C274C"/>
</svg>
