<?xml version="1.0" encoding="utf-8"?>
<!-- Generator: Adobe Illustrator 28.4.1, SVG Export Plug-In . SVG Version: 6.00 Build 0)  -->
<svg version="1.1" id="Layer_1" xmlns="http://www.w3.org/2000/svg" xmlns:xlink="http://www.w3.org/1999/xlink" x="0px" y="0px"
	 viewBox="0 0 16 16" style="enable-background:new 0 0 16 16;" xml:space="preserve">
<style type="text/css">
	.st0{fill:#3E3D63;}
	.st1{fill:#F1F2F2;}
	.st2{fill:url(#XMLID_00000154385349541249073830000005418995551236517004_);}
	.st3{fill:url(#XMLID_00000147938037182179631640000006704862998512890040_);}
	.st4{fill:url(#XMLID_00000044145528039761679730000004094666149914778752_);}
	.st5{fill:url(#XMLID_00000147912700834062900340000008406896056677739941_);}
	.st6{fill:url(#XMLID_00000159432296278861346550000017749746820845266084_);}
	.st7{fill:url(#XMLID_00000109010067323113075310000015414866914321288342_);}
	.st8{fill:url(#XMLID_00000041292603655717956540000009083754074814417292_);}
	.st9{fill:url(#XMLID_00000067217601120585668260000002965998701175380893_);}
	.st10{fill:url(#XMLID_00000119089510306134480200000016952193414414053282_);}
	.st11{fill:#8DC63F;}
	.st12{fill:#FFFFFF;}
	.st13{fill:url(#XMLID_00000160908203850823429110000016501025870612287134_);}
	.st14{fill:url(#XMLID_00000167367817761240593900000006092161838173618331_);}
	.st15{fill:url(#XMLID_00000058582687583200179890000004004501697398418564_);}
</style>
<g id="XMLID_29797_">
	<circle id="XMLID_29808_" class="st0" cx="8" cy="8" r="8"/>
	<circle id="XMLID_29807_" class="st1" cx="8" cy="8" r="8"/>
	
		<linearGradient id="XMLID_00000121243676637682759840000008458054724696804512_" gradientUnits="userSpaceOnUse" x1="15.3179" y1="114.6231" x2="2.5588" y2="130.9083" gradientTransform="matrix(1 0 0 -1 0 132)">
		<stop  offset="0" style="stop-color:#58595B"/>
		<stop  offset="1" style="stop-color:#BCBEC0"/>
	</linearGradient>
	<circle id="XMLID_29806_" style="fill:url(#XMLID_00000121243676637682759840000008458054724696804512_);" cx="8" cy="8" r="7.9"/>
	
		<radialGradient id="XMLID_00000181775939564794683630000016088081306114157221_" cx="8" cy="123.9634" r="7.8779" gradientTransform="matrix(1 0 0 -1 0 132)" gradientUnits="userSpaceOnUse">
		<stop  offset="0.7653" style="stop-color:#000000;stop-opacity:0"/>
		<stop  offset="0.9703" style="stop-color:#000000;stop-opacity:0.8736"/>
		<stop  offset="1" style="stop-color:#000000"/>
	</radialGradient>
	<circle id="XMLID_29805_" style="fill:url(#XMLID_00000181775939564794683630000016088081306114157221_);" cx="8" cy="8" r="7.9"/>
	
		<linearGradient id="XMLID_00000017486671573063934390000014183176920926979758_" gradientUnits="userSpaceOnUse" x1="4.668" y1="131.3683" x2="6.3939" y2="124.9436" gradientTransform="matrix(1 0 0 -1 0 132)">
		<stop  offset="0" style="stop-color:#EFEFF0"/>
		<stop  offset="0.9847" style="stop-color:#FFFFFF;stop-opacity:0"/>
	</linearGradient>
	<path id="XMLID_29804_" style="fill:url(#XMLID_00000017486671573063934390000014183176920926979758_);" d="M2.4,13.5l8.1-9L11.6,1
		C10.5,0.4,9.3,0.1,8,0.1C3.7,0.1,0.1,3.7,0.1,8C0.1,10.1,1,12.1,2.4,13.5z"/>
	
		<linearGradient id="XMLID_00000088838395504224231120000018091015821104351399_" gradientUnits="userSpaceOnUse" x1="11.7633" y1="116.7334" x2="10.4591" y2="119.8309" gradientTransform="matrix(1 0 0 -1 0 132)">
		<stop  offset="0" style="stop-color:#000000"/>
		<stop  offset="1" style="stop-color:#464547"/>
	</linearGradient>
	<path id="XMLID_29803_" style="fill:url(#XMLID_00000088838395504224231120000018091015821104351399_);" d="M12.2,1.3
		c2.1,1.4,3.5,3.8,3.5,6.5c0,4.3-3.5,7.9-7.9,7.9c-1.6,0-3-0.5-4.2-1.2c1.3,0.8,2.8,1.3,4.4,1.3c4.3,0,7.9-3.5,7.9-7.9
		C15.9,5.2,14.4,2.7,12.2,1.3z"/>
	
		<linearGradient id="XMLID_00000056406849953762217060000007933321002219134386_" gradientUnits="userSpaceOnUse" x1="13.9211" y1="129.0488" x2="14.2006" y2="126.6384" gradientTransform="matrix(1 0 0 -1 0 132)">
		<stop  offset="1.530610e-02" style="stop-color:#B1B3B6"/>
		<stop  offset="1" style="stop-color:#EFEFF0"/>
	</linearGradient>
	<path id="XMLID_29802_" style="fill:url(#XMLID_00000056406849953762217060000007933321002219134386_);" d="M15.4,5.9l-0.1,1.3
		l-0.7,0.2L14,6.8l-0.8-2c0,0-0.4-1.6-0.4-1.6c0,0,0.2-0.7,0.2-0.7l0.4-0.1l0.4,0.3c0,0,0.7,0.8,1.2,1.8C15.5,5.6,15.4,5.9,15.4,5.9
		z"/>
	
		<linearGradient id="XMLID_00000091004032525090997870000009020324322172984455_" gradientUnits="userSpaceOnUse" x1="10.0329" y1="131.5194" x2="10.162" y2="114.7689" gradientTransform="matrix(1 0 0 -1 0 132)">
		<stop  offset="0" style="stop-color:#000000"/>
		<stop  offset="1" style="stop-color:#464547"/>
	</linearGradient>
	<path id="XMLID_29801_" style="fill:url(#XMLID_00000091004032525090997870000009020324322172984455_);" d="M8,0.1
		c-1.4,0-2.7,0.3-3.8,1c0.9-0.5,2-0.8,3.1-0.9c2.6,0,4.9,1.1,3,1.4c-1.9,0.3,1.9,3.7,1.9,3.7s2.2,0.5,1.3-1.3
		c-0.9-1.8,0-1.5,0.3-1.1c0.6,0.7,1.1,1.5,1.4,2.3c0.4,1-0.2,2.3-0.6,1.5c-0.4-0.8-0.8,1-0.8,1S12.9,12,14,11c1.1-1,1.6-2.1,1.7-3.3
		c0,0.1,0,0.2,0,0.3c0,3-1.7,5.6-4.1,6.9c2.5-1.3,4.3-3.9,4.3-7C15.9,3.7,12.3,0.1,8,0.1z"/>
	
		<linearGradient id="XMLID_00000095302023507973479280000015509873265748236184_" gradientUnits="userSpaceOnUse" x1="2.3287" y1="124.2348" x2="23.6623" y2="124.8404" gradientTransform="matrix(1 0 0 -1 0 132)">
		<stop  offset="0" style="stop-color:#EFEFF0"/>
		<stop  offset="0.1066" style="stop-color:#F5F5F5;stop-opacity:0.8917"/>
		<stop  offset="0.3389" style="stop-color:#FCFCFC;stop-opacity:0.6558"/>
		<stop  offset="0.9847" style="stop-color:#FFFFFF;stop-opacity:0"/>
	</linearGradient>
	<path id="XMLID_29800_" style="fill:url(#XMLID_00000095302023507973479280000015509873265748236184_);" d="M8,0.1
		c-1.4,0-2.7,0.3-3.8,1c0.9-0.5,2-0.8,3.1-0.9c2.6,0,4.9,1.1,3,1.4c-1.9,0.3,1.9,3.7,1.9,3.7s2.2,0.5,1.3-1.3
		c-0.9-1.8,0-1.5,0.3-1.1c0.6,0.7,1.1,1.5,1.4,2.3c0.4,1-0.2,2.3-0.6,1.5c-0.4-0.8-0.8,1-0.8,1S12.9,12,14,11c1.1-1,1.6-2.1,1.7-3.3
		c0,0.1,0,0.2,0,0.3c0,3-1.7,5.6-4.1,6.9c2.5-1.3,4.3-3.9,4.3-7C15.9,3.7,12.3,0.1,8,0.1z"/>
	
		<linearGradient id="XMLID_00000067208021574770658230000011376539485221895050_" gradientUnits="userSpaceOnUse" x1="2.8971" y1="121.1663" x2="3.9451" y2="129.6205" gradientTransform="matrix(1 0 0 -1 0 132)">
		<stop  offset="0" style="stop-color:#000000"/>
		<stop  offset="1" style="stop-color:#464547"/>
	</linearGradient>
	<path id="XMLID_29799_" style="fill:url(#XMLID_00000067208021574770658230000011376539485221895050_);" d="M1.1,8
		c0-3.3,2.3-6,5.4-6.7C3.3,1.8,0.9,4.5,0.9,7.7c0,1.1,0.3,2.2,0.8,3.2C1.3,10,1.1,9,1.1,8z"/>
	
		<linearGradient id="XMLID_00000017511253690311662060000010589235794091765171_" gradientUnits="userSpaceOnUse" x1="8.1435" y1="116.1396" x2="8.1435" y2="117.4517" gradientTransform="matrix(1 0 0 -1 0 132)">
		<stop  offset="0" style="stop-color:#EFEFF0"/>
		<stop  offset="0.1066" style="stop-color:#F5F5F5;stop-opacity:0.8917"/>
		<stop  offset="0.3389" style="stop-color:#FCFCFC;stop-opacity:0.6558"/>
		<stop  offset="0.9847" style="stop-color:#FFFFFF;stop-opacity:0"/>
	</linearGradient>
	<path id="XMLID_29798_" style="fill:url(#XMLID_00000017511253690311662060000010589235794091765171_);" d="M8.2,15.8
		c1.9,0,2.7-0.7,2.7-1c-0.1-0.3-1.3,0.5-4.3,0.2C5,14.8,5.3,15,5.6,15.2C5.9,15.5,7,15.8,8.2,15.8z"/>
</g>
<circle id="XMLID_29792_" class="st11" cx="8" cy="8" r="6.8"/>
<g id="XMLID_29778_">
	<g id="XMLID_29782_">
		<path id="XMLID_29785_" class="st12" d="M14.8,8c0,0,0,0,0,0.1c0,0.1,0,0.2,0,0.3c0,0.3,0,0.7-0.2,1.2c0,0.1-0.1,0.2-0.1,0.4
			c0,0.1-0.1,0.3-0.1,0.4c-0.1,0.3-0.2,0.5-0.4,0.8c-0.1,0.3-0.3,0.5-0.5,0.8c-0.2,0.3-0.4,0.5-0.6,0.8c-0.5,0.5-1,0.9-1.6,1.2
			c-0.3,0.1-0.5,0.3-0.8,0.4c-0.3,0.1-0.5,0.2-0.8,0.2c-0.2,0.1-0.5,0.1-0.7,0.1c0,0-0.1,0-0.1,0c0,0-0.1,0-0.1,0
			c-0.1,0-0.2,0-0.2,0s-0.1,0-0.2,0c-0.1,0-0.1,0-0.1,0c-0.1,0-0.1,0-0.1,0s0,0,0.1,0c0,0,0.1,0,0.1,0c0.1,0,0.1,0,0.2,0
			s0.1,0,0.2,0c0,0,0.1,0,0.1,0c0,0,0.1,0,0.1,0c0.2,0,0.4-0.1,0.7-0.1c0.2-0.1,0.5-0.1,0.8-0.2c0.3-0.1,0.5-0.2,0.8-0.4
			c0.5-0.3,1.1-0.7,1.5-1.2c0.2-0.2,0.5-0.5,0.6-0.7c0.2-0.3,0.4-0.5,0.5-0.8c0.1-0.3,0.3-0.5,0.4-0.8c0-0.1,0.1-0.3,0.1-0.4
			c0-0.1,0.1-0.3,0.1-0.4c0.1-0.2,0.1-0.5,0.1-0.7c0-0.2,0-0.4,0.1-0.5c0-0.1,0-0.3,0-0.3C14.8,8,14.8,8,14.8,8z"/>
		
			<radialGradient id="XMLID_00000157269138979363114450000008430511980696728745_" cx="1010.912" cy="351.9541" r="2.7887" gradientTransform="matrix(0.2453 0.2286 0.6817 -0.7316 -475.3457 39.3072)" gradientUnits="userSpaceOnUse">
			<stop  offset="0" style="stop-color:#FFFFFF"/>
			<stop  offset="0.147" style="stop-color:#FFFFFF;stop-opacity:0.853"/>
			<stop  offset="1" style="stop-color:#FFFFFF;stop-opacity:0"/>
		</radialGradient>
		<path id="XMLID_29784_" style="fill:url(#XMLID_00000157269138979363114450000008430511980696728745_);" d="M13.2,13.5
			c-1.1,1.1-2.2,1.8-2.6,1.4c-0.4-0.4,0.2-1.6,1.2-2.7s2.2-1.8,2.6-1.4S14.3,12.4,13.2,13.5z"/>
		
			<radialGradient id="XMLID_00000060729398750314343770000001024015694523351177_" cx="-184.4701" cy="98.0515" r="2.0495" gradientTransform="matrix(0.3287 -6.630000e-02 -0.1976 -0.9803 94.8415 90.2338)" gradientUnits="userSpaceOnUse">
			<stop  offset="0" style="stop-color:#FFFFFF"/>
			<stop  offset="0.147" style="stop-color:#FFFFFF;stop-opacity:0.853"/>
			<stop  offset="1" style="stop-color:#FFFFFF;stop-opacity:0"/>
		</radialGradient>
		<path id="XMLID_29783_" style="fill:url(#XMLID_00000060729398750314343770000001024015694523351177_);" d="M15.5,6.2
			c0.2,1.1,0.1,2.1-0.3,2.1c-0.4,0.1-0.9-0.8-1.1-1.9c-0.2-1.1-0.1-2.1,0.3-2.1C14.8,4.3,15.3,5.1,15.5,6.2z"/>
	</g>
	<path id="XMLID_29781_" class="st12" d="M1.4,6.4c0,0,0-0.1,0.1-0.3c0,0,0-0.1,0-0.1c0,0,0-0.1,0-0.2c0-0.1,0-0.1,0.1-0.2
		c0-0.1,0-0.1,0.1-0.2c0-0.1,0-0.1,0.1-0.2c0-0.1,0.1-0.1,0.1-0.2c0,0,0-0.1,0-0.1c0,0,0-0.1,0.1-0.1c0-0.1,0.1-0.2,0.1-0.2
		c0.1-0.1,0.2-0.3,0.3-0.5C2.5,4,2.6,3.8,2.8,3.7C2.9,3.5,3,3.4,3.2,3.3C3.3,3.1,3.4,3,3.6,2.9c0.1-0.1,0.1-0.1,0.2-0.2
		c0,0,0.1,0,0.1-0.1c0,0,0.1,0,0.1-0.1c0.1,0,0.1-0.1,0.2-0.1c0.1,0,0.1-0.1,0.2-0.1c0.1,0,0.1-0.1,0.2-0.1c0.1,0,0.1-0.1,0.2-0.1
		c0,0,0.1,0,0.1-0.1c0,0,0.1,0,0.1-0.1c0.1-0.1,0.2-0.1,0.2-0.1S5.1,1.9,4.9,2c0,0-0.1,0-0.1,0.1s-0.1,0-0.1,0.1
		c0,0-0.1,0.1-0.2,0.1c-0.1,0-0.1,0.1-0.2,0.1S4.2,2.4,4.2,2.5C4.1,2.5,4,2.6,4,2.6c0,0-0.1,0-0.1,0.1c0,0-0.1,0-0.1,0.1
		C3.7,2.8,3.6,2.9,3.6,2.9C3.4,3.1,3.3,3.2,3.2,3.3C3,3.4,2.9,3.6,2.8,3.7C2.7,3.9,2.5,4,2.4,4.2C2.3,4.3,2.2,4.5,2.1,4.7
		c0,0.1-0.1,0.2-0.1,0.2C2,4.9,2,5,2,5c0,0,0,0.1,0,0.1c0,0.1-0.1,0.1-0.1,0.2c0,0.1-0.1,0.1-0.1,0.2c0,0.1,0,0.1-0.1,0.2
		c0,0.1,0,0.1-0.1,0.2c0,0.1,0,0.1,0,0.2c0,0,0,0.1,0,0.1C1.5,6.3,1.4,6.4,1.4,6.4z"/>
	
		<radialGradient id="XMLID_00000106130890951469306150000010394711889384430508_" cx="970.8214" cy="352.255" r="1.6223" gradientTransform="matrix(0.2453 0.2286 0.6817 -0.7316 -475.3457 39.3072)" gradientUnits="userSpaceOnUse">
		<stop  offset="0" style="stop-color:#FFFFFF"/>
		<stop  offset="0.147" style="stop-color:#FFFFFF;stop-opacity:0.853"/>
		<stop  offset="1" style="stop-color:#FFFFFF;stop-opacity:0"/>
	</radialGradient>
	<path id="XMLID_29780_" style="fill:url(#XMLID_00000106130890951469306150000010394711889384430508_);" d="M3.3,3.9
		C2.7,4.6,2,4.9,1.8,4.7C1.6,4.5,1.9,3.8,2.5,3.2s1.3-1,1.5-0.8C4.3,2.5,3.9,3.2,3.3,3.9z"/>
	<path id="XMLID_29779_" class="st12" d="M9.3,1.4c0,0,0.1,0,0.3,0c0,0,0.1,0,0.1,0s0.1,0,0.2,0c0.1,0,0.1,0,0.2,0
		c0.1,0,0.1,0,0.2,0.1c0.1,0,0.1,0,0.2,0.1c0.1,0,0.1,0.1,0.2,0.1c0,0,0.1,0,0.1,0c0,0,0.1,0,0.1,0.1c0.1,0,0.2,0.1,0.2,0.1
		c0.2,0.1,0.3,0.2,0.5,0.3c0.2,0.1,0.3,0.2,0.5,0.3c0.1,0.1,0.3,0.2,0.4,0.4c0.1,0.1,0.3,0.3,0.4,0.4C13,3.4,13,3.5,13.1,3.5
		c0,0,0.1,0.1,0.1,0.1s0,0.1,0.1,0.1c0,0.1,0.1,0.1,0.1,0.2c0,0.1,0.1,0.1,0.1,0.2c0,0.1,0.1,0.1,0.1,0.2c0,0.1,0.1,0.1,0.1,0.2
		c0,0,0.1,0.1,0.1,0.1c0,0,0,0.1,0.1,0.1C14,4.8,14,4.9,14,4.9s0-0.1-0.1-0.2c0,0,0-0.1-0.1-0.1c0,0-0.1-0.1-0.1-0.1
		c0,0-0.1-0.1-0.1-0.2c0,0-0.1-0.1-0.1-0.2c0-0.1-0.1-0.1-0.1-0.2c0-0.1-0.1-0.1-0.1-0.2c0,0,0-0.1-0.1-0.1c0,0-0.1-0.1-0.1-0.1
		c-0.1-0.1-0.1-0.1-0.2-0.2c-0.1-0.1-0.3-0.3-0.4-0.4c-0.1-0.1-0.3-0.2-0.4-0.4c-0.2-0.1-0.3-0.2-0.5-0.3c-0.2-0.1-0.3-0.2-0.5-0.3
		C11,2,11,1.9,10.9,1.9c0,0-0.1,0-0.1-0.1c0,0-0.1,0-0.1,0c-0.1,0-0.1-0.1-0.2-0.1c-0.1,0-0.1,0-0.2-0.1c-0.1,0-0.1,0-0.2-0.1
		c-0.1,0-0.1,0-0.2,0c-0.1,0-0.1,0-0.2,0c0,0-0.1,0-0.1,0C9.4,1.4,9.3,1.4,9.3,1.4z"/>
</g>
</svg>
