<?xml version="1.0" encoding="utf-8"?>
<!-- Generator: Adobe Illustrator 28.4.1, SVG Export Plug-In . SVG Version: 6.00 Build 0)  -->
<svg version="1.1" id="Layer_1" xmlns="http://www.w3.org/2000/svg" xmlns:xlink="http://www.w3.org/1999/xlink" x="0px" y="0px"
	 viewBox="0 0 16 16" style="enable-background:new 0 0 16 16;" xml:space="preserve">
<style type="text/css">
	.st0{fill:#3E3D63;}
	.st1{fill:#F1F2F2;}
	.st2{fill:url(#XMLID_00000152246398222457781540000011719653215317089686_);}
	.st3{fill:url(#XMLID_00000042011025033819687130000009360495559916495748_);}
	.st4{fill:url(#XMLID_00000068661159196871165280000008696962506334420661_);}
	.st5{fill:url(#XMLID_00000104704460219859254030000009994592367180303787_);}
	.st6{fill:url(#XMLID_00000015334058168056310960000011736327605466562488_);}
	.st7{fill:url(#XMLID_00000164491167678443105510000005564714220796108936_);}
	.st8{fill:url(#XMLID_00000181064426481348165470000003869536285389003193_);}
	.st9{fill:url(#XMLID_00000039816848675658213540000011805320834197387915_);}
	.st10{fill:url(#XMLID_00000109734978721960850300000010725623143227006904_);}
	.st11{fill:#ED1C24;}
	.st12{fill:#FFFFFF;}
	.st13{fill:url(#XMLID_00000041975148110665262880000018352930155626636714_);}
	.st14{fill:url(#XMLID_00000080910227202944649890000001636128296532892813_);}
	.st15{fill:url(#XMLID_00000183247422375111107520000004476038332486184638_);}
</style>
<g id="XMLID_60_">
	<circle id="XMLID_71_" class="st0" cx="8" cy="8" r="8"/>
	<circle id="XMLID_70_" class="st1" cx="8" cy="8" r="8"/>
	
		<linearGradient id="XMLID_00000169551566825788264610000016875960253414399137_" gradientUnits="userSpaceOnUse" x1="15.3198" y1="114.6206" x2="2.5608" y2="130.9058" gradientTransform="matrix(1 0 0 -1 0 132)">
		<stop  offset="0" style="stop-color:#58595B"/>
		<stop  offset="1" style="stop-color:#BCBEC0"/>
	</linearGradient>
	<circle id="XMLID_69_" style="fill:url(#XMLID_00000169551566825788264610000016875960253414399137_);" cx="8" cy="8" r="7.9"/>
	
		<radialGradient id="XMLID_00000058547582870683217670000010699678819117338507_" cx="8" cy="123.9634" r="7.8779" gradientTransform="matrix(1 0 0 -1 0 132)" gradientUnits="userSpaceOnUse">
		<stop  offset="0.7653" style="stop-color:#000000;stop-opacity:0"/>
		<stop  offset="0.9703" style="stop-color:#000000;stop-opacity:0.8736"/>
		<stop  offset="1" style="stop-color:#000000"/>
	</radialGradient>
	<circle id="XMLID_68_" style="fill:url(#XMLID_00000058547582870683217670000010699678819117338507_);" cx="8" cy="8" r="7.9"/>
	
		<linearGradient id="XMLID_00000022554304656382995760000014258016075668009621_" gradientUnits="userSpaceOnUse" x1="4.6696" y1="131.3674" x2="6.3955" y2="124.9426" gradientTransform="matrix(1 0 0 -1 0 132)">
		<stop  offset="0" style="stop-color:#EFEFF0"/>
		<stop  offset="0.9847" style="stop-color:#FFFFFF;stop-opacity:0"/>
	</linearGradient>
	<path id="XMLID_67_" style="fill:url(#XMLID_00000022554304656382995760000014258016075668009621_);" d="M2.4,13.5l8.1-9L11.6,1
		C10.5,0.4,9.3,0.1,8,0.1C3.7,0.1,0.1,3.7,0.1,8C0.1,10.1,1,12.1,2.4,13.5z"/>
	
		<linearGradient id="XMLID_00000181059173151411318620000013116239755218176662_" gradientUnits="userSpaceOnUse" x1="11.7655" y1="116.7321" x2="10.4613" y2="119.8296" gradientTransform="matrix(1 0 0 -1 0 132)">
		<stop  offset="0" style="stop-color:#000000"/>
		<stop  offset="1" style="stop-color:#464547"/>
	</linearGradient>
	<path id="XMLID_66_" style="fill:url(#XMLID_00000181059173151411318620000013116239755218176662_);" d="M12.2,1.3
		c2.1,1.4,3.5,3.8,3.5,6.5c0,4.3-3.5,7.9-7.9,7.9c-1.6,0-3-0.5-4.2-1.2c1.3,0.8,2.8,1.3,4.4,1.3c4.3,0,7.9-3.5,7.9-7.9
		C15.9,5.2,14.4,2.7,12.2,1.3z"/>
	
		<linearGradient id="XMLID_00000054227915119261925410000016155492631709201029_" gradientUnits="userSpaceOnUse" x1="13.932" y1="129.0495" x2="14.2115" y2="126.639" gradientTransform="matrix(1 0 0 -1 0 132)">
		<stop  offset="1.530610e-02" style="stop-color:#B1B3B6"/>
		<stop  offset="1" style="stop-color:#EFEFF0"/>
	</linearGradient>
	<path id="XMLID_65_" style="fill:url(#XMLID_00000054227915119261925410000016155492631709201029_);" d="M15.5,5.9l-0.1,1.3
		l-0.7,0.2L14,6.8l-0.8-2c0,0-0.4-1.6-0.4-1.6c0,0,0.2-0.7,0.2-0.7l0.4-0.1l0.4,0.3c0,0,0.7,0.8,1.2,1.8C15.5,5.6,15.5,5.9,15.5,5.9
		z"/>
	
		<linearGradient id="XMLID_00000001655875635751173320000006128316814727439771_" gradientUnits="userSpaceOnUse" x1="10.0329" y1="131.5194" x2="10.162" y2="114.7688" gradientTransform="matrix(1 0 0 -1 0 132)">
		<stop  offset="0" style="stop-color:#000000"/>
		<stop  offset="1" style="stop-color:#464547"/>
	</linearGradient>
	<path id="XMLID_64_" style="fill:url(#XMLID_00000001655875635751173320000006128316814727439771_);" d="M8,0.1
		c-1.4,0-2.6,0.3-3.8,1c0.9-0.5,2-0.8,3.1-0.9c2.6,0,4.9,1.1,3,1.4c-1.9,0.3,1.9,3.7,1.9,3.7s2.2,0.5,1.3-1.3
		c-0.9-1.8,0-1.5,0.3-1.1c0.6,0.7,1.1,1.5,1.4,2.3c0.4,1-0.2,2.3-0.6,1.5c-0.4-0.8-0.8,1-0.8,1S12.9,12,14,11c1.1-1,1.6-2.1,1.7-3.3
		c0,0.1,0,0.2,0,0.3c0,3-1.7,5.6-4.1,6.9c2.5-1.3,4.3-3.9,4.3-7C15.9,3.7,12.3,0.1,8,0.1z"/>
	
		<linearGradient id="XMLID_00000040552924665580356330000012805303510595873979_" gradientUnits="userSpaceOnUse" x1="2.3339" y1="124.2349" x2="23.6675" y2="124.8405" gradientTransform="matrix(1 0 0 -1 0 132)">
		<stop  offset="0" style="stop-color:#EFEFF0"/>
		<stop  offset="0.1066" style="stop-color:#F5F5F5;stop-opacity:0.8917"/>
		<stop  offset="0.3389" style="stop-color:#FCFCFC;stop-opacity:0.6558"/>
		<stop  offset="0.9847" style="stop-color:#FFFFFF;stop-opacity:0"/>
	</linearGradient>
	<path id="XMLID_63_" style="fill:url(#XMLID_00000040552924665580356330000012805303510595873979_);" d="M8,0.1
		c-1.4,0-2.6,0.3-3.8,1c0.9-0.5,2-0.8,3.1-0.9c2.6,0,4.9,1.1,3,1.4c-1.9,0.3,1.9,3.7,1.9,3.7s2.2,0.5,1.3-1.3
		c-0.9-1.8,0-1.5,0.3-1.1c0.6,0.7,1.1,1.5,1.4,2.3c0.4,1-0.2,2.3-0.6,1.5c-0.4-0.8-0.8,1-0.8,1S12.9,12,14,11c1.1-1,1.6-2.1,1.7-3.3
		c0,0.1,0,0.2,0,0.3c0,3-1.7,5.6-4.1,6.9c2.5-1.3,4.3-3.9,4.3-7C15.9,3.7,12.3,0.1,8,0.1z"/>
	
		<linearGradient id="XMLID_00000011711529077070446830000012306339891177024188_" gradientUnits="userSpaceOnUse" x1="2.9033" y1="121.1662" x2="3.9513" y2="129.6204" gradientTransform="matrix(1 0 0 -1 0 132)">
		<stop  offset="0" style="stop-color:#000000"/>
		<stop  offset="1" style="stop-color:#464547"/>
	</linearGradient>
	<path id="XMLID_62_" style="fill:url(#XMLID_00000011711529077070446830000012306339891177024188_);" d="M1.1,8
		c0-3.3,2.3-6,5.4-6.7C3.3,1.8,0.9,4.5,0.9,7.7c0,1.1,0.3,2.2,0.8,3.2C1.3,10,1.1,9,1.1,8z"/>
	
		<linearGradient id="XMLID_00000037669291645225141130000018298138599689703833_" gradientUnits="userSpaceOnUse" x1="8.1435" y1="116.1396" x2="8.1435" y2="117.4517" gradientTransform="matrix(1 0 0 -1 0 132)">
		<stop  offset="0" style="stop-color:#EFEFF0"/>
		<stop  offset="0.1066" style="stop-color:#F5F5F5;stop-opacity:0.8917"/>
		<stop  offset="0.3389" style="stop-color:#FCFCFC;stop-opacity:0.6558"/>
		<stop  offset="0.9847" style="stop-color:#FFFFFF;stop-opacity:0"/>
	</linearGradient>
	<path id="XMLID_61_" style="fill:url(#XMLID_00000037669291645225141130000018298138599689703833_);" d="M8.2,15.8
		c1.9,0,2.7-0.7,2.7-1c-0.1-0.3-1.3,0.5-4.3,0.2C5,14.8,5.3,15,5.6,15.2C6,15.5,7,15.8,8.2,15.8z"/>
</g>
<circle id="XMLID_59_" class="st11" cx="8" cy="8" r="6.8"/>
<g id="XMLID_49_">
	<g id="XMLID_53_">
		<path id="XMLID_56_" class="st12" d="M14.8,8c0,0,0,0,0,0.1c0,0.1,0,0.2,0,0.3c0,0.3,0,0.7-0.2,1.2c0,0.1-0.1,0.2-0.1,0.4
			c0,0.1-0.1,0.3-0.1,0.4c-0.1,0.3-0.2,0.5-0.4,0.8c-0.1,0.3-0.3,0.5-0.5,0.8c-0.2,0.3-0.4,0.5-0.6,0.8c-0.5,0.5-1,0.9-1.6,1.2
			c-0.3,0.1-0.5,0.3-0.8,0.4c-0.3,0.1-0.5,0.2-0.8,0.2c-0.2,0.1-0.5,0.1-0.7,0.1c0,0-0.1,0-0.1,0c0,0-0.1,0-0.1,0
			c-0.1,0-0.2,0-0.2,0s-0.1,0-0.2,0c-0.1,0-0.1,0-0.1,0c-0.1,0-0.1,0-0.1,0s0,0,0.1,0c0,0,0.1,0,0.1,0c0.1,0,0.1,0,0.2,0
			s0.1,0,0.2,0c0,0,0.1,0,0.1,0c0,0,0.1,0,0.1,0c0.2,0,0.4-0.1,0.7-0.1c0.2-0.1,0.5-0.1,0.8-0.2c0.3-0.1,0.5-0.2,0.8-0.4
			c0.5-0.3,1.1-0.7,1.5-1.2c0.2-0.2,0.5-0.5,0.6-0.7c0.2-0.3,0.4-0.5,0.5-0.8c0.1-0.3,0.3-0.5,0.4-0.8c0-0.1,0.1-0.3,0.1-0.4
			c0-0.1,0.1-0.3,0.1-0.4c0.1-0.2,0.1-0.5,0.1-0.7c0-0.2,0-0.4,0.1-0.5c0-0.1,0-0.3,0-0.3C14.8,8,14.8,8,14.8,8z"/>
		
			<radialGradient id="XMLID_00000143578131428280071230000015063597109968414143_" cx="1010.4506" cy="351.6897" r="2.7863" gradientTransform="matrix(0.2453 0.2286 0.6817 -0.7316 -475.0439 39.2158)" gradientUnits="userSpaceOnUse">
			<stop  offset="0" style="stop-color:#FFFFFF"/>
			<stop  offset="0.147" style="stop-color:#FFFFFF;stop-opacity:0.853"/>
			<stop  offset="1" style="stop-color:#FFFFFF;stop-opacity:0"/>
		</radialGradient>
		<path id="XMLID_55_" style="fill:url(#XMLID_00000143578131428280071230000015063597109968414143_);" d="M13.3,13.5
			c-1.1,1.1-2.2,1.8-2.6,1.4s0.2-1.6,1.2-2.7s2.2-1.8,2.6-1.4C14.8,11.2,14.3,12.4,13.3,13.5z"/>
		
			<radialGradient id="XMLID_00000030459210222601811250000017111252707079517624_" cx="-185.2242" cy="98.1282" r="2.0502" gradientTransform="matrix(0.3287 -6.630000e-02 -0.1976 -0.9803 95.1101 90.2604)" gradientUnits="userSpaceOnUse">
			<stop  offset="0" style="stop-color:#FFFFFF"/>
			<stop  offset="0.147" style="stop-color:#FFFFFF;stop-opacity:0.853"/>
			<stop  offset="1" style="stop-color:#FFFFFF;stop-opacity:0"/>
		</radialGradient>
		<path id="XMLID_54_" style="fill:url(#XMLID_00000030459210222601811250000017111252707079517624_);" d="M15.5,6.2
			c0.2,1.1,0.1,2.1-0.3,2.1c-0.4,0.1-0.9-0.8-1.1-1.9c-0.2-1.1-0.1-2.1,0.3-2.1C14.8,4.3,15.3,5.1,15.5,6.2z"/>
	</g>
	<path id="XMLID_52_" class="st12" d="M1.4,6.4c0,0,0-0.1,0.1-0.3c0,0,0-0.1,0-0.1c0,0,0-0.1,0-0.2c0-0.1,0-0.1,0.1-0.2
		c0-0.1,0-0.1,0.1-0.2c0-0.1,0-0.1,0.1-0.2c0-0.1,0.1-0.1,0.1-0.2c0,0,0-0.1,0-0.1c0,0,0-0.1,0.1-0.1c0-0.1,0.1-0.2,0.1-0.2
		c0.1-0.1,0.2-0.3,0.3-0.5C2.5,4,2.6,3.8,2.8,3.7C2.9,3.5,3,3.4,3.2,3.3C3.3,3.1,3.4,3,3.6,2.9c0.1-0.1,0.1-0.1,0.2-0.2
		c0,0,0.1,0,0.1-0.1c0,0,0.1,0,0.1-0.1c0.1,0,0.1-0.1,0.2-0.1c0.1,0,0.1-0.1,0.2-0.1c0.1,0,0.1-0.1,0.2-0.1c0.1,0,0.1-0.1,0.2-0.1
		c0,0,0.1,0,0.1-0.1c0,0,0.1,0,0.1-0.1c0.1-0.1,0.2-0.1,0.2-0.1S5.1,1.9,4.9,2c0,0-0.1,0-0.1,0.1s-0.1,0-0.1,0.1
		c0,0-0.1,0.1-0.2,0.1c0,0-0.1,0.1-0.1,0.1c-0.1,0-0.1,0.1-0.2,0.1C4.1,2.5,4.1,2.5,4,2.6c0,0-0.1,0-0.1,0.1c0,0-0.1,0-0.1,0.1
		C3.7,2.8,3.7,2.9,3.6,2.9C3.4,3,3.3,3.2,3.2,3.3C3,3.4,2.9,3.6,2.8,3.7S2.6,4,2.5,4.2C2.3,4.3,2.2,4.5,2.2,4.6
		c0,0.1-0.1,0.2-0.1,0.2C2,4.9,2,4.9,2,5c0,0,0,0.1,0,0.1c0,0.1-0.1,0.1-0.1,0.2c0,0.1-0.1,0.1-0.1,0.2c0,0.1,0,0.1-0.1,0.2
		c0,0.1,0,0.1-0.1,0.2c0,0.1,0,0.1,0,0.2c0,0,0,0.1,0,0.1C1.5,6.3,1.4,6.4,1.4,6.4z"/>
	
		<radialGradient id="XMLID_00000020401150425911607460000000452443047238817682_" cx="970.3597" cy="351.986" r="1.6224" gradientTransform="matrix(0.2453 0.2286 0.6817 -0.7316 -475.0439 39.2158)" gradientUnits="userSpaceOnUse">
		<stop  offset="0" style="stop-color:#FFFFFF"/>
		<stop  offset="0.147" style="stop-color:#FFFFFF;stop-opacity:0.853"/>
		<stop  offset="1" style="stop-color:#FFFFFF;stop-opacity:0"/>
	</radialGradient>
	<path id="XMLID_51_" style="fill:url(#XMLID_00000020401150425911607460000000452443047238817682_);" d="M3.3,3.9
		c-0.6,0.7-1.3,1-1.5,0.8C1.6,4.5,1.9,3.8,2.5,3.2s1.3-1,1.5-0.8C4.3,2.5,3.9,3.2,3.3,3.9z"/>
	<path id="XMLID_50_" class="st12" d="M9.3,1.4c0,0,0.1,0,0.3,0c0,0,0.1,0,0.1,0c0,0,0.1,0,0.2,0c0.1,0,0.1,0,0.2,0
		c0.1,0,0.1,0,0.2,0.1c0.1,0,0.1,0,0.2,0.1c0.1,0,0.1,0.1,0.2,0.1c0,0,0.1,0,0.1,0c0,0,0.1,0,0.1,0.1c0.1,0,0.2,0.1,0.2,0.1
		c0.2,0.1,0.3,0.2,0.5,0.3c0.2,0.1,0.3,0.2,0.5,0.3c0.1,0.1,0.3,0.2,0.4,0.4c0.1,0.1,0.3,0.3,0.4,0.4c0.1,0.1,0.1,0.1,0.2,0.2
		c0,0,0.1,0.1,0.1,0.1s0,0.1,0.1,0.1c0,0.1,0.1,0.1,0.1,0.2c0,0.1,0.1,0.1,0.1,0.2c0,0.1,0.1,0.1,0.1,0.2c0,0.1,0.1,0.1,0.1,0.2
		c0,0,0.1,0.1,0.1,0.1c0,0,0,0.1,0.1,0.1C14,4.8,14,4.9,14,4.9s0-0.1-0.1-0.2c0,0,0-0.1-0.1-0.1c0,0-0.1-0.1-0.1-0.1
		c0,0-0.1-0.1-0.1-0.2c0,0-0.1-0.1-0.1-0.2c0-0.1-0.1-0.1-0.1-0.2c0-0.1-0.1-0.1-0.1-0.2c0,0,0-0.1-0.1-0.1c0,0-0.1-0.1-0.1-0.1
		C13,3.5,13,3.4,12.9,3.3c-0.1-0.1-0.3-0.3-0.4-0.4c-0.1-0.1-0.3-0.2-0.4-0.4c-0.2-0.1-0.3-0.2-0.5-0.3c-0.2-0.1-0.3-0.2-0.5-0.3
		C11,2,11,1.9,10.9,1.9c0,0-0.1,0-0.1-0.1c0,0-0.1,0-0.1,0c-0.1,0-0.1-0.1-0.2-0.1c-0.1,0-0.1,0-0.2-0.1c-0.1,0-0.1,0-0.2-0.1
		c-0.1,0-0.1,0-0.2,0c-0.1,0-0.1,0-0.2,0c0,0-0.1,0-0.1,0C9.4,1.4,9.3,1.4,9.3,1.4z"/>
</g>
</svg>
