<svg width="800" height="800" viewBox="0 0 800 800" fill="none" xmlns="http://www.w3.org/2000/svg">
<g clip-path="url(#clip0_107_2)">
<path d="M600 287.231H544.923L480.308 458.308C421.315 444.63 365.725 419.085 316.923 383.231C373.916 320.887 411.872 243.533 426.308 160.308H506.462C514.622 160.308 522.448 157.066 528.219 151.296C533.989 145.525 537.231 137.699 537.231 129.538C537.231 121.378 533.989 113.552 528.219 107.781C522.448 102.011 514.622 98.7692 506.462 98.7692H302.615V30.7692C302.615 22.6087 299.374 14.7824 293.603 9.0121C287.833 3.24175 280.007 0 271.846 0C263.686 0 255.859 3.24175 250.089 9.0121C244.319 14.7824 241.077 22.6087 241.077 30.7692V98.7692H37.077C28.9165 98.7692 21.0902 102.011 15.3198 107.781C9.54949 113.552 6.30774 121.378 6.30774 129.538C6.30774 137.699 9.54949 145.525 15.3198 151.296C21.0902 157.066 28.9165 160.308 37.077 160.308H117.385C131.752 243.524 169.657 320.884 226.615 383.231C174.135 421.662 114.008 448.368 50.3077 461.538C42.1472 462.416 34.6694 466.499 29.5194 472.889C24.3694 479.28 21.9689 487.455 22.8462 495.615C23.7235 503.776 27.8065 511.254 34.1972 516.404C40.5879 521.554 48.7626 523.954 56.9231 523.077C59.2042 523.134 61.4821 522.875 63.6923 522.308C139.578 506.781 210.829 473.867 271.846 426.154C326.895 469.326 390.514 500.27 458.462 516.923L351.231 800H430.769L472.308 680.615H671.385L713.385 800H793.692L600 287.231ZM364.615 160.308C351.831 228.671 319.808 291.969 272.308 342.769C224.772 291.993 192.744 228.685 180 160.308H364.615ZM498.154 608.769L572.462 396L646.154 608.769H498.154Z" fill="#4276D9"/>
</g>
<defs>
<clipPath id="clip0_107_2">
<rect width="800" height="800" fill="white"/>
</clipPath>
</defs>
</svg>
