<svg width="679" height="484" viewBox="0 0 679 484" fill="none" xmlns="http://www.w3.org/2000/svg">
<path fill-rule="evenodd" clip-rule="evenodd" d="M0.533203 432.883V50.7331C0.533203 22.8831 23.1332 0.299805 50.9832 0.299805H628.466C656.266 0.299805 678.933 22.8498 678.933 50.7331V432.883C678.933 460.716 656.316 483.316 628.466 483.316H50.9832C23.1332 483.316 0.533203 460.716 0.533203 432.883ZM647.017 432.883V392.5H32.4499V432.883C32.4499 443.083 40.7665 451.383 50.9832 451.383H628.466C638.666 451.383 647.017 443.083 647.017 432.883ZM59.9332 374.783V111.316C59.9332 106.45 63.8999 102.433 68.7999 102.433H610.633C615.483 102.433 619.483 106.45 619.483 111.316V374.783H647.017V50.7331C647.017 40.5498 638.733 32.2165 628.466 32.2165H50.9832C40.7665 32.2165 32.4499 40.5165 32.4499 50.7331V374.783H59.9332ZM601.767 373.017V120.166H77.6832V373.017H601.767Z" fill="#8D93A5"/>
<path fill-rule="evenodd" clip-rule="evenodd" d="M58.9332 64.2669C58.9332 55.8335 65.8166 48.9502 74.2666 48.9502C82.7166 48.9502 89.5666 55.8335 89.5666 64.2669C89.5666 72.6835 82.7166 79.5502 74.2666 79.5502C65.8166 79.5502 58.9332 72.6835 58.9332 64.2669ZM102.3 64.2669C102.3 55.8335 109.15 48.9502 117.583 48.9502C126.033 48.9502 132.9 55.8335 132.9 64.2669C132.9 72.6835 126.033 79.5502 117.583 79.5502C109.15 79.5502 102.3 72.6835 102.3 64.2669ZM145.6 64.2669C145.6 55.8335 152.467 48.9502 160.883 48.9502C169.317 48.9502 176.2 55.8335 176.2 64.2669C176.2 72.6835 169.317 79.5502 160.883 79.5502C152.467 79.5502 145.6 72.6835 145.6 64.2669Z" fill="#8D93A5"/>
<path fill-rule="evenodd" clip-rule="evenodd" d="M333.1 336.499V276.766C333.1 271.883 337.067 267.883 341.983 267.883C346.833 267.883 350.85 271.883 350.85 276.766V336.499C350.85 341.416 346.833 345.383 341.983 345.383C337.067 345.383 333.1 341.416 333.1 336.499Z" fill="#1C274C"/>
<path fill-rule="evenodd" clip-rule="evenodd" d="M342.017 312.5C328.133 312.5 316.867 323.783 316.867 337.65C316.867 351.517 328.133 362.783 342.017 362.783C355.867 362.783 367.15 351.517 367.15 337.65C367.15 323.783 355.867 312.5 342.017 312.5Z" fill="#1C274C"/>
<path fill-rule="evenodd" clip-rule="evenodd" d="M427.367 345.383L426.4 327.683L463.267 325.7L464.2 343.4L427.367 345.383ZM256.683 345.25L219.833 343.5L220.65 325.8L257.5 327.533L256.683 345.25ZM420.15 301.183L410.95 286.033L442.517 266.85L451.7 282L420.15 301.183ZM263.633 301.116L232.133 281.816L241.4 266.683L272.883 285.966L263.633 301.116ZM391.567 266.566L376.4 257.383L395.6 225.816L410.733 235.016L391.567 266.566ZM292.35 266.533L273.167 234.983L288.317 225.783L307.5 257.35L292.35 266.533ZM334.133 251.15L332.15 214.3L349.85 213.333L351.833 250.2L334.133 251.15Z" fill="#8D93A5"/>
<path fill-rule="evenodd" clip-rule="evenodd" d="M342.083 143.649C450.883 143.649 539.133 231.999 539.133 340.733H521.4C521.4 241.749 441.067 161.383 342.083 161.383C243.033 161.383 162.683 241.783 162.683 340.733H144.967C144.967 231.949 233.2 143.649 342.083 143.649ZM342.083 179.083C431.35 179.083 503.733 251.499 503.733 340.733H486C486 261.316 421.517 196.816 342.083 196.816C262.6 196.816 198.117 261.316 198.117 340.733H180.4C180.4 251.499 252.783 179.083 342.083 179.083Z" fill="#8D93A5"/>
<path fill-rule="evenodd" clip-rule="evenodd" d="M101.417 345.017V325.7H120.733V345.017H101.417ZM563.45 345.017V325.7H582.8V345.017H563.45ZM101.417 314.167V294.883H120.7V314.167H101.417ZM563.483 314.167V294.883H582.8V314.167H563.483ZM101.417 283.3V264.017H120.7V283.3H101.417ZM563.483 283.3V264.017H582.8V283.3H563.483ZM101.417 252.483V233.167H120.7V252.483H101.417ZM563.483 252.483V233.167H582.8V252.483H563.483ZM101.383 221.65V202.333H120.7V221.65H101.383ZM134.467 221.65V202.333H153.767V221.65H134.467ZM530.45 221.65V202.333H549.733V221.65H530.45ZM563.483 221.65V202.333H582.833V221.65H563.483ZM101.417 189.2V169.85H120.733V189.2H101.417ZM134.5 189.2V169.85H153.8V189.2H134.5ZM167.55 189.2V169.85H186.85V189.2H167.55ZM497.333 189.2V169.85H516.633V189.2H497.333ZM530.416 189.2V169.85H549.7V189.2H530.416ZM563.45 189.2V169.85H582.8V189.2H563.45ZM101.417 158.333V139.033H120.733V158.333H101.417ZM134.5 158.333V139.033H153.8V158.333H134.5ZM167.55 158.333V139.033H186.85V158.333H167.55ZM200.567 158.333V139.033H219.9V158.333H200.567ZM464.3 158.333V139.033H483.633V158.333H464.3ZM497.333 158.333V139.033H516.633V158.333H497.333ZM530.416 158.333V139.033H549.7V158.333H530.416ZM563.45 158.333V139.033H582.8V158.333H563.45Z" fill="#1C274C"/>
</svg>
