<svg width="480" height="482" viewBox="0 0 480 482" fill="none" xmlns="http://www.w3.org/2000/svg">
<path d="M467.653 406.484C475.259 414.712 479.386 425.564 479.168 436.767C478.95 447.97 474.405 458.654 466.484 466.58C458.564 474.506 447.883 479.058 436.68 479.284C425.478 479.509 414.622 475.39 406.39 467.789L241 302.4L75.6106 467.789C71.6464 472.077 66.8571 475.521 61.5298 477.913C56.2026 480.305 50.4471 481.596 44.6086 481.71C38.7701 481.823 32.9688 480.756 27.5526 478.573C22.1363 476.39 17.2168 473.136 13.089 469.005C8.96118 464.874 5.71008 459.953 3.53069 454.535C1.35129 449.117 0.288483 443.315 0.406 437.477C0.523517 431.638 1.81894 425.884 4.21458 420.558C6.61022 415.232 10.0567 410.445 14.3474 406.484L179.737 241.095L14.3474 75.7895C10.0567 71.8283 6.61022 67.0413 4.21458 61.7157C1.81894 56.3901 0.523517 50.6355 0.406 44.7971C0.288483 38.9586 1.35129 33.1566 3.53069 27.7389C5.71008 22.3212 8.96118 17.3994 13.089 13.2688C17.2168 9.13809 22.1363 5.88362 27.5526 3.70051C32.9688 1.51739 38.7701 0.450596 44.6086 0.564102C50.4471 0.677608 56.2026 1.96907 61.5298 4.36105C66.8571 6.75303 71.6464 10.1963 75.6106 14.4842L241 179.832L406.39 14.4421C414.622 6.8414 425.478 2.72215 436.68 2.94765C447.883 3.17314 458.564 7.72584 466.484 15.6517C474.405 23.5776 478.95 34.2614 479.168 45.4643C479.386 56.6672 475.259 67.5197 467.653 75.7474L302.263 241.095L467.653 406.484Z" fill="#8D92A5"/>
</svg>
