<svg width="512" height="512" viewBox="0 0 512 512" fill="none" xmlns="http://www.w3.org/2000/svg">
<path d="M105.778 256H22.2222C9.94923 256 0 265.949 0 278.222V489.778C0 502.051 9.94923 512 22.2222 512H105.778C118.051 512 128 502.051 128 489.778V278.222C128 265.949 118.051 256 105.778 256Z" fill="#8D93A5"/>
<path d="M297.778 0H214.222C201.949 0 192 9.94923 192 22.2222V489.778C192 502.051 201.949 512 214.222 512H297.778C310.051 512 320 502.051 320 489.778V22.2222C320 9.94923 310.051 0 297.778 0Z" fill="#8D93A5"/>
<path d="M489.778 170.667H406.222C393.949 170.667 384 180.616 384 192.889V489.778C384 502.051 393.949 512 406.222 512H489.778C502.051 512 512 502.051 512 489.778V192.889C512 180.616 502.051 170.667 489.778 170.667Z" fill="#8D93A5"/>
</svg>
