<svg width="616" height="616" viewBox="0 0 616 616" fill="none" xmlns="http://www.w3.org/2000/svg">
<path d="M8 308C8 60.95 60.95 8 308 8C555.05 8 608 60.95 608 308C608 555.05 555.05 608 308 608C60.95 608 8 555.05 8 308Z" stroke="#8D93A5" stroke-width="15"/>
<path d="M109 253.529C109 244.692 116.163 237.529 125 237.529H158.611C167.447 237.529 174.611 244.692 174.611 253.529V400.341H109V253.529Z" fill="#1C274C"/>
<path d="M109 408.239H174.611V470C174.611 478.836 167.447 486 158.611 486H125C116.163 486 109 478.836 109 470V408.239Z" fill="#1C274C"/>
<path d="M192.229 202.499C192.229 193.662 199.392 186.499 208.229 186.499H241.84C250.676 186.499 257.84 193.662 257.84 202.499V382.749H192.229V202.499Z" fill="#1C274C"/>
<path d="M192.229 392.269H257.84V470.001C257.84 478.837 250.676 486.001 241.84 486.001H208.229C199.392 486.001 192.229 478.837 192.229 470.001V392.269Z" fill="#1C274C"/>
<path d="M275.458 146C275.458 137.163 282.621 130 291.458 130H325.068C333.905 130 341.068 137.163 341.068 146V330.478H275.458V146Z" fill="#1C274C"/>
<path d="M275.458 339.59H341.068V470C341.068 478.836 333.905 486 325.068 486H291.458C282.621 486 275.458 478.836 275.458 470V339.59Z" fill="#1C274C"/>
<path d="M358.686 346.478C358.686 337.641 365.849 330.478 374.686 330.478H408.297C417.134 330.478 424.297 337.641 424.297 346.478V434.969H358.686V346.478Z" fill="#1C274C"/>
<path d="M358.686 444.69H424.297V470C424.297 478.837 417.134 486 408.297 486H374.686C365.849 486 358.686 478.837 358.686 470V444.69Z" fill="#1C274C"/>
<path d="M441.915 253.529C441.915 244.692 449.078 237.529 457.915 237.529H491.526C500.363 237.529 507.526 244.692 507.526 253.529V400.341H441.915V253.529Z" fill="#1C274C"/>
<path d="M441.915 408.239H507.526V470C507.526 478.836 500.363 486 491.526 486H457.915C449.078 486 441.915 478.836 441.915 470V408.239Z" fill="#1C274C"/>
</svg>
