<?xml version="1.0" encoding="iso-8859-1"?>
<!-- Uploaded to: SVG Repo, www.svgrepo.com, Generator: SVG Repo Mixer Tools -->
<svg height="800px" width="800px" version="1.1" id="Layer_1" xmlns="http://www.w3.org/2000/svg" xmlns:xlink="http://www.w3.org/1999/xlink" 
	 viewBox="0 0 512.003 512.003" xml:space="preserve">
<path style="fill:#B3404A;" d="M498.126,128.326H352.922v-63.86c0-7.662-6.211-13.873-13.874-13.873H13.873
	C6.211,50.593,0,56.804,0,64.467v136.039c0,7.662,6.211,13.874,13.873,13.874s13.873-6.211,13.873-13.874V78.34h297.428v49.986
	H172.951c-7.662,0-13.874,6.211-13.874,13.873v163.671h-20.24c-2.357,0-4.675,0.601-6.736,1.745l-66.859,37.135l2.432-23.584
	c0.404-3.907-0.868-7.801-3.499-10.717c-2.63-2.916-6.373-4.58-10.301-4.58H13.873C6.211,305.871,0,312.082,0,319.745
	s6.211,13.874,13.873,13.874h24.623l-3.584,34.761c-0.53,5.143,1.844,10.154,6.158,13.002c2.311,1.525,4.974,2.293,7.642,2.293
	c2.315,0,4.635-0.579,6.736-1.745l86.984-48.312h16.645v63.858c0,7.662,6.211,13.874,13.874,13.874h115.15
	c7.662,0,13.874-6.211,13.874-13.874s-6.211-13.874-13.874-13.874H186.825v-49.985H339.05c7.662,0,13.874-6.211,13.874-13.874
	V156.073h131.331v227.529h-26.127c-3.928,0-7.671,1.665-10.301,4.58c-2.63,2.915-3.903,6.81-3.499,10.717l2.432,23.584
	l-66.859-37.135c-6.701-3.721-15.144-1.305-18.865,5.393c-3.721,6.698-1.305,15.144,5.393,18.865l90.125,50.058
	c2.1,1.167,4.42,1.745,6.736,1.745c2.668,0,5.332-0.769,7.642-2.293c4.316-2.848,6.69-7.859,6.16-13.004l-3.584-34.761h24.623
	c7.662,0,13.873-6.211,13.873-13.874V142.2C512,134.538,505.789,128.326,498.126,128.326z M325.175,305.871H186.823V156.073h138.352
	V305.871z"/>
<polygon style="fill:#F4B2B0;" points="223.899,319.743 339.049,319.743 339.049,142.2 172.951,142.2 172.951,319.743 "/>
<path style="fill:#B3404A;" d="M339.049,333.618H172.951c-7.662,0-13.874-6.211-13.874-13.873V142.2
	c0-7.662,6.211-13.874,13.874-13.874H339.05c7.662,0,13.874,6.211,13.874,13.874v177.545
	C352.922,327.407,346.711,333.618,339.049,333.618z M186.825,305.871h138.352V156.073H186.825V305.871z"/>
</svg>