<svg width="462" height="800" viewBox="0 0 462 800" fill="none" xmlns="http://www.w3.org/2000/svg">
<path d="M393.916 67.4813C352.338 25.8297 294.525 -0.0249819 231 1.81138e-05C167.475 -0.0249819 109.663 25.8297 68.0844 67.4813C26.4579 109.083 0.579737 166.87 0.603174 230.397C0.578174 284.523 19.3782 334.547 50.725 373.83C59.9532 385.452 67.9376 395.094 74.3094 403.37C79.0954 409.572 82.9766 414.992 86.0532 419.923C90.6672 427.345 93.475 433.473 95.55 440.822C97.5766 448.195 98.8219 457.18 98.8454 469.875C98.8454 478.42 99.7969 486.745 102.191 494.923C103.973 501.027 106.634 507.081 110.394 512.648C115.936 521.047 124.164 528.103 133.197 532.278C142.206 536.502 151.605 538.041 160.37 538.041H301.655C309.442 538.041 317.719 536.82 325.825 533.573C331.88 531.156 337.788 527.544 342.817 522.905C350.434 515.97 355.781 507.059 358.881 497.978C362.006 488.847 363.178 479.497 363.178 469.878C363.178 458.598 364.18 450.225 365.816 443.364C368.355 433.109 372.066 425.492 379.317 414.823C386.519 404.252 397.408 391.264 411.323 373.833C442.647 334.55 461.422 284.502 461.397 230.4C461.42 166.87 435.541 109.083 393.916 67.4813ZM359.955 332.911C351.092 343.995 343.109 353.688 335.711 363.233C330.194 370.411 324.994 377.539 320.233 385.156C313.128 396.533 307.074 409.18 303.167 423.341C299.261 437.502 297.503 452.808 297.503 469.873C297.503 470.802 297.478 471.631 297.43 472.364H164.617C164.569 471.631 164.519 470.827 164.519 469.873C164.519 454.687 163.152 440.919 160.052 428.077C155.511 408.766 146.941 392.261 136.883 377.686C126.752 362.989 115.3 349.561 102.092 332.911C79.6313 304.713 66.3016 269.264 66.2766 230.397C66.3016 184.816 84.661 143.848 114.544 113.917C144.452 84.0578 185.395 65.6735 231 65.6735C276.605 65.6735 317.572 84.0578 347.48 113.916C377.338 143.847 395.697 184.814 395.722 230.395C395.697 269.288 382.367 304.736 359.955 332.911Z" fill="#8D93A5"/>
<path d="M231 800C258.197 800 280.267 777.954 280.267 750.732H181.731C181.733 777.954 203.803 800 231 800Z" fill="#1C274C"/>
<path d="M315.448 577.148H146.576C131.88 577.148 119.989 589.038 119.989 603.711C119.989 618.408 131.878 630.298 146.576 630.298H315.448C330.122 630.298 342.036 618.409 342.036 603.711C342.036 589.038 330.122 577.148 315.448 577.148Z" fill="#1C274C"/>
<path d="M315.448 662.964H146.576C131.88 662.964 119.989 674.853 119.989 689.551C119.989 704.225 131.878 716.114 146.576 716.114H315.448C330.122 716.114 342.036 704.225 342.036 689.551C342.036 674.853 330.122 662.964 315.448 662.964Z" fill="#1C274C"/>
</svg>
