<svg width="736" height="736" viewBox="0 0 736 736" fill="none" xmlns="http://www.w3.org/2000/svg">
<path d="M320.333 715.667L20.3333 415.667C-6.33335 389 -6.33335 347.334 20.3333 320.667L320.333 20.667C347 -5.99967 388.667 -5.99967 415.333 20.667L715.333 320.667C742 347.334 742 389 715.333 415.667L415.333 715.667C388.667 742.334 345.333 742.334 320.333 715.667Z" fill="#F44336"/>
<path d="M327 514C327 509 328.667 504 330.333 499C332 494 335.333 490.667 338.667 487.334C342 484 347 480.667 352 479C357 477.334 362 475.667 368.667 475.667C375.333 475.667 380.333 477.334 385.333 479C390.333 480.667 395.333 484 398.667 487.334C402 490.667 405.333 494 407 499C408.667 504 410.333 509 410.333 514C410.333 519 408.667 524 407 529C405.333 534 402 537.334 398.667 540.667C395.333 544 390.333 547.334 385.333 549C380.333 550.667 375.333 552.334 368.667 552.334C362 552.334 357 550.667 352 549C347 547.334 343.667 544 338.667 540.667C335.333 537.334 332 534 330.333 529C328.667 524 327 520.667 327 514ZM397 437.334H337L328.667 185.667H405.333L397 437.334Z" fill="white"/>
</svg>
