<?xml version="1.0" encoding="utf-8"?>
<!-- Generator: Adobe Illustrator 28.4.1, SVG Export Plug-In . SVG Version: 6.00 Build 0)  -->
<svg version="1.1" id="Layer_1" xmlns="http://www.w3.org/2000/svg" xmlns:xlink="http://www.w3.org/1999/xlink" x="0px" y="0px"
	 viewBox="0 0 12 12" style="enable-background:new 0 0 12 12;" xml:space="preserve">
<style type="text/css">
	.st0{fill:#1C274C;}
	.st1{fill:#8E94A5;}
</style>
<g>
	<path class="st0" d="M6.7,0.2v1.2l-1.3,0V0.2c0-0.1,0-0.1,0.1-0.2C5.5,0,5.6,0,5.6,0h0.9c0.1,0,0.1,0,0.2,0.1
		C6.7,0.1,6.7,0.2,6.7,0.2z"/>
	<path class="st0" d="M6.7,10.6v1.2c0,0.1,0,0.1-0.1,0.2c0,0-0.1,0.1-0.2,0.1H5.6c-0.1,0-0.1,0-0.1-0.1c0,0-0.1-0.1-0.1-0.2v-1.2
		L6.7,10.6z"/>
	<path class="st1" d="M9.1,7.9c0,0.7-0.2,1.3-0.7,1.8c-0.5,0.5-1,0.8-1.7,0.9l-1.3,0v0c-0.3,0-0.6-0.1-0.9-0.2
		c-0.3-0.1-0.5-0.2-0.7-0.3C3.7,10,3.5,9.9,3.4,9.8C3.2,9.7,3.1,9.6,3.1,9.5C3,9.5,3,9.4,2.9,9.4c-0.1-0.1-0.1-0.2,0-0.3l0.7-0.9
		c0,0,0.1-0.1,0.2-0.1c0.1,0,0.1,0,0.2,0.1l0,0C4.5,8.7,5,9,5.6,9.1c0.2,0,0.3,0,0.5,0c0.4,0,0.7-0.1,1-0.3C7.3,8.6,7.4,8.4,7.4,8
		c0-0.1,0-0.2-0.1-0.4C7.3,7.5,7.2,7.5,7.1,7.4C7,7.3,6.9,7.2,6.7,7.1C6.5,7,6.4,7,6.3,6.9C6.2,6.9,6,6.8,5.7,6.7
		C5.6,6.6,5.4,6.6,5.3,6.5c-0.1,0-0.2-0.1-0.4-0.2C4.7,6.3,4.6,6.2,4.5,6.1C4.4,6.1,4.3,6,4.1,5.9C4,5.8,3.9,5.7,3.8,5.6
		C3.7,5.5,3.6,5.4,3.5,5.3C3.4,5.2,3.3,5,3.2,4.9C3.2,4.8,3.1,4.6,3.1,4.5C3.1,4.3,3,4.1,3,3.9c0-0.6,0.2-1.2,0.7-1.6
		c0.4-0.5,1-0.8,1.7-0.9v0l1.3,0h0c0.2,0,0.5,0.1,0.7,0.2c0.2,0.1,0.4,0.2,0.6,0.2C8.2,1.8,8.3,1.9,8.5,2c0.1,0.1,0.2,0.2,0.3,0.2
		c0,0,0.1,0.1,0.1,0.1c0.1,0.1,0.1,0.2,0,0.2l-0.5,1c0,0.1-0.1,0.1-0.2,0.1c-0.1,0-0.1,0-0.2-0.1c0,0,0,0-0.1-0.1
		c-0.1,0-0.1-0.1-0.3-0.2C7.5,3.3,7.4,3.2,7.2,3.1C7.1,3.1,6.9,3,6.7,3C6.6,2.9,6.4,2.9,6.2,2.9c-0.4,0-0.8,0.1-1,0.3
		C4.9,3.4,4.7,3.6,4.7,3.9c0,0.1,0,0.2,0.1,0.3c0,0.1,0.1,0.2,0.2,0.3c0.1,0.1,0.2,0.2,0.3,0.2s0.2,0.1,0.4,0.2C5.8,5,5.9,5.1,6,5.1
		c0.1,0,0.3,0.1,0.5,0.2C6.7,5.4,6.9,5.5,7,5.5c0.1,0.1,0.3,0.1,0.5,0.2C7.8,5.8,7.9,6,8.1,6c0.1,0.1,0.3,0.2,0.4,0.3
		c0.2,0.1,0.3,0.3,0.4,0.4C8.9,6.9,9,7.1,9,7.3C9.1,7.5,9.1,7.7,9.1,7.9z"/>
</g>
</svg>
