<svg width="700" height="700" viewBox="0 0 700 700" fill="none" xmlns="http://www.w3.org/2000/svg">
<path fill-rule="evenodd" clip-rule="evenodd" d="M50 300C22.385 300 1.95705e-06 277.614 4.37114e-06 250L1.74846e-05 99.9999C2.23129e-05 44.7699 44.77 -5.7282e-05 100 -5.24537e-05L600 -8.74228e-06C655.229 -3.91405e-06 700 44.77 700 100L700 250C700 277.614 677.614 300 650 300C622.386 300 600 277.614 600 250L600 100L100 99.9999L100 250C100 277.614 77.615 300 50 300Z" fill="#1C274C"/>
<path d="M300 650C300 677.614 322.386 700 350 700C377.614 700 400 677.614 400 650L400 420.71L464.645 485.355C484.171 504.881 515.829 504.881 535.356 485.355C554.882 465.829 554.882 434.171 535.356 414.644L350 229.29L164.645 414.644C145.12 434.171 145.12 465.829 164.645 485.355C184.17 504.881 215.83 504.881 235.355 485.355L300 420.71L300 650Z" fill="#8D93A5"/>
</svg>
