<svg width="734" height="600" viewBox="0 0 734 600" fill="none" xmlns="http://www.w3.org/2000/svg">
<path d="M633.667 100H733.667V166.667H700.333V533.333H733.667V600H0.333496V533.333H33.6668V166.667H0.333496V100H100.333V33.3333C100.333 24.4928 103.845 16.0143 110.097 9.76311C116.348 3.51189 124.826 0 133.667 0H600.333C609.174 0 617.653 3.51189 623.904 9.76311C630.155 16.0143 633.667 24.4928 633.667 33.3333V100ZM633.667 166.667H100.333V533.333H200.333V300H267V533.333H333.667V300H400.333V533.333H467V300H533.667V533.333H633.667V166.667ZM167 66.6667V100H567V66.6667H167Z" fill="#8D93A5"/>
</svg>
