<svg width="616" height="616" viewBox="0 0 616 616" fill="none" xmlns="http://www.w3.org/2000/svg">
<g clip-path="url(#clip0_2065_26)">
<path d="M169 150.833V431.833" stroke="#1C274C" stroke-width="48" stroke-linecap="round" stroke-linejoin="round"/>
<path fill-rule="evenodd" clip-rule="evenodd" d="M235 204C235 169.758 262.982 142 297.5 142C332.018 142 360 169.758 360 204C360 238.242 332.018 266 297.5 266C262.982 266 235 238.242 235 204Z" fill="#1C274C"/>
<path d="M429 248C462.137 248 489 274.863 489 308C489 341.137 462.137 368 429 368C395.863 368 369 341.137 369 308C369 274.863 395.863 248 429 248Z" stroke="#1C274C" stroke-width="40"/>
<path d="M486 431.833L176 431.833" stroke="#1C274C" stroke-width="48" stroke-linecap="round" stroke-linejoin="round"/>
<path d="M8 308C8 60.95 60.95 8 308 8C555.05 8 608 60.95 608 308C608 555.05 555.05 608 308 608C60.95 608 8 555.05 8 308Z" stroke="#8D93A5" stroke-width="15"/>
</g>
<defs>
<clipPath id="clip0_2065_26">
<rect width="616" height="616" fill="white"/>
</clipPath>
</defs>
</svg>
