<svg width="734" height="734" viewBox="0 0 734 734" fill="none" xmlns="http://www.w3.org/2000/svg">
<path fill-rule="evenodd" clip-rule="evenodd" d="M733.667 100.333C733.667 45.1047 688.897 0.333008 633.667 0.333008H100.333C45.1052 0.333008 0.333496 45.1047 0.333496 100.333V633.666C0.333496 688.896 45.1052 733.666 100.333 733.666H633.667C688.897 733.666 733.667 688.896 733.667 633.666V100.333ZM667 100.333C667 81.9237 652.077 66.9997 633.667 66.9997H100.333C81.9242 66.9997 67.0002 81.9237 67.0002 100.333V633.666C67.0002 652.076 81.9242 667 100.333 667H633.667C652.077 667 667 652.076 667 633.666V100.333Z" fill="#8D93A5"/>
<path d="M127.222 551.037L271.07 287.316C283.704 264.154 316.963 264.154 329.597 287.316L435.217 480.953L471.393 417.647C484.19 395.253 516.477 395.253 529.273 417.647L605.17 550.463C617.867 572.683 601.82 600.333 576.227 600.333H156.485C131.183 600.333 115.106 573.25 127.222 551.037Z" fill="#8D93A5"/>
<path d="M567 233.667C567 270.486 537.153 300.333 500.333 300.333C463.513 300.333 433.667 270.486 433.667 233.667C433.667 196.848 463.513 167 500.333 167C537.153 167 567 196.848 567 233.667Z" fill="#1C274C"/>
</svg>
