<svg width="750" height="800" viewBox="0 0 750 800" fill="none" xmlns="http://www.w3.org/2000/svg">
<path d="M650 50C663.261 50 675.979 55.2678 685.355 64.6447C694.732 74.0215 700 86.7392 700 100V700C700 713.261 694.732 725.979 685.355 735.355C675.979 744.732 663.261 750 650 750H100C86.7392 750 74.0215 744.732 64.6447 735.355C55.2678 725.979 50 713.261 50 700V100C50 86.7392 55.2678 74.0215 64.6447 64.6447C74.0215 55.2678 86.7392 50 100 50H650ZM100 0C73.4784 0 48.043 10.5357 29.2893 29.2893C10.5357 48.043 0 73.4784 0 100V700C0 726.522 10.5357 751.957 29.2893 770.711C48.043 789.464 73.4784 800 100 800H650C676.522 800 701.957 789.464 720.711 770.711C739.464 751.957 750 726.522 750 700V100C750 73.4784 739.464 48.043 720.711 29.2893C701.957 10.5357 676.522 0 650 0L100 0Z" fill="#8D93A5"/>
<path d="M300 150C300 136.739 305.268 124.021 314.645 114.645C324.021 105.268 336.739 100 350 100H400C413.261 100 425.979 105.268 435.355 114.645C444.732 124.021 450 136.739 450 150V300C450 313.261 444.732 325.979 435.355 335.355C425.979 344.732 413.261 350 400 350H350C336.739 350 324.021 344.732 314.645 335.355C305.268 325.979 300 313.261 300 300V150ZM100 150C100 136.739 105.268 124.021 114.645 114.645C124.021 105.268 136.739 100 150 100H200C213.261 100 225.979 105.268 235.355 114.645C244.732 124.021 250 136.739 250 150V500C250 513.261 244.732 525.979 235.355 535.355C225.979 544.732 213.261 550 200 550H150C136.739 550 124.021 544.732 114.645 535.355C105.268 525.979 100 513.261 100 500V150ZM500 150C500 136.739 505.268 124.021 514.645 114.645C524.021 105.268 536.739 100 550 100H600C613.261 100 625.979 105.268 635.355 114.645C644.732 124.021 650 136.739 650 150V650C650 663.261 644.732 675.979 635.355 685.355C625.979 694.732 613.261 700 600 700H550C536.739 700 524.021 694.732 514.645 685.355C505.268 675.979 500 663.261 500 650V150Z" fill="#1C274C"/>
</svg>
