<svg width="668" height="668" viewBox="0 0 668 668" fill="none" xmlns="http://www.w3.org/2000/svg">
<path d="M634 634H87.3333C68.665 634 59.3307 634 52.2003 630.367C45.9283 627.17 40.829 622.073 37.633 615.8C34 608.67 34 599.337 34 580.667V34" stroke="#8D93A5" stroke-width="66.6667" stroke-linecap="round" stroke-linejoin="round"/>
<path d="M634 167.333L452.856 348.477C446.256 355.077 442.956 358.377 439.15 359.613C435.803 360.703 432.196 360.703 428.85 359.613C425.043 358.377 421.743 355.077 415.143 348.477L352.856 286.19C346.256 279.59 342.956 276.29 339.15 275.053C335.803 273.963 332.196 273.963 328.85 275.053C325.043 276.29 321.743 279.59 315.143 286.19L167.333 434M634 167.333H500.666M634 167.333V300.667" stroke="#1C274C" stroke-width="66.6667" stroke-linecap="round" stroke-linejoin="round"/>
</svg>
