<svg width="416" height="416" viewBox="0 0 416 416" fill="none" xmlns="http://www.w3.org/2000/svg">
<path d="M413.92 402.688L319.072 229.632C317.408 226.304 314.08 224.64 310.752 224.64C307.424 224.64 304.096 226.304 302.432 229.632L269.152 297.856L172.64 118.144V86.528H267.488C270.816 86.528 274.144 84.864 275.808 81.536C277.472 78.208 275.808 74.88 274.144 71.552L245.856 43.264L274.144 14.976C275.808 13.312 277.472 8.32 275.808 4.992C274.144 1.664 270.816 0 267.488 0H164.32C159.328 0 156 3.328 156 8.32V118.144L1.248 401.024C-0.416 404.352 -0.416 407.68 1.248 409.344C2.912 414.336 4.576 416 7.904 416H319.072H405.6C408.928 416 412.256 414.336 412.256 411.008C415.584 407.68 415.584 406.016 413.92 402.688Z" fill="#8D93A5"/>
<path d="M164.32 139.776L209.248 221.312L192.608 237.952L172.64 211.328C169.312 206.336 162.656 206.336 159.328 211.328L139.36 237.952L122.72 221.312L164.32 139.776Z" fill="#1C274C"/>
</svg>
