<svg width="602" height="634" viewBox="0 0 602 634" fill="none" xmlns="http://www.w3.org/2000/svg">
<path d="M401 534H201C201 560.522 211.536 585.957 230.289 604.711C249.043 623.464 274.478 634 301 634C327.522 634 352.957 623.464 371.711 604.711C390.464 585.957 401 560.522 401 534Z" fill="#1C274C"/>
<path d="M501 234V367.333L547 413.333C556.895 423.216 563.636 435.814 566.368 449.53C569.099 463.246 567.7 477.464 562.346 490.385C556.993 503.305 547.925 514.346 536.293 522.11C524.66 529.874 510.986 534.012 497 534H105C91.0144 534.012 77.3396 529.874 65.7071 522.11C54.0746 514.346 45.0074 503.305 39.6537 490.385C34.3 477.464 32.9004 463.246 35.6323 449.53C38.3641 435.814 45.1045 423.216 55 413.333L101 367.333V234C101 180.957 122.071 130.086 159.579 92.5785C197.086 55.0713 247.957 33.9999 301 33.9999C334.534 33.9346 367.546 42.3022 397 58.3332" stroke="#8D93A5" stroke-width="66.6667" stroke-linecap="round" stroke-linejoin="round"/>
<path d="M367.667 134C367.667 160.522 378.202 185.957 396.956 204.711C415.709 223.464 441.145 234 467.667 234C494.188 234 519.624 223.464 538.377 204.711C557.131 185.957 567.666 160.522 567.666 134C567.666 107.478 557.131 82.043 538.377 63.2893C519.624 44.5357 494.188 34 467.667 34C441.145 34 415.709 44.5357 396.956 63.2893C378.202 82.043 367.667 107.478 367.667 134Z" fill="#1C274C" stroke="white" stroke-width="43" stroke-linecap="round" stroke-linejoin="round"/>
</svg>
