<svg width="616" height="616" viewBox="0 0 616 616" fill="none" xmlns="http://www.w3.org/2000/svg">
<path d="M8 308C8 60.95 60.95 8 308 8C555.05 8 608 60.95 608 308C608 555.05 555.05 608 308 608C60.95 608 8 555.05 8 308Z" stroke="#8D93A5" stroke-width="15"/>
<path d="M501.11 341.376C496.403 368.418 486.064 394.055 470.88 416.674L460.839 406.638L460.822 406.621L346.484 292.121V116.423C373.221 121.69 398.667 132.514 421.123 148.313C451.393 169.609 474.982 199.065 489.143 233.246C503.304 267.428 507.454 304.927 501.11 341.376ZM217.383 135.158C234.06 126.393 251.872 120.109 270.256 116.462V278.887L127.013 317.902L126.987 317.909L126.961 317.916L113.482 321.616C112.167 302.95 113.542 284.141 117.605 265.772C123.735 238.06 135.837 212.017 153.07 189.459C170.302 166.901 192.25 148.37 217.383 135.158ZM147.256 391.32L297.206 350.973L406.865 460.587L406.932 460.655L407.001 460.722L416.676 470.257C397.748 482.86 376.7 492.103 354.454 497.498C322.832 505.166 289.795 504.814 258.344 496.474C226.893 488.135 198.026 472.072 174.367 449.747C157.659 433.982 143.922 415.448 133.722 395.035L147.125 391.356L147.256 391.32Z" stroke="#1C274C" stroke-width="54"/>
</svg>
