<svg width="789" height="800" viewBox="0 0 789 800" fill="none" xmlns="http://www.w3.org/2000/svg">
<path d="M602.05 209.223C659.73 209.223 706.661 162.295 706.661 104.611C706.661 46.928 659.73 0 602.05 0C544.369 0 497.441 46.928 497.441 104.611C497.441 162.295 544.366 209.223 602.05 209.223ZM602.05 45.3037C634.75 45.3037 661.357 71.9111 661.357 104.611C661.357 137.312 634.75 163.919 602.05 163.919C569.349 163.919 542.745 137.312 542.745 104.611C542.745 71.9111 569.347 45.3037 602.05 45.3037Z" fill="#1C274C"/>
<path d="M723.049 523.397C686.359 609.159 603.612 669.377 506.079 675.421L545.672 635.825C554.518 626.977 554.518 612.636 545.672 603.79C536.824 594.947 522.486 594.947 513.637 603.79L434.868 682.562C426.023 691.41 426.023 705.751 434.868 714.597L513.637 793.366C518.06 797.786 523.857 800 529.656 800C535.456 800 541.25 797.789 545.675 793.366C554.521 784.52 554.521 770.177 545.675 761.331L505.198 720.857C648.608 713.757 777.301 605.975 787.289 465.194C789.495 434.104 787.868 340.526 787.868 340.526C787.868 295.866 760.156 256.375 717.788 242.255C717.616 242.198 688.353 233.218 688.353 233.218C676.827 229.673 664.555 235.793 660.425 247.114L622.631 350.807C622.631 350.807 613.077 291.618 612.285 290.311C612.331 290.233 612.39 290.166 612.436 290.088L632.511 255.316C634.653 251.604 634.653 247.036 632.511 243.324C630.37 239.612 626.408 237.328 622.125 237.328H581.974C577.691 237.328 573.729 239.612 571.588 243.324C569.446 247.036 569.446 251.604 571.588 255.316L591.663 290.088C591.709 290.166 591.765 290.236 591.814 290.311C591.022 291.618 581.468 350.807 581.468 350.807L543.676 247.114C539.55 235.79 527.27 229.668 515.749 233.218C515.749 233.218 486.486 242.198 486.313 242.255C443.946 256.375 415.483 295.866 415.483 340.526V500.746C415.483 513.255 425.624 523.397 438.133 523.397H723.049ZM460.784 478.096V340.526C460.784 315.48 476.692 293.323 500.398 285.309L508.474 282.831L579.641 478.093L460.784 478.096ZM742.295 453.46C742.295 467.661 723.73 478.096 708.735 478.096H624.455L695.625 282.834L703.701 285.312C727.41 293.325 742.295 315.48 742.295 340.528C742.295 340.528 742.295 423.33 742.295 453.46Z" fill="#8D93A5"/>
<path d="M187.353 592.307C226.825 592.307 258.938 560.194 258.938 520.722C258.938 481.253 226.825 449.137 187.353 449.137C147.884 449.137 115.768 481.25 115.768 520.722C115.771 560.191 147.884 592.307 187.353 592.307ZM187.353 494.44C201.845 494.44 213.637 506.23 213.637 520.722C213.637 535.213 201.845 547.003 187.353 547.003C172.862 547.003 161.072 535.213 161.072 520.722C161.072 506.23 172.862 494.44 187.353 494.44Z" fill="#1C274C"/>
<path d="M305.697 52.396C296.848 43.5529 282.51 43.5529 273.662 52.396C264.816 61.2445 264.816 75.5852 273.662 84.431L314.128 124.894C157.414 132.455 32.1506 258.492 30.7526 427.685L3.0354 475.693C0.0320309 480.894 -0.781438 487.079 0.772771 492.881C2.32698 498.683 6.12227 503.631 11.3263 506.634L35.725 520.722L11.3263 534.81C6.12496 537.813 2.32698 542.761 0.772771 548.563C-0.784131 554.365 0.0320309 560.55 3.0354 565.751L56.199 657.832C62.4536 668.668 76.3041 672.372 87.1405 666.123L111.539 652.035V680.207C111.539 692.717 121.681 702.858 134.19 702.858H240.514C253.023 702.858 263.165 692.717 263.165 680.207V652.035L287.563 666.123C292.765 669.126 298.949 669.939 304.751 668.385C310.553 666.831 315.501 663.036 318.505 657.832L371.666 565.751C377.92 554.917 374.208 541.064 363.375 534.81L338.973 520.722L363.375 506.634C374.208 500.377 377.92 486.527 371.666 475.693L318.505 383.612C315.501 378.411 310.553 374.613 304.751 373.059C298.949 371.496 292.765 372.318 287.563 375.321L263.165 389.409V361.234C263.165 348.725 253.023 338.583 240.514 338.583H134.192C121.683 338.583 111.542 348.725 111.542 361.234V389.409L87.1432 375.321C85.1714 374.185 83.1 373.385 80.991 372.892C103.254 262.238 197.918 177.49 313.258 170.343L273.662 209.937C264.816 218.783 264.816 233.126 273.662 241.972C278.085 246.392 283.881 248.606 289.681 248.606C295.48 248.606 301.274 246.395 305.699 241.972L384.471 163.2C388.719 158.95 391.105 153.188 391.105 147.181C391.105 141.172 388.719 135.413 384.471 131.162L305.697 52.396ZM122.866 448.259C129.877 452.302 138.505 452.302 145.516 448.259C152.525 444.213 156.843 436.735 156.843 428.641V383.882H217.866V428.641C217.866 436.735 222.184 444.21 229.193 448.259C236.204 452.302 244.837 452.302 251.843 448.259L290.604 425.88L321.115 478.726L282.354 501.104C275.345 505.15 271.027 512.628 271.027 520.722C271.027 528.816 275.345 536.291 282.354 540.339L321.115 562.718L290.604 615.564L251.843 593.185C244.832 589.142 236.199 589.142 229.193 593.185C222.184 597.231 217.866 604.709 217.866 612.803V657.56H156.843V612.803C156.843 604.709 152.525 597.234 145.516 593.185C138.505 589.142 129.877 589.142 122.866 593.185L84.1048 615.564L53.5916 562.718L92.3526 540.339C99.3613 536.294 103.679 528.816 103.679 520.722C103.679 512.628 99.3613 505.153 92.3526 501.104L53.5916 478.726L84.1048 425.88L122.866 448.259Z" fill="#8D93A5"/>
</svg>
