<svg width="898" height="681" viewBox="0 0 898 681" fill="none" xmlns="http://www.w3.org/2000/svg">
<path d="M869.032 14.4894H579.355C563.356 14.4894 550.387 27.466 550.387 43.4681V86.9362H477.968C461.969 86.9362 449 99.9128 449 115.915V333.255H217.258V231.83H376.581C392.58 231.83 405.548 218.853 405.548 202.851V28.9787C405.548 12.9767 392.58 0 376.581 0H28.9677C12.9689 0 0 12.9767 0 28.9787V202.851C0 218.853 12.9689 231.83 28.9677 231.83H159.323V362.234C159.323 378.236 172.291 391.213 188.29 391.213H449V594.064C449 610.066 461.969 623.043 477.968 623.043H550.387V652.021C550.387 668.023 563.356 681 579.355 681H869.032C885.031 681 898 668.023 898 652.021V507.128C898 491.126 885.031 478.149 869.032 478.149H579.355C563.356 478.149 550.387 491.126 550.387 507.128V565.085H506.936V391.213H550.387V420.192C550.387 436.194 563.356 449.17 579.355 449.17H869.032C885.031 449.17 898 436.194 898 420.192V275.298C898 259.296 885.031 246.319 869.032 246.319H579.355C563.356 246.319 550.387 259.296 550.387 275.298V333.255H506.936V144.894H550.387V188.362C550.387 204.364 563.356 217.34 579.355 217.34H869.032C885.031 217.34 898 204.364 898 188.362V43.4681C898 27.466 885.031 14.4894 869.032 14.4894ZM57.9355 173.872V57.9574H347.613V173.872H57.9355ZM608.323 536.106H840.065V623.043H608.323V536.106ZM608.323 304.277H840.065V391.213H608.323V304.277ZM840.065 159.383H608.323V72.4468H840.065V159.383Z" fill="#8D93A5"/>
</svg>
