<svg width="16" height="16" viewBox="0 0 16 16" fill="none" xmlns="http://www.w3.org/2000/svg">
<g clip-path="url(#clip0_43_74)">
<path d="M14 4.75641V4.74991V3.74991C13.9995 3.69252 13.979 3.63709 13.9421 3.59318C13.9051 3.54928 13.854 3.51965 13.7975 3.50941C14.0088 3.32811 14.18 3.10467 14.3 2.85341L14.3045 2.84491C14.4314 2.58117 14.4981 2.29257 14.5 1.99991C14.5025 1.54552 14.3498 1.1039 14.0671 0.748104C13.7845 0.392312 13.3888 0.143671 12.9456 0.0433149C12.5025 -0.0570416 12.0383 -0.00309978 11.6299 0.196216C11.2216 0.395533 10.8935 0.728279 10.7 1.13941C10.6955 1.14591 10.6925 1.15341 10.6885 1.16041C10.4742 1.61168 10.4394 2.12748 10.591 2.60348C10.7425 3.07947 11.0692 3.48013 11.505 3.72441C11.5029 3.73281 11.5012 3.74132 11.5 3.74991V4.65391C11.4362 4.68862 11.3756 4.72895 11.319 4.77441L9.787 5.99991H8.5C8.32399 6.00036 8.15132 6.04802 8 6.13791C7.84856 6.04829 7.67597 6.00065 7.5 5.99991H6.2135L4.68 4.77391C4.62358 4.72893 4.56335 4.68895 4.5 4.65441V3.74991C4.4988 3.74132 4.49713 3.73281 4.495 3.72441C4.93044 3.47971 5.25671 3.07879 5.40782 2.60271C5.55893 2.12663 5.52361 1.61094 5.309 1.15991C5.305 1.15341 5.3025 1.14591 5.298 1.13991C5.1868 0.902068 5.02971 0.688536 4.83576 0.511574C4.64181 0.334612 4.4148 0.197706 4.16779 0.108718C3.92078 0.0197302 3.65862 -0.0195872 3.39638 -0.00697636C3.13413 0.00563452 2.87695 0.0699253 2.63962 0.182204C2.40228 0.294483 2.18947 0.452538 2.01339 0.647294C1.83731 0.84205 1.70144 1.06967 1.61357 1.31708C1.52571 1.5645 1.48758 1.82683 1.50138 2.08902C1.51519 2.35121 1.58064 2.60809 1.694 2.84491L1.6985 2.85341C1.87299 3.21867 2.15422 3.52238 2.505 3.72441C2.50287 3.73281 2.5012 3.74132 2.5 3.74991V4.52541C2.21774 4.58302 1.96405 4.73636 1.78183 4.95949C1.59961 5.18261 1.50006 5.46183 1.5 5.74991V9.24541C1.49952 9.2534 1.49952 9.26142 1.5 9.26941C1.5 9.27741 1.5 9.28441 1.5 9.29241L2.393 15.0749C2.43334 15.3398 2.56977 15.5805 2.77627 15.7512C2.98276 15.9219 3.24486 16.0106 3.51258 16.0004C3.7803 15.9902 4.03489 15.8818 4.2278 15.6959C4.42071 15.51 4.53842 15.2596 4.5585 14.9924L5 9.26891C5 9.26591 5 9.26341 5 9.26041C5 9.25741 5 9.25391 5 9.24991V7.49991L5.067 7.54991C5.45689 7.8412 5.93031 7.99901 6.417 7.99991H7.5C7.67603 7.99908 7.84864 7.95127 8 7.86141C8.15127 7.95147 8.32394 7.9993 8.5 7.99991H9.585C10.0718 7.99991 10.5455 7.84201 10.935 7.54991L11 7.49991V9.24991C11 9.25341 11 9.25641 11 9.26041C11 9.26441 11 9.26591 11 9.26891L11.44 14.9949C11.4613 15.2616 11.5799 15.5112 11.7731 15.6961C11.9664 15.8811 12.2209 15.9887 12.4883 15.9983C12.7556 16.0079 13.0172 15.919 13.2233 15.7484C13.4294 15.5778 13.5656 15.3374 13.606 15.0729L14.4955 9.29191L14.5 9.26791C14.5 9.26041 14.5 9.25291 14.5 9.24541V5.74991C14.5023 5.55637 14.4581 5.36511 14.3711 5.19222C14.2841 5.01933 14.1568 4.86987 14 4.75641ZM2 1.99991C1.99892 1.68443 2.09763 1.3767 2.28202 1.12071C2.46641 0.864731 2.72703 0.673616 3.0266 0.574702C3.32617 0.475789 3.64934 0.474144 3.94991 0.570003C4.25047 0.665863 4.51302 0.854316 4.7 1.10841L2.7 1.50491C2.64353 1.51643 2.59278 1.54712 2.55633 1.59176C2.51989 1.63641 2.49999 1.69228 2.5 1.74991V2.49991H2.092C2.03277 2.33978 2.00165 2.17063 2 1.99991ZM2.39 2.99991H2.75C2.8163 2.99991 2.87989 2.97357 2.92678 2.92669C2.97366 2.8798 3 2.81621 3 2.74991V1.95541L4.9305 1.57241C4.97451 1.71073 4.99793 1.85477 5 1.99991C5.0011 2.30324 4.90987 2.59974 4.73844 2.84998C4.567 3.10023 4.32347 3.29238 4.04021 3.40091C3.75695 3.50944 3.44737 3.5292 3.15261 3.45758C2.85785 3.38595 2.59187 3.22632 2.39 2.99991ZM4 3.92891V4.50841C3.9665 4.50591 3.933 4.49991 3.9 4.49991H3V3.92891C3.16295 3.97385 3.33098 3.99771 3.5 3.99991C3.66902 3.99771 3.83705 3.97385 4 3.92891ZM4.0605 14.9544C4.04825 15.1026 3.98092 15.2408 3.8718 15.3418C3.76267 15.4427 3.61967 15.4992 3.471 15.4999C3.32988 15.5004 3.19327 15.4502 3.08607 15.3585C2.97887 15.2667 2.90822 15.1394 2.887 14.9999L2.0415 9.49991H4.48L4.0605 14.9544ZM6.5 7.49991H6.4165C6.03799 7.49905 5.66982 7.37633 5.3665 7.14991L3.9 6.04991C3.87374 6.03021 3.84385 6.01588 3.81204 6.00773C3.78024 5.99958 3.74714 5.99778 3.71464 6.00242C3.64901 6.0118 3.58978 6.04687 3.55 6.09991C3.51022 6.15295 3.49314 6.21963 3.50251 6.28526C3.51189 6.3509 3.54696 6.41013 3.6 6.44991L4.5255 7.14391C4.50916 7.17688 4.50045 7.21311 4.5 7.24991V8.99991H2V5.74991C2 5.551 2.07902 5.36023 2.21967 5.21958C2.36032 5.07893 2.55109 4.99991 2.75 4.99991H3.9C4.07031 4.99996 4.23554 5.05797 4.3685 5.16441L5.9685 6.44591C6.01295 6.48134 6.06815 6.50056 6.125 6.50041H6.5V7.49991ZM12.5 0.499908C12.8978 0.499908 13.2794 0.657944 13.5607 0.939248C13.842 1.22055 14 1.60208 14 1.99991C13.9984 2.17063 13.9672 2.33978 13.908 2.49991H13.5V1.74991C13.5 1.69228 13.4801 1.63641 13.4437 1.59176C13.4072 1.54712 13.3565 1.51643 13.3 1.50491L11.3 1.10841C11.4385 0.920203 11.6192 0.767108 11.8276 0.661427C12.036 0.555746 12.2663 0.500425 12.5 0.499908ZM11 1.99991C11.0021 1.85477 11.0255 1.71073 11.0695 1.57241L13 1.95541V2.74991C13 2.81621 13.0263 2.8798 13.0732 2.92669C13.1201 2.97357 13.1837 2.99991 13.25 2.99991H13.61C13.4081 3.22632 13.1421 3.38595 12.8474 3.45758C12.5526 3.5292 12.243 3.50944 11.9598 3.40091C11.6765 3.29238 11.433 3.10023 11.2616 2.84998C11.0901 2.59974 10.9989 2.30324 11 1.99991ZM13.5065 3.71841C13.5036 3.72875 13.5014 3.73927 13.5 3.74991V4.52491C13.4177 4.5083 13.334 4.49993 13.25 4.49991H12.1C12.0665 4.49991 12.0335 4.50591 12 4.50841V3.92891C12.252 4.00004 12.516 4.01805 12.7753 3.98182C13.0347 3.94558 13.2836 3.85588 13.5065 3.71841ZM7.5 7.49991H7V6.49991H7.5C7.63261 6.49991 7.75978 6.55259 7.85355 6.64636C7.94732 6.74012 8 6.8673 8 6.99991C8 7.13252 7.94732 7.25969 7.85355 7.35346C7.75978 7.44723 7.63261 7.49991 7.5 7.49991ZM9 7.49991H8.5C8.45697 7.49774 8.41443 7.48984 8.3735 7.47641C8.45613 7.33119 8.49958 7.16699 8.49958 6.99991C8.49958 6.83283 8.45613 6.66862 8.3735 6.52341C8.41443 6.50998 8.45697 6.50208 8.5 6.49991H9V7.49991ZM13.113 14.9959C13.0919 15.1397 13.0186 15.2708 12.907 15.3639C12.7954 15.4571 12.6534 15.5059 12.5081 15.5009C12.3628 15.496 12.2245 15.4377 12.1195 15.3371C12.0145 15.2366 11.9502 15.1008 11.939 14.9559L11.52 9.49991H13.9585L13.113 14.9959ZM14 8.99991H11.5V7.24991C11.4996 7.21332 11.4911 7.17728 11.475 7.14441L12.4 6.44991C12.4263 6.43021 12.4484 6.40553 12.4651 6.37728C12.4818 6.34903 12.4928 6.31776 12.4975 6.28526C12.5021 6.25276 12.5003 6.21967 12.4922 6.18786C12.484 6.15606 12.4697 6.12617 12.45 6.09991C12.4303 6.07364 12.4056 6.05152 12.3774 6.03479C12.3491 6.01806 12.3179 6.00706 12.2854 6.00242C12.2529 5.99778 12.2198 5.99958 12.188 6.00773C12.1562 6.01588 12.1263 6.03021 12.1 6.04991L10.636 7.14991C10.333 7.37687 9.96461 7.49966 9.586 7.49991H9.5V6.49991H9.875C9.93184 6.50006 9.98705 6.48084 10.0315 6.44541L11.6315 5.16441C11.7639 5.05696 11.9295 4.99882 12.1 4.99991H13.25C13.4483 5.00173 13.6381 5.08134 13.7783 5.2216C13.9186 5.36186 13.9982 5.55156 14 5.74991V8.99991Z" fill="#8D92A5"/>
</g>
<defs>
<clipPath id="clip0_43_74">
<rect width="16" height="16" fill="white"/>
</clipPath>
</defs>
</svg>
