<svg width="800" height="800" viewBox="0 0 800 800" fill="none" xmlns="http://www.w3.org/2000/svg">
<path d="M408.462 100.117C405.651 100.039 402.83 100 400 100C234.315 100 100 234.315 100 400C100 565.685 234.315 700 400 700C565.685 700 700 565.685 700 400C700 397.17 699.96 394.35 699.885 391.539L788.21 303.211C795.91 334.203 800 366.625 800 400C800 620.915 620.915 800 400 800C179.086 800 0 620.915 0 400C0 179.086 179.086 0 400 0C433.375 0 465.796 4.08763 496.789 11.7895L408.462 100.117Z" fill="#8D93A5"/>
<path d="M200 399.998C200 306.806 263.739 228.501 350 206.299V313.376C320.11 330.666 300 362.984 300 399.998C300 455.226 344.771 499.998 400 499.998C437.014 499.998 469.331 479.888 486.622 449.998H593.7C571.495 536.26 493.192 600 400 600C289.543 600 200 510.455 200 399.998Z" fill="#8D93A5"/>
<path d="M700 100L650 0L500 150V229.29L389.645 339.645L460.356 410.356L570.71 300H650L800 150L700 100Z" fill="#1C274C"/>
</svg>
