<svg width="734" height="603" viewBox="0 0 734 603" fill="none" xmlns="http://www.w3.org/2000/svg">
<path d="M33.6663 603H300.333C309.174 603 317.652 599.488 323.903 593.237C330.154 586.986 333.666 578.507 333.666 569.667C333.666 560.826 330.154 552.348 323.903 546.096C317.652 539.845 309.174 536.333 300.333 536.333H69.3663C77.4549 480.827 105.238 430.082 147.641 393.364C190.045 356.645 244.241 336.403 300.333 336.333C339.582 336.674 377.714 323.271 408.119 298.449C438.524 273.627 459.287 238.95 466.808 200.426C474.33 161.903 468.137 121.962 449.302 87.5258C430.467 53.0894 400.178 26.3278 363.683 11.8792C327.189 -2.56953 286.789 -3.79473 249.486 8.41589C212.183 20.6265 180.328 45.5034 159.44 78.7351C138.553 111.967 129.951 151.459 135.125 190.367C140.298 229.276 158.921 265.148 187.766 291.767C132.44 314.211 85.0586 352.636 51.6732 402.135C18.2878 451.635 0.413553 509.961 0.333008 569.667C0.333008 578.507 3.8449 586.986 10.0961 593.237C16.3473 599.488 24.8258 603 33.6663 603ZM300.333 69.6667C320.111 69.6667 339.445 75.5316 355.89 86.5197C372.335 97.5079 385.152 113.126 392.721 131.398C400.29 149.671 402.27 169.778 398.412 189.176C394.553 208.574 385.029 226.392 371.044 240.377C357.058 254.363 339.24 263.887 319.842 267.745C300.444 271.604 280.337 269.623 262.065 262.055C243.792 254.486 228.174 241.669 217.186 225.224C206.198 208.779 200.333 189.445 200.333 169.667C200.333 143.145 210.869 117.71 229.622 98.956C248.376 80.2024 273.811 69.6667 300.333 69.6667Z" fill="#8D93A5"/>
<path d="M695.133 423.001H718.7C722.714 423.001 726.563 424.595 729.401 427.433C732.239 430.271 733.833 434.121 733.833 438.134V467.868C733.812 469.855 733.398 471.819 732.618 473.646C731.837 475.474 730.704 477.13 729.283 478.52C727.863 479.91 726.182 481.006 724.337 481.746C722.493 482.487 720.521 482.856 718.533 482.834H694.967C691.864 482.893 688.849 483.876 686.307 485.657C683.766 487.438 681.813 489.937 680.7 492.834V493.034C679.419 495.869 679.017 499.023 679.546 502.089C680.075 505.155 681.51 507.992 683.667 510.234L700.333 526.901C701.743 528.307 702.862 529.977 703.625 531.816C704.389 533.655 704.782 535.626 704.782 537.618C704.782 539.609 704.389 541.58 703.625 543.419C702.862 545.258 701.743 546.928 700.333 548.334L679.333 569.334C677.927 570.744 676.257 571.863 674.418 572.626C672.579 573.39 670.608 573.782 668.617 573.782C666.626 573.782 664.654 573.39 662.815 572.626C660.976 571.863 659.306 570.744 657.9 569.334L641.233 552.668C638.991 550.511 636.154 549.076 633.088 548.547C630.022 548.018 626.868 548.42 624.033 549.701H623.833C620.936 550.814 618.437 552.767 616.656 555.308C614.875 557.85 613.892 560.865 613.833 563.968V587.534C613.833 589.522 613.442 591.489 612.681 593.326C611.921 595.162 610.806 596.83 609.401 598.235C607.996 599.64 606.327 600.755 604.491 601.516C602.655 602.276 600.687 602.668 598.7 602.668H568.967C566.979 602.668 565.011 602.276 563.175 601.516C561.339 600.755 559.671 599.64 558.266 598.235C556.86 596.83 555.746 595.162 554.985 593.326C554.225 591.489 553.833 589.522 553.833 587.534V563.968C553.775 560.865 552.792 557.85 551.01 555.308C549.229 552.767 546.73 550.814 543.833 549.701H543.633C540.798 548.42 537.644 548.018 534.578 548.547C531.513 549.076 528.676 550.511 526.433 552.668L509.767 569.334C508.361 570.744 506.691 571.863 504.852 572.626C503.013 573.39 501.041 573.782 499.05 573.782C497.059 573.782 495.087 573.39 493.248 572.626C491.409 571.863 489.739 570.744 488.333 569.334L467.333 548.334C465.923 546.928 464.805 545.258 464.041 543.419C463.278 541.58 462.885 539.609 462.885 537.618C462.885 535.626 463.278 533.655 464.041 531.816C464.805 529.977 465.923 528.307 467.333 526.901L484 510.234C486.157 507.992 487.592 505.155 488.121 502.089C488.649 499.023 488.248 495.869 486.967 493.034V492.834C485.853 489.937 483.901 487.438 481.359 485.657C478.818 483.876 475.803 482.893 472.7 482.834H449.133C445.12 482.834 441.27 481.24 438.432 478.402C435.594 475.564 434 471.715 434 467.701V437.968C434 433.954 435.594 430.105 438.432 427.267C441.27 424.429 445.12 422.834 449.133 422.834H472.7C475.803 422.776 478.818 421.793 481.359 420.011C483.901 418.23 485.853 415.731 486.967 412.834V412.634C488.248 409.799 488.649 406.645 488.121 403.579C487.592 400.514 486.157 397.677 484 395.434L467.333 378.768C465.923 377.362 464.805 375.691 464.041 373.853C463.278 372.014 462.885 370.042 462.885 368.051C462.885 366.06 463.278 364.088 464.041 362.249C464.805 360.41 465.923 358.74 467.333 357.334L488.333 336.334C489.739 334.924 491.409 333.806 493.248 333.042C495.087 332.279 497.059 331.886 499.05 331.886C501.041 331.886 503.013 332.279 504.852 333.042C506.691 333.806 508.361 334.924 509.767 336.334L526.433 353.001C528.676 355.158 531.513 356.593 534.578 357.122C537.644 357.65 540.798 357.248 543.633 355.968H543.833C546.73 354.854 549.229 352.902 551.01 350.36C552.792 347.819 553.775 344.804 553.833 341.701V318.134C553.833 316.147 554.225 314.179 554.985 312.343C555.746 310.507 556.86 308.839 558.266 307.433C559.671 306.028 561.339 304.913 563.175 304.153C565.011 303.392 566.979 303.001 568.967 303.001H598.7C600.715 302.979 602.715 303.359 604.581 304.12C606.448 304.881 608.143 306.007 609.568 307.432C610.994 308.858 612.12 310.553 612.881 312.42C613.642 314.286 614.022 316.285 614 318.301V341.868C614.059 344.971 615.041 347.986 616.823 350.527C618.604 353.068 621.103 355.021 624 356.134H624.2C627.035 357.415 630.189 357.817 633.255 357.288C636.321 356.76 639.158 355.324 641.4 353.168L658.067 336.501C659.472 335.091 661.143 333.972 662.982 333.209C664.821 332.446 666.792 332.053 668.783 332.053C670.774 332.053 672.746 332.446 674.585 333.209C676.424 333.972 678.094 335.091 679.5 336.501L700.5 357.501C701.91 358.907 703.029 360.577 703.792 362.416C704.555 364.255 704.948 366.227 704.948 368.218C704.948 370.209 704.555 372.18 703.792 374.019C703.029 375.858 701.91 377.528 700.5 378.934L683.833 395.601C681.677 397.843 680.241 400.68 679.713 403.746C679.184 406.812 679.586 409.966 680.867 412.801V413.001C681.98 415.898 683.932 418.397 686.474 420.178C689.015 421.959 692.03 422.942 695.133 423.001Z" fill="#1C274C"/>
<circle cx="584" cy="453" r="47" fill="white"/>
</svg>
