<svg width="200" height="237" viewBox="0 0 200 237" fill="none" xmlns="http://www.w3.org/2000/svg">
<path d="M59.7315 139.598L85.2349 236.242L0 139.598H59.7315Z" fill="#8D93A5"/>
<path d="M60.4027 125.503H0L39.5973 85.906C40.9396 84.5637 42.953 83.8926 44.2953 83.8926H83.8926L60.4027 125.503Z" fill="#8D93A5"/>
<path d="M127.517 125.503H69.1279L100 83.8926L127.517 125.503Z" fill="#8D93A5"/>
<path d="M125.503 139.598L99.9997 236.913L73.8252 139.598H125.503Z" fill="#8D93A5"/>
<path d="M139.597 125.503L116.107 83.8926H155.705C157.718 83.8926 159.06 84.5637 160.403 85.906L200 125.503H139.597Z" fill="#8D93A5"/>
<path d="M140.268 139.598H200L114.094 236.913L140.268 139.598Z" fill="#8D93A5"/>
<path d="M100 39.5973C95.9736 39.5973 93.2891 36.2416 93.2891 32.8859V6.71141C93.2891 2.68456 96.6448 0 100 0C103.356 0 106.712 3.3557 106.712 6.71141V32.2148C106.712 36.2416 103.356 39.5973 100 39.5973Z" fill="#1C274C"/>
<path d="M30.8725 53.6908L18.1208 31.5431C16.1074 28.1874 17.4497 24.1606 20.8054 22.1472C24.1611 20.1337 28.1879 21.476 30.2013 24.8317L42.953 46.9794C44.9664 50.3351 43.6242 54.3619 40.2685 56.3754C36.9128 58.3888 32.8859 57.0465 30.8725 53.6908Z" fill="#1C274C"/>
<path d="M159.06 56.3754C155.705 54.3619 154.362 50.3351 156.376 46.9794L169.127 24.8317C171.141 21.476 175.168 20.1337 178.523 22.1472C181.879 24.1606 183.221 28.1874 181.208 31.5431L168.456 53.6908C167.114 57.0465 162.416 58.3888 159.06 56.3754Z" fill="#1C274C"/>
</svg>
