<svg width="571" height="475" viewBox="0 0 571 475" fill="none" xmlns="http://www.w3.org/2000/svg">
<path d="M559.618 297.831L468.561 53.1163C455.282 20.8671 424.93 0 390.784 0C356.638 0 324.389 20.8671 313.007 53.1163C309.213 62.6013 307.316 72.0864 307.316 81.5714V189.701H259.89V83.4684C259.89 37.9402 221.95 0 176.422 0C144.173 0 111.924 20.8671 100.542 53.1163L7.58804 297.831C1.89701 313.007 0 328.183 0 343.359C0 415.445 58.8073 474.253 130.894 474.253C202.98 474.253 261.787 415.445 261.787 343.359V331.977H309.213V343.359C309.213 415.445 368.02 474.253 440.106 474.253C512.193 474.253 571 415.445 571 343.359C569.103 328.183 565.309 313.007 559.618 297.831ZM130.894 426.827C85.3654 426.827 47.4252 388.887 47.4252 343.359C47.4252 333.874 49.3223 324.389 53.1163 314.904C64.4983 282.655 96.7475 261.787 130.894 261.787C176.422 261.787 214.362 299.728 214.362 345.256C214.362 390.784 176.422 426.827 130.894 426.827ZM438.209 426.827C392.681 426.827 354.741 388.887 354.741 343.359C354.741 297.831 392.681 259.89 438.209 259.89C472.355 259.89 504.605 280.757 515.987 313.007C519.781 322.492 521.678 331.977 521.678 341.462C521.678 388.887 483.738 426.827 438.209 426.827Z" fill="#8D93A5"/>
<circle cx="130" cy="345" r="36" fill="#1C274C"/>
<circle cx="439" cy="345" r="36" fill="#1C274C"/>
</svg>
